<svg xmlns="http://www.w3.org/2000/svg" xmlns:xlink="http://www.w3.org/1999/xlink" width="500" zoomAndPan="magnify" viewBox="0 0 375 374.999991" height="500" preserveAspectRatio="xMidYMid meet" version="1.0"><defs><clipPath id="3c38a2bcfe"><path d="M 20 86 L 284 86 L 284 361 L 20 361 Z M 20 86 " clip-rule="nonzero"/></clipPath><clipPath id="2a15402d26"><path d="M 122.195312 -36.613281 L 388.855469 37.4375 L 280.488281 427.667969 L 13.828125 353.617188 Z M 122.195312 -36.613281 " clip-rule="nonzero"/></clipPath><clipPath id="36f1b4ca5a"><path d="M 122.195312 -36.613281 L 388.855469 37.4375 L 280.488281 427.667969 L 13.828125 353.617188 Z M 122.195312 -36.613281 " clip-rule="nonzero"/></clipPath><clipPath id="d124f02623"><path d="M 137 106 L 204 106 L 204 178 L 137 178 Z M 137 106 " clip-rule="nonzero"/></clipPath><clipPath id="8cd7b18783"><path d="M 122.195312 -36.613281 L 388.855469 37.4375 L 280.488281 427.667969 L 13.828125 353.617188 Z M 122.195312 -36.613281 " clip-rule="nonzero"/></clipPath><clipPath id="d80170a091"><path d="M 122.195312 -36.613281 L 388.855469 37.4375 L 280.488281 427.667969 L 13.828125 353.617188 Z M 122.195312 -36.613281 " clip-rule="nonzero"/></clipPath><clipPath id="3241e5e49e"><path d="M 143 213 L 216 213 L 216 268 L 143 268 Z M 143 213 " clip-rule="nonzero"/></clipPath><clipPath id="c36165d182"><path d="M 122.195312 -36.613281 L 388.855469 37.4375 L 280.488281 427.667969 L 13.828125 353.617188 Z M 122.195312 -36.613281 " clip-rule="nonzero"/></clipPath><clipPath id="b5b646bf3e"><path d="M 122.195312 -36.613281 L 388.855469 37.4375 L 280.488281 427.667969 L 13.828125 353.617188 Z M 122.195312 -36.613281 " clip-rule="nonzero"/></clipPath><clipPath id="ee8e380284"><path d="M 64 231 L 113 231 L 113 286 L 64 286 Z M 64 231 " clip-rule="nonzero"/></clipPath><clipPath id="f55d0f3ce6"><path d="M 122.195312 -36.613281 L 388.855469 37.4375 L 280.488281 427.667969 L 13.828125 353.617188 Z M 122.195312 -36.613281 " clip-rule="nonzero"/></clipPath><clipPath id="ba628a1daa"><path d="M 122.195312 -36.613281 L 388.855469 37.4375 L 280.488281 427.667969 L 13.828125 353.617188 Z M 122.195312 -36.613281 " clip-rule="nonzero"/></clipPath><clipPath id="bbf2c7ddd9"><path d="M 204 3 L 358 3 L 358 153 L 204 153 Z M 204 3 " clip-rule="nonzero"/></clipPath><clipPath id="8c004159a2"><path d="M 122.195312 -36.613281 L 388.855469 37.4375 L 280.488281 427.667969 L 13.828125 353.617188 Z M 122.195312 -36.613281 " clip-rule="nonzero"/></clipPath><clipPath id="1f9adf3950"><path d="M 122.195312 -36.613281 L 388.855469 37.4375 L 280.488281 427.667969 L 13.828125 353.617188 Z M 122.195312 -36.613281 " clip-rule="nonzero"/></clipPath></defs><g clip-path="url(#3c38a2bcfe)"><g clip-path="url(#2a15402d26)"><g clip-path="url(#36f1b4ca5a)"><path fill="#ff9800" d="M 36.53125 359.992188 C 33.074219 359.023438 30.035156 357.316406 27.414062 354.871094 C 26.578125 354.109375 25.808594 353.289062 25.101562 352.40625 C 24.394531 351.527344 23.761719 350.597656 23.199219 349.617188 C 22.636719 348.636719 22.152344 347.621094 21.75 346.566406 C 21.34375 345.511719 21.023438 344.433594 20.789062 343.328125 C 20.550781 342.226562 20.402344 341.109375 20.339844 339.984375 C 20.277344 338.855469 20.300781 337.730469 20.414062 336.605469 C 20.523438 335.484375 20.722656 334.375 21.007812 333.28125 C 21.289062 332.191406 21.65625 331.125 22.105469 330.089844 C 50.855469 262.441406 104.3125 143.621094 139.28125 107.886719 C 153.492188 93.363281 169.578125 86.140625 187.089844 86.421875 C 219.28125 86.917969 244.882812 112.765625 248.242188 116.308594 C 252.03125 119.386719 279.761719 142.921875 282.753906 174.976562 C 284.382812 192.414062 278.421875 209.011719 265.035156 224.296875 C 232.097656 261.921875 117.75 324.371094 52.523438 358.25 C 50.066406 359.546875 47.453125 360.34375 44.691406 360.644531 C 41.929688 360.945312 39.210938 360.726562 36.53125 359.992188 Z M 33.296875 334.847656 C 32.898438 335.78125 32.652344 336.753906 32.554688 337.765625 C 32.457031 338.777344 32.515625 339.777344 32.730469 340.773438 C 32.941406 341.765625 33.300781 342.703125 33.800781 343.585938 C 34.304688 344.46875 34.925781 345.253906 35.671875 345.945312 C 36.417969 346.632812 37.25 347.195312 38.167969 347.628906 C 39.085938 348.058594 40.050781 348.34375 41.054688 348.480469 C 42.0625 348.613281 43.066406 348.59375 44.066406 348.421875 C 45.066406 348.246094 46.015625 347.925781 46.917969 347.457031 C 98.820312 320.5 223.078125 253.757812 255.882812 216.289062 C 266.96875 203.628906 271.933594 190.128906 270.652344 176.167969 C 268.03125 147.726562 240.613281 125.78125 240.339844 125.5625 C 240.082031 125.359375 239.839844 125.136719 239.621094 124.894531 C 239.386719 124.640625 215.386719 99.007812 186.832031 98.582031 C 172.816406 98.375 159.742188 104.371094 147.972656 116.394531 C 113.148438 151.984375 56.175781 281.023438 33.296875 334.847656 Z M 33.296875 334.847656 " fill-opacity="1" fill-rule="nonzero"/></g></g></g><g clip-path="url(#d124f02623)"><g clip-path="url(#8cd7b18783)"><g clip-path="url(#d80170a091)"><path fill="#ff9800" d="M 195.6875 177.175781 C 194.742188 176.914062 193.910156 176.449219 193.191406 175.78125 C 173.222656 157.390625 155.0625 137.367188 138.699219 115.707031 C 138.464844 115.382812 138.261719 115.042969 138.09375 114.679688 C 137.925781 114.316406 137.796875 113.9375 137.703125 113.550781 C 137.609375 113.160156 137.554688 112.765625 137.539062 112.367188 C 137.523438 111.96875 137.542969 111.570312 137.609375 111.175781 C 137.671875 110.777344 137.769531 110.394531 137.910156 110.019531 C 138.046875 109.644531 138.222656 109.285156 138.429688 108.945312 C 138.640625 108.601562 138.882812 108.285156 139.152344 107.992188 C 139.425781 107.699219 139.722656 107.433594 140.046875 107.199219 C 140.371094 106.964844 140.714844 106.765625 141.078125 106.597656 C 141.441406 106.429688 141.820312 106.300781 142.207031 106.207031 C 142.597656 106.117188 142.992188 106.0625 143.390625 106.046875 C 143.792969 106.035156 144.1875 106.058594 144.582031 106.121094 C 144.980469 106.1875 145.363281 106.289062 145.738281 106.425781 C 146.113281 106.566406 146.472656 106.742188 146.8125 106.953125 C 147.152344 107.164062 147.46875 107.40625 147.761719 107.679688 C 148.054688 107.949219 148.316406 108.25 148.550781 108.574219 C 164.476562 129.550781 182.113281 148.980469 201.457031 166.855469 C 201.957031 167.320312 202.367188 167.851562 202.6875 168.453125 C 203.007812 169.054688 203.222656 169.691406 203.328125 170.367188 C 203.4375 171.039062 203.429688 171.710938 203.308594 172.382812 C 203.191406 173.054688 202.964844 173.6875 202.632812 174.285156 C 202.300781 174.878906 201.878906 175.402344 201.367188 175.859375 C 200.859375 176.3125 200.289062 176.667969 199.660156 176.933594 C 199.03125 177.195312 198.375 177.347656 197.695312 177.386719 C 197.015625 177.429688 196.347656 177.359375 195.6875 177.175781 Z M 195.6875 177.175781 " fill-opacity="1" fill-rule="nonzero"/></g></g></g><g clip-path="url(#3241e5e49e)"><g clip-path="url(#c36165d182)"><g clip-path="url(#b5b646bf3e)"><path fill="#ff9800" d="M 207.644531 267.128906 C 205.761719 266.609375 184.867188 260.191406 145.414062 223.667969 C 145.121094 223.398438 144.859375 223.101562 144.625 222.777344 C 144.390625 222.453125 144.191406 222.109375 144.023438 221.75 C 143.859375 221.386719 143.726562 221.011719 143.636719 220.621094 C 143.542969 220.234375 143.488281 219.839844 143.472656 219.441406 C 143.457031 219.042969 143.484375 218.644531 143.546875 218.253906 C 143.609375 217.859375 143.710938 217.472656 143.847656 217.097656 C 143.988281 216.726562 144.160156 216.367188 144.367188 216.027344 C 144.578125 215.6875 144.816406 215.371094 145.089844 215.078125 C 145.359375 214.785156 145.65625 214.523438 145.980469 214.289062 C 146.304688 214.054688 146.648438 213.851562 147.007812 213.6875 C 147.371094 213.519531 147.746094 213.390625 148.136719 213.296875 C 148.523438 213.203125 148.917969 213.148438 149.316406 213.132812 C 149.714844 213.117188 150.109375 213.144531 150.503906 213.207031 C 150.898438 213.269531 151.285156 213.367188 151.65625 213.507812 C 152.03125 213.644531 152.390625 213.820312 152.730469 214.027344 C 153.070312 214.234375 153.386719 214.476562 153.679688 214.746094 C 191.410156 249.671875 210.679688 255.351562 210.867188 255.402344 C 211.25 255.507812 211.621094 255.648438 211.976562 255.824219 C 212.332031 256.003906 212.664062 256.210938 212.980469 256.457031 C 213.292969 256.699219 213.582031 256.96875 213.84375 257.269531 C 214.105469 257.566406 214.335938 257.890625 214.53125 258.234375 C 214.730469 258.578125 214.894531 258.9375 215.023438 259.3125 C 215.148438 259.691406 215.238281 260.074219 215.292969 260.46875 C 215.34375 260.863281 215.355469 261.257812 215.332031 261.652344 C 215.308594 262.050781 215.242188 262.441406 215.140625 262.824219 C 215.039062 263.207031 214.902344 263.578125 214.726562 263.9375 C 214.554688 264.292969 214.347656 264.628906 214.105469 264.945312 C 213.867188 265.261719 213.597656 265.550781 213.300781 265.816406 C 213.003906 266.078125 212.683594 266.3125 212.34375 266.511719 C 212 266.714844 211.640625 266.878906 211.265625 267.011719 C 210.890625 267.140625 210.507812 267.234375 210.113281 267.289062 C 209.71875 267.347656 209.324219 267.363281 208.929688 267.339844 C 208.53125 267.320312 208.140625 267.257812 207.753906 267.160156 Z M 207.644531 267.128906 " fill-opacity="1" fill-rule="nonzero"/></g></g></g><g clip-path="url(#ee8e380284)"><g clip-path="url(#f55d0f3ce6)"><g clip-path="url(#ba628a1daa)"><path fill="#ff9800" d="M 104.304688 285.429688 C 103.359375 285.164062 102.523438 284.699219 101.804688 284.03125 C 71.644531 256.109375 65.132812 241.730469 64.488281 240.183594 C 64.332031 239.816406 64.21875 239.4375 64.140625 239.046875 C 64.0625 238.65625 64.023438 238.261719 64.019531 237.863281 C 64.019531 237.464844 64.058594 237.070312 64.132812 236.679688 C 64.210938 236.289062 64.324219 235.910156 64.476562 235.542969 C 64.625 235.175781 64.8125 234.824219 65.03125 234.492188 C 65.25 234.160156 65.5 233.851562 65.78125 233.570312 C 66.0625 233.289062 66.367188 233.035156 66.695312 232.8125 C 67.027344 232.589844 67.375 232.398438 67.742188 232.246094 C 68.109375 232.089844 68.484375 231.972656 68.875 231.894531 C 69.265625 231.8125 69.660156 231.769531 70.058594 231.769531 C 70.457031 231.765625 70.851562 231.800781 71.242188 231.875 C 71.632812 231.949219 72.011719 232.0625 72.382812 232.210938 C 72.75 232.359375 73.101562 232.542969 73.433594 232.761719 C 73.765625 232.980469 74.074219 233.230469 74.359375 233.507812 C 74.644531 233.785156 74.898438 234.089844 75.121094 234.417969 C 75.347656 234.746094 75.539062 235.09375 75.695312 235.460938 C 75.839844 235.777344 82.046875 249.160156 110.070312 275.105469 C 110.570312 275.570312 110.980469 276.101562 111.304688 276.703125 C 111.625 277.304688 111.835938 277.945312 111.945312 278.617188 C 112.050781 279.292969 112.042969 279.964844 111.925781 280.636719 C 111.804688 281.304688 111.578125 281.941406 111.246094 282.535156 C 110.914062 283.128906 110.492188 283.65625 109.984375 284.109375 C 109.476562 284.5625 108.90625 284.921875 108.277344 285.183594 C 107.648438 285.445312 106.992188 285.597656 106.3125 285.640625 C 105.628906 285.683594 104.960938 285.613281 104.304688 285.429688 Z M 104.304688 285.429688 " fill-opacity="1" fill-rule="nonzero"/></g></g></g><g clip-path="url(#bbf2c7ddd9)"><g clip-path="url(#8c004159a2)"><g clip-path="url(#1f9adf3950)"><path fill="#ff9800" d="M 264.695312 152.214844 C 264.34375 152.117188 264.003906 151.988281 263.675781 151.828125 C 263.347656 151.671875 263.039062 151.484375 262.742188 151.269531 C 262.449219 151.054688 262.175781 150.816406 261.921875 150.550781 C 261.671875 150.289062 261.445312 150.003906 261.246094 149.699219 C 261.046875 149.394531 260.875 149.078125 260.730469 148.742188 C 260.585938 148.40625 260.476562 148.0625 260.394531 147.707031 C 260.3125 147.351562 260.265625 146.992188 260.25 146.628906 C 260.230469 146.261719 260.25 145.902344 260.296875 145.539062 C 260.347656 145.179688 260.425781 144.824219 260.539062 144.476562 C 260.652344 144.132812 260.792969 143.796875 260.964844 143.476562 C 261.136719 143.15625 261.339844 142.851562 261.566406 142.566406 C 261.792969 142.28125 262.042969 142.019531 262.316406 141.78125 C 262.589844 141.539062 262.882812 141.324219 263.195312 141.136719 C 263.507812 140.949219 263.835938 140.792969 264.175781 140.664062 C 264.515625 140.535156 264.867188 140.4375 265.226562 140.371094 C 265.582031 140.304688 265.945312 140.273438 266.308594 140.273438 C 298.230469 140.183594 345.519531 133.019531 345.65625 117.914062 C 345.71875 116.714844 345.65625 115.519531 345.472656 114.335938 C 345.285156 113.148438 344.980469 111.992188 344.554688 110.867188 C 344.132812 109.742188 343.597656 108.675781 342.949219 107.660156 C 342.304688 106.648438 341.5625 105.710938 340.722656 104.851562 C 332.058594 96.097656 315.066406 95.96875 314.890625 95.96875 C 314.300781 95.96875 313.71875 95.882812 313.152344 95.714844 C 312.585938 95.542969 312.058594 95.296875 311.5625 94.972656 C 311.066406 94.648438 310.628906 94.261719 310.246094 93.808594 C 309.867188 93.359375 309.558594 92.863281 309.320312 92.320312 C 309.082031 91.777344 308.929688 91.214844 308.855469 90.628906 C 308.785156 90.042969 308.796875 89.457031 308.894531 88.875 C 308.992188 88.289062 309.171875 87.734375 309.433594 87.203125 C 309.695312 86.671875 310.023438 86.191406 310.425781 85.753906 C 311.210938 84.898438 329.753906 64.296875 315.992188 47.464844 C 301.910156 30.238281 272.042969 44.238281 271.742188 44.378906 C 271.304688 44.589844 270.851562 44.742188 270.378906 44.84375 C 269.90625 44.945312 269.429688 44.988281 268.949219 44.976562 C 268.464844 44.960938 267.992188 44.894531 267.523438 44.765625 C 267.058594 44.640625 266.613281 44.460938 266.191406 44.230469 C 265.765625 44 265.375 43.722656 265.019531 43.394531 C 264.660156 43.070312 264.347656 42.710938 264.074219 42.308594 C 263.804688 41.910156 263.582031 41.484375 263.414062 41.03125 C 263.242188 40.582031 263.128906 40.117188 263.070312 39.636719 C 262.730469 36.992188 259.160156 13.71875 238.742188 16.160156 C 223.875 17.945312 217.070312 65.96875 217.152344 97.859375 C 217.152344 98.257812 217.113281 98.65625 217.035156 99.046875 C 216.960938 99.4375 216.84375 99.820312 216.691406 100.1875 C 216.542969 100.558594 216.355469 100.910156 216.132812 101.242188 C 215.914062 101.574219 215.660156 101.882812 215.378906 102.164062 C 215.097656 102.449219 214.792969 102.699219 214.460938 102.921875 C 214.128906 103.144531 213.777344 103.335938 213.410156 103.488281 C 213.039062 103.640625 212.660156 103.757812 212.269531 103.835938 C 211.878906 103.914062 211.480469 103.957031 211.082031 103.957031 C 210.683594 103.957031 210.289062 103.917969 209.894531 103.84375 C 209.503906 103.765625 209.125 103.652344 208.753906 103.5 C 208.386719 103.347656 208.035156 103.160156 207.703125 102.941406 C 207.367188 102.71875 207.0625 102.46875 206.777344 102.1875 C 206.496094 101.902344 206.242188 101.597656 206.019531 101.265625 C 205.796875 100.933594 205.609375 100.585938 205.453125 100.214844 C 205.300781 99.847656 205.183594 99.46875 205.105469 99.074219 C 205.027344 98.683594 204.988281 98.289062 204.984375 97.890625 C 204.949219 82.878906 206.324219 7.800781 237.296875 4.085938 C 259.042969 1.472656 269.628906 17.539062 273.535156 30.613281 C 285.621094 26.511719 310.296875 21.28125 325.410156 39.765625 C 337.996094 55.160156 333.128906 73.023438 325.996094 85.007812 C 330.351562 85.703125 334.511719 87.003906 338.484375 88.921875 C 342.457031 90.835938 346.066406 93.277344 349.320312 96.253906 C 350.738281 97.679688 351.992188 99.234375 353.089844 100.921875 C 354.183594 102.605469 355.097656 104.382812 355.828125 106.257812 C 356.558594 108.128906 357.09375 110.058594 357.425781 112.039062 C 357.761719 114.019531 357.890625 116.015625 357.816406 118.023438 C 357.523438 150.566406 281.5625 152.398438 266.34375 152.4375 C 265.78125 152.4375 265.234375 152.363281 264.695312 152.214844 Z M 264.695312 152.214844 " fill-opacity="1" fill-rule="nonzero"/></g></g></g></svg>