<svg xmlns="http://www.w3.org/2000/svg" xmlns:xlink="http://www.w3.org/1999/xlink" width="500" zoomAndPan="magnify" viewBox="0 0 375 374.999991" height="500" preserveAspectRatio="xMidYMid meet" version="1.0"><defs><clipPath id="5bef108a17"><path d="M 0 21.34375 L 375 21.34375 L 375 353.59375 L 0 353.59375 Z M 0 21.34375 " clip-rule="nonzero"/></clipPath></defs><g clip-path="url(#5bef108a17)"><path fill="#ff9800" d="M 366.074219 30.277344 C 360.316406 24.523438 352.664062 21.351562 344.527344 21.351562 L 30.472656 21.351562 C 22.332031 21.351562 14.683594 24.523438 8.925781 30.277344 C 3.171875 36.03125 0.00390625 43.683594 0.00390625 51.824219 L 0.00390625 260.898438 C 0.00390625 269.035156 3.171875 276.6875 8.925781 282.445312 C 14.679688 288.199219 22.332031 291.367188 30.472656 291.367188 L 141.832031 291.367188 L 123.5625 342.523438 L 92.304688 342.523438 C 89.238281 342.523438 86.746094 345.019531 86.746094 348.085938 C 86.746094 351.152344 89.238281 353.644531 92.304688 353.644531 L 282.695312 353.644531 C 285.761719 353.644531 288.253906 351.148438 288.253906 348.085938 C 288.253906 345.019531 285.761719 342.523438 282.695312 342.523438 L 251.4375 342.523438 L 233.167969 291.367188 L 344.527344 291.367188 C 352.667969 291.367188 360.320312 288.199219 366.074219 282.445312 C 371.828125 276.6875 375 269.035156 375 260.898438 L 375 51.824219 C 374.996094 43.683594 371.828125 36.03125 366.074219 30.277344 Z M 239.628906 342.523438 L 135.371094 342.523438 L 153.640625 291.367188 L 221.359375 291.367188 Z M 363.878906 260.894531 C 363.878906 271.566406 355.195312 280.246094 344.527344 280.246094 L 30.472656 280.246094 C 19.804688 280.246094 11.125 271.566406 11.125 260.894531 L 11.125 239.160156 L 363.878906 239.160156 Z M 363.878906 228.042969 L 11.121094 228.042969 L 11.121094 51.824219 C 11.121094 41.15625 19.800781 32.472656 30.472656 32.472656 L 344.527344 32.472656 C 355.195312 32.472656 363.878906 41.15625 363.878906 51.824219 Z M 363.878906 228.042969 " fill-opacity="1" fill-rule="nonzero"/></g><path fill="#ff9800" d="M 187.5 274.027344 C 195.398438 274.027344 201.824219 267.601562 201.824219 259.703125 C 201.824219 251.808594 195.398438 245.382812 187.5 245.382812 C 179.601562 245.382812 173.175781 251.808594 173.175781 259.703125 C 173.175781 267.601562 179.601562 274.027344 187.5 274.027344 Z M 187.5 255.484375 C 189.828125 255.484375 191.71875 257.378906 191.71875 259.703125 C 191.71875 262.03125 189.828125 263.925781 187.5 263.925781 C 185.171875 263.925781 183.28125 262.03125 183.28125 259.703125 C 183.28125 257.378906 185.171875 255.484375 187.5 255.484375 Z M 187.5 255.484375 " fill-opacity="1" fill-rule="nonzero"/></svg>