<svg xmlns="http://www.w3.org/2000/svg" xmlns:xlink="http://www.w3.org/1999/xlink" width="500" zoomAndPan="magnify" viewBox="0 0 375 374.999991" height="500" preserveAspectRatio="xMidYMid meet" version="1.0"><path fill="#bc3fde" d="M 310.851562 121.054688 L 22.113281 121.054688 C 18.226562 121.054688 15.070312 117.902344 15.070312 114.011719 C 15.070312 110.121094 18.226562 106.964844 22.113281 106.964844 L 310.847656 106.964844 C 314.734375 106.964844 317.890625 110.121094 317.890625 114.011719 C 317.894531 117.902344 314.738281 121.054688 310.851562 121.054688 Z M 310.851562 121.054688 " fill-opacity="1" fill-rule="nonzero"/><path fill="#bc3fde" d="M 113.304688 92.183594 L 107.125 92.183594 C 94.34375 92.183594 83.941406 81.789062 83.941406 69.011719 L 83.941406 23.308594 C 83.941406 10.53125 94.34375 0.136719 107.125 0.136719 L 113.304688 0.136719 C 126.082031 0.136719 136.476562 10.53125 136.476562 23.308594 L 136.476562 69.011719 C 136.476562 81.789062 126.082031 92.183594 113.304688 92.183594 Z M 107.125 14.222656 C 102.113281 14.222656 98.03125 18.296875 98.03125 23.308594 L 98.03125 69.011719 C 98.03125 74.019531 102.113281 78.097656 107.125 78.097656 L 113.304688 78.097656 C 118.316406 78.097656 122.390625 74.015625 122.390625 69.011719 L 122.390625 23.308594 C 122.390625 18.296875 118.3125 14.222656 113.304688 14.222656 Z M 107.125 14.222656 " fill-opacity="1" fill-rule="nonzero"/><path fill="#bc3fde" d="M 274.710938 92.183594 L 268.5 92.183594 C 255.726562 92.183594 245.332031 81.789062 245.332031 69.011719 L 245.332031 23.308594 C 245.332031 10.53125 255.726562 0.136719 268.5 0.136719 L 274.710938 0.136719 C 287.480469 0.136719 297.878906 10.53125 297.878906 23.308594 L 297.878906 69.011719 C 297.878906 81.789062 287.488281 92.183594 274.710938 92.183594 Z M 268.503906 14.222656 C 263.496094 14.222656 259.425781 18.296875 259.425781 23.308594 L 259.425781 69.011719 C 259.425781 74.019531 263.5 78.097656 268.503906 78.097656 L 274.714844 78.097656 C 279.722656 78.097656 283.796875 74.015625 283.796875 69.011719 L 283.796875 23.308594 C 283.796875 18.296875 279.714844 14.222656 274.714844 14.222656 Z M 268.503906 14.222656 " fill-opacity="1" fill-rule="nonzero"/><path fill="#bc3fde" d="M 224.976562 53.605469 L 158.945312 53.605469 C 155.054688 53.605469 151.898438 50.453125 151.898438 46.5625 C 151.898438 42.671875 155.054688 39.515625 158.945312 39.515625 L 224.976562 39.515625 C 228.871094 39.515625 232.019531 42.671875 232.019531 46.5625 C 232.019531 50.453125 228.871094 53.605469 224.976562 53.605469 Z M 224.976562 53.605469 " fill-opacity="1" fill-rule="nonzero"/><path fill="#bc3fde" d="M 251.488281 375.328125 C 248.566406 375.328125 245.925781 373.511719 244.890625 370.746094 C 243.828125 367.878906 244.726562 364.65625 247.121094 362.757812 C 248.441406 361.703125 278.222656 337.308594 262.683594 298.742188 C 261.578125 296.003906 262.304688 292.863281 264.496094 290.882812 C 266.6875 288.90625 269.875 288.5 272.496094 289.875 C 272.597656 289.929688 284.539062 296.039062 298.957031 296.039062 C 319.960938 296.039062 335.320312 283.289062 344.597656 258.136719 C 345.757812 255 348.976562 253.097656 352.269531 253.617188 C 355.578125 254.117188 358.074219 256.882812 358.242188 260.222656 C 358.339844 262.179688 360.304688 308.558594 329.792969 342.214844 C 311.300781 362.605469 285.070312 373.746094 251.820312 375.320312 C 251.710938 375.324219 251.605469 375.328125 251.488281 375.328125 Z M 279.964844 307.546875 C 284.347656 329.980469 276.574219 347.8125 268.714844 359.308594 C 289.804688 355.511719 306.792969 346.609375 319.359375 332.757812 C 330.648438 320.3125 336.828125 305.59375 340.203125 292.726562 C 327.003906 306.53125 311.519531 310.132812 298.960938 310.132812 C 291.859375 310.128906 285.324219 308.972656 279.964844 307.546875 Z M 279.964844 307.546875 " fill-opacity="1" fill-rule="nonzero"/><path fill="#bc3fde" d="M 336.101562 375.328125 L 37.222656 375.328125 C 25.007812 375.328125 15.070312 365.394531 15.070312 353.179688 L 15.070312 61.679688 C 15.070312 49.460938 25.003906 39.515625 37.222656 39.515625 L 60.0625 39.515625 C 63.949219 39.515625 67.105469 42.671875 67.105469 46.5625 C 67.105469 50.453125 63.949219 53.605469 60.0625 53.605469 L 37.222656 53.605469 C 32.773438 53.605469 29.160156 57.230469 29.160156 61.679688 L 29.160156 353.179688 C 29.160156 357.625 32.773438 361.238281 37.222656 361.238281 L 336.101562 361.238281 C 340.550781 361.238281 344.171875 357.625 344.171875 353.179688 L 344.171875 61.679688 C 344.171875 57.230469 340.550781 53.605469 336.101562 53.605469 L 316.808594 53.605469 C 312.914062 53.605469 309.761719 50.453125 309.761719 46.5625 C 309.761719 42.671875 312.914062 39.515625 316.808594 39.515625 L 336.101562 39.515625 C 348.316406 39.515625 358.261719 49.457031 358.261719 61.679688 L 358.261719 353.179688 C 358.261719 365.394531 348.316406 375.328125 336.101562 375.328125 Z M 336.101562 375.328125 " fill-opacity="1" fill-rule="nonzero"/><path fill="#bc3fde" d="M 185.53125 319.25 C 183.789062 319.25 182.089844 318.730469 180.484375 317.699219 C 155.183594 299.613281 135.96875 283.246094 119.730469 265.988281 C 110.65625 256.207031 103.980469 247.320312 98.683594 237.984375 C 88.691406 220.359375 89.652344 201.519531 101.542969 181.988281 C 110.023438 168.144531 122.074219 159.710938 137.390625 156.910156 C 155.769531 153.570312 174.273438 161.042969 185.535156 175.671875 C 186.894531 173.90625 188.347656 172.253906 189.910156 170.691406 C 199.035156 161.480469 211.910156 156.1875 225.199219 156.1875 C 236.71875 156.1875 247.84375 160.136719 256.511719 167.3125 C 271.09375 179.351562 278.742188 195.199219 279.246094 214.417969 C 279.449219 223.292969 276.117188 230.847656 272.828125 237.058594 C 265.574219 250.699219 255.757812 261.554688 247.113281 270.367188 C 231.699219 286.039062 213.441406 301.328125 191.273438 317.128906 C 190.433594 317.769531 188.464844 319.25 185.53125 319.25 Z M 146.371094 170.1875 C 144.226562 170.1875 142.054688 170.386719 139.902344 170.773438 C 128.554688 172.851562 119.933594 178.921875 113.566406 189.328125 C 104.285156 204.574219 103.449219 217.835938 110.933594 231.035156 C 115.675781 239.398438 121.738281 247.449219 130.019531 256.375 C 144.957031 272.242188 162.648438 287.429688 185.476562 303.953125 C 205.890625 289.242188 222.785156 275.011719 237.054688 260.503906 C 244.984375 252.414062 253.96875 242.503906 260.367188 230.460938 C 262.804688 225.863281 265.28125 220.394531 265.148438 214.769531 C 264.75 199.613281 258.992188 187.640625 247.523438 178.171875 C 241.371094 173.082031 233.441406 170.28125 225.191406 170.28125 C 215.628906 170.28125 206.402344 174.054688 199.882812 180.636719 C 196.730469 183.785156 194.179688 187.460938 191.835938 192.242188 C 190.675781 194.609375 188.285156 196.125 185.65625 196.179688 C 183.015625 196.167969 180.574219 194.8125 179.324219 192.503906 C 178.894531 191.71875 178.597656 191.136719 178.328125 190.609375 L 177.964844 189.914062 C 171.488281 177.558594 159.6875 170.1875 146.371094 170.1875 Z M 146.371094 170.1875 " fill-opacity="1" fill-rule="nonzero"/><path fill="#bc3fde" d="M 239.179688 228.214844 C 237.6875 228.214844 236.183594 227.746094 234.90625 226.765625 C 231.816406 224.40625 231.21875 219.984375 233.585938 216.890625 C 236.257812 213.402344 236.875 208.0625 235.144531 203.609375 C 234.328125 201.519531 232.277344 197.898438 227.726562 197.089844 C 223.898438 196.414062 221.339844 192.761719 222.015625 188.921875 C 222.695312 185.089844 226.339844 182.527344 230.183594 183.210938 C 238.460938 184.679688 245.050781 190.246094 248.265625 198.488281 C 251.773438 207.496094 250.410156 218.078125 244.78125 225.441406 C 243.398438 227.265625 241.296875 228.214844 239.179688 228.214844 Z M 239.179688 228.214844 " fill-opacity="1" fill-rule="nonzero"/><path fill="#bc3fde" d="M 227.894531 248.753906 C 227.722656 248.753906 227.542969 248.75 227.363281 248.738281 C 223.480469 248.539062 220.488281 245.226562 220.691406 241.339844 C 220.808594 239.019531 222.035156 237.027344 223.832031 235.832031 C 224.796875 234.839844 226.046875 234.121094 227.507812 233.824219 C 231.292969 233.058594 235.027344 235.523438 235.804688 239.34375 C 236.289062 241.777344 235.675781 244.210938 234.109375 246.027344 C 233.210938 247.066406 231.242188 248.753906 227.894531 248.753906 Z M 227.894531 248.753906 " fill-opacity="1" fill-rule="nonzero"/></svg>