<svg xmlns="http://www.w3.org/2000/svg" xmlns:xlink="http://www.w3.org/1999/xlink" width="500" zoomAndPan="magnify" viewBox="0 0 375 374.999991" height="500" preserveAspectRatio="xMidYMid meet" version="1.0"><path fill="#bc3fde" d="M 246.941406 42.828125 L 260.253906 5.199219 L 245.558594 0 L 232.25 37.632812 C 234.726562 38.371094 237.195312 39.171875 239.65625 40.042969 C 242.125 40.914062 244.550781 41.847656 246.941406 42.828125 " fill-opacity="1" fill-rule="nonzero"/><path fill="#bc3fde" d="M 128.066406 332.171875 L 114.753906 369.800781 L 129.449219 375 L 142.761719 337.367188 C 140.28125 336.625 137.808594 335.824219 135.34375 334.949219 C 132.882812 334.082031 130.457031 333.148438 128.066406 332.171875 " fill-opacity="1" fill-rule="nonzero"/><path fill="#bc3fde" d="M 110.042969 7.148438 L 95.96875 13.867188 L 113.167969 49.890625 C 117.742188 47.417969 122.441406 45.175781 127.238281 43.171875 L 110.042969 7.148438 " fill-opacity="1" fill-rule="nonzero"/><path fill="#bc3fde" d="M 264.964844 367.84375 L 279.039062 361.132812 L 261.835938 325.105469 C 257.257812 327.574219 252.5625 329.816406 247.765625 331.820312 L 264.964844 367.84375 " fill-opacity="1" fill-rule="nonzero"/><path fill="#bc3fde" d="M 334.953125 239.652344 C 334.082031 242.121094 333.148438 244.546875 332.171875 246.941406 L 369.800781 260.253906 L 374.996094 245.550781 L 337.371094 232.238281 C 336.625 234.714844 335.828125 237.191406 334.953125 239.652344 " fill-opacity="1" fill-rule="nonzero"/><path fill="#bc3fde" d="M 42.832031 128.054688 L 5.203125 114.746094 L 0 129.445312 L 37.632812 142.753906 C 38.375 140.277344 39.171875 137.804688 40.046875 135.339844 C 40.917969 132.875 41.851562 130.449219 42.832031 128.054688 " fill-opacity="1" fill-rule="nonzero"/><path fill="#bc3fde" d="M 367.851562 110.03125 L 361.128906 95.964844 L 325.105469 113.160156 C 327.578125 117.738281 329.820312 122.433594 331.824219 127.234375 L 367.851562 110.03125 " fill-opacity="1" fill-rule="nonzero"/><path fill="#bc3fde" d="M 7.144531 264.957031 L 13.867188 279.027344 L 49.894531 261.828125 C 47.421875 257.253906 45.179688 252.554688 43.175781 247.757812 L 7.144531 264.957031 " fill-opacity="1" fill-rule="nonzero"/><path fill="#bc3fde" d="M 245.738281 248.769531 C 261.964844 233.335938 272.148438 211.605469 272.148438 187.492188 C 272.148438 163.386719 261.96875 141.660156 245.742188 126.226562 C 285.660156 144.640625 316.128906 176.175781 326.257812 187.492188 C 316.128906 198.8125 285.660156 230.351562 245.738281 248.769531 Z M 48.742188 187.492188 C 58.871094 176.175781 89.339844 144.640625 129.257812 126.226562 C 113.03125 141.660156 102.851562 163.386719 102.851562 187.492188 C 102.851562 211.605469 113.03125 233.335938 129.261719 248.765625 C 89.34375 230.351562 58.871094 198.8125 48.742188 187.492188 Z M 187.5 257.710938 C 148.785156 257.710938 117.285156 226.210938 117.285156 187.492188 C 117.285156 148.78125 148.785156 117.285156 187.5 117.285156 C 226.214844 117.285156 257.714844 148.78125 257.714844 187.492188 C 257.714844 226.210938 226.214844 257.710938 187.5 257.710938 Z M 343.632812 187.492188 L 340.246094 183.308594 C 337.46875 179.867188 271.214844 99.054688 187.5 99.054688 C 103.785156 99.054688 37.53125 179.867188 34.753906 183.308594 L 31.371094 187.492188 L 34.753906 191.683594 C 37.53125 195.121094 103.785156 275.941406 187.5 275.941406 C 271.214844 275.941406 337.46875 195.121094 340.246094 191.683594 L 343.632812 187.492188 " fill-opacity="1" fill-rule="nonzero"/><path fill="#bc3fde" d="M 187.5 200.546875 C 180.308594 200.546875 174.457031 194.691406 174.457031 187.492188 C 174.457031 180.304688 180.308594 174.449219 187.5 174.449219 C 194.691406 174.449219 200.546875 180.304688 200.546875 187.492188 C 200.546875 194.691406 194.691406 200.546875 187.5 200.546875 Z M 187.5 147.679688 C 165.542969 147.679688 147.679688 165.542969 147.679688 187.492188 C 147.679688 209.453125 165.542969 227.316406 187.5 227.316406 C 209.457031 227.316406 227.324219 209.453125 227.324219 187.492188 C 227.324219 165.542969 209.457031 147.679688 187.5 147.679688 " fill-opacity="1" fill-rule="nonzero"/></svg>