<svg xmlns="http://www.w3.org/2000/svg" xmlns:xlink="http://www.w3.org/1999/xlink" width="500" zoomAndPan="magnify" viewBox="0 0 375 374.999991" height="500" preserveAspectRatio="xMidYMid meet" version="1.0"><path fill="#bc3fde" d="M 303.140625 44.964844 C 342.511719 76.808594 365.101562 121.558594 370.050781 168.246094 C 375 214.929688 362.089844 263.554688 330.25 303.140625 C 298.40625 342.511719 253.441406 365.101562 206.753906 370.050781 C 160.070312 375 111.445312 362.089844 72.074219 330.25 C 32.703125 298.40625 9.898438 253.441406 4.949219 206.753906 C 0 160.070312 12.910156 111.445312 44.964844 72.074219 C 76.808594 32.703125 121.558594 9.898438 168.246094 4.949219 C 214.929688 0 263.554688 12.910156 303.140625 44.964844 Z M 355.851562 169.75 C 351.332031 126.722656 330.25 85.414062 294.105469 55.9375 C 257.746094 26.464844 212.78125 14.628906 169.75 19.148438 C 126.722656 23.667969 85.414062 44.75 55.9375 81.109375 C 26.464844 117.46875 14.628906 162.21875 19.148438 205.25 C 23.667969 248.277344 44.75 289.800781 81.109375 319.0625 C 117.46875 348.535156 162.21875 360.371094 205.25 355.851562 C 248.277344 351.332031 289.800781 330.25 319.0625 294.105469 C 348.535156 257.746094 360.371094 212.78125 355.851562 169.75 Z M 355.851562 169.75 " fill-opacity="1" fill-rule="nonzero"/><path fill="#bc3fde" d="M 239.671875 129.734375 L 252.367188 162.652344 L 265.273438 196.214844 C 266.136719 198.796875 265.492188 201.808594 263.769531 203.742188 L 241.394531 231.28125 L 218.804688 259.035156 C 217.082031 261.402344 214.070312 262.261719 211.488281 261.617188 L 176.636719 256.023438 L 141.136719 250.429688 L 142.425781 243.332031 L 141.136719 250.429688 C 138.339844 250 136.1875 247.847656 135.328125 245.265625 L 122.847656 212.347656 L 109.941406 178.785156 C 108.863281 176.203125 109.507812 173.191406 111.445312 171.257812 L 133.605469 143.933594 L 156.195312 115.964844 C 157.917969 113.597656 160.929688 112.738281 163.511719 113.597656 L 198.363281 118.976562 L 233.863281 124.570312 L 232.789062 131.667969 L 233.863281 124.570312 C 236.660156 125 239.027344 127.152344 239.671875 129.734375 Z M 239.027344 167.8125 L 227.625 138.125 L 196.214844 133.175781 L 164.800781 128.226562 L 124.785156 177.710938 L 136.1875 207.402344 L 147.589844 236.875 L 179 242.039062 L 210.414062 246.988281 L 250.429688 197.503906 Z M 239.027344 167.8125 " fill-opacity="1" fill-rule="nonzero"/><path fill="#bc3fde" d="M 33.132812 112.953125 C 31.839844 109.078125 27.539062 107.359375 23.882812 108.648438 C 20.222656 110.15625 18.503906 114.242188 19.792969 117.898438 L 26.03125 134.035156 L 38.941406 167.597656 L 45.609375 165.015625 L 38.941406 167.597656 C 40.015625 170.394531 42.382812 172.117188 45.179688 172.332031 L 80.035156 177.710938 L 115.535156 183.304688 C 118.332031 183.734375 120.914062 182.660156 122.417969 180.292969 L 144.792969 152.96875 L 167.382812 125 L 161.789062 120.480469 L 167.382812 125 C 169.105469 122.632812 169.320312 119.621094 168.246094 117.253906 L 155.550781 84.335938 L 142.640625 50.773438 L 135.972656 53.355469 L 142.640625 50.773438 C 141.566406 48.191406 139.199219 46.472656 136.402344 46.257812 L 101.550781 40.664062 L 84.550781 38.082031 C 80.679688 37.433594 77.023438 40.015625 76.375 43.890625 C 75.730469 47.761719 78.527344 51.421875 82.402344 52.066406 L 99.398438 54.863281 L 130.808594 59.8125 L 142.210938 89.5 L 153.613281 119.191406 L 113.597656 168.675781 L 82.1875 163.726562 L 50.773438 158.777344 L 39.371094 129.085938 Z M 33.132812 112.953125 " fill-opacity="1" fill-rule="nonzero"/><path fill="#bc3fde" d="M 341.867188 262.261719 C 343.375 265.921875 347.460938 267.640625 351.117188 266.351562 C 354.777344 264.84375 356.710938 260.757812 355.207031 257.101562 L 348.96875 240.964844 L 336.058594 207.402344 L 329.390625 209.984375 L 336.273438 207.402344 C 335.199219 204.820312 332.617188 203.097656 330.035156 202.882812 L 295.179688 197.289062 L 259.679688 191.695312 C 256.882812 191.265625 254.085938 192.554688 252.582031 194.707031 L 230.421875 222.246094 L 207.832031 250.214844 L 213.210938 254.519531 L 207.832031 250 C 205.894531 252.367188 205.679688 255.378906 206.972656 257.746094 L 219.449219 290.664062 L 232.359375 324.226562 L 239.027344 321.644531 L 232.359375 324.226562 C 233.433594 327.023438 235.800781 328.742188 238.597656 328.957031 L 273.449219 334.335938 L 290.449219 337.132812 C 294.535156 337.78125 298.191406 334.984375 298.625 331.109375 C 299.269531 327.238281 296.6875 323.578125 292.8125 322.933594 L 275.601562 320.351562 L 244.191406 315.1875 L 232.789062 285.714844 L 221.386719 256.023438 L 261.402344 206.539062 L 292.8125 211.488281 L 324.226562 216.4375 L 335.628906 246.128906 Z M 341.867188 262.261719 " fill-opacity="1" fill-rule="nonzero"/><path fill="#bc3fde" d="M 329.390625 91.222656 C 333.261719 91.867188 336.917969 89.070312 337.566406 85.199219 C 338.210938 81.324219 335.628906 77.667969 331.539062 77.023438 L 314.542969 74.441406 L 313.46875 81.324219 L 314.542969 74.441406 C 314.328125 74.226562 314.113281 74.226562 313.898438 74.226562 L 279.042969 68.847656 L 279.042969 68.632812 C 276.246094 68.203125 273.449219 69.492188 271.945312 71.859375 L 249.785156 99.183594 L 227.195312 127.152344 L 232.789062 131.667969 L 227.195312 127.152344 C 225.257812 129.519531 225.042969 132.53125 226.332031 134.898438 L 239.027344 167.8125 L 251.9375 201.375 L 258.605469 198.796875 L 251.722656 201.375 C 252.796875 203.957031 255.378906 205.679688 257.960938 205.894531 L 292.8125 211.488281 L 328.3125 217.082031 C 331.109375 217.511719 333.90625 216.222656 335.414062 214.070312 L 368.976562 172.546875 C 371.558594 169.535156 370.914062 165.015625 367.898438 162.433594 C 364.886719 160.070312 360.371094 160.5 357.789062 163.511719 L 326.59375 202.238281 L 295.179688 197.289062 L 263.769531 192.339844 L 252.367188 162.652344 L 240.964844 132.960938 L 280.980469 83.476562 L 311.746094 88.425781 C 311.960938 88.425781 312.175781 88.425781 312.390625 88.425781 Z M 329.390625 91.222656 " fill-opacity="1" fill-rule="nonzero"/><path fill="#bc3fde" d="M 265.492188 23.667969 C 264.199219 20.007812 260.113281 18.074219 256.238281 19.578125 C 252.582031 20.871094 250.859375 24.957031 252.152344 28.613281 L 258.390625 44.75 L 269.792969 74.441406 L 229.777344 123.925781 L 198.363281 118.976562 L 166.953125 114.027344 L 155.550781 84.335938 L 144.148438 54.648438 L 164.15625 29.90625 L 174.914062 16.566406 C 177.496094 13.554688 177.066406 9.035156 174.054688 6.453125 C 170.824219 4.085938 166.308594 4.519531 163.941406 7.53125 L 152.96875 20.871094 L 130.808594 48.40625 C 128.871094 50.34375 128.226562 53.355469 129.304688 55.9375 L 142.210938 89.5 L 154.90625 122.417969 C 155.550781 125 157.703125 127.152344 160.714844 127.582031 L 161.789062 120.480469 L 160.714844 127.582031 L 196.214844 133.175781 L 231.066406 138.554688 C 233.648438 139.199219 236.445312 138.339844 238.382812 136.1875 L 260.972656 108.21875 L 283.132812 80.679688 C 285.070312 78.742188 285.714844 75.945312 284.636719 73.148438 L 284.636719 73.363281 L 271.730469 39.800781 Z M 265.492188 23.667969 " fill-opacity="1" fill-rule="nonzero"/><path fill="#bc3fde" d="M 200.085938 358.433594 C 197.503906 361.660156 198.148438 366.179688 201.160156 368.546875 C 204.175781 371.128906 208.691406 370.695312 211.273438 367.46875 L 222.03125 354.128906 L 244.621094 326.160156 L 239.027344 321.644531 L 244.621094 326.160156 C 246.558594 324.011719 246.773438 321 245.480469 318.417969 L 232.789062 285.714844 L 219.878906 252.152344 L 213.210938 254.519531 L 220.09375 252.152344 C 219.019531 249.355469 216.4375 247.632812 213.855469 247.417969 L 179 242.039062 L 143.503906 236.230469 C 140.707031 235.800781 137.910156 237.089844 136.402344 239.457031 L 114.242188 266.78125 L 91.652344 294.75 L 97.03125 299.269531 L 91.4375 294.75 C 89.714844 296.902344 89.5 300.128906 90.792969 302.496094 L 103.269531 335.414062 L 109.507812 351.550781 C 111.015625 355.207031 115.101562 356.925781 118.761719 355.636719 C 122.417969 354.128906 124.355469 350.042969 122.847656 346.386719 L 116.609375 330.25 L 105.207031 300.558594 L 145.222656 251.074219 L 176.636719 256.023438 L 208.046875 260.972656 L 219.449219 290.664062 L 230.851562 320.351562 L 210.84375 345.09375 Z M 200.085938 358.433594 " fill-opacity="1" fill-rule="nonzero"/><path fill="#bc3fde" d="M 6.667969 201.808594 C 4.085938 205.035156 4.519531 209.550781 7.53125 211.917969 C 10.757812 214.5 15.273438 214.070312 17.640625 210.84375 L 28.613281 197.503906 L 48.625 172.761719 L 111.445312 182.660156 L 122.847656 212.347656 L 134.25 242.039062 L 94.234375 291.523438 L 62.824219 286.574219 C 62.609375 286.574219 62.390625 286.574219 62.175781 286.574219 L 45.609375 283.777344 C 41.738281 283.347656 38.082031 285.929688 37.433594 289.800781 C 36.789062 293.675781 39.585938 297.332031 43.460938 297.976562 L 60.027344 300.558594 C 60.027344 300.558594 60.242188 300.773438 60.457031 300.773438 L 61.53125 293.675781 L 60.457031 300.773438 L 95.308594 306.152344 C 97.890625 306.796875 100.902344 305.9375 102.625 303.785156 L 125.214844 275.816406 L 147.589844 248.277344 C 149.3125 246.34375 149.957031 243.546875 149.097656 240.75 L 148.882812 240.75 L 136.1875 207.402344 L 123.492188 174.484375 C 122.847656 171.6875 120.480469 169.75 117.683594 169.320312 L 116.609375 176.203125 L 117.683594 169.320312 L 82.1875 163.726562 L 47.332031 158.132812 C 44.75 157.488281 41.738281 158.347656 40.015625 160.5 L 17.425781 188.46875 Z M 6.667969 201.808594 " fill-opacity="1" fill-rule="nonzero"/></svg>