<svg xmlns="http://www.w3.org/2000/svg" xmlns:xlink="http://www.w3.org/1999/xlink" width="500" zoomAndPan="magnify" viewBox="0 0 375 374.999991" height="500" preserveAspectRatio="xMidYMid meet" version="1.0"><path fill="#ff9800" d="M 308.773438 348.894531 C 308.773438 353.695312 304.875 357.519531 300.148438 357.519531 L 239.550781 357.519531 C 234.75 357.519531 230.925781 353.621094 230.925781 348.894531 L 230.925781 259.046875 C 230.925781 244.71875 219.300781 233.09375 204.976562 233.09375 L 170.324219 233.09375 C 156 233.09375 144.375 244.71875 144.375 259.046875 L 144.375 348.894531 C 144.375 353.695312 140.476562 357.519531 135.75 357.519531 L 74.925781 357.519531 C 70.125 357.519531 66.300781 353.621094 66.300781 348.894531 L 66.300781 175.71875 L 48.976562 175.71875 L 48.976562 348.894531 C 48.976562 363.21875 60.601562 374.84375 74.925781 374.84375 L 135.523438 374.84375 C 149.851562 374.84375 161.476562 363.21875 161.476562 348.894531 L 161.476562 259.046875 C 161.476562 254.246094 165.375 250.421875 170.101562 250.421875 L 204.75 250.421875 C 209.550781 250.421875 213.375 254.320312 213.375 259.046875 L 213.375 348.894531 C 213.375 363.21875 225 374.84375 239.324219 374.84375 L 299.925781 374.84375 C 314.25 374.84375 325.875 363.21875 325.875 348.894531 L 325.875 175.71875 L 308.550781 175.71875 Z M 308.773438 348.894531 " fill-opacity="1" fill-rule="nonzero"/><path fill="#ff9800" d="M 204.375 22.871094 C 194.550781 14.46875 180.375 14.46875 170.550781 22.871094 L 0 169.121094 L 11.25 182.246094 L 181.875 35.996094 C 185.175781 33.21875 189.898438 33.21875 193.125 35.996094 L 363.75 182.246094 L 375 169.121094 Z M 204.375 22.871094 " fill-opacity="1" fill-rule="nonzero"/></svg>