<svg xmlns="http://www.w3.org/2000/svg" xmlns:xlink="http://www.w3.org/1999/xlink" width="500" zoomAndPan="magnify" viewBox="0 0 375 374.999991" height="500" preserveAspectRatio="xMidYMid meet" version="1.0"><path fill="#ff9800" d="M 134.660156 307.1875 C 128.941406 307.1875 123.222656 305.007812 118.867188 300.652344 L 74.621094 256.40625 C 70.402344 252.1875 68.082031 246.582031 68.082031 240.617188 C 68.082031 234.652344 70.402344 229.042969 74.621094 224.824219 L 220.03125 79.414062 C 222.402344 77.046875 226.242188 77.046875 228.609375 79.414062 C 230.980469 81.785156 230.980469 85.625 228.609375 87.996094 L 83.203125 233.402344 C 81.273438 235.332031 80.207031 237.890625 80.207031 240.617188 C 80.207031 243.339844 81.265625 245.902344 83.203125 247.828125 L 127.449219 292.074219 C 131.429688 296.054688 137.898438 296.054688 141.878906 292.074219 L 287.289062 146.65625 C 289.660156 144.289062 293.5 144.289062 295.867188 146.65625 C 298.238281 149.027344 298.238281 152.867188 295.867188 155.238281 L 150.453125 300.660156 C 146.097656 305.015625 140.378906 307.1875 134.660156 307.1875 Z M 134.660156 307.1875 " fill-opacity="1" fill-rule="nonzero"/><path fill="#ff9800" d="M 313.265625 171.460938 C 306.96875 171.460938 301.042969 169.011719 296.59375 164.558594 L 210.710938 78.679688 C 206.261719 74.226562 203.804688 68.308594 203.804688 62.011719 C 203.804688 55.714844 206.253906 49.792969 210.710938 45.34375 C 215.164062 40.890625 221.082031 38.441406 227.378906 38.441406 C 233.675781 38.441406 239.597656 40.890625 244.046875 45.34375 L 329.933594 131.230469 C 334.386719 135.683594 336.84375 141.601562 336.84375 147.898438 C 336.84375 154.195312 334.386719 160.117188 329.933594 164.574219 C 325.484375 169.011719 319.558594 171.460938 313.265625 171.460938 Z M 227.378906 50.566406 C 224.320312 50.566406 221.445312 51.757812 219.289062 53.914062 C 217.132812 56.070312 215.941406 58.949219 215.941406 62.003906 C 215.941406 65.0625 217.132812 67.9375 219.289062 70.09375 L 305.175781 155.980469 C 307.332031 158.136719 310.207031 159.328125 313.265625 159.328125 C 316.320312 159.328125 319.195312 158.136719 321.351562 155.980469 C 323.515625 153.816406 324.710938 150.9375 324.710938 147.882812 C 324.710938 144.824219 323.515625 141.957031 321.359375 139.792969 L 235.46875 53.914062 C 233.3125 51.757812 230.4375 50.566406 227.378906 50.566406 Z M 227.378906 50.566406 " fill-opacity="1" fill-rule="nonzero"/><path fill="#ff9800" d="M 297.820312 113.746094 C 296.253906 113.746094 294.699219 113.148438 293.53125 111.96875 L 263.304688 81.746094 C 261.238281 79.675781 260.9375 76.421875 262.601562 74.003906 L 283.007812 44.46875 L 281.371094 42.839844 C 276.925781 38.382812 274.46875 32.46875 274.46875 26.171875 C 274.46875 19.875 276.917969 13.949219 281.371094 9.503906 C 290.566406 0.308594 305.523438 0.308594 314.71875 9.503906 L 365.773438 60.558594 C 374.960938 69.746094 374.960938 84.699219 365.773438 93.894531 C 356.578125 103.089844 341.617188 103.089844 332.429688 93.894531 L 330.800781 92.269531 L 301.265625 112.671875 C 300.222656 113.398438 299.019531 113.746094 297.820312 113.746094 Z M 275.464844 76.746094 L 298.53125 99.8125 L 328.066406 79.40625 C 330.476562 77.742188 333.730469 78.039062 335.808594 80.109375 L 341.015625 85.316406 C 345.480469 89.78125 352.738281 89.78125 357.203125 85.316406 C 361.65625 80.851562 361.65625 73.59375 357.203125 69.136719 L 306.144531 18.082031 C 301.683594 13.617188 294.421875 13.617188 289.96875 18.082031 C 287.8125 20.238281 286.617188 23.113281 286.617188 26.171875 C 286.617188 29.230469 287.8125 32.105469 289.96875 34.261719 L 295.171875 39.464844 C 297.242188 41.535156 297.542969 44.792969 295.875 47.207031 Z M 275.464844 76.746094 " fill-opacity="1" fill-rule="nonzero"/><path fill="#ff9800" d="M 6.386719 374.957031 C 4.828125 374.957031 3.28125 374.367188 2.097656 373.179688 C -0.273438 370.8125 -0.273438 366.972656 2.097656 364.601562 L 37.042969 329.652344 C 39.414062 327.285156 43.253906 327.285156 45.621094 329.652344 C 47.992188 332.023438 47.992188 335.863281 45.621094 338.230469 L 10.675781 373.179688 C 9.488281 374.367188 7.941406 374.957031 6.386719 374.957031 Z M 6.386719 374.957031 " fill-opacity="1" fill-rule="nonzero"/><path fill="#ff9800" d="M 225.546875 135.011719 C 223.996094 135.011719 222.441406 134.421875 221.257812 133.234375 L 198.015625 110.003906 C 195.644531 107.632812 195.644531 103.792969 198.015625 101.425781 C 200.386719 99.054688 204.226562 99.054688 206.59375 101.425781 L 229.835938 124.65625 C 232.207031 127.027344 232.207031 130.867188 229.835938 133.234375 C 228.652344 134.421875 227.09375 135.011719 225.546875 135.011719 Z M 225.546875 135.011719 " fill-opacity="1" fill-rule="nonzero"/><path fill="#ff9800" d="M 195.109375 142.210938 C 193.558594 142.210938 192.003906 141.617188 190.820312 140.433594 L 179.199219 128.820312 C 176.828125 126.449219 176.828125 122.609375 179.199219 120.242188 C 181.570312 117.871094 185.40625 117.871094 187.777344 120.242188 L 199.398438 131.851562 C 201.769531 134.222656 201.769531 138.0625 199.40625 140.433594 C 198.222656 141.617188 196.664062 142.210938 195.109375 142.210938 Z M 195.109375 142.210938 " fill-opacity="1" fill-rule="nonzero"/><path fill="#ff9800" d="M 176.300781 161.027344 C 174.75 161.027344 173.195312 160.433594 172.011719 159.25 L 160.390625 147.636719 C 158.019531 145.265625 158.019531 141.429688 160.390625 139.058594 C 162.757812 136.6875 166.597656 136.6875 168.96875 139.058594 L 180.589844 150.671875 C 182.957031 153.039062 182.957031 156.878906 180.589844 159.25 C 179.402344 160.433594 177.847656 161.027344 176.300781 161.027344 Z M 176.300781 161.027344 " fill-opacity="1" fill-rule="nonzero"/><path fill="#ff9800" d="M 169.09375 191.457031 C 167.546875 191.457031 165.988281 190.863281 164.804688 189.679688 L 141.5625 166.445312 C 139.195312 164.074219 139.195312 160.238281 141.5625 157.867188 C 143.933594 155.496094 147.773438 155.496094 150.144531 157.867188 L 173.382812 181.101562 C 175.753906 183.46875 175.753906 187.308594 173.382812 189.679688 C 172.207031 190.863281 170.652344 191.457031 169.09375 191.457031 Z M 169.09375 191.457031 " fill-opacity="1" fill-rule="nonzero"/><path fill="#ff9800" d="M 138.664062 198.652344 C 137.117188 198.652344 135.5625 198.0625 134.375 196.875 L 122.753906 185.261719 C 120.386719 182.894531 120.386719 179.054688 122.753906 176.683594 C 125.125 174.3125 128.964844 174.3125 131.335938 176.683594 L 142.953125 188.296875 C 145.324219 190.667969 145.324219 194.503906 142.953125 196.875 C 141.769531 198.0625 140.222656 198.652344 138.664062 198.652344 Z M 138.664062 198.652344 " fill-opacity="1" fill-rule="nonzero"/><path fill="#ff9800" d="M 119.847656 217.46875 C 118.300781 217.46875 116.742188 216.878906 115.558594 215.691406 L 103.9375 204.082031 C 101.570312 201.710938 101.570312 197.871094 103.9375 195.5 C 106.308594 193.132812 110.148438 193.132812 112.515625 195.5 L 124.136719 207.113281 C 126.507812 209.484375 126.507812 213.324219 124.136719 215.691406 C 122.960938 216.878906 121.40625 217.46875 119.847656 217.46875 Z M 119.847656 217.46875 " fill-opacity="1" fill-rule="nonzero"/><path fill="#ff9800" d="M 112.652344 247.898438 C 111.101562 247.898438 109.546875 247.308594 108.363281 246.121094 L 85.121094 222.898438 C 82.75 220.527344 82.75 216.6875 85.121094 214.316406 C 87.492188 211.949219 91.332031 211.949219 93.699219 214.316406 L 116.941406 237.542969 C 119.3125 239.914062 119.3125 243.753906 116.941406 246.121094 C 115.757812 247.308594 114.207031 247.898438 112.652344 247.898438 Z M 112.652344 247.898438 " fill-opacity="1" fill-rule="nonzero"/><path fill="#ff9800" d="M 90.058594 312.375 C 88.503906 312.375 86.953125 311.785156 85.769531 310.597656 L 64.675781 289.507812 C 63.539062 288.371094 62.898438 286.828125 62.898438 285.21875 C 62.898438 283.605469 63.539062 282.066406 64.675781 280.929688 L 86.195312 259.410156 C 87.332031 258.273438 88.875 257.632812 90.484375 257.632812 C 92.097656 257.632812 93.636719 258.273438 94.773438 259.410156 L 115.867188 280.5 C 118.238281 282.871094 118.238281 286.710938 115.867188 289.082031 L 94.347656 310.597656 C 93.164062 311.785156 91.605469 312.375 90.058594 312.375 Z M 77.546875 285.21875 L 90.058594 297.730469 L 103 284.792969 L 90.484375 272.277344 Z M 77.546875 285.21875 " fill-opacity="1" fill-rule="nonzero"/><path fill="#ff9800" d="M 99.964844 322.289062 C 98.410156 322.289062 96.859375 321.699219 95.675781 320.511719 L 54.761719 279.601562 C 52.394531 277.230469 52.394531 273.390625 54.761719 271.023438 C 57.132812 268.652344 60.972656 268.652344 63.34375 271.023438 L 104.253906 311.933594 C 106.625 314.304688 106.625 318.144531 104.253906 320.511719 C 103.070312 321.699219 101.519531 322.289062 99.964844 322.289062 Z M 99.964844 322.289062 " fill-opacity="1" fill-rule="nonzero"/><path fill="#ff9800" d="M 49.761719 343.886719 C 45.394531 343.886719 41.042969 342.222656 37.746094 338.933594 L 36.332031 337.519531 C 30.050781 331.242188 29.695312 321.074219 35.535156 314.375 L 64.382812 281.234375 C 65.492188 279.964844 67.070312 279.214844 68.753906 279.160156 C 70.429688 279.101562 72.0625 279.742188 73.257812 280.9375 L 94.347656 302.027344 C 95.539062 303.222656 96.179688 304.847656 96.117188 306.53125 C 96.0625 308.214844 95.304688 309.792969 94.039062 310.898438 L 60.902344 339.75 C 57.710938 342.515625 53.734375 343.886719 49.761719 343.886719 Z M 69.273438 294.105469 L 44.691406 322.347656 C 43 324.289062 43.09375 327.125 44.917969 328.949219 L 46.324219 330.363281 C 48.144531 332.1875 50.988281 332.285156 52.929688 330.59375 L 81.164062 306.007812 Z M 69.273438 294.105469 " fill-opacity="1" fill-rule="nonzero"/></svg>