<svg xmlns="http://www.w3.org/2000/svg" xmlns:xlink="http://www.w3.org/1999/xlink" width="500" zoomAndPan="magnify" viewBox="0 0 375 374.999991" height="500" preserveAspectRatio="xMidYMid meet" version="1.0"><defs><clipPath id="32b5559afe"><path d="M 13.828125 0 L 361.078125 0 L 361.078125 375 L 13.828125 375 Z M 13.828125 0 " clip-rule="nonzero"/></clipPath></defs><g clip-path="url(#32b5559afe)"><path fill="#ff9800" d="M 312.113281 262.117188 C 284.574219 253.273438 277.851562 233.835938 268.546875 206.929688 C 264.839844 196.207031 254.996094 167.730469 227.316406 167.730469 L 195.648438 167.730469 C 216.789062 163.195312 232.691406 144.371094 232.691406 121.894531 C 232.691406 96.042969 211.65625 75.007812 185.804688 75.007812 C 159.949219 75.007812 138.917969 96.039062 138.917969 121.894531 C 138.917969 144.371094 154.820312 163.195312 175.957031 167.730469 L 147.679688 167.730469 C 120.003906 167.730469 110.160156 196.207031 106.453125 206.929688 C 97.148438 233.835938 90.425781 253.273438 62.886719 262.117188 C 51.003906 265.929688 44.441406 278.703125 48.253906 290.585938 C 51.332031 300.175781 60.246094 306.304688 69.820312 306.304688 C 70.746094 306.304688 71.675781 306.230469 72.609375 306.113281 C 60.355469 311.914062 51.859375 324.394531 51.859375 338.824219 C 51.859375 358.773438 68.085938 375 88.03125 375 L 279.691406 375 C 299.636719 375 315.867188 358.773438 315.867188 338.824219 C 315.867188 318.878906 299.636719 302.652344 279.691406 302.652344 C 279.175781 302.652344 278.664062 302.71875 278.167969 302.851562 L 248.992188 310.667969 C 239.582031 297.871094 239.976562 284.21875 240.476562 267.246094 C 240.554688 264.542969 240.636719 261.757812 240.683594 258.882812 C 243.519531 264.269531 246.757812 269.429688 250.597656 274.28125 C 261.925781 288.582031 277.074219 298.410156 298.277344 305.21875 C 304.03125 307.0625 310.164062 306.558594 315.539062 303.796875 C 320.917969 301.03125 324.894531 296.339844 326.742188 290.582031 C 330.558594 278.703125 323.992188 265.929688 312.113281 262.117188 Z M 150.683594 121.894531 C 150.683594 102.53125 166.4375 86.773438 185.804688 86.773438 C 205.171875 86.773438 220.925781 102.527344 220.925781 121.894531 C 220.925781 141.261719 205.171875 157.015625 185.804688 157.015625 C 166.4375 157.015625 150.683594 141.261719 150.683594 121.894531 Z M 124.769531 312.285156 L 89.554688 302.851562 C 89.058594 302.71875 88.546875 302.652344 88.035156 302.652344 C 86.359375 302.652344 84.71875 302.773438 83.101562 302.996094 C 101.007812 296.320312 114.246094 287.101562 124.398438 274.28125 C 128.242188 269.429688 131.480469 264.269531 134.316406 258.886719 C 134.363281 261.757812 134.445312 264.542969 134.523438 267.246094 C 135.058594 285.535156 135.457031 299.066406 124.769531 312.285156 Z M 63.625 338.824219 C 63.625 325.609375 74.179688 314.816406 87.300781 314.425781 L 161.136719 334.210938 L 133.820312 341.527344 C 125.597656 343.730469 120.238281 351.757812 121.347656 360.195312 C 121.484375 361.242188 121.71875 362.257812 122.035156 363.234375 L 88.035156 363.234375 C 74.574219 363.234375 63.625 352.285156 63.625 338.824219 Z M 280.425781 314.425781 C 293.546875 314.816406 304.101562 325.609375 304.101562 338.824219 C 304.101562 352.285156 293.152344 363.234375 279.691406 363.234375 L 138.226562 363.234375 C 135.554688 363.234375 133.359375 361.3125 133.011719 358.660156 C 132.660156 356.011719 134.28125 353.585938 136.863281 352.894531 Z M 315.542969 286.988281 C 314.65625 289.753906 312.746094 292.007812 310.164062 293.332031 C 307.582031 294.660156 304.636719 294.902344 301.875 294.015625 C 261.785156 281.144531 251.140625 258.417969 239.476562 225.210938 C 238.402344 222.15625 235.304688 220.332031 232.109375 220.878906 C 228.914062 221.421875 226.59375 224.167969 226.59375 227.40625 C 226.59375 227.78125 226.632812 228.152344 226.703125 228.519531 C 229.429688 242.710938 229.070312 255.007812 228.71875 266.898438 C 228.234375 283.328125 227.785156 298.976562 236.984375 313.886719 L 183.863281 328.121094 L 136.945312 315.546875 C 147.25 300.125 146.78125 283.917969 146.28125 266.898438 C 145.933594 255.007812 145.570312 242.710938 148.300781 228.515625 C 148.371094 228.152344 148.40625 227.78125 148.40625 227.40625 C 148.40625 224.167969 146.085938 221.421875 142.890625 220.875 C 139.695312 220.332031 136.597656 222.152344 135.523438 225.210938 C 123.859375 258.414062 113.214844 281.144531 73.128906 294.015625 C 70.363281 294.902344 67.417969 294.660156 64.835938 293.332031 C 62.253906 292.007812 60.34375 289.753906 59.457031 286.988281 C 58.570312 284.226562 58.8125 281.28125 60.140625 278.699219 C 61.46875 276.117188 63.71875 274.207031 66.484375 273.320312 C 99.625 262.679688 107.941406 238.625 117.574219 210.773438 C 125.050781 189.140625 134.335938 179.496094 147.683594 179.496094 L 227.320312 179.496094 C 240.664062 179.496094 249.949219 189.140625 257.429688 210.773438 C 267.058594 238.625 275.375 262.675781 308.515625 273.320312 C 311.28125 274.207031 313.53125 276.117188 314.859375 278.699219 C 316.1875 281.28125 316.429688 284.226562 315.542969 286.988281 Z M 179.921875 42.367188 L 179.921875 5.882812 C 179.921875 2.632812 182.554688 0 185.804688 0 C 189.054688 0 191.6875 2.632812 191.6875 5.882812 L 191.6875 42.367188 C 191.6875 45.617188 189.054688 48.25 185.804688 48.25 C 182.554688 48.25 179.921875 45.617188 179.921875 42.367188 Z M 97.070312 32.144531 C 95.445312 29.332031 96.410156 25.730469 99.222656 24.109375 C 102.039062 22.484375 105.636719 23.449219 107.257812 26.261719 L 125.503906 57.855469 C 127.128906 60.671875 126.164062 64.269531 123.347656 65.894531 C 122.421875 66.425781 121.410156 66.679688 120.414062 66.679688 C 118.378906 66.679688 116.402344 65.625 115.3125 63.738281 Z M 36.296875 88.277344 C 37.921875 85.460938 41.519531 84.496094 44.332031 86.121094 L 75.929688 104.363281 C 78.742188 105.988281 79.707031 109.585938 78.082031 112.398438 C 76.992188 114.285156 75.015625 115.34375 72.984375 115.34375 C 71.984375 115.34375 70.972656 115.085938 70.046875 114.554688 L 38.453125 96.3125 C 35.636719 94.6875 34.671875 91.089844 36.296875 88.277344 Z M 56.253906 181.191406 L 19.769531 181.191406 C 16.519531 181.191406 13.886719 178.558594 13.886719 175.308594 C 13.886719 172.0625 16.519531 169.429688 19.769531 169.429688 L 56.253906 169.429688 C 59.5 169.429688 62.132812 172.0625 62.132812 175.308594 C 62.132812 178.558594 59.5 181.191406 56.253906 181.191406 Z M 246.5625 56.160156 L 264.804688 24.566406 C 266.425781 21.75 270.023438 20.789062 272.839844 22.414062 C 275.652344 24.035156 276.617188 27.632812 274.992188 30.449219 L 256.75 62.042969 C 255.660156 63.929688 253.683594 64.984375 251.648438 64.984375 C 250.652344 64.984375 249.640625 64.730469 248.714844 64.195312 C 245.898438 62.574219 244.9375 58.976562 246.5625 56.160156 Z M 295.222656 109.464844 C 293.597656 106.648438 294.5625 103.050781 297.375 101.429688 L 328.96875 83.1875 C 331.785156 81.5625 335.382812 82.527344 337.007812 85.339844 C 338.632812 88.152344 337.667969 91.75 334.851562 93.375 L 303.257812 111.617188 C 302.332031 112.152344 301.320312 112.40625 300.320312 112.40625 C 298.289062 112.40625 296.3125 111.351562 295.222656 109.464844 Z M 361.113281 171.917969 C 361.113281 175.167969 358.480469 177.800781 355.230469 177.800781 L 318.746094 177.800781 C 315.5 177.800781 312.867188 175.167969 312.867188 171.917969 C 312.867188 168.667969 315.5 166.035156 318.746094 166.035156 L 355.230469 166.035156 C 358.480469 166.035156 361.113281 168.667969 361.113281 171.917969 Z M 361.113281 171.917969 " fill-opacity="1" fill-rule="nonzero"/></g></svg>