<svg xmlns="http://www.w3.org/2000/svg" xmlns:xlink="http://www.w3.org/1999/xlink" width="500" zoomAndPan="magnify" viewBox="0 0 375 374.999991" height="500" preserveAspectRatio="xMidYMid meet" version="1.0"><defs><clipPath id="f7539a0a47"><path d="M 36.09375 46 L 339 46 L 339 375 L 36.09375 375 Z M 36.09375 46 " clip-rule="nonzero"/></clipPath></defs><path fill="#ff9800" d="M 195.726562 71.773438 L 232.339844 101.179688 L 266.011719 51.34375 C 263.058594 44.578125 254.472656 26.78125 241.289062 14.875 Z M 233.632812 115.597656 C 232.308594 115.597656 231.011719 115.144531 229.960938 114.304688 L 183.820312 77.246094 C 181.300781 75.222656 180.894531 71.535156 182.917969 69.011719 L 235.839844 2.921875 C 237.804688 0.464844 241.371094 0 243.898438 1.875 C 265.898438 18.132812 277.628906 48.640625 278.121094 49.933594 C 278.792969 51.714844 278.5625 53.710938 277.492188 55.292969 L 238.488281 113.015625 C 237.570312 114.375 236.128906 115.289062 234.507812 115.53125 C 234.214844 115.574219 233.921875 115.597656 233.632812 115.597656 " fill-opacity="1" fill-rule="nonzero"/><path fill="#ff9800" d="M 108.972656 51.34375 L 142.644531 101.179688 L 179.257812 71.773438 L 133.699219 14.875 C 120.515625 26.777344 111.929688 44.574219 108.972656 51.34375 Z M 141.351562 115.597656 C 141.0625 115.597656 140.769531 115.574219 140.476562 115.53125 C 138.855469 115.289062 137.414062 114.375 136.496094 113.015625 L 97.492188 55.292969 C 96.425781 53.710938 96.191406 51.714844 96.867188 49.933594 C 97.355469 48.640625 109.089844 18.132812 131.085938 1.875 C 133.621094 0 137.179688 0.464844 139.148438 2.921875 L 192.066406 69.011719 C 194.089844 71.535156 193.683594 75.222656 191.164062 77.246094 L 145.023438 114.304688 C 143.976562 115.144531 142.679688 115.597656 141.351562 115.597656 " fill-opacity="1" fill-rule="nonzero"/><path fill="#ff9800" d="M 146.773438 12.449219 L 187.492188 63.296875 L 228.207031 12.449219 Z M 187.492188 78.539062 C 185.710938 78.539062 184.027344 77.730469 182.917969 76.339844 L 129.996094 10.253906 C 128.585938 8.492188 128.3125 6.082031 129.289062 4.050781 C 130.261719 2.019531 132.316406 0.726562 134.570312 0.726562 L 240.414062 0.726562 C 242.667969 0.726562 244.722656 2.019531 245.699219 4.050781 C 246.671875 6.082031 246.398438 8.492188 244.988281 10.253906 L 192.066406 76.339844 C 190.953125 77.730469 189.273438 78.539062 187.492188 78.539062 " fill-opacity="1" fill-rule="nonzero"/><g clip-path="url(#f7539a0a47)"><path fill="#ff9800" d="M 47.902344 81.308594 L 47.902344 342.882812 C 47.902344 354.128906 57.050781 363.28125 68.300781 363.28125 L 306.683594 363.28125 C 317.933594 363.28125 327.082031 354.128906 327.082031 342.882812 L 327.082031 81.308594 C 324.539062 78.351562 311.121094 70.785156 275.023438 58.949219 L 238.488281 113.015625 C 237.570312 114.375 236.128906 115.285156 234.507812 115.53125 C 232.886719 115.773438 231.238281 115.332031 229.960938 114.304688 L 187.492188 80.195312 L 145.023438 114.304688 C 143.746094 115.332031 142.097656 115.777344 140.476562 115.53125 C 138.855469 115.285156 137.414062 114.375 136.496094 113.015625 L 99.960938 58.949219 C 63.867188 70.785156 50.449219 78.351562 47.902344 81.308594 Z M 306.683594 375.003906 L 68.300781 375.003906 C 50.589844 375.003906 36.175781 360.59375 36.175781 342.882812 L 36.175781 80.410156 C 36.175781 74.273438 42.253906 69.160156 57.851562 62.167969 C 68.328125 57.46875 82.65625 52.1875 100.433594 46.46875 C 100.859375 46.324219 101.304688 46.222656 101.769531 46.175781 C 102.03125 46.152344 102.292969 46.144531 102.554688 46.152344 C 104.613281 46.21875 106.40625 47.351562 107.398438 49.011719 L 142.644531 101.179688 L 183.820312 68.105469 C 185.964844 66.386719 189.019531 66.386719 191.164062 68.105469 L 232.339844 101.179688 L 267.777344 48.730469 C 268.28125 47.988281 268.929688 47.390625 269.664062 46.957031 C 270.398438 46.523438 271.234375 46.246094 272.128906 46.171875 C 272.371094 46.148438 272.617188 46.140625 272.863281 46.152344 C 273.496094 46.175781 274.105469 46.296875 274.667969 46.503906 C 292.390625 52.210938 306.675781 57.476562 317.132812 62.167969 C 332.730469 69.160156 338.808594 74.273438 338.808594 80.410156 L 338.808594 342.882812 C 338.808594 360.59375 324.394531 375.003906 306.683594 375.003906 " fill-opacity="1" fill-rule="nonzero"/></g><path fill="#ff9800" d="M 169.855469 363.28125 L 205.527344 363.28125 L 205.527344 94.453125 L 186.839844 80.171875 L 169.855469 94.304688 Z M 211.390625 375.003906 L 163.992188 375.003906 C 160.753906 375.003906 158.128906 372.378906 158.128906 369.140625 L 158.128906 91.554688 C 158.128906 89.8125 158.902344 88.160156 160.242188 87.046875 L 182.9375 68.167969 C 185.039062 66.421875 188.074219 66.355469 190.246094 68.019531 L 214.949219 86.898438 C 216.402344 88.007812 217.25 89.726562 217.25 91.554688 L 217.25 369.140625 C 217.25 372.378906 214.628906 375.003906 211.390625 375.003906 " fill-opacity="1" fill-rule="nonzero"/><path fill="#ff9800" d="M 250.707031 215.046875 L 294.566406 215.046875 L 294.566406 201.757812 L 250.707031 201.757812 Z M 300.429688 226.773438 L 244.84375 226.773438 C 241.605469 226.773438 238.980469 224.148438 238.980469 220.910156 L 238.980469 195.894531 C 238.980469 192.65625 241.605469 190.03125 244.84375 190.03125 L 300.429688 190.03125 C 303.667969 190.03125 306.292969 192.65625 306.292969 195.894531 L 306.292969 220.910156 C 306.292969 224.148438 303.667969 226.773438 300.429688 226.773438 " fill-opacity="1" fill-rule="nonzero"/><path fill="#ff9800" d="M 187.492188 159.453125 C 184.253906 159.453125 181.628906 156.824219 181.628906 153.589844 L 181.628906 143.089844 C 181.628906 139.855469 184.253906 137.230469 187.492188 137.230469 C 190.730469 137.230469 193.355469 139.855469 193.355469 143.089844 L 193.355469 153.589844 C 193.355469 156.824219 190.730469 159.453125 187.492188 159.453125 " fill-opacity="1" fill-rule="nonzero"/><path fill="#ff9800" d="M 187.492188 240.363281 C 184.253906 240.363281 181.628906 237.738281 181.628906 234.5 L 181.628906 224 C 181.628906 220.761719 184.253906 218.136719 187.492188 218.136719 C 190.730469 218.136719 193.355469 220.761719 193.355469 224 L 193.355469 234.5 C 193.355469 237.738281 190.730469 240.363281 187.492188 240.363281 " fill-opacity="1" fill-rule="nonzero"/><path fill="#ff9800" d="M 187.492188 321.269531 C 184.253906 321.269531 181.628906 318.644531 181.628906 315.40625 L 181.628906 304.910156 C 181.628906 301.671875 184.253906 299.046875 187.492188 299.046875 C 190.730469 299.046875 193.355469 301.671875 193.355469 304.910156 L 193.355469 315.40625 C 193.355469 318.644531 190.730469 321.269531 187.492188 321.269531 " fill-opacity="1" fill-rule="nonzero"/></svg>