<svg xmlns="http://www.w3.org/2000/svg" xmlns:xlink="http://www.w3.org/1999/xlink" width="1080" zoomAndPan="magnify" viewBox="0 0 810 809.999993" height="1080" preserveAspectRatio="xMidYMid meet" version="1.0"><defs><clipPath id="12dc080666"><path d="M 48.648438 47.394531 L 762.648438 47.394531 L 762.648438 761.394531 L 48.648438 761.394531 Z M 48.648438 47.394531 " clip-rule="nonzero"/></clipPath></defs><rect x="-81" width="972" fill="#ffffff" y="-80.999999" height="971.999992" fill-opacity="1"/><rect x="-81" width="972" fill="#ffffff" y="-80.999999" height="971.999992" fill-opacity="1"/><g clip-path="url(#12dc080666)"><path fill="#758ca3" d="M 405.648438 761.394531 C 208.484375 761.394531 48.648438 601.5625 48.648438 404.394531 C 48.648438 207.230469 208.484375 47.394531 405.648438 47.394531 C 602.816406 47.394531 762.648438 207.230469 762.648438 404.394531 C 762.648438 601.5625 602.816406 761.394531 405.648438 761.394531 Z M 405.648438 701.894531 C 569.953125 701.894531 703.148438 568.699219 703.148438 404.394531 C 703.148438 240.089844 569.953125 106.894531 405.648438 106.894531 C 241.34375 106.894531 108.148438 240.089844 108.148438 404.394531 C 108.148438 568.699219 241.34375 701.894531 405.648438 701.894531 Z M 228.675781 503.054688 C 223.480469 487.46875 231.90625 470.621094 247.492188 465.421875 C 263.078125 460.226562 279.929688 468.648438 285.125 484.238281 C 287.496094 491.351562 294.609375 504.15625 307.6875 517.234375 C 330.085938 539.636719 361.609375 553.144531 405.648438 553.144531 C 449.6875 553.144531 481.210938 539.636719 503.613281 517.234375 C 516.691406 504.15625 523.804688 491.351562 526.175781 484.238281 C 531.375 468.648438 548.222656 460.226562 563.808594 465.421875 C 579.394531 470.621094 587.816406 487.46875 582.625 503.054688 C 577.558594 518.253906 566.078125 538.917969 545.6875 559.308594 C 512.308594 592.6875 465.734375 612.644531 405.648438 612.644531 C 345.5625 612.644531 298.992188 592.6875 265.613281 559.308594 C 245.222656 538.917969 233.742188 518.253906 228.675781 503.054688 Z M 273.402344 339.898438 C 259.730469 349.015625 241.261719 345.320312 232.148438 331.648438 C 223.03125 317.976562 226.726562 299.507812 240.398438 290.394531 L 252.019531 282.644531 C 281.996094 262.660156 321.054688 262.660156 351.03125 282.644531 L 362.652344 290.394531 C 376.324219 299.507812 380.015625 317.976562 370.90625 331.648438 C 361.789062 345.320312 343.320312 349.015625 329.648438 339.898438 L 318.027344 332.152344 C 308.035156 325.492188 295.015625 325.492188 285.023438 332.152344 Z M 481.652344 339.898438 C 467.980469 349.015625 449.511719 345.320312 440.394531 331.648438 C 431.28125 317.976562 434.976562 299.507812 448.648438 290.394531 L 460.269531 282.644531 C 490.246094 262.660156 529.304688 262.660156 559.28125 282.644531 L 570.902344 290.394531 C 584.574219 299.507812 588.265625 317.976562 579.15625 331.648438 C 570.039062 345.320312 551.566406 349.015625 537.898438 339.898438 L 526.277344 332.152344 C 516.285156 325.492188 503.265625 325.492188 493.273438 332.152344 Z M 481.652344 339.898438 " fill-opacity="1" fill-rule="evenodd"/></g></svg>