<svg xmlns="http://www.w3.org/2000/svg" xmlns:xlink="http://www.w3.org/1999/xlink" width="1080" zoomAndPan="magnify" viewBox="0 0 810 809.999993" height="1080" preserveAspectRatio="xMidYMid meet" version="1.0"><defs><clipPath id="ad052617f0"><path d="M 48.648438 47.394531 L 762.648438 47.394531 L 762.648438 761.394531 L 48.648438 761.394531 Z M 48.648438 47.394531 " clip-rule="nonzero"/></clipPath></defs><g clip-path="url(#ad052617f0)"><path fill="#000000" d="M 405.625 761.347656 C 208.472656 761.347656 48.648438 601.523438 48.648438 404.371094 C 48.648438 207.21875 208.472656 47.394531 405.625 47.394531 C 602.777344 47.394531 762.601562 207.21875 762.601562 404.371094 C 762.601562 601.523438 602.777344 761.347656 405.625 761.347656 Z M 405.625 701.851562 C 569.917969 701.851562 703.105469 568.664062 703.105469 404.371094 C 703.105469 240.078125 569.917969 106.890625 405.625 106.890625 C 241.332031 106.890625 108.144531 240.078125 108.144531 404.371094 C 108.144531 568.664062 241.332031 701.851562 405.625 701.851562 Z M 228.664062 503.023438 C 223.46875 487.4375 231.894531 470.59375 247.480469 465.394531 C 263.066406 460.199219 279.914062 468.621094 285.109375 484.210938 C 287.480469 491.324219 294.59375 504.128906 307.667969 517.203125 C 330.070312 539.605469 361.589844 553.113281 405.625 553.113281 C 449.664062 553.113281 481.183594 539.605469 503.585938 517.203125 C 516.660156 504.128906 523.773438 491.324219 526.144531 484.210938 C 531.34375 468.621094 548.1875 460.199219 563.773438 465.394531 C 579.359375 470.59375 587.78125 487.4375 582.589844 503.023438 C 577.523438 518.222656 566.042969 538.882812 545.652344 559.273438 C 512.277344 592.652344 465.707031 612.609375 405.625 612.609375 C 345.542969 612.609375 298.976562 592.652344 265.597656 559.273438 C 245.210938 538.882812 233.730469 518.222656 228.664062 503.023438 Z M 273.386719 339.878906 C 259.71875 348.992188 241.246094 345.300781 232.132812 331.628906 C 223.019531 317.960938 226.714844 299.488281 240.386719 290.375 L 252.003906 282.628906 C 281.980469 262.644531 321.035156 262.644531 351.011719 282.628906 L 362.632812 290.375 C 376.300781 299.488281 379.996094 317.960938 370.882812 331.628906 C 361.769531 345.300781 343.300781 348.992188 329.628906 339.878906 L 318.011719 332.132812 C 308.015625 325.472656 295 325.472656 285.007812 332.132812 Z M 481.625 339.878906 C 467.953125 348.992188 449.484375 345.300781 440.371094 331.628906 C 431.257812 317.960938 434.953125 299.488281 448.621094 290.375 L 460.242188 282.628906 C 490.21875 262.644531 529.273438 262.644531 559.25 282.628906 L 570.867188 290.375 C 584.539062 299.488281 588.230469 317.960938 579.121094 331.628906 C 570.003906 345.300781 551.535156 348.992188 537.867188 339.878906 L 526.246094 332.132812 C 516.253906 325.472656 503.234375 325.472656 493.242188 332.132812 Z M 481.625 339.878906 " fill-opacity="1" fill-rule="evenodd"/></g></svg>