<svg xmlns="http://www.w3.org/2000/svg" xmlns:xlink="http://www.w3.org/1999/xlink" width="1080" zoomAndPan="magnify" viewBox="0 0 810 809.999993" height="1080" preserveAspectRatio="xMidYMid meet" version="1.0"><path fill="#000000" d="M 399.179688 585.167969 C 395.109375 576.222656 386.679688 569.695312 376.476562 568.535156 C 367.835938 567.546875 359.375 565.699219 351.332031 563.027344 C 347.726562 561.816406 344.339844 560.492188 341.207031 559.070312 L 346.414062 544.878906 C 350.089844 546.519531 353.878906 548.023438 357.753906 549.378906 L 357.914062 549.4375 L 358.082031 549.488281 C 370.523438 553.601562 382.773438 555.6875 394.472656 555.6875 C 406.222656 555.6875 414.738281 554.113281 421.28125 550.734375 L 421.671875 550.535156 L 422.054688 550.3125 C 431.964844 544.625 437.652344 534.847656 437.652344 523.488281 C 437.652344 510.878906 430.851562 500.410156 418.984375 494.757812 C 413.019531 491.851562 404.542969 489.082031 392.332031 486.046875 C 379.8125 482.878906 369.289062 479.519531 361.132812 476.078125 C 355.167969 473.378906 349.996094 469.074219 345.332031 462.917969 C 341.316406 457.421875 339.285156 449.160156 339.285156 438.351562 C 339.285156 425.304688 342.957031 414.539062 350.515625 405.433594 C 357.246094 397.457031 366.796875 392.035156 379.621094 388.996094 C 389.132812 386.742188 396.550781 379.953125 399.886719 371.183594 C 403.660156 380.070312 411.683594 386.679688 421.667969 388.273438 C 430.007812 389.601562 437.664062 391.71875 444.550781 394.585938 L 439.757812 408.492188 C 426.757812 403.273438 413.964844 400.636719 401.589844 400.636719 C 360.496094 400.636719 358.414062 428.988281 358.414062 434.671875 C 358.414062 446.996094 365.066406 457.324219 376.667969 463.019531 L 376.992188 463.179688 L 377.324219 463.328125 C 383.183594 465.945312 391.5 468.464844 403.5 471.261719 C 415.90625 474.066406 426.253906 477.277344 434.382812 480.839844 L 434.550781 480.914062 L 434.722656 480.984375 C 440.757812 483.496094 445.933594 487.691406 450.550781 493.8125 L 450.625 493.90625 L 450.699219 494.003906 C 454.730469 499.21875 456.78125 507.285156 456.78125 517.976562 C 456.78125 530.316406 453.207031 540.761719 445.851562 549.914062 C 439.476562 557.851562 430.570312 563.34375 418.625 566.710938 C 409.398438 569.308594 402.246094 576.359375 399.179688 585.167969 Z M 399.179688 585.167969 " fill-opacity="1" fill-rule="nonzero"/><path fill="#000000" d="M 409.585938 622.101562 L 389.785156 622.101562 C 385.355469 622.101562 381.765625 618.417969 381.765625 613.875 L 381.765625 597.363281 C 381.765625 593.019531 378.46875 589.453125 374.257812 588.96875 C 364.234375 587.832031 354.535156 585.703125 345.164062 582.597656 C 336.058594 579.527344 328.167969 575.890625 321.5 571.675781 C 318.433594 569.738281 317.316406 565.808594 318.585938 562.355469 L 332.167969 525.316406 C 333.996094 520.332031 339.898438 518.425781 344.441406 521.003906 C 350.578125 524.476562 357.175781 527.453125 364.222656 529.917969 C 374.730469 533.390625 384.816406 535.125 394.472656 535.125 C 402.773438 535.125 408.710938 534.207031 412.265625 532.371094 C 415.824219 530.324219 417.605469 527.363281 417.605469 523.488281 C 417.605469 518.996094 415.230469 515.628906 410.484375 513.382812 C 405.914062 511.136719 398.285156 508.6875 387.613281 506.035156 C 373.882812 502.5625 362.449219 498.886719 353.296875 495.007812 C 344.148438 490.925781 336.179688 484.390625 329.402344 475.40625 C 322.625 466.21875 319.234375 453.867188 319.234375 438.351562 C 319.234375 420.382812 324.574219 404.96875 335.246094 392.105469 C 344.871094 380.695312 358.152344 372.980469 375.105469 368.964844 C 378.921875 368.058594 381.765625 364.660156 381.765625 360.648438 L 381.765625 342.449219 C 381.765625 337.90625 385.355469 334.226562 389.785156 334.226562 L 409.585938 334.226562 C 414.015625 334.226562 417.605469 337.90625 417.605469 342.449219 L 417.605469 359.609375 C 417.605469 363.8125 420.695312 367.308594 424.742188 367.957031 C 439.59375 370.320312 452.644531 374.800781 463.886719 381.390625 C 467.078125 383.261719 468.34375 387.242188 467.117188 390.796875 L 454.40625 427.683594 C 452.726562 432.570312 447.113281 434.640625 442.597656 432.304688 C 428.277344 424.902344 414.609375 421.199219 401.589844 421.199219 C 386.167969 421.199219 378.457031 425.691406 378.457031 434.671875 C 378.457031 438.960938 380.75 442.226562 385.320312 444.476562 C 389.898438 446.515625 397.4375 448.761719 407.945312 451.214844 C 421.5 454.277344 432.941406 457.847656 442.257812 461.929688 C 451.578125 465.808594 459.625 472.242188 466.40625 481.226562 C 473.355469 490.207031 476.828125 502.460938 476.828125 517.976562 C 476.828125 535.125 471.660156 550.132812 461.320312 562.996094 C 452.316406 574.207031 439.851562 582.054688 423.933594 586.539062 C 420.273438 587.570312 417.605469 590.894531 417.605469 594.785156 L 417.605469 613.875 C 417.605469 618.417969 414.015625 622.101562 409.585938 622.101562 Z M 409.585938 622.101562 " fill-opacity="1" fill-rule="nonzero"/><path stroke-linecap="round" transform="matrix(41.124999, 0, 0, 41.124992, -83.030676, -118.149459)" fill="none" stroke-linejoin="round" d="M 9.592312 5.000026 L 13.814101 5.000026 C 14.895408 5.000026 14.301563 6.66397 13.863778 7.678978 L 13.365583 8.843017 L 13.298334 9.000027 C 13.770218 8.97647 14.236879 9.110494 14.628216 9.381961 C 16.092122 10.755821 17.280192 12.409792 18.125556 14.250978 C 18.454964 14.931829 18.585663 15.695792 18.501886 16.451016 C 18.401297 18.375883 16.895598 19.909793 15.018224 20.000029 L 8.388189 20.000029 C 6.51034 19.912453 5.002361 18.380158 4.899682 16.455005 C 4.815906 15.699781 4.946605 14.935818 5.276012 14.254967 C 6.122422 12.411976 7.312201 10.756486 8.778197 9.381961 C 9.169629 9.110494 9.636195 8.97647 10.108079 9.000027 L 10.030097 8.818986 L 9.542635 7.678978 C 9.106844 6.66397 8.510055 5.000026 9.592312 5.000026 Z M 9.592312 5.000026 " stroke="#000000" stroke-width="1.5" stroke-opacity="1" stroke-miterlimit="4"/><path fill="#000000" d="M 463.863281 282.820312 C 480.894531 282.820312 494.707031 269.011719 494.707031 251.976562 C 494.707031 234.941406 480.894531 221.132812 463.863281 221.132812 Z M 332.664062 221.132812 C 315.632812 221.132812 301.820312 234.941406 301.820312 251.976562 C 301.820312 269.011719 315.632812 282.820312 332.664062 282.820312 Z M 574.046875 237.578125 C 588.808594 229.074219 593.882812 210.214844 585.378906 195.453125 C 576.875 180.695312 558.019531 175.621094 543.257812 184.125 Z M 466.628906 245.519531 L 472.582031 275.78125 L 472.671875 275.765625 Z M 329.457031 244.53125 L 335.84375 214.355469 L 335.5625 214.296875 Z M 252.796875 183.855469 C 237.886719 175.617188 219.121094 181.023438 210.882812 195.929688 C 202.640625 210.839844 208.046875 229.605469 222.957031 237.847656 Z M 463.863281 221.132812 L 332.664062 221.132812 L 332.664062 282.820312 L 463.863281 282.820312 Z M 543.257812 184.125 C 517.472656 198.976562 489.566406 209.488281 460.589844 215.273438 L 472.671875 275.765625 C 508.257812 268.660156 542.484375 255.761719 574.046875 237.578125 Z M 460.679688 215.253906 C 419.414062 223.371094 376.996094 223.0625 335.84375 214.355469 L 323.074219 274.707031 C 372.355469 285.136719 423.160156 285.5 472.582031 275.78125 Z M 335.5625 214.296875 C 306.664062 208.464844 278.765625 198.207031 252.796875 183.855469 L 222.957031 237.847656 C 254.410156 255.226562 288.253906 267.679688 323.355469 274.765625 Z M 335.5625 214.296875 " fill-opacity="1" fill-rule="nonzero"/></svg>