<svg xmlns="http://www.w3.org/2000/svg" xmlns:xlink="http://www.w3.org/1999/xlink" width="1080" zoomAndPan="magnify" viewBox="0 0 810 809.999993" height="1080" preserveAspectRatio="xMidYMid meet" version="1.0"><path stroke-linecap="butt" transform="matrix(68.656257, 0, 0, 68.656257, -412.729848, -415.919311)" fill="none" stroke-linejoin="miter" d="M 21.999989 12.000018 C 21.999989 12.163651 21.996006 12.327226 21.987927 12.490687 C 21.979905 12.654149 21.9679 12.817326 21.951855 12.980162 C 21.93581 13.143054 21.915783 13.305435 21.891773 13.467303 C 21.867763 13.629172 21.83977 13.790414 21.807852 13.950917 C 21.775933 14.11142 21.740089 14.27107 21.700319 14.429809 C 21.660549 14.588548 21.61691 14.746263 21.569402 14.90284 C 21.521894 15.059474 21.470574 15.2148 21.415442 15.368873 C 21.36031 15.523004 21.301423 15.675655 21.23878 15.826827 C 21.176138 15.978056 21.109855 16.127578 21.039873 16.275564 C 20.969891 16.423493 20.896382 16.569658 20.819231 16.713946 C 20.74208 16.858291 20.661402 17.000644 20.57731 17.141006 C 20.493162 17.281424 20.405599 17.419624 20.31468 17.555719 C 20.22376 17.691757 20.129541 17.825519 20.032078 17.957005 C 19.934559 18.088434 19.83391 18.217417 19.730076 18.343953 C 19.626298 18.470432 19.519391 18.594351 19.409525 18.715596 C 19.299602 18.836841 19.186778 18.955355 19.071052 19.071081 C 18.955326 19.186807 18.836869 19.299631 18.715567 19.409497 C 18.594322 19.519419 18.47046 19.626269 18.343924 19.730104 C 18.217445 19.833939 18.088462 19.934588 17.956976 20.03205 C 17.825547 20.129569 17.691785 20.223789 17.55569 20.314708 C 17.419596 20.405628 17.281396 20.493133 17.141034 20.577282 C 17.000672 20.661431 16.858319 20.742052 16.713974 20.819203 C 16.56963 20.896353 16.423465 20.96992 16.275536 21.039901 C 16.127607 21.109883 15.978028 21.176167 15.826856 21.238809 C 15.675627 21.301394 15.522975 21.360282 15.368902 21.415414 C 15.214828 21.470602 15.059446 21.521922 14.902868 21.56943 C 14.746234 21.616938 14.588576 21.66052 14.42978 21.700291 C 14.271041 21.740061 14.111392 21.775905 13.950889 21.807824 C 13.790386 21.839799 13.6292 21.867735 13.467332 21.891745 C 13.305406 21.915755 13.143026 21.935782 12.98019 21.951827 C 12.817297 21.967871 12.65412 21.979933 12.490659 21.987956 C 12.327197 21.995978 12.163679 22.000017 11.99999 22.000017 C 11.836358 22.000017 11.672782 21.995978 11.509321 21.987956 C 11.345859 21.979933 11.182682 21.967871 11.019847 21.951827 C 10.856954 21.935782 10.694573 21.915755 10.532705 21.891745 C 10.370837 21.867735 10.209594 21.839799 10.049091 21.807824 C 9.888588 21.775905 9.728939 21.740061 9.570199 21.700291 C 9.41146 21.66052 9.253745 21.616881 9.097168 21.56943 C 8.940534 21.521922 8.785209 21.470602 8.631078 21.415414 C 8.477004 21.360282 8.324353 21.301394 8.173181 21.238809 C 8.021952 21.176167 7.872373 21.109883 7.724444 21.039901 C 7.576515 20.96992 7.43035 20.896353 7.286005 20.819203 C 7.141718 20.742052 6.999364 20.661431 6.858946 20.577282 C 6.718584 20.493133 6.580384 20.405628 6.444289 20.314708 C 6.308195 20.223789 6.174433 20.129569 6.043004 20.03205 C 5.911574 19.934588 5.782592 19.833939 5.656056 19.730104 C 5.529576 19.626269 5.405657 19.519419 5.284412 19.409497 C 5.163168 19.299631 5.044654 19.186807 4.928928 19.071081 C 4.813202 18.955355 4.700377 18.836841 4.590512 18.715596 C 4.480589 18.594351 4.373739 18.470432 4.269904 18.343953 C 4.166069 18.217417 4.065421 18.088434 3.967901 17.957005 C 3.870439 17.825519 3.77622 17.691757 3.6853 17.555719 C 3.594381 17.419624 3.506875 17.281424 3.422726 17.141006 C 3.338577 17.000644 3.257956 16.858291 3.180805 16.713946 C 3.103655 16.569658 3.030089 16.423493 2.960107 16.275564 C 2.890125 16.127578 2.823841 15.978056 2.761199 15.826827 C 2.698557 15.675655 2.63967 15.523004 2.584538 15.368873 C 2.529406 15.2148 2.478086 15.059474 2.430578 14.90284 C 2.38307 14.746263 2.339431 14.588548 2.299661 14.429809 C 2.259947 14.27107 2.224103 14.11142 2.192128 13.950917 C 2.160209 13.790414 2.132273 13.629172 2.108207 13.467303 C 2.084196 13.305435 2.064169 13.143054 2.048125 12.980162 C 2.032137 12.817326 2.020075 12.654149 2.012053 12.490687 C 2.00403 12.327226 1.999991 12.163651 1.999991 12.000018 C 1.999991 11.836329 2.00403 11.672811 2.012053 11.509349 C 2.020075 11.345888 2.032137 11.182711 2.048125 11.019818 C 2.064169 10.856983 2.084196 10.694602 2.108207 10.532677 C 2.132273 10.370808 2.160209 10.209623 2.192128 10.04912 C 2.224103 9.88856 2.259947 9.728967 2.299661 9.570171 C 2.339431 9.411432 2.38307 9.253774 2.430578 9.09714 C 2.478086 8.940563 2.529406 8.78518 2.584538 8.631107 C 2.63967 8.477033 2.698557 8.324382 2.761199 8.173153 C 2.823841 8.021981 2.890125 7.872402 2.960107 7.724473 C 3.030089 7.576487 3.103655 7.430378 3.180805 7.286034 C 3.257956 7.141689 3.338577 6.999336 3.422726 6.858974 C 3.506875 6.718612 3.594381 6.580356 3.6853 6.444318 C 3.77622 6.308223 3.870439 6.174461 3.967901 6.043032 C 4.065421 5.911546 4.166069 5.782563 4.269904 5.656084 C 4.373739 5.529548 4.480589 5.405686 4.590512 5.284384 C 4.700377 5.163139 4.813202 5.044682 4.928928 4.928956 C 5.044654 4.81323 5.163168 4.700406 5.284412 4.590483 C 5.405657 4.480561 5.529576 4.373711 5.656056 4.269876 C 5.782592 4.166098 5.911574 4.065392 6.043004 3.96793 C 6.174433 3.870411 6.308195 3.776248 6.444289 3.685329 C 6.580384 3.594352 6.718584 3.506847 6.858946 3.422698 C 6.999364 3.338549 7.141718 3.257928 7.286005 3.180777 C 7.43035 3.103626 7.576515 3.03006 7.724444 2.960078 C 7.872373 2.890154 8.021952 2.823813 8.173181 2.761228 C 8.324353 2.698586 8.477004 2.639698 8.631078 2.584566 C 8.785209 2.529434 8.940534 2.478114 9.097168 2.430606 C 9.253745 2.383099 9.41146 2.339459 9.570199 2.299689 C 9.728939 2.259919 9.888588 2.224075 10.049091 2.192156 C 10.209594 2.160238 10.370837 2.132245 10.532705 2.108235 C 10.694573 2.084225 10.856954 2.064198 11.019847 2.048153 C 11.182682 2.032109 11.345859 2.020104 11.509321 2.012024 C 11.672782 2.004002 11.836358 2.000019 11.99999 2.000019 C 12.163679 2.000019 12.327197 2.004002 12.490659 2.012024 C 12.65412 2.020104 12.817297 2.032109 12.98019 2.048153 C 13.143026 2.064198 13.305406 2.084225 13.467332 2.108235 C 13.6292 2.132245 13.790386 2.160238 13.950889 2.192156 C 14.111392 2.224075 14.271041 2.259919 14.42978 2.299689 C 14.588576 2.339459 14.746234 2.383099 14.902868 2.430606 C 15.059446 2.478114 15.214828 2.529434 15.368902 2.584566 C 15.522975 2.639698 15.675627 2.698586 15.826856 2.761228 C 15.978028 2.823813 16.127607 2.890154 16.275536 2.960078 C 16.423465 3.03006 16.56963 3.103626 16.713974 3.180777 C 16.858319 3.257928 17.000672 3.338549 17.141034 3.422698 C 17.281396 3.506847 17.419596 3.594352 17.55569 3.685329 C 17.691785 3.776248 17.825547 3.870411 17.956976 3.96793 C 18.088462 4.065392 18.217445 4.166098 18.343924 4.269876 C 18.47046 4.373711 18.594322 4.480561 18.715567 4.590483 C 18.836869 4.700406 18.955326 4.81323 19.071052 4.928956 C 19.186778 5.044682 19.299602 5.163139 19.409525 5.284384 C 19.519391 5.405686 19.626298 5.529548 19.730076 5.656084 C 19.83391 5.782563 19.934559 5.911546 20.032078 6.043032 C 20.129541 6.174461 20.22376 6.308223 20.31468 6.444318 C 20.405599 6.580356 20.493162 6.718612 20.57731 6.858974 C 20.661402 6.999336 20.74208 7.141689 20.819231 7.286034 C 20.896382 7.430378 20.969891 7.576487 21.039873 7.724473 C 21.109855 7.872402 21.176138 8.021981 21.23878 8.173153 C 21.301423 8.324382 21.36031 8.477033 21.415442 8.631107 C 21.470574 8.78518 21.521894 8.940563 21.569402 9.09714 C 21.61691 9.253774 21.660549 9.411432 21.700319 9.570171 C 21.740089 9.728967 21.775933 9.88856 21.807852 10.04912 C 21.83977 10.209623 21.867763 10.370808 21.891773 10.532677 C 21.915783 10.694602 21.93581 10.856983 21.951855 11.019818 C 21.9679 11.182711 21.979905 11.345888 21.987927 11.509349 C 21.996006 11.672811 21.999989 11.836329 21.999989 12.000018 Z M 21.999989 12.000018 " stroke="#1c274c" stroke-width="1.5" stroke-opacity="1" stroke-miterlimit="4"/><path stroke-linecap="round" transform="matrix(68.656257, 0, 0, 68.656257, -412.729848, -415.919311)" fill="none" stroke-linejoin="miter" d="M 14.49999 9.500019 L 9.49999 14.500018 M 9.49999 9.500019 L 14.49999 14.500018 " stroke="#1c274c" stroke-width="1.5" stroke-opacity="1" stroke-miterlimit="4"/></svg>