<svg xmlns="http://www.w3.org/2000/svg" xmlns:xlink="http://www.w3.org/1999/xlink" width="1080" zoomAndPan="magnify" viewBox="0 0 810 809.999993" height="1080" preserveAspectRatio="xMidYMid meet" version="1.0"><defs><clipPath id="aa0bd20781"><path d="M 68.851562 0 L 740.851562 0 L 740.851562 810 L 68.851562 810 Z M 68.851562 0 " clip-rule="nonzero"/></clipPath></defs><g clip-path="url(#aa0bd20781)"><path fill="#b3b3b3" d="M 646.246094 137.847656 L 603.160156 137.847656 L 603.160156 94.761719 C 603.160156 80.488281 591.582031 68.910156 577.308594 68.910156 L 496.171875 68.910156 C 484.894531 29.171875 448.273438 -0.0273438 404.96875 -0.0273438 C 361.667969 -0.0273438 325.042969 29.171875 313.765625 68.910156 L 232.628906 68.910156 C 218.359375 68.910156 206.777344 80.488281 206.777344 94.761719 L 206.777344 137.847656 L 163.695312 137.847656 C 111.417969 137.847656 68.90625 180.359375 68.90625 232.632812 L 68.90625 715.1875 C 68.90625 767.460938 111.417969 809.972656 163.695312 809.972656 L 646.246094 809.972656 C 698.519531 809.972656 741.035156 767.460938 741.035156 715.1875 L 741.035156 232.632812 C 741.035156 180.359375 698.519531 137.847656 646.246094 137.847656 Z M 258.480469 120.613281 L 336.035156 120.613281 C 350.304688 120.613281 361.886719 109.03125 361.886719 94.761719 C 361.886719 70.996094 381.207031 51.675781 404.96875 51.675781 C 428.734375 51.675781 448.054688 70.996094 448.054688 94.761719 C 448.054688 109.03125 459.632812 120.613281 473.90625 120.613281 L 551.460938 120.613281 L 551.460938 206.78125 L 258.480469 206.78125 Z M 689.332031 715.1875 C 689.332031 738.949219 670.011719 758.269531 646.246094 758.269531 L 163.695312 758.269531 C 139.929688 758.269531 120.609375 738.949219 120.609375 715.1875 L 120.609375 232.632812 C 120.609375 208.867188 139.929688 189.546875 163.695312 189.546875 L 206.777344 189.546875 L 206.777344 232.632812 C 206.777344 246.90625 218.359375 258.484375 232.628906 258.484375 L 577.308594 258.484375 C 591.582031 258.484375 603.160156 246.90625 603.160156 232.632812 L 603.160156 189.546875 L 646.246094 189.546875 C 670.011719 189.546875 689.332031 208.867188 689.332031 232.632812 Z M 689.332031 715.1875 " fill-opacity="1" fill-rule="nonzero"/></g><path fill="#b3b3b3" d="M 283.289062 334.992188 L 232.628906 385.652344 L 216.4375 369.460938 C 206.339844 359.363281 189.980469 359.363281 179.882812 369.460938 C 169.785156 379.558594 169.785156 395.917969 179.882812 406.015625 C 179.882812 406.015625 214.300781 440.433594 214.351562 440.484375 C 223.917969 450.050781 240.808594 450.582031 250.90625 440.484375 L 319.84375 371.550781 C 329.941406 361.449219 329.941406 345.09375 319.84375 334.992188 C 309.746094 324.894531 293.386719 324.894531 283.289062 334.992188 Z M 283.289062 334.992188 " fill-opacity="1" fill-rule="nonzero"/><path fill="#b3b3b3" d="M 611.777344 327.421875 L 404.96875 327.421875 C 390.699219 327.421875 379.117188 339 379.117188 353.269531 C 379.117188 367.542969 390.699219 379.121094 404.96875 379.121094 L 611.777344 379.121094 C 626.050781 379.121094 637.628906 367.542969 637.628906 353.269531 C 637.628906 339 626.050781 327.421875 611.777344 327.421875 Z M 611.777344 327.421875 " fill-opacity="1" fill-rule="nonzero"/><path fill="#b3b3b3" d="M 404.96875 482.527344 L 542.84375 482.527344 C 557.113281 482.527344 568.695312 470.949219 568.695312 456.675781 C 568.695312 442.402344 557.113281 430.824219 542.84375 430.824219 L 404.96875 430.824219 C 390.699219 430.824219 379.117188 442.402344 379.117188 456.675781 C 379.117188 470.949219 390.699219 482.527344 404.96875 482.527344 Z M 404.96875 482.527344 " fill-opacity="1" fill-rule="nonzero"/><path fill="#b3b3b3" d="M 283.289062 541.800781 L 232.628906 592.460938 L 216.4375 576.269531 C 206.339844 566.171875 189.980469 566.171875 179.882812 576.269531 C 169.785156 586.367188 169.785156 602.726562 179.882812 612.824219 C 179.882812 612.824219 214.277344 647.21875 214.351562 647.292969 C 223.910156 656.851562 240.804688 657.394531 250.90625 647.292969 L 319.84375 578.355469 C 329.941406 568.257812 329.941406 551.902344 319.84375 541.800781 C 309.746094 531.703125 293.386719 531.703125 283.289062 541.800781 Z M 283.289062 541.800781 " fill-opacity="1" fill-rule="nonzero"/><path fill="#b3b3b3" d="M 611.777344 534.230469 L 404.96875 534.230469 C 390.699219 534.230469 379.117188 545.808594 379.117188 560.078125 C 379.117188 574.351562 390.699219 585.929688 404.96875 585.929688 L 611.777344 585.929688 C 626.050781 585.929688 637.628906 574.351562 637.628906 560.078125 C 637.628906 545.808594 626.050781 534.230469 611.777344 534.230469 Z M 611.777344 534.230469 " fill-opacity="1" fill-rule="nonzero"/><path fill="#b3b3b3" d="M 542.84375 637.632812 L 404.96875 637.632812 C 390.699219 637.632812 379.117188 649.210938 379.117188 663.484375 C 379.117188 677.757812 390.699219 689.335938 404.96875 689.335938 L 542.84375 689.335938 C 557.113281 689.335938 568.695312 677.757812 568.695312 663.484375 C 568.695312 649.210938 557.113281 637.632812 542.84375 637.632812 Z M 542.84375 637.632812 " fill-opacity="1" fill-rule="nonzero"/></svg>