<svg xmlns="http://www.w3.org/2000/svg" xmlns:xlink="http://www.w3.org/1999/xlink" width="1080" zoomAndPan="magnify" viewBox="0 0 810 809.999993" height="1080" preserveAspectRatio="xMidYMid meet" version="1.0"><defs><clipPath id="a3a38d8cd3"><path d="M 154 290.070312 L 656 290.070312 L 656 519.570312 L 154 519.570312 Z M 154 290.070312 " clip-rule="nonzero"/></clipPath></defs><path fill="#bc3fde" d="M 405 0 C 180.898438 0 0 180.898438 0 405 C 0 629.101562 180.898438 810 405 810 C 629.101562 810 810 629.101562 810 405 C 810 180.898438 629.101562 0 405 0 Z M 405 774 C 201.601562 774 36 608.398438 36 405 C 36 201.601562 201.601562 36 405 36 C 608.398438 36 774 201.601562 774 405 C 774 608.398438 608.398438 774 405 774 Z M 405 774 " fill-opacity="1" fill-rule="nonzero"/><g clip-path="url(#a3a38d8cd3)"><path fill="#bc3fde" d="M 622.070312 324.261719 C 599.996094 302.1875 570.605469 290.105469 539.429688 290.285156 C 508.210938 290.449219 478.992188 302.824219 457.152344 325.132812 L 419.449219 363.640625 L 446.417969 389.5 L 483.851562 351.269531 C 498.652344 336.148438 518.464844 327.757812 539.628906 327.644531 C 539.773438 327.644531 539.914062 327.644531 540.058594 327.644531 C 561.058594 327.644531 580.789062 335.816406 595.652344 350.679688 C 625.664062 380.691406 625.664062 429.519531 595.652344 459.527344 C 580.789062 474.390625 561.058594 482.5625 540.058594 482.5625 C 539.914062 482.5625 539.773438 482.5625 539.628906 482.5625 C 518.464844 482.449219 498.652344 474.058594 483.851562 458.9375 L 431.140625 405.105469 L 431.167969 405.082031 L 431.144531 405.097656 L 405 378.398438 L 405 378.402344 L 352.84375 325.132812 C 331.003906 302.824219 301.785156 290.449219 270.566406 290.285156 C 239.402344 290.105469 210 302.183594 187.925781 324.261719 C 143.347656 368.835938 143.347656 441.367188 187.925781 485.945312 C 209.851562 507.875 238.953125 519.921875 269.933594 519.921875 C 270.144531 519.921875 270.355469 519.921875 270.566406 519.921875 C 301.785156 519.757812 331.003906 507.382812 352.84375 485.078125 L 390.550781 446.566406 L 363.582031 420.703125 L 326.148438 458.9375 C 311.339844 474.058594 291.535156 482.449219 270.371094 482.5625 C 270.226562 482.5625 270.085938 482.5625 269.941406 482.5625 C 248.9375 482.5625 229.207031 474.390625 214.34375 459.527344 C 184.335938 429.519531 184.335938 380.691406 214.34375 350.679688 C 229.207031 335.816406 248.9375 327.644531 269.941406 327.644531 C 270.082031 327.644531 270.226562 327.644531 270.371094 327.644531 C 291.535156 327.757812 311.339844 336.148438 326.148438 351.269531 L 378.855469 405.105469 L 405 431.808594 L 457.152344 485.078125 C 478.992188 507.382812 508.210938 519.757812 539.429688 519.921875 C 539.640625 519.921875 539.851562 519.921875 540.0625 519.921875 C 571.046875 519.921875 600.148438 507.871094 622.070312 485.945312 C 666.652344 441.367188 666.652344 368.835938 622.070312 324.261719 " fill-opacity="1" fill-rule="nonzero"/></g></svg>