<svg xmlns="http://www.w3.org/2000/svg" xmlns:xlink="http://www.w3.org/1999/xlink" width="500" zoomAndPan="magnify" viewBox="0 0 375 374.999991" height="500" preserveAspectRatio="xMidYMid meet" version="1.0"><defs><clipPath id="d14507fb71"><path d="M 19 11 L 356 11 L 356 362.605469 L 19 362.605469 Z M 19 11 " clip-rule="nonzero"/></clipPath></defs><g clip-path="url(#d14507fb71)"><path fill="#bc3fde" d="M 337.046875 87.550781 L 305.105469 87.550781 C 310.917969 77.214844 306.984375 48.71875 301.695312 32.871094 C 284.363281 -18.113281 216.054688 37.324219 204.21875 47.820312 C 199.109375 43.71875 186.496094 45.664062 180.4375 45.230469 C 177.1875 45.246094 174.179688 46.105469 171.417969 47.816406 C 159.6875 37.394531 91.285156 -18.097656 73.960938 32.808594 C 68.671875 48.667969 64.699219 77.199219 70.535156 87.550781 L 38.582031 87.550781 C 37.964844 87.550781 37.347656 87.582031 36.734375 87.640625 C 36.121094 87.703125 35.511719 87.792969 34.90625 87.914062 C 34.300781 88.035156 33.703125 88.183594 33.113281 88.363281 C 32.523438 88.542969 31.941406 88.753906 31.371094 88.988281 C 30.800781 89.226562 30.246094 89.488281 29.699219 89.78125 C 29.15625 90.070312 28.628906 90.386719 28.117188 90.730469 C 27.601562 91.074219 27.105469 91.441406 26.628906 91.832031 C 26.152344 92.226562 25.695312 92.640625 25.261719 93.074219 C 24.824219 93.511719 24.410156 93.96875 24.019531 94.445312 C 23.625 94.921875 23.257812 95.417969 22.917969 95.929688 C 22.574219 96.441406 22.257812 96.972656 21.964844 97.515625 C 21.675781 98.058594 21.410156 98.617188 21.175781 99.1875 C 20.9375 99.757812 20.730469 100.335938 20.550781 100.925781 C 20.371094 101.519531 20.21875 102.117188 20.097656 102.722656 C 19.980469 103.324219 19.886719 103.9375 19.828125 104.550781 C 19.765625 105.164062 19.734375 105.78125 19.734375 106.398438 L 19.734375 172.828125 C 19.734375 173.238281 19.773438 173.648438 19.855469 174.050781 C 19.933594 174.457031 20.054688 174.851562 20.210938 175.230469 C 20.371094 175.613281 20.5625 175.972656 20.792969 176.316406 C 21.023438 176.660156 21.28125 176.976562 21.574219 177.269531 C 21.867188 177.5625 22.183594 177.820312 22.527344 178.050781 C 22.867188 178.28125 23.230469 178.472656 23.613281 178.632812 C 23.992188 178.789062 24.386719 178.90625 24.789062 178.988281 C 25.195312 179.070312 25.605469 179.109375 26.015625 179.109375 L 38.332031 179.109375 L 38.332031 344.109375 C 38.332031 344.726562 38.363281 345.34375 38.421875 345.957031 C 38.484375 346.570312 38.574219 347.179688 38.695312 347.785156 C 38.816406 348.390625 38.96875 348.988281 39.144531 349.578125 C 39.324219 350.167969 39.535156 350.75 39.769531 351.320312 C 40.007812 351.890625 40.269531 352.445312 40.5625 352.988281 C 40.851562 353.535156 41.171875 354.0625 41.511719 354.574219 C 41.855469 355.089844 42.222656 355.582031 42.613281 356.0625 C 43.007812 356.539062 43.421875 356.996094 43.855469 357.429688 C 44.292969 357.867188 44.75 358.28125 45.226562 358.671875 C 45.703125 359.0625 46.199219 359.429688 46.710938 359.773438 C 47.226562 360.117188 47.753906 360.433594 48.296875 360.726562 C 48.839844 361.015625 49.398438 361.28125 49.96875 361.515625 C 50.539062 361.753906 51.117188 361.960938 51.710938 362.140625 C 52.300781 362.320312 52.898438 362.46875 53.503906 362.589844 C 54.109375 362.710938 54.71875 362.804688 55.332031 362.863281 C 55.945312 362.925781 56.5625 362.957031 57.179688 362.957031 C 90.644531 362.960938 318.449219 362.957031 318.449219 362.957031 C 319.066406 362.957031 319.683594 362.925781 320.296875 362.863281 C 320.910156 362.804688 321.519531 362.710938 322.125 362.589844 C 322.730469 362.46875 323.328125 362.320312 323.917969 362.140625 C 324.507812 361.960938 325.089844 361.753906 325.660156 361.515625 C 326.230469 361.28125 326.785156 361.015625 327.332031 360.726562 C 327.875 360.433594 328.402344 360.117188 328.917969 359.773438 C 329.429688 359.429688 329.925781 359.0625 330.402344 358.671875 C 330.878906 358.28125 331.335938 357.867188 331.773438 357.429688 C 332.207031 356.996094 332.621094 356.539062 333.011719 356.0625 C 333.40625 355.582031 333.773438 355.089844 334.117188 354.574219 C 334.457031 354.0625 334.773438 353.535156 335.066406 352.988281 C 335.359375 352.445312 335.621094 351.890625 335.859375 351.320312 C 336.09375 350.75 336.300781 350.167969 336.480469 349.578125 C 336.660156 348.988281 336.8125 348.390625 336.933594 347.785156 C 337.054688 347.179688 337.144531 346.570312 337.207031 345.957031 C 337.265625 345.34375 337.296875 344.726562 337.296875 344.109375 L 337.296875 179.109375 L 349.613281 179.109375 C 350.023438 179.109375 350.433594 179.070312 350.835938 178.988281 C 351.242188 178.90625 351.636719 178.789062 352.015625 178.632812 C 352.398438 178.472656 352.757812 178.28125 353.101562 178.050781 C 353.445312 177.820312 353.761719 177.5625 354.054688 177.269531 C 354.347656 176.976562 354.605469 176.660156 354.835938 176.316406 C 355.066406 175.972656 355.257812 175.613281 355.417969 175.230469 C 355.574219 174.851562 355.691406 174.457031 355.773438 174.050781 C 355.855469 173.648438 355.894531 173.238281 355.894531 172.828125 L 355.894531 106.398438 C 355.894531 105.78125 355.863281 105.164062 355.800781 104.550781 C 355.742188 103.9375 355.648438 103.324219 355.527344 102.722656 C 355.40625 102.117188 355.257812 101.519531 355.078125 100.925781 C 354.898438 100.335938 354.691406 99.757812 354.453125 99.1875 C 354.21875 98.617188 353.953125 98.058594 353.664062 97.515625 C 353.371094 96.972656 353.054688 96.441406 352.710938 95.929688 C 352.367188 95.417969 352 94.921875 351.609375 94.445312 C 351.21875 93.96875 350.804688 93.511719 350.367188 93.074219 C 349.929688 92.640625 349.476562 92.226562 348.996094 91.832031 C 348.519531 91.441406 348.027344 91.074219 347.511719 90.730469 C 347 90.386719 346.472656 90.070312 345.925781 89.78125 C 345.382812 89.488281 344.824219 89.226562 344.257812 88.988281 C 343.6875 88.753906 343.105469 88.542969 342.515625 88.363281 C 341.925781 88.183594 341.328125 88.035156 340.722656 87.914062 C 340.117188 87.792969 339.507812 87.703125 338.894531 87.640625 C 338.277344 87.582031 337.664062 87.550781 337.046875 87.550781 Z M 220.765625 87.550781 C 236.957031 72.660156 276.042969 64.011719 294.976562 61.328125 C 296.265625 72.058594 296.089844 85.363281 288.015625 87.550781 Z M 214.484375 166.542969 C 214.019531 166.496094 161.601562 166.578125 161.144531 166.542969 L 161.144531 100.113281 C 161.144531 100.113281 209.394531 100.125 214.484375 100.113281 Z M 268.238281 24.410156 C 285.0625 20.203125 290.664062 35.4375 292.785156 48.972656 C 276.550781 51.335938 235.71875 58.910156 212.671875 77.558594 C 213.035156 70.957031 212.773438 64.378906 211.890625 57.824219 C 220.082031 50.445312 228.921875 43.945312 238.40625 38.320312 C 247.890625 32.699219 257.835938 28.058594 268.238281 24.410156 Z M 180.4375 57.796875 L 195.191406 57.796875 C 195.515625 57.796875 195.835938 57.828125 196.152344 57.890625 C 196.46875 57.953125 196.773438 58.046875 197.070312 58.171875 C 197.371094 58.296875 197.652344 58.449219 197.921875 58.628906 C 198.191406 58.804688 198.4375 59.011719 198.664062 59.238281 C 198.894531 59.46875 199.097656 59.714844 199.277344 59.984375 C 199.457031 60.25 199.605469 60.535156 199.730469 60.832031 C 199.855469 61.132812 199.949219 61.4375 200.011719 61.753906 C 200.074219 62.070312 200.105469 62.390625 200.105469 62.714844 L 200.105469 87.550781 L 175.523438 87.550781 L 175.523438 62.714844 C 175.523438 62.390625 175.554688 62.070312 175.617188 61.753906 C 175.679688 61.4375 175.773438 61.132812 175.898438 60.832031 C 176.019531 60.535156 176.171875 60.25 176.351562 59.984375 C 176.53125 59.714844 176.734375 59.464844 176.960938 59.238281 C 177.191406 59.011719 177.4375 58.804688 177.707031 58.628906 C 177.976562 58.449219 178.257812 58.296875 178.554688 58.171875 C 178.855469 58.046875 179.160156 57.953125 179.476562 57.890625 C 179.792969 57.828125 180.113281 57.796875 180.4375 57.796875 Z M 86.027344 36.300781 C 86.1875 35.757812 86.367188 35.222656 86.578125 34.695312 C 86.785156 34.167969 87.019531 33.652344 87.277344 33.152344 C 87.539062 32.648438 87.820312 32.15625 88.128906 31.683594 C 88.4375 31.207031 88.765625 30.746094 89.117188 30.304688 C 89.46875 29.859375 89.84375 29.4375 90.238281 29.027344 C 90.628906 28.621094 91.042969 28.234375 91.476562 27.871094 C 91.90625 27.503906 92.355469 27.160156 92.820312 26.835938 C 93.285156 26.515625 93.765625 26.214844 94.261719 25.941406 C 94.757812 25.664062 95.261719 25.414062 95.78125 25.191406 C 96.300781 24.964844 96.832031 24.765625 97.371094 24.589844 C 97.910156 24.417969 98.453125 24.269531 99.007812 24.152344 C 99.5625 24.03125 100.117188 23.9375 100.679688 23.871094 C 101.242188 23.804688 101.808594 23.769531 102.375 23.757812 C 102.941406 23.75 103.503906 23.765625 104.070312 23.8125 C 104.632812 23.855469 105.195312 23.929688 105.75 24.027344 C 106.308594 24.128906 106.859375 24.257812 107.40625 24.410156 C 117.804688 28.0625 127.746094 32.695312 137.230469 38.320312 C 146.710938 43.941406 155.550781 50.441406 163.742188 57.816406 C 162.90625 64.371094 162.644531 70.949219 162.957031 77.546875 C 139.90625 58.910156 99.085938 51.335938 82.851562 48.972656 C 83.753906 44.808594 84.773438 40.5625 86.027344 36.300781 Z M 80.664062 61.328125 C 100.320312 64.109375 136.691406 72.191406 155.335938 87.550781 L 87.621094 87.550781 C 79.546875 85.363281 79.375 72.054688 80.664062 61.328125 Z M 32.300781 106.398438 C 32.300781 105.984375 32.339844 105.574219 32.421875 105.171875 C 32.503906 104.765625 32.621094 104.375 32.78125 103.992188 C 32.9375 103.613281 33.132812 103.25 33.359375 102.90625 C 33.589844 102.566406 33.851562 102.25 34.140625 101.957031 C 34.433594 101.664062 34.75 101.40625 35.09375 101.175781 C 35.4375 100.945312 35.796875 100.753906 36.179688 100.59375 C 36.558594 100.4375 36.953125 100.316406 37.355469 100.234375 C 37.761719 100.15625 38.167969 100.113281 38.582031 100.113281 L 148.578125 100.113281 L 148.578125 166.542969 C 141.042969 166.53125 36.8125 166.554688 32.296875 166.542969 Z M 50.894531 344.109375 L 50.894531 179.109375 L 156.964844 179.109375 L 156.964844 350.390625 L 57.179688 350.390625 C 56.765625 350.390625 56.355469 350.351562 55.953125 350.269531 C 55.546875 350.1875 55.15625 350.070312 54.773438 349.910156 C 54.394531 349.753906 54.03125 349.558594 53.6875 349.332031 C 53.347656 349.101562 53.03125 348.839844 52.738281 348.550781 C 52.445312 348.257812 52.1875 347.941406 51.957031 347.597656 C 51.726562 347.253906 51.535156 346.894531 51.375 346.511719 C 51.21875 346.132812 51.097656 345.738281 51.015625 345.335938 C 50.9375 344.929688 50.894531 344.523438 50.894531 344.109375 Z M 169.53125 350.390625 L 169.53125 179.109375 L 206.097656 179.109375 L 206.097656 350.390625 Z M 324.734375 344.109375 C 324.730469 344.523438 324.691406 344.929688 324.609375 345.335938 C 324.53125 345.738281 324.410156 346.132812 324.253906 346.511719 C 324.09375 346.894531 323.902344 347.253906 323.671875 347.597656 C 323.441406 347.941406 323.183594 348.257812 322.890625 348.550781 C 322.597656 348.839844 322.28125 349.101562 321.9375 349.332031 C 321.597656 349.558594 321.234375 349.753906 320.851562 349.910156 C 320.472656 350.070312 320.078125 350.1875 319.675781 350.269531 C 319.269531 350.351562 318.863281 350.390625 318.449219 350.390625 L 218.664062 350.390625 L 218.664062 179.109375 L 324.734375 179.109375 Z M 343.328125 166.542969 C 339.324219 166.566406 234.074219 166.527344 227.050781 166.542969 L 227.050781 100.113281 L 337.046875 100.113281 C 337.460938 100.113281 337.867188 100.15625 338.273438 100.234375 C 338.675781 100.316406 339.070312 100.4375 339.449219 100.59375 C 339.832031 100.753906 340.191406 100.945312 340.535156 101.175781 C 340.878906 101.40625 341.195312 101.664062 341.488281 101.957031 C 341.777344 102.25 342.039062 102.566406 342.269531 102.90625 C 342.496094 103.25 342.691406 103.613281 342.847656 103.992188 C 343.007812 104.375 343.125 104.765625 343.207031 105.171875 C 343.289062 105.574219 343.328125 105.984375 343.328125 106.398438 Z M 343.328125 166.542969 " fill-opacity="1" fill-rule="nonzero"/></g></svg>