<svg xmlns="http://www.w3.org/2000/svg" xmlns:xlink="http://www.w3.org/1999/xlink" width="500" zoomAndPan="magnify" viewBox="0 0 375 374.999991" height="500" preserveAspectRatio="xMidYMid meet" version="1.0"><defs><clipPath id="5b3ccaa512"><path d="M 211 54 L 358.648438 54 L 358.648438 329 L 211 329 Z M 211 54 " clip-rule="nonzero"/></clipPath><clipPath id="1d13565e0f"><path d="M 16.648438 54 L 251 54 L 251 329 L 16.648438 329 Z M 16.648438 54 " clip-rule="nonzero"/></clipPath></defs><g clip-path="url(#5b3ccaa512)"><path fill="#bc3fde" d="M 348.578125 328.082031 L 280.242188 328.082031 C 279.597656 328.082031 278.964844 328.019531 278.335938 327.894531 C 277.707031 327.769531 277.097656 327.582031 276.503906 327.335938 C 275.910156 327.09375 275.347656 326.792969 274.816406 326.433594 C 274.285156 326.078125 273.789062 325.675781 273.335938 325.222656 C 272.882812 324.769531 272.480469 324.273438 272.121094 323.742188 C 271.765625 323.207031 271.464844 322.644531 271.21875 322.054688 C 270.976562 321.460938 270.789062 320.851562 270.664062 320.222656 C 270.539062 319.59375 270.476562 318.957031 270.476562 318.316406 C 270.476562 317.675781 270.539062 317.042969 270.664062 316.414062 C 270.789062 315.785156 270.976562 315.171875 271.21875 314.582031 C 271.464844 313.988281 271.765625 313.425781 272.121094 312.894531 C 272.480469 312.359375 272.882812 311.867188 273.335938 311.414062 C 273.789062 310.960938 274.285156 310.554688 274.816406 310.199219 C 275.347656 309.84375 275.910156 309.542969 276.503906 309.296875 C 277.097656 309.054688 277.707031 308.867188 278.335938 308.742188 C 278.964844 308.617188 279.597656 308.554688 280.242188 308.554688 L 338.5625 308.554688 C 335.761719 255.835938 309.988281 219.195312 265.253906 204.902344 C 264.308594 204.601562 263.429688 204.164062 262.617188 203.59375 C 261.804688 203.023438 261.09375 202.34375 260.488281 201.554688 C 259.882812 200.769531 259.410156 199.910156 259.066406 198.976562 C 258.722656 198.042969 258.527344 197.082031 258.476562 196.089844 C 258.429688 195.097656 258.527344 194.121094 258.777344 193.160156 C 259.027344 192.199219 259.414062 191.296875 259.9375 190.453125 C 260.460938 189.609375 261.097656 188.863281 261.851562 188.214844 C 262.605469 187.566406 263.433594 187.042969 264.347656 186.648438 C 266.054688 185.925781 267.722656 185.121094 269.355469 184.242188 C 270.984375 183.359375 272.570312 182.402344 274.113281 181.371094 C 275.652344 180.339844 277.140625 179.234375 278.578125 178.0625 C 280.011719 176.890625 281.390625 175.648438 282.707031 174.347656 C 284.027344 173.042969 285.277344 171.679688 286.46875 170.253906 C 287.65625 168.832031 288.773438 167.355469 289.824219 165.824219 C 290.871094 164.296875 291.84375 162.722656 292.742188 161.097656 C 293.644531 159.476562 294.460938 157.816406 295.203125 156.117188 C 295.945312 154.417969 296.601562 152.6875 297.179688 150.921875 C 297.757812 149.160156 298.25 147.375 298.65625 145.566406 C 299.0625 143.757812 299.382812 141.933594 299.617188 140.09375 C 299.851562 138.253906 299.996094 136.40625 300.054688 134.554688 C 300.113281 132.703125 300.085938 130.847656 299.96875 129 C 299.851562 127.148438 299.644531 125.308594 299.351562 123.476562 C 299.058594 121.644531 298.683594 119.832031 298.21875 118.035156 C 297.753906 116.242188 297.203125 114.472656 296.574219 112.730469 C 295.941406 110.988281 295.226562 109.277344 294.433594 107.601562 C 293.636719 105.925781 292.765625 104.292969 291.816406 102.699219 C 290.863281 101.109375 289.84375 99.5625 288.746094 98.070312 C 287.648438 96.574219 286.484375 95.132812 285.25 93.75 C 284.015625 92.363281 282.722656 91.039062 281.363281 89.777344 C 280.003906 88.515625 278.589844 87.324219 277.117188 86.195312 C 275.644531 85.070312 274.121094 84.015625 272.546875 83.03125 C 270.976562 82.046875 269.359375 81.144531 267.703125 80.3125 C 266.042969 79.484375 264.347656 78.734375 262.621094 78.066406 C 260.890625 77.398438 259.132812 76.8125 257.347656 76.3125 C 255.5625 75.8125 253.757812 75.394531 251.933594 75.066406 C 250.109375 74.734375 248.273438 74.492188 246.425781 74.335938 C 244.578125 74.183594 242.726562 74.113281 240.871094 74.132812 C 239.015625 74.15625 237.167969 74.261719 235.324219 74.457031 C 233.480469 74.652344 231.648438 74.9375 229.832031 75.304688 C 228.015625 75.675781 226.21875 76.128906 224.445312 76.671875 C 223.832031 76.847656 223.210938 76.964844 222.574219 77.019531 C 221.9375 77.074219 221.304688 77.066406 220.667969 76.996094 C 220.035156 76.929688 219.414062 76.796875 218.804688 76.605469 C 218.195312 76.414062 217.609375 76.167969 217.050781 75.859375 C 216.492188 75.554688 215.964844 75.195312 215.476562 74.789062 C 214.988281 74.378906 214.542969 73.925781 214.140625 73.429688 C 213.738281 72.933594 213.390625 72.402344 213.09375 71.839844 C 212.796875 71.273438 212.554688 70.6875 212.375 70.074219 C 212.191406 69.464844 212.070312 68.839844 212.011719 68.207031 C 211.953125 67.570312 211.953125 66.933594 212.019531 66.300781 C 212.085938 65.664062 212.210938 65.042969 212.398438 64.433594 C 212.585938 63.824219 212.828125 63.238281 213.128906 62.675781 C 213.433594 62.113281 213.785156 61.585938 214.191406 61.09375 C 214.597656 60.597656 215.046875 60.152344 215.539062 59.746094 C 216.03125 59.339844 216.558594 58.988281 217.121094 58.6875 C 217.683594 58.386719 218.269531 58.140625 218.882812 57.957031 C 221.035156 57.3125 223.207031 56.765625 225.40625 56.3125 C 227.605469 55.859375 229.820312 55.5 232.050781 55.238281 C 234.28125 54.972656 236.519531 54.808594 238.761719 54.738281 C 241.007812 54.667969 243.25 54.695312 245.492188 54.816406 C 247.734375 54.941406 249.964844 55.160156 252.1875 55.476562 C 254.410156 55.792969 256.617188 56.203125 258.804688 56.710938 C 260.992188 57.214844 263.152344 57.816406 265.289062 58.507812 C 267.425781 59.199219 269.527344 59.984375 271.59375 60.855469 C 273.664062 61.730469 275.691406 62.691406 277.675781 63.742188 C 279.660156 64.789062 281.597656 65.921875 283.484375 67.136719 C 285.375 68.351562 287.207031 69.648438 288.980469 71.019531 C 290.757812 72.394531 292.472656 73.84375 294.121094 75.363281 C 295.773438 76.886719 297.355469 78.476562 298.871094 80.132812 C 300.382812 81.792969 301.824219 83.511719 303.191406 85.292969 C 304.554688 87.074219 305.84375 88.914062 307.050781 90.804688 C 308.257812 92.699219 309.378906 94.640625 310.421875 96.632812 C 311.460938 98.621094 312.414062 100.652344 313.277344 102.722656 C 314.140625 104.796875 314.914062 106.902344 315.597656 109.042969 C 316.28125 111.179688 316.871094 113.34375 317.367188 115.535156 C 317.863281 117.722656 318.265625 119.929688 318.570312 122.15625 C 318.878906 124.378906 319.085938 126.613281 319.199219 128.855469 C 319.3125 131.097656 319.332031 133.339844 319.25 135.585938 C 319.171875 137.828125 318.996094 140.066406 318.722656 142.292969 C 318.449219 144.523438 318.082031 146.734375 317.617188 148.933594 C 317.152344 151.128906 316.59375 153.300781 315.945312 155.449219 C 315.292969 157.601562 314.550781 159.714844 313.71875 161.800781 C 312.882812 163.886719 311.960938 165.929688 310.949219 167.9375 C 309.941406 169.941406 308.847656 171.898438 307.667969 173.8125 C 306.488281 175.722656 305.230469 177.578125 303.890625 179.378906 C 302.550781 181.183594 301.136719 182.925781 299.648438 184.605469 C 298.160156 186.285156 296.601562 187.898438 294.972656 189.445312 C 293.34375 190.988281 291.652344 192.460938 289.894531 193.863281 C 333.671875 215.671875 358.34375 259.964844 358.34375 318.316406 C 358.34375 318.957031 358.28125 319.59375 358.15625 320.222656 C 358.03125 320.851562 357.84375 321.460938 357.597656 322.054688 C 357.351562 322.644531 357.054688 323.207031 356.695312 323.742188 C 356.339844 324.273438 355.9375 324.769531 355.484375 325.222656 C 355.027344 325.675781 354.535156 326.078125 354.003906 326.433594 C 353.46875 326.792969 352.90625 327.09375 352.316406 327.335938 C 351.722656 327.582031 351.113281 327.769531 350.484375 327.894531 C 349.855469 328.019531 349.21875 328.082031 348.578125 328.082031 Z M 348.578125 328.082031 " fill-opacity="1" fill-rule="nonzero"/></g><g clip-path="url(#1d13565e0f)"><path fill="#bc3fde" d="M 241.1875 328.082031 L 26.410156 328.082031 C 25.769531 328.082031 25.132812 328.019531 24.503906 327.894531 C 23.875 327.769531 23.265625 327.582031 22.671875 327.335938 C 22.082031 327.09375 21.519531 326.792969 20.984375 326.433594 C 20.453125 326.078125 19.960938 325.675781 19.507812 325.222656 C 19.054688 324.769531 18.648438 324.273438 18.292969 323.742188 C 17.9375 323.207031 17.636719 322.644531 17.390625 322.054688 C 17.144531 321.460938 16.960938 320.851562 16.835938 320.222656 C 16.710938 319.59375 16.648438 318.957031 16.648438 318.316406 C 16.648438 259.898438 41.289062 215.605469 84.984375 193.863281 C 83.941406 193.027344 82.917969 192.164062 81.914062 191.277344 C 80.914062 190.390625 79.933594 189.476562 78.980469 188.539062 C 78.027344 187.597656 77.09375 186.636719 76.191406 185.648438 C 75.285156 184.664062 74.40625 183.65625 73.554688 182.625 C 72.699219 181.59375 71.875 180.539062 71.074219 179.464844 C 70.273438 178.390625 69.503906 177.296875 68.761719 176.183594 C 68.019531 175.070312 67.304688 173.9375 66.621094 172.789062 C 65.933594 171.636719 65.28125 170.472656 64.65625 169.289062 C 64.03125 168.101562 63.4375 166.902344 62.875 165.691406 C 62.3125 164.476562 61.777344 163.246094 61.28125 162.003906 C 60.78125 160.761719 60.3125 159.507812 59.875 158.242188 C 59.441406 156.976562 59.039062 155.703125 58.667969 154.414062 C 58.296875 153.128906 57.960938 151.832031 57.660156 150.53125 C 57.355469 149.226562 57.085938 147.914062 56.851562 146.597656 C 56.613281 145.28125 56.414062 143.957031 56.246094 142.628906 C 56.078125 141.300781 55.945312 139.96875 55.84375 138.632812 C 55.746094 137.300781 55.679688 135.960938 55.648438 134.625 C 55.621094 133.285156 55.621094 131.949219 55.660156 130.609375 C 55.699219 129.269531 55.773438 127.933594 55.878906 126.601562 C 55.984375 125.265625 56.128906 123.9375 56.300781 122.609375 C 56.476562 121.28125 56.6875 119.960938 56.929688 118.644531 C 57.171875 117.328125 57.449219 116.019531 57.761719 114.714844 C 58.070312 113.414062 58.414062 112.121094 58.792969 110.835938 C 59.171875 109.550781 59.578125 108.277344 60.023438 107.015625 C 60.464844 105.75 60.941406 104.5 61.445312 103.261719 C 61.953125 102.023438 62.492188 100.796875 63.0625 99.585938 C 63.632812 98.375 64.234375 97.179688 64.863281 96 C 65.496094 94.816406 66.15625 93.65625 66.847656 92.507812 C 67.539062 91.363281 68.261719 90.234375 69.007812 89.125 C 69.757812 88.015625 70.535156 86.925781 71.339844 85.855469 C 72.148438 84.789062 72.980469 83.738281 73.839844 82.710938 C 74.695312 81.6875 75.582031 80.683594 76.492188 79.703125 C 77.402344 78.71875 78.339844 77.761719 79.300781 76.832031 C 80.257812 75.898438 81.242188 74.988281 82.25 74.105469 C 83.253906 73.226562 84.285156 72.367188 85.335938 71.539062 C 86.386719 70.710938 87.457031 69.90625 88.546875 69.132812 C 89.640625 68.359375 90.75 67.613281 91.882812 66.894531 C 93.011719 66.179688 94.160156 65.492188 95.324219 64.832031 C 96.492188 64.175781 97.671875 63.546875 98.871094 62.949219 C 100.070312 62.351562 101.28125 61.785156 102.507812 61.25 C 103.734375 60.714844 104.976562 60.210938 106.226562 59.742188 C 107.480469 59.269531 108.746094 58.832031 110.019531 58.421875 C 111.296875 58.015625 112.582031 57.644531 113.875 57.304688 C 115.171875 56.964844 116.472656 56.65625 117.785156 56.382812 C 119.09375 56.109375 120.410156 55.871094 121.734375 55.664062 C 123.054688 55.460938 124.382812 55.289062 125.714844 55.148438 C 127.046875 55.011719 128.382812 54.910156 129.71875 54.839844 C 131.054688 54.773438 132.390625 54.738281 133.730469 54.738281 C 135.070312 54.738281 136.40625 54.773438 137.746094 54.839844 C 139.082031 54.910156 140.414062 55.011719 141.746094 55.148438 C 143.078125 55.289062 144.40625 55.460938 145.730469 55.664062 C 147.050781 55.871094 148.367188 56.109375 149.679688 56.382812 C 150.988281 56.65625 152.292969 56.964844 153.585938 57.304688 C 154.878906 57.644531 156.164062 58.015625 157.441406 58.421875 C 158.714844 58.832031 159.980469 59.269531 161.234375 59.742188 C 162.488281 60.210938 163.726562 60.714844 164.953125 61.25 C 166.179688 61.785156 167.394531 62.351562 168.589844 62.949219 C 169.789062 63.546875 170.972656 64.175781 172.136719 64.832031 C 173.300781 65.492188 174.449219 66.179688 175.582031 66.894531 C 176.710938 67.613281 177.820312 68.359375 178.914062 69.132812 C 180.003906 69.90625 181.078125 70.710938 182.128906 71.539062 C 183.179688 72.367188 184.207031 73.226562 185.214844 74.105469 C 186.21875 74.988281 187.203125 75.898438 188.164062 76.832031 C 189.125 77.761719 190.058594 78.71875 190.96875 79.703125 C 191.878906 80.683594 192.765625 81.6875 193.625 82.710938 C 194.484375 83.738281 195.316406 84.789062 196.121094 85.855469 C 196.925781 86.925781 197.703125 88.015625 198.453125 89.125 C 199.203125 90.234375 199.921875 91.363281 200.613281 92.507812 C 201.304688 93.65625 201.964844 94.816406 202.597656 96 C 203.230469 97.179688 203.828125 98.375 204.398438 99.585938 C 204.96875 100.796875 205.507812 102.023438 206.015625 103.261719 C 206.523438 104.5 206.996094 105.75 207.441406 107.015625 C 207.882812 108.277344 208.292969 109.550781 208.667969 110.835938 C 209.046875 112.121094 209.390625 113.414062 209.699219 114.714844 C 210.011719 116.019531 210.289062 117.328125 210.53125 118.644531 C 210.773438 119.960938 210.984375 121.28125 211.160156 122.609375 C 211.335938 123.9375 211.476562 125.265625 211.582031 126.601562 C 211.691406 127.933594 211.761719 129.269531 211.800781 130.609375 C 211.839844 131.949219 211.84375 133.285156 211.8125 134.625 C 211.78125 135.960938 211.71875 137.300781 211.617188 138.632812 C 211.519531 139.96875 211.386719 141.300781 211.21875 142.628906 C 211.050781 143.957031 210.847656 145.28125 210.613281 146.597656 C 210.375 147.914062 210.105469 149.226562 209.804688 150.53125 C 209.5 151.832031 209.164062 153.128906 208.792969 154.414062 C 208.425781 155.703125 208.019531 156.976562 207.585938 158.242188 C 207.152344 159.507812 206.683594 160.761719 206.183594 162.003906 C 205.683594 163.246094 205.152344 164.476562 204.589844 165.691406 C 204.023438 166.902344 203.429688 168.101562 202.808594 169.289062 C 202.183594 170.472656 201.527344 171.636719 200.84375 172.789062 C 200.15625 173.9375 199.445312 175.070312 198.703125 176.183594 C 197.957031 177.296875 197.1875 178.390625 196.386719 179.464844 C 195.589844 180.539062 194.761719 181.59375 193.910156 182.625 C 193.054688 183.65625 192.175781 184.664062 191.273438 185.648438 C 190.367188 186.636719 189.4375 187.597656 188.480469 188.539062 C 187.527344 189.476562 186.550781 190.390625 185.546875 191.277344 C 184.546875 192.164062 183.523438 193.027344 182.476562 193.863281 C 226.28125 215.671875 250.953125 259.964844 250.953125 318.316406 C 250.953125 318.957031 250.890625 319.59375 250.765625 320.222656 C 250.640625 320.851562 250.453125 321.460938 250.207031 322.054688 C 249.964844 322.644531 249.664062 323.207031 249.308594 323.742188 C 248.949219 324.273438 248.546875 324.769531 248.09375 325.222656 C 247.640625 325.675781 247.144531 326.078125 246.613281 326.433594 C 246.082031 326.792969 245.519531 327.09375 244.925781 327.335938 C 244.332031 327.582031 243.722656 327.769531 243.09375 327.894531 C 242.464844 328.019531 241.832031 328.082031 241.1875 328.082031 Z M 36.425781 308.554688 L 231.171875 308.554688 C 228.371094 255.835938 202.597656 219.195312 157.863281 204.902344 C 156.917969 204.601562 156.039062 204.164062 155.226562 203.59375 C 154.414062 203.023438 153.703125 202.34375 153.097656 201.554688 C 152.492188 200.769531 152.019531 199.910156 151.675781 198.976562 C 151.332031 198.042969 151.136719 197.082031 151.089844 196.089844 C 151.039062 195.097656 151.136719 194.121094 151.386719 193.160156 C 151.636719 192.199219 152.023438 191.296875 152.546875 190.453125 C 153.070312 189.609375 153.710938 188.863281 154.460938 188.214844 C 155.214844 187.566406 156.046875 187.042969 156.957031 186.648438 C 157.980469 186.207031 158.988281 185.738281 159.984375 185.242188 C 160.976562 184.742188 161.957031 184.21875 162.921875 183.664062 C 163.890625 183.109375 164.835938 182.53125 165.769531 181.921875 C 166.703125 181.316406 167.617188 180.679688 168.511719 180.019531 C 169.410156 179.363281 170.285156 178.675781 171.140625 177.96875 C 172 177.257812 172.835938 176.523438 173.652344 175.765625 C 174.464844 175.007812 175.257812 174.230469 176.03125 173.425781 C 176.800781 172.625 177.546875 171.800781 178.273438 170.953125 C 178.996094 170.109375 179.695312 169.246094 180.371094 168.359375 C 181.042969 167.476562 181.695312 166.570312 182.316406 165.648438 C 182.941406 164.726562 183.535156 163.789062 184.105469 162.832031 C 184.675781 161.875 185.21875 160.90625 185.730469 159.917969 C 186.246094 158.929688 186.730469 157.929688 187.1875 156.917969 C 187.644531 155.902344 188.074219 154.875 188.472656 153.835938 C 188.871094 152.796875 189.238281 151.746094 189.578125 150.6875 C 189.917969 149.628906 190.226562 148.558594 190.503906 147.480469 C 190.78125 146.402344 191.03125 145.320312 191.246094 144.226562 C 191.460938 143.136719 191.648438 142.039062 191.800781 140.9375 C 191.953125 139.835938 192.074219 138.730469 192.167969 137.621094 C 192.257812 136.511719 192.316406 135.398438 192.34375 134.289062 C 192.371094 133.175781 192.367188 132.0625 192.332031 130.949219 C 192.292969 129.839844 192.226562 128.726562 192.128906 127.621094 C 192.027344 126.511719 191.898438 125.40625 191.734375 124.304688 C 191.574219 123.207031 191.378906 122.109375 191.152344 121.019531 C 190.929688 119.929688 190.675781 118.847656 190.386719 117.773438 C 190.101562 116.695312 189.785156 115.628906 189.4375 114.574219 C 189.089844 113.515625 188.710938 112.46875 188.304688 111.433594 C 187.898438 110.398438 187.464844 109.375 186.996094 108.363281 C 186.53125 107.351562 186.039062 106.355469 185.515625 105.375 C 184.996094 104.390625 184.445312 103.421875 183.867188 102.472656 C 183.292969 101.519531 182.6875 100.585938 182.058594 99.667969 C 181.425781 98.753906 180.769531 97.855469 180.089844 96.972656 C 179.40625 96.09375 178.703125 95.234375 177.972656 94.394531 C 177.242188 93.554688 176.488281 92.738281 175.710938 91.941406 C 174.933594 91.144531 174.132812 90.371094 173.3125 89.621094 C 172.492188 88.871094 171.648438 88.144531 170.785156 87.441406 C 169.925781 86.738281 169.042969 86.058594 168.140625 85.40625 C 167.238281 84.753906 166.320312 84.128906 165.382812 83.527344 C 164.445312 82.925781 163.492188 82.351562 162.523438 81.808594 C 161.554688 81.261719 160.570312 80.742188 159.570312 80.253906 C 158.570312 79.765625 157.558594 79.304688 156.53125 78.871094 C 155.507812 78.4375 154.46875 78.035156 153.421875 77.664062 C 152.375 77.289062 151.316406 76.945312 150.246094 76.632812 C 149.179688 76.320312 148.105469 76.039062 147.019531 75.789062 C 145.9375 75.535156 144.84375 75.316406 143.75 75.125 C 142.652344 74.9375 141.550781 74.78125 140.445312 74.652344 C 139.339844 74.527344 138.230469 74.433594 137.121094 74.367188 C 136.007812 74.304688 134.898438 74.273438 133.785156 74.273438 C 132.671875 74.273438 131.558594 74.304688 130.449219 74.367188 C 129.339844 74.433594 128.230469 74.527344 127.125 74.652344 C 126.019531 74.78125 124.917969 74.9375 123.820312 75.125 C 122.722656 75.316406 121.632812 75.535156 120.550781 75.789062 C 119.464844 76.039062 118.390625 76.320312 117.320312 76.632812 C 116.253906 76.945312 115.195312 77.289062 114.148438 77.664062 C 113.097656 78.035156 112.0625 78.4375 111.035156 78.871094 C 110.011719 79.304688 109 79.765625 108 80.253906 C 107 80.742188 106.015625 81.261719 105.046875 81.808594 C 104.078125 82.351562 103.125 82.925781 102.1875 83.527344 C 101.25 84.128906 100.332031 84.753906 99.429688 85.40625 C 98.527344 86.058594 97.644531 86.738281 96.78125 87.441406 C 95.921875 88.144531 95.078125 88.871094 94.257812 89.621094 C 93.4375 90.371094 92.636719 91.144531 91.859375 91.941406 C 91.082031 92.738281 90.328125 93.554688 89.597656 94.394531 C 88.867188 95.234375 88.160156 96.09375 87.480469 96.972656 C 86.796875 97.855469 86.144531 98.753906 85.511719 99.667969 C 84.882812 100.585938 84.277344 101.519531 83.699219 102.472656 C 83.125 103.421875 82.574219 104.390625 82.050781 105.375 C 81.53125 106.355469 81.035156 107.351562 80.570312 108.363281 C 80.105469 109.375 79.671875 110.398438 79.265625 111.433594 C 78.855469 112.46875 78.480469 113.515625 78.132812 114.574219 C 77.785156 115.628906 77.46875 116.695312 77.183594 117.773438 C 76.894531 118.847656 76.640625 119.929688 76.414062 121.019531 C 76.191406 122.109375 75.996094 123.207031 75.835938 124.304688 C 75.671875 125.40625 75.542969 126.511719 75.441406 127.621094 C 75.34375 128.726562 75.277344 129.839844 75.238281 130.949219 C 75.203125 132.0625 75.199219 133.175781 75.226562 134.289062 C 75.253906 135.398438 75.3125 136.511719 75.402344 137.621094 C 75.492188 138.730469 75.617188 139.835938 75.769531 140.9375 C 75.921875 142.039062 76.109375 143.136719 76.324219 144.226562 C 76.539062 145.320312 76.789062 146.402344 77.066406 147.480469 C 77.34375 148.558594 77.652344 149.628906 77.992188 150.6875 C 78.328125 151.746094 78.699219 152.796875 79.097656 153.835938 C 79.496094 154.875 79.921875 155.902344 80.378906 156.917969 C 80.839844 157.929688 81.324219 158.929688 81.839844 159.917969 C 82.351562 160.90625 82.894531 161.875 83.464844 162.832031 C 84.035156 163.789062 84.628906 164.726562 85.253906 165.648438 C 85.875 166.570312 86.523438 167.476562 87.199219 168.359375 C 87.875 169.246094 88.574219 170.109375 89.296875 170.953125 C 90.019531 171.800781 90.769531 172.625 91.539062 173.425781 C 92.308594 174.230469 93.101562 175.007812 93.917969 175.765625 C 94.734375 176.523438 95.570312 177.257812 96.425781 177.96875 C 97.285156 178.675781 98.160156 179.363281 99.058594 180.019531 C 99.953125 180.679688 100.867188 181.316406 101.800781 181.921875 C 102.730469 182.53125 103.679688 183.109375 104.644531 183.664062 C 105.613281 184.21875 106.589844 184.742188 107.585938 185.242188 C 108.582031 185.738281 109.589844 186.207031 110.613281 186.648438 C 111.527344 187.042969 112.363281 187.5625 113.117188 188.210938 C 113.875 188.859375 114.515625 189.605469 115.042969 190.449219 C 115.566406 191.296875 115.957031 192.199219 116.207031 193.164062 C 116.457031 194.128906 116.558594 195.105469 116.507812 196.101562 C 116.457031 197.09375 116.261719 198.058594 115.917969 198.992188 C 115.574219 199.929688 115.097656 200.789062 114.488281 201.578125 C 113.878906 202.367188 113.167969 203.046875 112.351562 203.617188 C 111.535156 204.1875 110.652344 204.621094 109.703125 204.921875 C 64.992188 219.089844 39.21875 255.710938 36.425781 308.554688 Z M 36.425781 308.554688 " fill-opacity="1" fill-rule="nonzero"/></g></svg>