<svg xmlns="http://www.w3.org/2000/svg" xmlns:xlink="http://www.w3.org/1999/xlink" width="500" zoomAndPan="magnify" viewBox="0 0 375 374.999991" height="500" preserveAspectRatio="xMidYMid meet" version="1.0"><defs><clipPath id="ba0b8f9874"><path d="M 272 161 L 358.585938 161 L 358.585938 248 L 272 248 Z M 272 161 " clip-rule="nonzero"/></clipPath></defs><path fill="#bc3fde" d="M 241.390625 255.277344 C 237.363281 251.257812 236.347656 245.207031 238.867188 240.230469 C 248.347656 221.492188 252.480469 200.34375 250.816406 179.085938 C 247.15625 119.191406 192.429688 69.828125 132.441406 72.617188 C 33.484375 74.632812 -16.496094 195.609375 51.355469 267.484375 C 85.101562 304.378906 143.402344 314.480469 187.597656 291.5 C 192.585938 288.984375 198.628906 290 202.652344 294.019531 L 242.816406 334.183594 C 245.523438 337 250.398438 337.007812 253.105469 334.183594 C 253.105469 334.183594 281.550781 305.730469 281.550781 305.730469 C 284.394531 302.890625 284.394531 298.28125 281.550781 295.441406 Z M 124.296875 288.632812 C 43.605469 280.609375 5.835938 180.683594 60.214844 120.851562 C 79.609375 99.175781 106.710938 87.097656 135.679688 87.125 C 185.792969 86.144531 231.277344 127.042969 235.996094 176.933594 C 236 176.925781 124.296875 288.632812 124.296875 288.632812 Z M 247.957031 318.746094 L 212.9375 283.730469 C 204.445312 275.226562 191.589844 273.164062 181.03125 278.515625 C 169.699219 284.25 157.347656 287.738281 144.652344 288.859375 L 236.226562 197.28125 C 235.105469 209.984375 231.613281 222.335938 225.878906 233.667969 C 220.519531 244.273438 222.613281 257.09375 231.101562 265.574219 L 266.117188 300.589844 Z M 247.957031 318.746094 " fill-opacity="1" fill-rule="nonzero"/><g clip-path="url(#ba0b8f9874)"><path fill="#bc3fde" d="M 315.578125 161.5 C 291.96875 161.5 272.757812 180.765625 272.757812 204.449219 C 275.003906 261.378906 356.160156 261.367188 358.394531 204.449219 C 358.394531 180.765625 339.191406 161.5 315.578125 161.5 Z M 315.578125 232.710938 C 277.886719 231.523438 277.890625 177.359375 315.578125 176.179688 C 353.269531 177.363281 353.257812 231.527344 315.578125 232.710938 Z M 315.578125 232.710938 " fill-opacity="1" fill-rule="nonzero"/></g></svg>