<svg xmlns="http://www.w3.org/2000/svg" xmlns:xlink="http://www.w3.org/1999/xlink" width="500" zoomAndPan="magnify" viewBox="0 0 375 374.999991" height="500" preserveAspectRatio="xMidYMid meet" version="1.0"><defs><clipPath id="da33ac6e5f"><path d="M 137 44 L 238 44 L 238 80 L 137 80 Z M 137 44 " clip-rule="nonzero"/></clipPath><clipPath id="409094813a"><path d="M 180.148438 107.816406 L 137.671875 50.609375 L 194.878906 8.136719 L 237.351562 65.339844 Z M 180.148438 107.816406 " clip-rule="nonzero"/></clipPath><clipPath id="440d196596"><path d="M 180.148438 107.816406 L 137.671875 50.609375 L 194.878906 8.136719 L 237.351562 65.339844 Z M 180.148438 107.816406 " clip-rule="nonzero"/></clipPath></defs><path fill="#bc3fde" d="M 155.75 309.566406 C 155.796875 309.21875 155.820312 308.863281 155.820312 308.503906 C 155.820312 291.191406 170.070312 277.207031 187.570312 277.207031 C 187.582031 277.207031 187.582031 277.207031 187.59375 277.207031 C 196.019531 277.207031 204.101562 280.503906 210.054688 286.398438 C 215.980469 292.261719 219.316406 300.199219 219.316406 308.492188 C 219.316406 308.839844 219.339844 309.195312 219.386719 309.542969 C 219.386719 309.542969 224.714844 347.710938 227.355469 354.4375 C 231.609375 365.316406 243.132812 372.703125 255.355469 373.839844 C 267.761719 374.996094 280.492188 369.925781 286.640625 357.054688 C 297.25 334.863281 299.226562 286.105469 320.5 229.726562 C 332.875 196.945312 355.097656 143.421875 353.828125 96.34375 C 352.917969 62.914062 340.59375 32.609375 306.558594 13.761719 C 281.835938 0.0585938 245.984375 6.796875 220.648438 19.351562 C 201.238281 28.964844 187.59375 29.378906 187.59375 29.378906 C 187.734375 29.378906 187.402344 29.378906 187.402344 29.378906 C 187.558594 29.378906 173.898438 28.964844 154.5 19.351562 C 129.164062 6.796875 93.304688 0.0585938 68.578125 13.761719 C 34.546875 32.609375 22.21875 62.914062 21.324219 96.34375 C 20.050781 143.421875 42.265625 196.945312 54.640625 229.726562 C 75.910156 286.105469 77.902344 334.863281 88.507812 357.054688 C 94.660156 369.925781 107.386719 374.996094 119.796875 373.839844 C 132.015625 372.703125 143.542969 365.316406 147.796875 354.4375 C 150.425781 347.710938 155.75 309.566406 155.75 309.566406 Z M 235.003906 307.921875 C 235.554688 312.140625 239.703125 342.972656 241.957031 348.726562 C 244.160156 354.351562 250.488281 357.636719 256.816406 358.222656 C 262.945312 358.796875 269.449219 356.652344 272.488281 350.285156 C 282.988281 328.316406 284.769531 280.007812 305.828125 224.191406 C 315.738281 197.929688 332.472656 157.882812 337.035156 119.066406 C 341.300781 82.761719 334.863281 47.375 298.957031 27.484375 C 278.40625 16.085938 248.683594 22.972656 227.613281 33.410156 C 204.351562 44.929688 187.875 45.070312 187.875 45.070312 L 187.261719 45.070312 C 187.261719 45.070312 170.789062 44.929688 147.535156 33.410156 C 126.464844 22.972656 96.746094 16.085938 76.179688 27.484375 C 40.273438 47.375 33.839844 82.761719 38.117188 119.066406 C 42.675781 157.882812 59.410156 197.929688 69.324219 224.191406 C 90.382812 280.007812 92.160156 328.316406 102.660156 350.285156 C 105.703125 356.652344 112.195312 358.796875 118.335938 358.222656 C 124.664062 357.636719 130.980469 354.351562 133.183594 348.726562 C 135.433594 342.972656 139.582031 312.148438 140.148438 307.933594 C 140.453125 282.265625 161.550781 261.511719 187.570312 261.511719 C 187.582031 261.511719 187.582031 261.511719 187.59375 261.511719 C 200.15625 261.511719 212.199219 266.457031 221.085938 275.238281 C 229.863281 283.921875 234.847656 295.65625 235.003906 307.921875 Z M 235.003906 307.921875 " fill-opacity="1" fill-rule="evenodd"/><g clip-path="url(#da33ac6e5f)"><g clip-path="url(#409094813a)"><g clip-path="url(#440d196596)"><path fill="#bc3fde" d="M 237.210938 65.445312 L 231.300781 57.484375 C 204.226562 77.585938 165.84375 71.914062 145.742188 44.839844 L 137.777344 50.75 C 161.140625 82.21875 205.746094 88.808594 237.210938 65.445312 Z M 237.210938 65.445312 " fill-opacity="1" fill-rule="nonzero"/></g></g></g></svg>