<svg xmlns="http://www.w3.org/2000/svg" xmlns:xlink="http://www.w3.org/1999/xlink" width="500" zoomAndPan="magnify" viewBox="0 0 375 374.999991" height="500" preserveAspectRatio="xMidYMid meet" version="1.0"><defs><clipPath id="530f9f5c93"><path d="M 95 2 L 280 2 L 280 373.640625 L 95 373.640625 Z M 95 2 " clip-rule="nonzero"/></clipPath></defs><path fill="#7ed957" d="M 371.308594 100.058594 C 367.972656 96.472656 362.359375 96.273438 358.777344 99.605469 C 351.261719 106.597656 342.472656 111.308594 333.230469 114.398438 L 285.738281 66.90625 C 282.277344 63.441406 276.660156 63.441406 273.203125 66.90625 C 269.738281 70.371094 269.738281 75.984375 273.203125 79.445312 L 312.550781 118.796875 C 301.882812 119.960938 291.410156 119.644531 282.328125 118.734375 C 277.445312 118.253906 273.109375 121.804688 272.621094 126.675781 C 272.132812 131.550781 275.691406 135.894531 280.5625 136.382812 C 286.054688 136.929688 291.992188 137.285156 298.203125 137.285156 C 322.121094 137.285156 349.949219 132.039062 370.855469 112.589844 C 374.4375 109.253906 374.640625 103.644531 371.308594 100.058594 " fill-opacity="1" fill-rule="nonzero"/><g clip-path="url(#530f9f5c93)"><path fill="#7ed957" d="M 264.847656 129.984375 C 264.59375 129.253906 240.136719 56.292969 276.640625 17.542969 C 280 13.976562 279.832031 8.367188 276.269531 5.007812 C 272.707031 1.648438 267.09375 1.816406 263.738281 5.382812 C 220.316406 51.472656 246.339844 130.648438 248.039062 135.625 C 248.890625 138.371094 263.601562 187.40625 234.652344 223.109375 L 152.46875 140.90625 C 159.925781 135.027344 167.929688 130.976562 176.03125 128.269531 L 222.738281 175.003906 C 224.472656 176.734375 226.738281 177.601562 229.011719 177.601562 C 231.28125 177.601562 233.546875 176.734375 235.28125 175.007812 C 238.742188 171.546875 238.742188 165.929688 235.285156 162.46875 L 196.835938 124.003906 C 206.429688 123.132812 215.621094 123.640625 223.613281 124.722656 C 228.464844 125.378906 232.929688 121.972656 233.582031 117.121094 C 234.242188 112.269531 230.839844 107.804688 225.984375 107.148438 C 214.101562 105.542969 196.371094 104.71875 177.730469 109.425781 C 176.765625 109.515625 175.8125 109.769531 174.914062 110.179688 C 160.703125 114.179688 146.109375 121.507812 133.296875 134.234375 C 133.292969 134.238281 133.289062 134.242188 133.285156 134.246094 C 133.28125 134.25 133.28125 134.25 133.277344 134.25 C 133.273438 134.253906 133.273438 134.261719 133.269531 134.261719 C 114.914062 152.519531 105.035156 177.394531 104.695312 206.203125 C 104.453125 226.941406 109.125 242.769531 110.0625 245.742188 C 110.089844 245.820312 110.113281 245.898438 110.140625 245.976562 C 110.394531 246.707031 134.84375 319.667969 98.355469 358.421875 C 95 361.988281 95.167969 367.597656 98.730469 370.953125 C 100.445312 372.566406 102.628906 373.363281 104.808594 373.363281 C 107.167969 373.363281 109.523438 372.429688 111.265625 370.574219 C 154.6875 324.457031 128.617188 245.214844 126.949219 240.328125 C 126.070312 237.523438 111.488281 189.101562 139.894531 153.410156 L 221.964844 235.496094 C 214.574219 241.210938 206.667969 245.15625 198.667969 247.789062 L 151.761719 200.882812 C 148.296875 197.421875 142.683594 197.421875 139.21875 200.882812 C 135.761719 204.347656 135.761719 209.960938 139.21875 213.425781 L 177.789062 251.988281 C 168.328125 252.816406 159.277344 252.304688 151.386719 251.238281 C 146.535156 250.578125 142.070312 253.988281 141.417969 258.839844 C 140.757812 263.691406 144.160156 268.15625 149.011719 268.8125 C 154.242188 269.519531 160.601562 270.074219 167.671875 270.074219 C 189.433594 270.074219 217.933594 264.800781 240.90625 242.492188 C 241.007812 242.402344 241.113281 242.316406 241.214844 242.214844 C 241.261719 242.171875 241.296875 242.121094 241.339844 242.074219 C 241.460938 241.957031 241.582031 241.84375 241.703125 241.726562 C 260.039062 223.503906 269.925781 198.667969 270.292969 169.902344 C 270.554688 149.191406 265.875 133.246094 264.929688 130.238281 C 264.902344 130.152344 264.875 130.070312 264.847656 129.984375 " fill-opacity="1" fill-rule="nonzero"/></g><path fill="#7ed957" d="M 94.664062 297.765625 L 55.121094 258.21875 C 68.257812 255.890625 81.507812 256.113281 92.664062 257.226562 C 97.539062 257.722656 101.878906 254.152344 102.363281 249.28125 C 102.851562 244.40625 99.292969 240.0625 94.421875 239.578125 C 56.191406 235.769531 24.972656 243.996094 4.144531 263.371094 C 0.5625 266.707031 0.355469 272.316406 3.691406 275.902344 C 5.441406 277.777344 7.808594 278.726562 10.1875 278.726562 C 12.347656 278.726562 14.515625 277.941406 16.222656 276.351562 C 22.066406 270.917969 28.691406 266.863281 35.695312 263.871094 L 82.125 310.300781 C 83.859375 312.03125 86.125 312.898438 88.394531 312.898438 C 90.664062 312.898438 92.933594 312.03125 94.664062 310.300781 C 98.128906 306.839844 98.128906 301.222656 94.664062 297.765625 " fill-opacity="1" fill-rule="nonzero"/></svg>
