<svg xmlns="http://www.w3.org/2000/svg" xmlns:xlink="http://www.w3.org/1999/xlink" width="500" zoomAndPan="magnify" viewBox="0 0 375 374.999991" height="500" preserveAspectRatio="xMidYMid meet" version="1.0"><defs><clipPath id="514a8553dc"><path d="M 56.953125 0 L 317.953125 0 L 317.953125 375 L 56.953125 375 Z M 56.953125 0 " clip-rule="nonzero"/></clipPath></defs><path fill="#7ed957" d="M 142.597656 122.515625 L 120.554688 144.558594 L 111.898438 135.902344 C 111.585938 135.597656 111.246094 135.320312 110.882812 135.078125 C 110.515625 134.839844 110.128906 134.636719 109.726562 134.46875 C 109.320312 134.304688 108.902344 134.179688 108.472656 134.09375 C 108.042969 134.011719 107.609375 133.96875 107.171875 133.972656 C 106.734375 133.972656 106.300781 134.015625 105.871094 134.101562 C 105.441406 134.191406 105.023438 134.316406 104.621094 134.484375 C 104.21875 134.652344 103.832031 134.859375 103.46875 135.101562 C 103.105469 135.347656 102.769531 135.621094 102.457031 135.933594 C 102.148438 136.242188 101.871094 136.578125 101.628906 136.941406 C 101.386719 137.304688 101.179688 137.691406 101.011719 138.09375 C 100.84375 138.5 100.714844 138.914062 100.628906 139.34375 C 100.542969 139.773438 100.5 140.207031 100.5 140.644531 C 100.496094 141.082031 100.539062 141.515625 100.621094 141.945312 C 100.707031 142.375 100.832031 142.792969 100.996094 143.199219 C 101.160156 143.605469 101.367188 143.988281 101.605469 144.355469 C 101.847656 144.71875 102.121094 145.058594 102.429688 145.371094 L 115.820312 158.757812 C 116.128906 159.070312 116.46875 159.347656 116.832031 159.59375 C 117.199219 159.835938 117.585938 160.042969 117.992188 160.210938 C 118.398438 160.378906 118.816406 160.507812 119.246094 160.59375 C 119.679688 160.679688 120.113281 160.722656 120.554688 160.722656 C 120.992188 160.722656 121.429688 160.679688 121.859375 160.59375 C 122.289062 160.507812 122.707031 160.378906 123.113281 160.210938 C 123.519531 160.042969 123.90625 159.835938 124.273438 159.59375 C 124.636719 159.347656 124.976562 159.070312 125.285156 158.757812 L 152.066406 131.980469 C 152.367188 131.667969 152.632812 131.328125 152.867188 130.964844 C 153.101562 130.597656 153.300781 130.214844 153.460938 129.8125 C 153.621094 129.40625 153.738281 128.992188 153.816406 128.566406 C 153.898438 128.140625 153.933594 127.710938 153.929688 127.277344 C 153.925781 126.84375 153.878906 126.414062 153.792969 125.988281 C 153.703125 125.5625 153.574219 125.152344 153.40625 124.75 C 153.238281 124.351562 153.035156 123.96875 152.792969 123.609375 C 152.550781 123.25 152.277344 122.917969 151.96875 122.609375 C 151.664062 122.304688 151.328125 122.027344 150.96875 121.785156 C 150.609375 121.542969 150.230469 121.339844 149.828125 121.171875 C 149.429688 121.003906 149.015625 120.875 148.589844 120.789062 C 148.167969 120.699219 147.738281 120.652344 147.304688 120.648438 C 146.871094 120.644531 146.4375 120.683594 146.011719 120.761719 C 145.585938 120.839844 145.171875 120.960938 144.769531 121.121094 C 144.363281 121.28125 143.980469 121.476562 143.617188 121.710938 C 143.25 121.945312 142.910156 122.214844 142.597656 122.515625 Z M 142.597656 122.515625 " fill-opacity="1" fill-rule="nonzero"/><path fill="#7ed957" d="M 142.597656 202.851562 L 120.554688 224.894531 L 111.898438 216.238281 C 111.585938 215.933594 111.246094 215.65625 110.882812 215.417969 C 110.515625 215.175781 110.128906 214.972656 109.726562 214.804688 C 109.320312 214.640625 108.902344 214.515625 108.472656 214.433594 C 108.042969 214.347656 107.609375 214.308594 107.171875 214.308594 C 106.734375 214.308594 106.300781 214.355469 105.871094 214.441406 C 105.441406 214.527344 105.027344 214.652344 104.621094 214.824219 C 104.21875 214.992188 103.832031 215.195312 103.46875 215.441406 C 103.105469 215.683594 102.769531 215.960938 102.460938 216.269531 C 102.148438 216.578125 101.875 216.914062 101.628906 217.28125 C 101.386719 217.644531 101.179688 218.027344 101.011719 218.429688 C 100.84375 218.835938 100.71875 219.253906 100.628906 219.679688 C 100.542969 220.109375 100.5 220.542969 100.5 220.980469 C 100.496094 221.417969 100.539062 221.855469 100.621094 222.285156 C 100.707031 222.714844 100.832031 223.128906 100.996094 223.535156 C 101.164062 223.941406 101.367188 224.328125 101.605469 224.691406 C 101.847656 225.058594 102.121094 225.394531 102.429688 225.707031 L 115.820312 239.097656 C 116.128906 239.40625 116.46875 239.683594 116.832031 239.929688 C 117.199219 240.171875 117.585938 240.378906 117.992188 240.546875 C 118.398438 240.714844 118.816406 240.84375 119.246094 240.929688 C 119.679688 241.015625 120.113281 241.058594 120.554688 241.058594 C 120.992188 241.058594 121.429688 241.015625 121.859375 240.929688 C 122.289062 240.84375 122.707031 240.714844 123.113281 240.546875 C 123.519531 240.378906 123.90625 240.171875 124.273438 239.929688 C 124.636719 239.683594 124.976562 239.40625 125.285156 239.097656 L 152.066406 212.316406 C 152.367188 212.003906 152.632812 211.664062 152.867188 211.300781 C 153.101562 210.933594 153.300781 210.550781 153.460938 210.148438 C 153.621094 209.746094 153.738281 209.328125 153.816406 208.902344 C 153.898438 208.476562 153.933594 208.046875 153.929688 207.613281 C 153.925781 207.179688 153.878906 206.75 153.792969 206.324219 C 153.703125 205.898438 153.574219 205.488281 153.40625 205.085938 C 153.238281 204.6875 153.035156 204.308594 152.792969 203.945312 C 152.550781 203.585938 152.277344 203.253906 151.96875 202.945312 C 151.664062 202.640625 151.328125 202.367188 150.96875 202.125 C 150.609375 201.882812 150.230469 201.675781 149.828125 201.507812 C 149.429688 201.339844 149.015625 201.210938 148.589844 201.125 C 148.167969 201.035156 147.738281 200.992188 147.304688 200.984375 C 146.871094 200.980469 146.4375 201.019531 146.011719 201.097656 C 145.585938 201.175781 145.171875 201.296875 144.769531 201.457031 C 144.363281 201.617188 143.980469 201.8125 143.617188 202.046875 C 143.25 202.28125 142.910156 202.550781 142.597656 202.851562 Z M 142.597656 202.851562 " fill-opacity="1" fill-rule="nonzero"/><path fill="#7ed957" d="M 142.597656 283.1875 L 120.554688 305.234375 L 111.898438 296.578125 C 111.585938 296.269531 111.246094 295.996094 110.882812 295.753906 C 110.515625 295.511719 110.128906 295.308594 109.726562 295.144531 C 109.320312 294.976562 108.902344 294.851562 108.472656 294.769531 C 108.042969 294.683594 107.609375 294.644531 107.171875 294.644531 C 106.734375 294.648438 106.300781 294.691406 105.871094 294.777344 C 105.441406 294.863281 105.027344 294.992188 104.621094 295.160156 C 104.21875 295.328125 103.832031 295.53125 103.46875 295.777344 C 103.105469 296.019531 102.769531 296.296875 102.460938 296.605469 C 102.148438 296.914062 101.875 297.253906 101.628906 297.617188 C 101.386719 297.980469 101.179688 298.363281 101.011719 298.769531 C 100.84375 299.171875 100.71875 299.589844 100.628906 300.019531 C 100.542969 300.449219 100.5 300.878906 100.5 301.320312 C 100.496094 301.757812 100.539062 302.191406 100.621094 302.621094 C 100.707031 303.050781 100.832031 303.46875 100.996094 303.871094 C 101.164062 304.277344 101.367188 304.664062 101.605469 305.027344 C 101.847656 305.394531 102.121094 305.730469 102.429688 306.042969 L 115.820312 319.433594 C 116.128906 319.742188 116.46875 320.019531 116.832031 320.265625 C 117.199219 320.507812 117.585938 320.714844 117.992188 320.882812 C 118.398438 321.050781 118.816406 321.179688 119.246094 321.265625 C 119.679688 321.351562 120.113281 321.394531 120.554688 321.394531 C 120.992188 321.394531 121.429688 321.351562 121.859375 321.265625 C 122.289062 321.179688 122.707031 321.050781 123.113281 320.882812 C 123.519531 320.714844 123.90625 320.507812 124.273438 320.265625 C 124.636719 320.019531 124.976562 319.742188 125.285156 319.433594 L 152.066406 292.652344 C 152.367188 292.339844 152.632812 292 152.867188 291.636719 C 153.101562 291.273438 153.300781 290.886719 153.460938 290.484375 C 153.621094 290.082031 153.738281 289.664062 153.816406 289.238281 C 153.898438 288.8125 153.933594 288.382812 153.929688 287.949219 C 153.925781 287.515625 153.878906 287.085938 153.792969 286.660156 C 153.703125 286.234375 153.574219 285.824219 153.40625 285.421875 C 153.238281 285.023438 153.035156 284.644531 152.792969 284.28125 C 152.550781 283.921875 152.277344 283.589844 151.96875 283.28125 C 151.664062 282.976562 151.328125 282.703125 150.96875 282.460938 C 150.609375 282.21875 150.230469 282.011719 149.828125 281.84375 C 149.429688 281.675781 149.015625 281.546875 148.589844 281.460938 C 148.167969 281.371094 147.738281 281.328125 147.304688 281.324219 C 146.871094 281.316406 146.4375 281.355469 146.011719 281.433594 C 145.585938 281.515625 145.171875 281.632812 144.769531 281.792969 C 144.363281 281.953125 143.980469 282.148438 143.617188 282.386719 C 143.25 282.621094 142.910156 282.886719 142.597656 283.1875 Z M 142.597656 283.1875 " fill-opacity="1" fill-rule="nonzero"/><path fill="#7ed957" d="M 180.804688 140.636719 C 180.804688 141.078125 180.847656 141.511719 180.933594 141.941406 C 181.019531 142.375 181.144531 142.792969 181.3125 143.199219 C 181.484375 143.605469 181.6875 143.992188 181.933594 144.355469 C 182.175781 144.722656 182.453125 145.0625 182.765625 145.371094 C 183.078125 145.683594 183.414062 145.960938 183.78125 146.203125 C 184.144531 146.449219 184.53125 146.65625 184.9375 146.824219 C 185.34375 146.992188 185.761719 147.117188 186.195312 147.203125 C 186.625 147.289062 187.058594 147.332031 187.5 147.332031 L 267.835938 147.332031 C 268.277344 147.332031 268.710938 147.289062 269.140625 147.203125 C 269.574219 147.117188 269.992188 146.992188 270.398438 146.820312 C 270.804688 146.652344 271.191406 146.449219 271.554688 146.203125 C 271.921875 145.960938 272.257812 145.683594 272.570312 145.371094 C 272.882812 145.058594 273.160156 144.722656 273.402344 144.355469 C 273.648438 143.992188 273.851562 143.605469 274.023438 143.199219 C 274.191406 142.792969 274.316406 142.375 274.402344 141.941406 C 274.488281 141.511719 274.53125 141.078125 274.53125 140.636719 C 274.53125 140.199219 274.488281 139.761719 274.402344 139.332031 C 274.316406 138.898438 274.191406 138.480469 274.023438 138.074219 C 273.851562 137.667969 273.648438 137.28125 273.402344 136.917969 C 273.160156 136.550781 272.882812 136.214844 272.570312 135.902344 C 272.257812 135.59375 271.921875 135.316406 271.554688 135.070312 C 271.191406 134.828125 270.804688 134.621094 270.398438 134.453125 C 269.992188 134.285156 269.574219 134.15625 269.140625 134.070312 C 268.710938 133.984375 268.277344 133.941406 267.835938 133.941406 L 187.5 133.941406 C 187.058594 133.941406 186.625 133.984375 186.195312 134.070312 C 185.761719 134.15625 185.34375 134.285156 184.9375 134.453125 C 184.53125 134.621094 184.144531 134.824219 183.78125 135.070312 C 183.414062 135.3125 183.078125 135.589844 182.765625 135.902344 C 182.453125 136.214844 182.175781 136.550781 181.933594 136.917969 C 181.6875 137.28125 181.484375 137.667969 181.3125 138.074219 C 181.144531 138.480469 181.019531 138.898438 180.933594 139.332031 C 180.847656 139.761719 180.804688 140.199219 180.804688 140.636719 Z M 180.804688 140.636719 " fill-opacity="1" fill-rule="nonzero"/><path fill="#7ed957" d="M 267.835938 214.277344 L 187.5 214.277344 C 187.058594 214.277344 186.625 214.320312 186.195312 214.40625 C 185.761719 214.492188 185.34375 214.621094 184.9375 214.789062 C 184.53125 214.957031 184.144531 215.164062 183.78125 215.40625 C 183.414062 215.652344 183.078125 215.929688 182.765625 216.238281 C 182.457031 216.550781 182.179688 216.886719 181.933594 217.253906 C 181.6875 217.621094 181.484375 218.003906 181.316406 218.410156 C 181.148438 218.816406 181.019531 219.234375 180.933594 219.667969 C 180.847656 220.097656 180.804688 220.535156 180.804688 220.972656 C 180.804688 221.414062 180.847656 221.847656 180.933594 222.28125 C 181.019531 222.710938 181.148438 223.128906 181.316406 223.535156 C 181.484375 223.941406 181.6875 224.328125 181.933594 224.691406 C 182.179688 225.058594 182.457031 225.398438 182.765625 225.707031 C 183.078125 226.019531 183.414062 226.296875 183.78125 226.539062 C 184.144531 226.785156 184.53125 226.992188 184.9375 227.160156 C 185.34375 227.328125 185.761719 227.453125 186.195312 227.539062 C 186.625 227.625 187.058594 227.667969 187.5 227.667969 L 267.835938 227.667969 C 268.269531 227.660156 268.699219 227.609375 269.125 227.519531 C 269.546875 227.425781 269.960938 227.292969 270.359375 227.121094 C 270.757812 226.949219 271.136719 226.742188 271.492188 226.496094 C 271.851562 226.25 272.183594 225.972656 272.488281 225.660156 C 272.792969 225.351562 273.0625 225.015625 273.300781 224.652344 C 273.539062 224.289062 273.742188 223.90625 273.90625 223.507812 C 274.070312 223.105469 274.191406 222.691406 274.277344 222.265625 C 274.359375 221.839844 274.402344 221.40625 274.402344 220.972656 C 274.402344 220.539062 274.359375 220.109375 274.277344 219.683594 C 274.191406 219.257812 274.070312 218.84375 273.90625 218.441406 C 273.742188 218.039062 273.539062 217.65625 273.300781 217.292969 C 273.0625 216.929688 272.792969 216.59375 272.488281 216.285156 C 272.183594 215.976562 271.851562 215.699219 271.492188 215.453125 C 271.136719 215.207031 270.757812 214.996094 270.359375 214.824219 C 269.960938 214.652344 269.546875 214.519531 269.125 214.429688 C 268.699219 214.335938 268.269531 214.289062 267.835938 214.277344 Z M 267.835938 214.277344 " fill-opacity="1" fill-rule="nonzero"/><path fill="#7ed957" d="M 267.835938 294.617188 L 187.5 294.617188 C 187.058594 294.617188 186.625 294.660156 186.195312 294.742188 C 185.761719 294.828125 185.34375 294.957031 184.9375 295.125 C 184.53125 295.292969 184.144531 295.5 183.78125 295.742188 C 183.414062 295.988281 183.078125 296.265625 182.765625 296.574219 C 182.457031 296.886719 182.179688 297.226562 181.933594 297.589844 C 181.6875 297.957031 181.484375 298.34375 181.316406 298.75 C 181.148438 299.152344 181.019531 299.574219 180.933594 300.003906 C 180.847656 300.433594 180.804688 300.871094 180.804688 301.308594 C 180.804688 301.75 180.847656 302.183594 180.933594 302.617188 C 181.019531 303.046875 181.148438 303.464844 181.316406 303.871094 C 181.484375 304.277344 181.6875 304.664062 181.933594 305.03125 C 182.179688 305.394531 182.457031 305.734375 182.765625 306.042969 C 183.078125 306.355469 183.414062 306.632812 183.78125 306.875 C 184.144531 307.121094 184.53125 307.328125 184.9375 307.496094 C 185.34375 307.664062 185.761719 307.789062 186.195312 307.875 C 186.625 307.960938 187.058594 308.003906 187.5 308.003906 L 267.835938 308.003906 C 268.269531 307.996094 268.699219 307.945312 269.125 307.855469 C 269.546875 307.761719 269.960938 307.628906 270.359375 307.457031 C 270.757812 307.285156 271.136719 307.078125 271.492188 306.832031 C 271.851562 306.585938 272.183594 306.308594 272.488281 306 C 272.789062 305.6875 273.0625 305.351562 273.300781 304.988281 C 273.539062 304.625 273.742188 304.246094 273.90625 303.84375 C 274.070312 303.441406 274.191406 303.027344 274.277344 302.601562 C 274.359375 302.175781 274.402344 301.746094 274.402344 301.308594 C 274.402344 300.875 274.359375 300.445312 274.277344 300.019531 C 274.191406 299.59375 274.070312 299.179688 273.90625 298.777344 C 273.742188 298.375 273.539062 297.992188 273.300781 297.632812 C 273.0625 297.269531 272.789062 296.933594 272.488281 296.621094 C 272.183594 296.3125 271.851562 296.035156 271.492188 295.789062 C 271.136719 295.542969 270.757812 295.332031 270.359375 295.160156 C 269.960938 294.988281 269.546875 294.859375 269.125 294.765625 C 268.699219 294.675781 268.269531 294.625 267.835938 294.617188 Z M 267.835938 294.617188 " fill-opacity="1" fill-rule="nonzero"/><g clip-path="url(#514a8553dc)"><path fill="#7ed957" d="M 245.523438 26.828125 L 220.300781 26.828125 C 220.101562 25.898438 219.863281 24.976562 219.582031 24.070312 C 219.304688 23.160156 218.992188 22.265625 218.636719 21.382812 C 218.28125 20.5 217.890625 19.636719 217.464844 18.785156 C 217.035156 17.9375 216.574219 17.109375 216.074219 16.296875 C 215.578125 15.488281 215.046875 14.703125 214.480469 13.9375 C 213.917969 13.171875 213.320312 12.433594 212.691406 11.71875 C 212.066406 11.003906 211.410156 10.320312 210.722656 9.660156 C 210.035156 9.003906 209.324219 8.375 208.585938 7.777344 C 207.84375 7.179688 207.082031 6.617188 206.292969 6.085938 C 205.507812 5.550781 204.699219 5.054688 203.867188 4.589844 C 203.039062 4.125 202.191406 3.699219 201.324219 3.304688 C 200.457031 2.914062 199.578125 2.5625 198.679688 2.242188 C 197.785156 1.925781 196.878906 1.648438 195.957031 1.410156 C 195.039062 1.167969 194.109375 0.96875 193.171875 0.808594 C 192.234375 0.648438 191.292969 0.527344 190.347656 0.445312 C 189.398438 0.367188 188.449219 0.324219 187.5 0.324219 C 186.550781 0.324219 185.601562 0.367188 184.652344 0.445312 C 183.707031 0.527344 182.765625 0.648438 181.828125 0.808594 C 180.890625 0.96875 179.960938 1.167969 179.042969 1.410156 C 178.121094 1.648438 177.214844 1.925781 176.320312 2.242188 C 175.421875 2.5625 174.542969 2.914062 173.675781 3.308594 C 172.808594 3.699219 171.960938 4.125 171.132812 4.589844 C 170.300781 5.054688 169.492188 5.550781 168.707031 6.085938 C 167.917969 6.617188 167.15625 7.183594 166.414062 7.78125 C 165.675781 8.375 164.964844 9.003906 164.277344 9.664062 C 163.589844 10.320312 162.933594 11.007812 162.308594 11.71875 C 161.679688 12.433594 161.082031 13.171875 160.519531 13.9375 C 159.953125 14.703125 159.421875 15.488281 158.921875 16.296875 C 158.425781 17.109375 157.964844 17.9375 157.535156 18.785156 C 157.109375 19.636719 156.71875 20.5 156.363281 21.382812 C 156.007812 22.265625 155.695312 23.160156 155.414062 24.070312 C 155.136719 24.980469 154.898438 25.898438 154.699219 26.828125 L 129.476562 26.828125 C 128.597656 26.828125 127.726562 26.914062 126.867188 27.085938 C 126.003906 27.257812 125.167969 27.511719 124.355469 27.851562 C 123.542969 28.1875 122.773438 28.601562 122.042969 29.089844 C 121.3125 29.578125 120.636719 30.132812 120.011719 30.753906 C 119.390625 31.375 118.835938 32.050781 118.347656 32.78125 C 117.859375 33.511719 117.449219 34.28125 117.109375 35.09375 C 116.773438 35.90625 116.519531 36.742188 116.347656 37.605469 C 116.175781 38.46875 116.089844 39.335938 116.085938 40.214844 L 116.085938 46.910156 L 83.730469 46.910156 C 82.855469 46.910156 81.980469 46.957031 81.109375 47.042969 C 80.234375 47.128906 79.371094 47.257812 78.507812 47.429688 C 77.648438 47.601562 76.800781 47.816406 75.960938 48.070312 C 75.121094 48.324219 74.296875 48.621094 73.488281 48.957031 C 72.679688 49.292969 71.886719 49.667969 71.113281 50.082031 C 70.339844 50.496094 69.589844 50.945312 68.859375 51.433594 C 68.132812 51.921875 67.429688 52.441406 66.75 53 C 66.074219 53.554688 65.425781 54.144531 64.804688 54.761719 C 64.183594 55.382812 63.597656 56.03125 63.039062 56.710938 C 62.484375 57.386719 61.960938 58.089844 61.476562 58.820312 C 60.988281 59.546875 60.539062 60.300781 60.125 61.070312 C 59.710938 61.84375 59.335938 62.636719 59 63.445312 C 58.664062 64.257812 58.367188 65.082031 58.113281 65.917969 C 57.859375 66.757812 57.644531 67.609375 57.472656 68.46875 C 57.300781 69.328125 57.171875 70.195312 57.085938 71.066406 C 56.996094 71.9375 56.953125 72.8125 56.953125 73.691406 L 56.953125 348.171875 C 56.953125 349.050781 56.996094 349.925781 57.085938 350.796875 C 57.171875 351.667969 57.300781 352.535156 57.472656 353.394531 C 57.644531 354.253906 57.859375 355.105469 58.113281 355.941406 C 58.367188 356.78125 58.664062 357.605469 59 358.417969 C 59.335938 359.226562 59.710938 360.019531 60.125 360.789062 C 60.539062 361.5625 60.988281 362.316406 61.476562 363.042969 C 61.960938 363.773438 62.484375 364.476562 63.039062 365.152344 C 63.597656 365.832031 64.183594 366.480469 64.804688 367.101562 C 65.425781 367.71875 66.074219 368.308594 66.75 368.863281 C 67.429688 369.421875 68.132812 369.941406 68.859375 370.429688 C 69.589844 370.917969 70.339844 371.367188 71.113281 371.78125 C 71.886719 372.195312 72.679688 372.570312 73.488281 372.90625 C 74.296875 373.242188 75.121094 373.539062 75.960938 373.792969 C 76.800781 374.046875 77.648438 374.261719 78.507812 374.433594 C 79.371094 374.605469 80.234375 374.734375 81.109375 374.820312 C 81.980469 374.90625 82.855469 374.949219 83.730469 374.953125 L 291.269531 374.953125 C 292.144531 374.949219 293.019531 374.90625 293.890625 374.820312 C 294.765625 374.734375 295.628906 374.605469 296.492188 374.433594 C 297.351562 374.261719 298.199219 374.046875 299.039062 373.792969 C 299.878906 373.539062 300.703125 373.242188 301.511719 372.90625 C 302.320312 372.570312 303.113281 372.195312 303.886719 371.78125 C 304.660156 371.367188 305.410156 370.917969 306.140625 370.429688 C 306.867188 369.941406 307.570312 369.421875 308.25 368.863281 C 308.925781 368.308594 309.574219 367.71875 310.195312 367.101562 C 310.816406 366.480469 311.402344 365.832031 311.960938 365.152344 C 312.515625 364.476562 313.039062 363.773438 313.523438 363.042969 C 314.011719 362.316406 314.460938 361.5625 314.875 360.789062 C 315.289062 360.019531 315.664062 359.226562 316 358.417969 C 316.335938 357.605469 316.632812 356.78125 316.886719 355.941406 C 317.140625 355.105469 317.355469 354.253906 317.527344 353.394531 C 317.699219 352.535156 317.828125 351.667969 317.914062 350.796875 C 318.003906 349.925781 318.046875 349.050781 318.046875 348.171875 L 318.046875 73.691406 C 318.046875 72.8125 318.003906 71.9375 317.914062 71.066406 C 317.828125 70.195312 317.699219 69.328125 317.527344 68.46875 C 317.355469 67.609375 317.140625 66.757812 316.886719 65.917969 C 316.632812 65.082031 316.335938 64.257812 316 63.445312 C 315.664062 62.636719 315.289062 61.84375 314.875 61.070312 C 314.460938 60.300781 314.011719 59.546875 313.523438 58.820312 C 313.039062 58.089844 312.515625 57.386719 311.960938 56.710938 C 311.402344 56.03125 310.816406 55.382812 310.195312 54.761719 C 309.574219 54.144531 308.925781 53.554688 308.25 53 C 307.570312 52.441406 306.867188 51.921875 306.140625 51.433594 C 305.410156 50.945312 304.660156 50.496094 303.886719 50.082031 C 303.113281 49.667969 302.320312 49.292969 301.511719 48.957031 C 300.703125 48.621094 299.878906 48.324219 299.039062 48.070312 C 298.199219 47.816406 297.351562 47.601562 296.492188 47.429688 C 295.628906 47.257812 294.765625 47.128906 293.890625 47.042969 C 293.019531 46.957031 292.144531 46.910156 291.269531 46.910156 L 258.914062 46.910156 L 258.914062 40.214844 C 258.910156 39.335938 258.824219 38.46875 258.652344 37.605469 C 258.480469 36.742188 258.226562 35.90625 257.890625 35.09375 C 257.550781 34.28125 257.140625 33.511719 256.652344 32.78125 C 256.164062 32.050781 255.609375 31.375 254.984375 30.753906 C 254.363281 30.132812 253.6875 29.578125 252.957031 29.089844 C 252.226562 28.601562 251.457031 28.1875 250.644531 27.851562 C 249.832031 27.511719 248.996094 27.257812 248.132812 27.085938 C 247.273438 26.914062 246.402344 26.828125 245.523438 26.828125 Z M 129.476562 40.214844 L 160.722656 40.214844 C 161.160156 40.214844 161.597656 40.171875 162.027344 40.089844 C 162.457031 40.003906 162.878906 39.875 163.285156 39.707031 C 163.691406 39.539062 164.074219 39.332031 164.441406 39.089844 C 164.804688 38.84375 165.144531 38.566406 165.457031 38.257812 C 165.765625 37.945312 166.042969 37.605469 166.289062 37.242188 C 166.53125 36.875 166.738281 36.488281 166.90625 36.082031 C 167.074219 35.675781 167.203125 35.257812 167.289062 34.828125 C 167.375 34.398438 167.414062 33.960938 167.414062 33.523438 C 167.421875 32.867188 167.460938 32.21875 167.53125 31.566406 C 167.605469 30.917969 167.707031 30.273438 167.839844 29.636719 C 167.972656 28.996094 168.136719 28.363281 168.332031 27.742188 C 168.527344 27.117188 168.753906 26.507812 169.007812 25.90625 C 169.265625 25.304688 169.546875 24.714844 169.859375 24.140625 C 170.171875 23.570312 170.511719 23.011719 170.878906 22.472656 C 171.246094 21.929688 171.636719 21.410156 172.054688 20.90625 C 172.472656 20.40625 172.914062 19.925781 173.378906 19.464844 C 173.839844 19.007812 174.328125 18.570312 174.835938 18.160156 C 175.339844 17.746094 175.867188 17.359375 176.410156 17 C 176.957031 16.640625 177.515625 16.304688 178.09375 16 C 178.671875 15.695312 179.261719 15.417969 179.867188 15.167969 C 180.46875 14.921875 181.085938 14.703125 181.710938 14.515625 C 182.335938 14.328125 182.96875 14.167969 183.609375 14.042969 C 184.25 13.914062 184.894531 13.820312 185.546875 13.757812 C 186.195312 13.695312 186.847656 13.660156 187.5 13.660156 C 188.152344 13.660156 188.804688 13.695312 189.453125 13.757812 C 190.105469 13.820312 190.75 13.914062 191.390625 14.042969 C 192.03125 14.167969 192.664062 14.328125 193.289062 14.515625 C 193.914062 14.703125 194.53125 14.921875 195.132812 15.167969 C 195.738281 15.417969 196.328125 15.695312 196.90625 16 C 197.484375 16.304688 198.042969 16.640625 198.589844 17 C 199.132812 17.359375 199.660156 17.746094 200.164062 18.160156 C 200.671875 18.570312 201.160156 19.007812 201.621094 19.464844 C 202.085938 19.925781 202.527344 20.40625 202.945312 20.90625 C 203.363281 21.410156 203.753906 21.929688 204.121094 22.472656 C 204.488281 23.011719 204.828125 23.570312 205.140625 24.144531 C 205.453125 24.714844 205.734375 25.304688 205.992188 25.90625 C 206.246094 26.507812 206.472656 27.117188 206.667969 27.742188 C 206.863281 28.367188 207.027344 28.996094 207.160156 29.636719 C 207.292969 30.273438 207.394531 30.917969 207.46875 31.570312 C 207.539062 32.21875 207.578125 32.871094 207.585938 33.523438 C 207.585938 33.960938 207.625 34.398438 207.710938 34.828125 C 207.796875 35.257812 207.925781 35.679688 208.09375 36.085938 C 208.261719 36.492188 208.46875 36.875 208.710938 37.242188 C 208.957031 37.605469 209.234375 37.945312 209.542969 38.257812 C 209.855469 38.566406 210.195312 38.84375 210.558594 39.089844 C 210.925781 39.332031 211.3125 39.539062 211.714844 39.707031 C 212.121094 39.875 212.542969 40.003906 212.972656 40.089844 C 213.402344 40.171875 213.839844 40.214844 214.277344 40.214844 L 245.523438 40.214844 L 245.523438 66.996094 L 129.476562 66.996094 Z M 291.269531 60.300781 C 292.148438 60.300781 293.015625 60.386719 293.878906 60.558594 C 294.742188 60.734375 295.578125 60.988281 296.390625 61.324219 C 297.203125 61.660156 297.972656 62.074219 298.703125 62.5625 C 299.433594 63.050781 300.109375 63.605469 300.730469 64.226562 C 301.351562 64.847656 301.90625 65.523438 302.394531 66.253906 C 302.882812 66.984375 303.296875 67.757812 303.632812 68.566406 C 303.972656 69.378906 304.226562 70.21875 304.398438 71.078125 C 304.570312 71.941406 304.65625 72.8125 304.65625 73.691406 L 304.65625 348.171875 C 304.65625 349.050781 304.570312 349.921875 304.398438 350.785156 C 304.226562 351.644531 303.972656 352.484375 303.632812 353.292969 C 303.296875 354.105469 302.882812 354.878906 302.394531 355.609375 C 301.90625 356.339844 301.351562 357.015625 300.730469 357.636719 C 300.109375 358.257812 299.433594 358.8125 298.703125 359.300781 C 297.972656 359.789062 297.203125 360.203125 296.390625 360.539062 C 295.578125 360.875 294.742188 361.128906 293.878906 361.300781 C 293.015625 361.476562 292.148438 361.5625 291.269531 361.5625 L 83.730469 361.5625 C 82.851562 361.5625 81.984375 361.476562 81.121094 361.300781 C 80.257812 361.128906 79.421875 360.875 78.609375 360.539062 C 77.796875 360.203125 77.027344 359.789062 76.296875 359.300781 C 75.566406 358.8125 74.890625 358.257812 74.269531 357.636719 C 73.648438 357.015625 73.09375 356.339844 72.605469 355.609375 C 72.117188 354.878906 71.703125 354.105469 71.367188 353.292969 C 71.027344 352.484375 70.773438 351.644531 70.601562 350.785156 C 70.429688 349.921875 70.34375 349.050781 70.34375 348.171875 L 70.34375 73.691406 C 70.34375 72.8125 70.429688 71.941406 70.601562 71.078125 C 70.773438 70.21875 71.027344 69.378906 71.367188 68.570312 C 71.703125 67.757812 72.117188 66.984375 72.605469 66.253906 C 73.09375 65.523438 73.648438 64.847656 74.269531 64.226562 C 74.890625 63.605469 75.566406 63.050781 76.296875 62.5625 C 77.027344 62.074219 77.796875 61.660156 78.609375 61.324219 C 79.421875 60.988281 80.257812 60.734375 81.121094 60.558594 C 81.984375 60.386719 82.851562 60.300781 83.730469 60.300781 L 116.085938 60.300781 L 116.085938 66.996094 C 116.089844 67.875 116.175781 68.746094 116.347656 69.605469 C 116.519531 70.46875 116.773438 71.304688 117.109375 72.117188 C 117.449219 72.929688 117.859375 73.699219 118.347656 74.429688 C 118.835938 75.160156 119.390625 75.835938 120.011719 76.457031 C 120.636719 77.078125 121.3125 77.636719 122.042969 78.125 C 122.773438 78.613281 123.542969 79.023438 124.355469 79.359375 C 125.167969 79.699219 126.003906 79.953125 126.867188 80.125 C 127.726562 80.296875 128.597656 80.382812 129.476562 80.382812 L 245.523438 80.382812 C 246.402344 80.382812 247.273438 80.296875 248.132812 80.125 C 248.996094 79.953125 249.832031 79.699219 250.644531 79.359375 C 251.457031 79.023438 252.226562 78.613281 252.957031 78.125 C 253.6875 77.636719 254.363281 77.078125 254.984375 76.457031 C 255.609375 75.835938 256.164062 75.160156 256.652344 74.429688 C 257.140625 73.699219 257.550781 72.929688 257.890625 72.117188 C 258.226562 71.304688 258.480469 70.46875 258.652344 69.605469 C 258.824219 68.746094 258.910156 67.875 258.914062 66.996094 L 258.914062 60.300781 Z M 291.269531 60.300781 " fill-opacity="1" fill-rule="nonzero"/></g></svg>
