<svg xmlns="http://www.w3.org/2000/svg" xmlns:xlink="http://www.w3.org/1999/xlink" width="500" zoomAndPan="magnify" viewBox="0 0 375 374.999991" height="500" preserveAspectRatio="xMidYMid meet" version="1.0"><defs><clipPath id="edccd8cfe8"><path d="M 32.8125 0.0117188 L 342.199219 0.0117188 L 342.199219 374.988281 L 32.8125 374.988281 Z M 32.8125 0.0117188 " clip-rule="nonzero"/></clipPath></defs><g clip-path="url(#edccd8cfe8)"><path fill="#7ed957" d="M 331.410156 344.890625 C 331.410156 355.515625 322.761719 364.15625 312.136719 364.15625 C 243.667969 364.082031 203.636719 364.140625 179.71875 364.175781 C 166.675781 364.195312 158.628906 364.203125 153.542969 364.1875 C 153.359375 364.167969 153.171875 364.15625 152.980469 364.15625 L 149.292969 364.15625 C 145.359375 364.109375 144.707031 364.007812 143.902344 363.828125 L 143.460938 363.730469 C 134.625 361.851562 128.214844 353.929688 128.214844 344.890625 L 128.214844 265.90625 C 128.214844 255.28125 136.863281 246.636719 147.492188 246.636719 L 312.132812 246.636719 C 322.761719 246.636719 331.410156 255.28125 331.410156 265.90625 Z M 43.613281 356.394531 L 43.613281 95.640625 L 210.621094 95.640625 L 210.621094 156.5625 C 202.179688 158 194.042969 158.726562 187.355469 158.726562 C 164.835938 158.726562 155.3125 175.664062 152.671875 187.300781 C 147.71875 189.195312 144.183594 193.984375 144.183594 199.597656 L 144.183594 211.136719 C 141.226562 211.164062 138.832031 213.566406 138.832031 216.53125 C 138.832031 219.492188 141.226562 221.898438 144.183594 221.921875 L 144.183594 236.03125 C 129.152344 237.6875 117.421875 250.449219 117.421875 265.90625 L 117.421875 344.890625 C 117.421875 352.117188 120.054688 358.882812 124.464844 364.15625 L 51.359375 364.15625 C 47.089844 364.15625 43.613281 360.675781 43.613281 356.394531 Z M 51.359375 10.804688 L 202.867188 10.804688 C 207.144531 10.804688 210.625 14.285156 210.625 18.5625 L 210.625 23.105469 L 43.601562 23.105469 L 43.601562 18.5625 C 43.601562 14.285156 47.082031 10.804688 51.359375 10.804688 Z M 75.75 33.898438 L 178.464844 33.898438 C 176.398438 38.128906 171.980469 42.203125 165.65625 45.566406 C 155.453125 50.988281 141.765625 53.976562 127.121094 53.976562 C 100.195312 53.976562 80.832031 44.363281 75.75 33.898438 Z M 64.304688 33.898438 C 68.742188 51.582031 94.734375 64.765625 127.121094 64.765625 C 159.496094 64.765625 185.484375 51.582031 189.917969 33.898438 L 210.625 33.898438 L 210.625 84.851562 L 43.601562 84.851562 L 43.601562 33.898438 Z M 273.527344 132.871094 C 289.636719 142.171875 299.304688 160.023438 297.992188 179.003906 C 297.789062 181.941406 297.578125 184.449219 297.394531 186.421875 L 164.226562 186.421875 C 164.871094 184.582031 165.773438 182.5 167.027344 180.441406 C 171.453125 173.191406 178.292969 169.515625 187.355469 169.515625 C 199.9375 169.515625 221.378906 167.023438 240.390625 159.988281 C 261.976562 152.007812 270.613281 141.796875 273.527344 132.871094 Z M 154.972656 221.925781 L 230.492188 221.925781 C 233.472656 221.925781 235.886719 219.511719 235.886719 216.53125 C 235.886719 213.550781 233.472656 211.136719 230.492188 211.136719 L 154.972656 211.136719 L 154.972656 199.597656 C 154.972656 198.304688 156.066406 197.214844 157.363281 197.214844 L 302.261719 197.214844 C 303.578125 197.214844 304.648438 198.285156 304.648438 199.597656 L 304.648438 211.132812 L 269.402344 211.132812 C 266.421875 211.132812 264.003906 213.546875 264.003906 216.527344 C 264.003906 219.507812 266.421875 221.921875 269.402344 221.921875 L 304.648438 221.921875 L 304.648438 235.847656 L 154.972656 235.847656 Z M 315.441406 236.03125 L 315.441406 221.921875 C 318.402344 221.902344 320.796875 219.492188 320.796875 216.527344 C 320.796875 213.558594 318.402344 211.152344 315.441406 211.132812 L 315.441406 199.597656 C 315.441406 194.433594 312.445312 189.964844 308.101562 187.804688 C 308.300781 185.710938 308.53125 182.984375 308.757812 179.746094 C 310.527344 154.167969 295.917969 130.269531 272.414062 120.277344 C 271.738281 119.992188 271.363281 119.847656 271.363281 119.847656 C 269.703125 119.203125 267.828125 119.414062 266.355469 120.421875 C 264.890625 121.425781 264.003906 123.089844 264.003906 124.871094 C 264.003906 139.191406 243.296875 149.109375 221.414062 154.355469 L 221.414062 90.296875 C 221.414062 90.28125 221.414062 90.261719 221.414062 90.246094 L 221.414062 18.5625 C 221.414062 8.335938 213.09375 0.015625 202.867188 0.015625 L 51.359375 0.015625 C 41.132812 0.015625 32.8125 8.335938 32.8125 18.5625 L 32.8125 90.246094 C 32.8125 90.316406 32.820312 90.382812 32.824219 90.453125 L 32.824219 356.394531 C 32.824219 366.625 41.140625 374.949219 51.359375 374.949219 L 149.957031 374.949219 C 152.589844 374.976562 156.214844 374.988281 161.347656 374.988281 C 166.074219 374.988281 172.070312 374.976562 179.734375 374.964844 C 203.648438 374.933594 243.667969 374.875 312.132812 374.949219 C 328.710938 374.949219 342.203125 361.464844 342.203125 344.890625 L 342.203125 265.90625 C 342.203125 250.449219 330.46875 237.6875 315.441406 236.03125 " fill-opacity="1" fill-rule="nonzero"/></g><path fill="#7ed957" d="M 304.65625 326.4375 C 304.65625 331.890625 300.21875 336.324219 294.769531 336.324219 L 164.859375 336.324219 C 159.410156 336.324219 154.976562 331.890625 154.976562 326.4375 L 154.976562 284.359375 C 154.976562 278.910156 159.410156 274.472656 164.859375 274.472656 L 294.769531 274.472656 C 300.21875 274.472656 304.65625 278.910156 304.65625 284.359375 Z M 294.769531 263.683594 L 164.859375 263.683594 C 153.460938 263.683594 144.183594 272.957031 144.183594 284.359375 L 144.183594 326.4375 C 144.183594 337.839844 153.460938 347.117188 164.859375 347.117188 L 294.769531 347.117188 C 306.167969 347.117188 315.445312 337.839844 315.445312 326.4375 L 315.445312 284.359375 C 315.445312 272.957031 306.167969 263.683594 294.769531 263.683594 " fill-opacity="1" fill-rule="nonzero"/></svg>