<svg xmlns="http://www.w3.org/2000/svg" xmlns:xlink="http://www.w3.org/1999/xlink" width="500" zoomAndPan="magnify" viewBox="0 0 375 374.999991" height="500" preserveAspectRatio="xMidYMid meet" version="1.0"><defs><clipPath id="6f8146d90d"><path d="M 34.257812 10 L 353.757812 10 L 353.757812 84.546875 L 34.257812 84.546875 Z M 34.257812 10 " clip-rule="nonzero"/></clipPath><clipPath id="5edf7f3ff5"><path d="M 0 84.203125 L 375 84.203125 L 375 365.453125 L 0 365.453125 Z M 0 84.203125 " clip-rule="nonzero"/></clipPath></defs><g clip-path="url(#6f8146d90d)"><path fill="#7ed957" d="M 364.710938 85.132812 L 292.9375 85.132812 L 192.523438 12.113281 C 189.253906 9.734375 184.800781 9.734375 181.53125 12.113281 L 81.125 85.132812 L 9.351562 85.132812 C 4.183594 85.132812 0 89.316406 0 94.484375 L 0 375.03125 C 0 380.195312 4.183594 384.382812 9.351562 384.382812 L 364.710938 384.382812 C 369.878906 384.382812 374.0625 380.195312 374.0625 375.03125 L 374.0625 94.484375 C 374.0625 89.316406 369.878906 85.132812 364.710938 85.132812 Z M 187.03125 31.234375 L 261.140625 85.132812 L 112.921875 85.132812 Z M 355.359375 365.679688 L 18.703125 365.679688 L 18.703125 103.835938 L 355.359375 103.835938 Z M 355.359375 365.679688 " fill-opacity="1" fill-rule="nonzero"/></g><g clip-path="url(#5edf7f3ff5)"><path fill="#7ed957" d="M 368.304688 365.453125 L 6.695312 365.453125 C 6.257812 365.453125 5.820312 365.410156 5.390625 365.324219 C 4.957031 365.238281 4.539062 365.113281 4.132812 364.945312 C 3.726562 364.777344 3.339844 364.570312 2.976562 364.324219 C 2.609375 364.082031 2.273438 363.804688 1.960938 363.492188 C 1.652344 363.179688 1.371094 362.84375 1.128906 362.476562 C 0.882812 362.113281 0.679688 361.726562 0.507812 361.320312 C 0.339844 360.914062 0.214844 360.496094 0.128906 360.0625 C 0.0429688 359.632812 0 359.195312 0 358.757812 L 0 90.898438 C 0 90.460938 0.0429688 90.023438 0.128906 89.59375 C 0.214844 89.164062 0.339844 88.742188 0.507812 88.335938 C 0.679688 87.929688 0.882812 87.546875 1.128906 87.179688 C 1.371094 86.8125 1.652344 86.476562 1.960938 86.164062 C 2.273438 85.855469 2.609375 85.578125 2.976562 85.332031 C 3.339844 85.085938 3.726562 84.882812 4.132812 84.714844 C 4.539062 84.546875 4.957031 84.417969 5.390625 84.332031 C 5.820312 84.246094 6.257812 84.203125 6.695312 84.203125 L 368.304688 84.203125 C 368.742188 84.203125 369.179688 84.246094 369.609375 84.332031 C 370.042969 84.417969 370.460938 84.546875 370.867188 84.714844 C 371.273438 84.882812 371.660156 85.085938 372.023438 85.332031 C 372.390625 85.578125 372.726562 85.855469 373.039062 86.164062 C 373.347656 86.476562 373.628906 86.8125 373.871094 87.179688 C 374.117188 87.546875 374.320312 87.929688 374.488281 88.335938 C 374.660156 88.742188 374.785156 89.164062 374.871094 89.59375 C 374.957031 90.023438 375 90.460938 375 90.898438 L 375 358.757812 C 375 359.195312 374.957031 359.632812 374.871094 360.0625 C 374.785156 360.496094 374.660156 360.914062 374.488281 361.320312 C 374.320312 361.726562 374.117188 362.113281 373.871094 362.476562 C 373.628906 362.84375 373.347656 363.179688 373.039062 363.492188 C 372.726562 363.804688 372.390625 364.082031 372.023438 364.324219 C 371.660156 364.570312 371.273438 364.777344 370.867188 364.945312 C 370.460938 365.113281 370.042969 365.238281 369.609375 365.324219 C 369.179688 365.410156 368.742188 365.453125 368.304688 365.453125 Z M 13.394531 352.0625 L 361.605469 352.0625 L 361.605469 97.597656 L 13.394531 97.597656 Z M 13.394531 352.0625 " fill-opacity="1" fill-rule="nonzero"/></g><path fill="#7ed957" d="M 341.519531 338.667969 L 33.480469 338.667969 C 33.042969 338.667969 32.605469 338.625 32.175781 338.539062 C 31.746094 338.453125 31.324219 338.328125 30.917969 338.15625 C 30.511719 337.988281 30.128906 337.785156 29.761719 337.539062 C 29.394531 337.296875 29.058594 337.015625 28.746094 336.707031 C 28.4375 336.394531 28.160156 336.058594 27.914062 335.691406 C 27.671875 335.324219 27.464844 334.941406 27.296875 334.535156 C 27.128906 334.128906 27 333.707031 26.914062 333.277344 C 26.828125 332.847656 26.785156 332.410156 26.785156 331.972656 L 26.785156 117.6875 C 26.785156 117.246094 26.828125 116.808594 26.914062 116.378906 C 27 115.949219 27.128906 115.527344 27.296875 115.125 C 27.464844 114.71875 27.671875 114.332031 27.914062 113.964844 C 28.160156 113.601562 28.4375 113.261719 28.746094 112.949219 C 29.058594 112.640625 29.394531 112.363281 29.761719 112.117188 C 30.128906 111.875 30.511719 111.667969 30.917969 111.5 C 31.324219 111.332031 31.746094 111.203125 32.175781 111.117188 C 32.605469 111.03125 33.042969 110.988281 33.480469 110.988281 L 341.519531 110.988281 C 341.957031 110.988281 342.394531 111.03125 342.824219 111.117188 C 343.253906 111.203125 343.675781 111.332031 344.082031 111.5 C 344.488281 111.667969 344.871094 111.875 345.238281 112.117188 C 345.605469 112.363281 345.941406 112.640625 346.253906 112.949219 C 346.5625 113.261719 346.839844 113.601562 347.085938 113.964844 C 347.328125 114.332031 347.535156 114.71875 347.703125 115.121094 C 347.871094 115.527344 348 115.949219 348.085938 116.378906 C 348.171875 116.808594 348.214844 117.246094 348.214844 117.6875 L 348.214844 331.972656 C 348.214844 332.410156 348.171875 332.847656 348.085938 333.277344 C 348 333.707031 347.871094 334.128906 347.703125 334.535156 C 347.535156 334.941406 347.328125 335.324219 347.085938 335.691406 C 346.839844 336.058594 346.5625 336.394531 346.253906 336.707031 C 345.941406 337.015625 345.605469 337.296875 345.238281 337.539062 C 344.871094 337.785156 344.488281 337.988281 344.082031 338.15625 C 343.675781 338.328125 343.253906 338.453125 342.824219 338.539062 C 342.394531 338.625 341.957031 338.667969 341.519531 338.667969 Z M 40.179688 325.273438 L 334.820312 325.273438 L 334.820312 124.382812 L 40.179688 124.382812 Z M 40.179688 325.273438 " fill-opacity="1" fill-rule="nonzero"/><path fill="#7ed957" d="M 287.945312 338.667969 C 287.058594 338.667969 286.203125 338.5 285.382812 338.160156 C 284.5625 337.820312 283.839844 337.335938 283.210938 336.707031 L 140.625 194.121094 L 38.214844 296.527344 C 37.902344 296.828125 37.566406 297.097656 37.199219 297.335938 C 36.835938 297.570312 36.449219 297.769531 36.046875 297.929688 C 35.640625 298.089844 35.226562 298.210938 34.800781 298.292969 C 34.371094 298.371094 33.941406 298.410156 33.507812 298.40625 C 33.070312 298.402344 32.640625 298.355469 32.214844 298.269531 C 31.789062 298.183594 31.375 298.054688 30.976562 297.886719 C 30.574219 297.71875 30.191406 297.511719 29.832031 297.269531 C 29.472656 297.027344 29.136719 296.753906 28.828125 296.445312 C 28.523438 296.136719 28.246094 295.804688 28.003906 295.441406 C 27.761719 295.082031 27.558594 294.699219 27.390625 294.300781 C 27.21875 293.898438 27.09375 293.484375 27.003906 293.058594 C 26.917969 292.632812 26.871094 292.203125 26.867188 291.769531 C 26.863281 291.332031 26.902344 290.902344 26.984375 290.476562 C 27.0625 290.046875 27.183594 289.632812 27.34375 289.230469 C 27.507812 288.824219 27.703125 288.441406 27.941406 288.074219 C 28.175781 287.710938 28.445312 287.371094 28.746094 287.058594 L 135.890625 179.914062 C 136.203125 179.605469 136.539062 179.328125 136.90625 179.082031 C 137.269531 178.839844 137.65625 178.632812 138.0625 178.464844 C 138.46875 178.296875 138.886719 178.167969 139.320312 178.082031 C 139.75 177.996094 140.183594 177.953125 140.625 177.953125 C 141.066406 177.953125 141.5 177.996094 141.929688 178.082031 C 142.363281 178.167969 142.78125 178.296875 143.1875 178.464844 C 143.59375 178.632812 143.980469 178.839844 144.34375 179.082031 C 144.710938 179.328125 145.046875 179.605469 145.359375 179.914062 L 292.679688 327.238281 C 293.148438 327.707031 293.539062 328.230469 293.851562 328.816406 C 294.164062 329.398438 294.382812 330.015625 294.511719 330.664062 C 294.640625 331.316406 294.675781 331.96875 294.609375 332.628906 C 294.542969 333.285156 294.386719 333.921875 294.132812 334.535156 C 293.878906 335.144531 293.542969 335.707031 293.121094 336.21875 C 292.703125 336.730469 292.214844 337.171875 291.664062 337.539062 C 291.117188 337.90625 290.523438 338.1875 289.890625 338.378906 C 289.257812 338.570312 288.609375 338.667969 287.945312 338.667969 Z M 287.945312 338.667969 " fill-opacity="1" fill-rule="nonzero"/><path fill="#7ed957" d="M 341.519531 271.703125 C 340.628906 271.703125 339.773438 271.535156 338.953125 271.195312 C 338.132812 270.855469 337.410156 270.371094 336.785156 269.742188 L 274.554688 207.511719 L 219.019531 263.046875 C 218.707031 263.347656 218.367188 263.617188 218.003906 263.851562 C 217.636719 264.089844 217.253906 264.285156 216.851562 264.449219 C 216.445312 264.609375 216.03125 264.730469 215.601562 264.808594 C 215.175781 264.890625 214.746094 264.929688 214.308594 264.925781 C 213.875 264.921875 213.445312 264.875 213.019531 264.789062 C 212.59375 264.699219 212.179688 264.574219 211.777344 264.402344 C 211.378906 264.234375 210.996094 264.03125 210.636719 263.789062 C 210.273438 263.546875 209.941406 263.269531 209.632812 262.964844 C 209.324219 262.65625 209.050781 262.320312 208.808594 261.960938 C 208.566406 261.601562 208.359375 261.21875 208.191406 260.816406 C 208.023438 260.417969 207.894531 260.003906 207.808594 259.578125 C 207.722656 259.152344 207.675781 258.722656 207.671875 258.285156 C 207.667969 257.851562 207.707031 257.421875 207.785156 256.992188 C 207.867188 256.566406 207.988281 256.152344 208.148438 255.746094 C 208.308594 255.34375 208.507812 254.957031 208.742188 254.59375 C 208.980469 254.226562 209.25 253.890625 209.550781 253.578125 L 269.820312 193.308594 C 270.128906 192.996094 270.46875 192.71875 270.832031 192.476562 C 271.199219 192.230469 271.585938 192.023438 271.992188 191.855469 C 272.398438 191.6875 272.816406 191.5625 273.246094 191.476562 C 273.679688 191.390625 274.113281 191.347656 274.554688 191.347656 C 274.992188 191.347656 275.429688 191.390625 275.859375 191.476562 C 276.292969 191.5625 276.710938 191.6875 277.117188 191.855469 C 277.523438 192.023438 277.90625 192.230469 278.273438 192.476562 C 278.640625 192.71875 278.976562 192.996094 279.289062 193.308594 L 346.253906 260.273438 C 346.71875 260.742188 347.109375 261.265625 347.421875 261.851562 C 347.734375 262.433594 347.957031 263.050781 348.085938 263.699219 C 348.214844 264.351562 348.246094 265.003906 348.179688 265.664062 C 348.117188 266.324219 347.957031 266.957031 347.703125 267.570312 C 347.449219 268.179688 347.113281 268.742188 346.691406 269.253906 C 346.273438 269.765625 345.789062 270.207031 345.238281 270.574219 C 344.6875 270.941406 344.09375 271.222656 343.460938 271.414062 C 342.828125 271.605469 342.179688 271.703125 341.519531 271.703125 Z M 341.519531 271.703125 " fill-opacity="1" fill-rule="nonzero"/><path fill="#7ed957" d="M 214.285156 204.738281 C 213.1875 204.738281 212.09375 204.683594 211.003906 204.578125 C 209.914062 204.46875 208.828125 204.308594 207.753906 204.097656 C 206.679688 203.882812 205.617188 203.617188 204.566406 203.296875 C 203.515625 202.980469 202.484375 202.609375 201.472656 202.191406 C 200.460938 201.769531 199.46875 201.300781 198.503906 200.785156 C 197.535156 200.269531 196.597656 199.707031 195.683594 199.097656 C 194.773438 198.488281 193.890625 197.835938 193.042969 197.140625 C 192.195312 196.445312 191.386719 195.707031 190.609375 194.933594 C 189.835938 194.15625 189.097656 193.34375 188.402344 192.496094 C 187.707031 191.648438 187.054688 190.769531 186.445312 189.859375 C 185.835938 188.945312 185.273438 188.007812 184.757812 187.039062 C 184.238281 186.074219 183.773438 185.082031 183.351562 184.070312 C 182.933594 183.058594 182.5625 182.027344 182.246094 180.976562 C 181.925781 179.925781 181.660156 178.863281 181.445312 177.789062 C 181.234375 176.714844 181.074219 175.628906 180.964844 174.539062 C 180.855469 173.449219 180.804688 172.355469 180.804688 171.257812 C 180.804688 170.160156 180.855469 169.066406 180.964844 167.976562 C 181.074219 166.882812 181.234375 165.800781 181.445312 164.726562 C 181.660156 163.648438 181.925781 162.585938 182.246094 161.539062 C 182.5625 160.488281 182.933594 159.457031 183.351562 158.445312 C 183.773438 157.429688 184.238281 156.441406 184.757812 155.472656 C 185.273438 154.507812 185.835938 153.566406 186.445312 152.65625 C 187.054688 151.742188 187.707031 150.863281 188.402344 150.015625 C 189.097656 149.167969 189.835938 148.355469 190.609375 147.582031 C 191.386719 146.804688 192.195312 146.070312 193.042969 145.375 C 193.890625 144.679688 194.773438 144.027344 195.683594 143.417969 C 196.597656 142.808594 197.535156 142.246094 198.503906 141.726562 C 199.46875 141.210938 200.460938 140.742188 201.472656 140.324219 C 202.484375 139.902344 203.515625 139.535156 204.566406 139.214844 C 205.617188 138.898438 206.679688 138.632812 207.753906 138.417969 C 208.828125 138.203125 209.914062 138.042969 211.003906 137.9375 C 212.09375 137.828125 213.1875 137.773438 214.285156 137.773438 C 215.382812 137.773438 216.476562 137.828125 217.566406 137.9375 C 218.660156 138.042969 219.742188 138.203125 220.816406 138.417969 C 221.894531 138.632812 222.957031 138.898438 224.003906 139.214844 C 225.054688 139.535156 226.085938 139.902344 227.097656 140.324219 C 228.113281 140.742188 229.101562 141.210938 230.070312 141.726562 C 231.035156 142.246094 231.976562 142.808594 232.886719 143.417969 C 233.800781 144.027344 234.679688 144.679688 235.527344 145.375 C 236.375 146.070312 237.1875 146.804688 237.960938 147.582031 C 238.738281 148.355469 239.472656 149.167969 240.167969 150.015625 C 240.863281 150.863281 241.515625 151.742188 242.125 152.65625 C 242.734375 153.566406 243.296875 154.507812 243.8125 155.472656 C 244.332031 156.441406 244.800781 157.429688 245.21875 158.445312 C 245.640625 159.457031 246.007812 160.488281 246.328125 161.539062 C 246.644531 162.585938 246.910156 163.648438 247.125 164.726562 C 247.339844 165.800781 247.5 166.882812 247.605469 167.976562 C 247.714844 169.066406 247.769531 170.160156 247.769531 171.257812 C 247.765625 172.351562 247.710938 173.445312 247.601562 174.539062 C 247.496094 175.628906 247.332031 176.710938 247.117188 177.785156 C 246.902344 178.863281 246.636719 179.921875 246.316406 180.972656 C 246 182.019531 245.628906 183.050781 245.207031 184.0625 C 244.789062 185.078125 244.320312 186.066406 243.800781 187.03125 C 243.285156 188 242.722656 188.9375 242.113281 189.847656 C 241.503906 190.761719 240.851562 191.640625 240.15625 192.488281 C 239.460938 193.335938 238.726562 194.144531 237.949219 194.921875 C 237.175781 195.695312 236.363281 196.429688 235.515625 197.128906 C 234.667969 197.824219 233.789062 198.476562 232.878906 199.085938 C 231.964844 199.695312 231.027344 200.257812 230.0625 200.773438 C 229.09375 201.292969 228.105469 201.761719 227.09375 202.179688 C 226.082031 202.601562 225.050781 202.96875 224 203.289062 C 222.953125 203.609375 221.890625 203.875 220.816406 204.089844 C 219.738281 204.304688 218.65625 204.464844 217.566406 204.574219 C 216.476562 204.683594 215.382812 204.738281 214.285156 204.738281 Z M 214.285156 151.167969 C 213.628906 151.167969 212.972656 151.199219 212.316406 151.265625 C 211.660156 151.328125 211.011719 151.425781 210.367188 151.554688 C 209.722656 151.683594 209.082031 151.84375 208.453125 152.03125 C 207.824219 152.222656 207.207031 152.445312 206.597656 152.695312 C 205.988281 152.949219 205.394531 153.230469 204.816406 153.539062 C 204.234375 153.851562 203.671875 154.1875 203.125 154.554688 C 202.578125 154.917969 202.050781 155.308594 201.542969 155.726562 C 201.03125 156.144531 200.546875 156.585938 200.082031 157.050781 C 199.613281 157.515625 199.175781 158.003906 198.757812 158.511719 C 198.339844 159.019531 197.949219 159.550781 197.582031 160.097656 C 197.214844 160.644531 196.878906 161.207031 196.570312 161.785156 C 196.257812 162.367188 195.976562 162.960938 195.726562 163.570312 C 195.472656 164.175781 195.253906 164.796875 195.0625 165.425781 C 194.871094 166.054688 194.710938 166.691406 194.582031 167.335938 C 194.453125 167.984375 194.359375 168.632812 194.292969 169.289062 C 194.230469 169.941406 194.195312 170.597656 194.195312 171.257812 C 194.195312 171.914062 194.230469 172.570312 194.292969 173.226562 C 194.359375 173.882812 194.453125 174.53125 194.582031 175.175781 C 194.710938 175.820312 194.871094 176.460938 195.0625 177.089844 C 195.253906 177.71875 195.472656 178.335938 195.726562 178.945312 C 195.976562 179.554688 196.257812 180.148438 196.570312 180.726562 C 196.878906 181.308594 197.214844 181.871094 197.582031 182.417969 C 197.949219 182.964844 198.339844 183.492188 198.757812 184 C 199.175781 184.511719 199.613281 184.996094 200.082031 185.460938 C 200.546875 185.925781 201.03125 186.367188 201.542969 186.785156 C 202.050781 187.203125 202.578125 187.59375 203.125 187.960938 C 203.671875 188.328125 204.234375 188.664062 204.816406 188.972656 C 205.394531 189.285156 205.988281 189.566406 206.597656 189.816406 C 207.207031 190.070312 207.824219 190.289062 208.453125 190.480469 C 209.082031 190.671875 209.722656 190.832031 210.367188 190.960938 C 211.011719 191.089844 211.660156 191.183594 212.316406 191.25 C 212.972656 191.3125 213.628906 191.347656 214.285156 191.347656 C 214.945312 191.347656 215.601562 191.3125 216.253906 191.25 C 216.910156 191.183594 217.558594 191.089844 218.203125 190.960938 C 218.851562 190.832031 219.488281 190.671875 220.117188 190.480469 C 220.746094 190.289062 221.367188 190.070312 221.972656 189.816406 C 222.582031 189.566406 223.175781 189.285156 223.753906 188.972656 C 224.335938 188.664062 224.898438 188.328125 225.445312 187.960938 C 225.992188 187.59375 226.523438 187.203125 227.03125 186.785156 C 227.539062 186.367188 228.027344 185.925781 228.492188 185.460938 C 228.957031 184.996094 229.398438 184.511719 229.816406 184 C 230.230469 183.492188 230.625 182.964844 230.988281 182.417969 C 231.355469 181.871094 231.691406 181.308594 232.003906 180.726562 C 232.3125 180.148438 232.59375 179.554688 232.847656 178.945312 C 233.097656 178.335938 233.320312 177.71875 233.511719 177.089844 C 233.699219 176.460938 233.859375 175.820312 233.988281 175.175781 C 234.117188 174.53125 234.214844 173.882812 234.277344 173.226562 C 234.34375 172.570312 234.375 171.914062 234.375 171.257812 C 234.375 170.597656 234.339844 169.941406 234.277344 169.289062 C 234.210938 168.632812 234.113281 167.984375 233.984375 167.339844 C 233.855469 166.695312 233.695312 166.058594 233.503906 165.429688 C 233.3125 164.796875 233.09375 164.179688 232.839844 163.574219 C 232.585938 162.964844 232.308594 162.371094 231.996094 161.792969 C 231.6875 161.210938 231.347656 160.648438 230.984375 160.101562 C 230.617188 159.554688 230.226562 159.027344 229.808594 158.519531 C 229.390625 158.011719 228.949219 157.523438 228.484375 157.058594 C 228.019531 156.59375 227.53125 156.152344 227.023438 155.734375 C 226.515625 155.316406 225.988281 154.925781 225.441406 154.558594 C 224.894531 154.195312 224.332031 153.855469 223.75 153.546875 C 223.171875 153.234375 222.578125 152.953125 221.96875 152.703125 C 221.363281 152.449219 220.742188 152.230469 220.113281 152.039062 C 219.484375 151.847656 218.847656 151.6875 218.203125 151.558594 C 217.558594 151.429688 216.910156 151.332031 216.253906 151.265625 C 215.597656 151.203125 214.945312 151.167969 214.285156 151.167969 Z M 214.285156 151.167969 " fill-opacity="1" fill-rule="nonzero"/></svg>