<svg xmlns="http://www.w3.org/2000/svg" xmlns:xlink="http://www.w3.org/1999/xlink" width="500" zoomAndPan="magnify" viewBox="0 0 375 374.999991" height="500" preserveAspectRatio="xMidYMid meet" version="1.0"><path fill="#7ed957" d="M 331.042969 224.121094 C 339.214844 180.226562 348.691406 136.582031 356.953125 92.714844 C 359.421875 79.488281 351.953125 62.570312 337.507812 60.46875 C 331.132812 58.703125 323.667969 65.496094 326.289062 71.992188 C 327.109375 77.445312 333.328125 78.058594 337.507812 79.460938 C 338.789062 82.996094 341.132812 86.652344 339.636719 90.582031 C 338.71875 95.292969 337.761719 99.996094 336.832031 104.703125 L 124.085938 104.703125 C 119.878906 104.703125 116.46875 108.113281 116.46875 112.324219 C 116.46875 116.535156 119.878906 119.945312 124.085938 119.945312 L 333.800781 119.945312 C 328.109375 148.496094 322.355469 177.039062 316.75 205.621094 C 315.5 211.5625 314.617188 217.6875 312.113281 223.300781 C 307.632812 225.039062 302.632812 224.15625 297.972656 224.398438 C 242.648438 224.246094 187.320312 224.367188 132.03125 224.335938 C 117.980469 164.410156 104.109375 104.453125 90.027344 44.523438 C 88.230469 33.214844 78.566406 22.792969 66.558594 23.214844 C 52.203125 23.28125 37.8125 22.609375 23.488281 23.613281 C 15.589844 26.328125 15.589844 38 23.335938 40.957031 C 38.453125 42.394531 53.726562 40.566406 68.84375 41.84375 C 72.46875 43.609375 71.800781 48.640625 73.203125 51.929688 C 89.722656 123.167969 106.394531 194.371094 123.21875 265.578125 C 125.386719 277.191406 136.449219 286.457031 148.460938 285.300781 C 207.53125 285.207031 266.605469 285.511719 325.644531 285.148438 C 336.921875 285.511719 336.984375 266.886719 325.707031 267.160156 C 272.730469 266.796875 219.726562 267.070312 166.75 267.011719 C 158.792969 266.824219 150.714844 267.742188 142.851562 266.15625 C 139.347656 258.75 138.402344 250.457031 136.300781 242.625 C 193.242188 242.625 250.179688 242.652344 307.121094 242.625 C 318.183594 243.570312 329.398438 235.183594 331.042969 224.121094 Z M 331.042969 224.121094 " fill-opacity="1" fill-rule="nonzero"/><path fill="#7ed957" d="M 154.984375 292.035156 C 144.558594 294.078125 135.902344 302.765625 133.890625 313.1875 C 130.476562 327.546875 140.714844 343.214844 155.289062 345.683594 C 170.375 349.15625 186.5625 337.511719 187.84375 322.058594 C 190.707031 304.167969 172.542969 287.554688 154.984375 292.035156 Z M 168.210938 323.828125 C 165.285156 328.640625 157.847656 329.585938 154.15625 325.109375 C 149.097656 320.628906 151.871094 311.667969 158.179688 310.082031 C 165.679688 307.214844 173.515625 317.519531 168.210938 323.828125 Z M 168.210938 323.828125 " fill-opacity="1" fill-rule="nonzero"/><path fill="#7ed957" d="M 289.375 291.972656 C 269.410156 295.023438 260.296875 322.0625 274.011719 336.722656 C 286.390625 352.390625 314.402344 347.542969 320.5 328.398438 C 328.542969 309.347656 309.460938 286.914062 289.375 291.972656 Z M 299.769531 326.386719 C 290.410156 333.671875 279.5 317.058594 289.804688 311.269531 C 299.164062 303.953125 310.132812 320.59375 299.769531 326.386719 Z M 299.769531 326.386719 " fill-opacity="1" fill-rule="nonzero"/></svg>
