<svg xmlns="http://www.w3.org/2000/svg" xmlns:xlink="http://www.w3.org/1999/xlink" width="500" zoomAndPan="magnify" viewBox="0 0 375 374.999991" height="500" preserveAspectRatio="xMidYMid meet" version="1.0"><defs><clipPath id="4dbe972d43"><path d="M 32 76 L 343.921875 76 L 343.921875 375 L 32 375 Z M 32 76 " clip-rule="nonzero"/></clipPath><clipPath id="22c732a8bb"><path d="M 111 168.257812 L 264 168.257812 L 264 308 L 111 308 Z M 111 168.257812 " clip-rule="nonzero"/></clipPath></defs><g clip-path="url(#4dbe972d43)"><path fill="#ff66c4" d="M 320.757812 375 L 55.8125 375 C 49.378906 375 43.132812 372.316406 38.722656 367.640625 C 34.300781 362.964844 31.960938 356.59375 32.320312 350.164062 L 46.269531 99.117188 C 46.960938 86.640625 57.269531 76.882812 69.757812 76.882812 L 306.808594 76.882812 C 319.300781 76.882812 329.609375 86.640625 330.296875 99.117188 L 344.246094 350.164062 C 344.609375 356.59375 342.269531 362.964844 337.84375 367.640625 C 333.421875 372.316406 327.191406 375 320.757812 375 Z M 69.757812 92.574219 C 65.601562 92.574219 62.148438 95.835938 61.929688 99.980469 L 47.980469 351.023438 C 47.871094 353.207031 48.625 355.277344 50.113281 356.863281 C 51.621094 358.429688 53.628906 359.308594 55.8125 359.308594 L 320.757812 359.308594 C 322.9375 359.308594 324.964844 358.429688 326.453125 356.863281 C 327.945312 355.277344 328.714844 353.207031 328.585938 351.023438 L 314.640625 99.980469 C 314.417969 95.835938 310.96875 92.574219 306.808594 92.574219 Z M 69.757812 92.574219 " fill-opacity="1" fill-rule="nonzero"/></g><path fill="#ff66c4" d="M 258.890625 140.019531 C 254.5625 140.019531 251.046875 136.507812 251.046875 132.175781 L 251.046875 78.328125 C 251.046875 43.714844 222.898438 15.566406 188.285156 15.566406 C 153.671875 15.566406 125.523438 43.714844 125.523438 78.328125 L 125.523438 132.175781 C 125.523438 136.507812 122.007812 140.019531 117.679688 140.019531 C 113.347656 140.019531 109.832031 136.507812 109.832031 132.175781 L 109.832031 78.328125 C 109.832031 35.066406 145.027344 -0.125 188.285156 -0.125 C 231.542969 -0.125 266.738281 35.066406 266.738281 78.328125 L 266.738281 132.175781 C 266.738281 136.507812 263.222656 140.019531 258.890625 140.019531 Z M 258.890625 140.019531 " fill-opacity="1" fill-rule="nonzero"/><g clip-path="url(#22c732a8bb)"><path fill="#ff66c4" d="M 221.742188 168.257812 C 199.710938 168.257812 187.496094 184.164062 187.496094 184.164062 C 187.496094 184.164062 175.28125 168.257812 153.246094 168.257812 C 130.125 168.257812 111.386719 186.996094 111.386719 210.117188 C 111.386719 241.863281 148.769531 272.625 159.191406 282.34375 C 171.191406 293.53125 187.496094 307.917969 187.496094 307.917969 C 187.496094 307.917969 203.796875 293.53125 215.800781 282.34375 C 226.21875 272.625 263.601562 241.863281 263.601562 210.117188 C 263.601562 186.996094 244.863281 168.257812 221.742188 168.257812 Z M 208.890625 268.035156 C 207.542969 269.253906 206.371094 270.3125 205.417969 271.203125 C 199.703125 276.53125 192.945312 282.640625 187.496094 287.527344 C 182.046875 282.640625 175.28125 276.523438 169.570312 271.203125 C 168.613281 270.3125 167.441406 269.246094 166.101562 268.035156 C 155.292969 258.273438 126.609375 232.335938 126.609375 210.117188 C 126.609375 195.429688 138.558594 183.480469 153.246094 183.480469 C 167.152344 183.480469 175.210938 193.183594 175.425781 193.433594 L 187.496094 206.3125 L 199.566406 193.433594 C 199.640625 193.335938 207.839844 183.480469 221.742188 183.480469 C 236.433594 183.480469 248.382812 195.429688 248.382812 210.117188 C 248.382812 232.335938 219.695312 258.273438 208.890625 268.035156 Z M 208.890625 268.035156 " fill-opacity="1" fill-rule="nonzero"/></g></svg>