<svg xmlns="http://www.w3.org/2000/svg" xmlns:xlink="http://www.w3.org/1999/xlink" width="500" zoomAndPan="magnify" viewBox="0 0 375 374.999991" height="500" preserveAspectRatio="xMidYMid meet" version="1.0"><path fill="#ff66c4" d="M 106.75 370.476562 C 117.546875 373.492188 128.554688 374.992188 139.765625 374.976562 C 147.882812 374.945312 155.929688 374.1875 163.910156 372.707031 C 171.890625 371.226562 179.675781 369.042969 187.261719 366.160156 C 194.832031 369.027344 202.597656 371.199219 210.554688 372.671875 C 218.515625 374.144531 226.542969 374.894531 234.636719 374.925781 C 245.847656 374.941406 256.851562 373.441406 267.652344 370.425781 C 280.734375 366.769531 311.3125 358.195312 329.886719 328.53125 C 332.6875 323.90625 335.074219 319.078125 337.046875 314.042969 C 339.023438 309.011719 340.558594 303.851562 341.652344 298.554688 C 342.75 293.261719 343.386719 287.914062 343.570312 282.511719 C 343.753906 277.109375 343.480469 271.730469 342.746094 266.375 C 342.625 265.453125 342.3125 264.597656 341.808594 263.816406 C 341.308594 263.035156 340.660156 262.394531 339.875 261.902344 C 337.847656 260.65625 289.691406 231.09375 239.621094 254.871094 C 236.570312 256.351562 233.601562 257.980469 230.714844 259.753906 C 227.824219 261.53125 225.03125 263.445312 222.332031 265.496094 C 219.632812 267.546875 217.039062 269.726562 214.558594 272.035156 C 212.074219 274.34375 209.710938 276.769531 207.464844 279.308594 C 205.21875 281.851562 203.105469 284.496094 201.125 287.246094 C 199.140625 289.996094 197.296875 292.839844 195.597656 295.769531 C 193.894531 298.703125 192.339844 301.710938 190.9375 304.796875 C 189.53125 307.882812 188.28125 311.03125 187.1875 314.238281 C 186.09375 311.035156 184.84375 307.886719 183.4375 304.804688 C 182.035156 301.722656 180.480469 298.714844 178.777344 295.785156 C 177.078125 292.855469 175.234375 290.015625 173.253906 287.269531 C 171.269531 284.519531 169.160156 281.878906 166.914062 279.339844 C 164.671875 276.796875 162.308594 274.375 159.828125 272.070312 C 157.34375 269.765625 154.753906 267.585938 152.058594 265.535156 C 149.359375 263.484375 146.566406 261.574219 143.683594 259.796875 C 140.796875 258.023438 137.828125 256.394531 134.78125 254.914062 C 84.71875 231.105469 36.546875 260.675781 34.523438 261.945312 C 33.734375 262.441406 33.085938 263.078125 32.585938 263.863281 C 32.082031 264.648438 31.769531 265.5 31.652344 266.425781 C 30.917969 271.78125 30.648438 277.160156 30.832031 282.5625 C 31.019531 287.964844 31.660156 293.3125 32.757812 298.605469 C 33.855469 303.898438 35.394531 309.0625 37.371094 314.089844 C 39.347656 319.121094 41.738281 323.949219 44.539062 328.574219 C 63.082031 358.242188 93.679688 366.816406 106.75 370.476562 Z M 244.945312 266.121094 C 283.378906 247.859375 320.71875 265.496094 330.710938 270.992188 C 331.167969 275.402344 331.269531 279.820312 331.011719 284.25 C 330.753906 288.675781 330.140625 293.054688 329.171875 297.382812 C 328.203125 301.710938 326.890625 305.933594 325.234375 310.050781 C 323.582031 314.164062 321.605469 318.121094 319.3125 321.914062 C 303.289062 347.496094 276.953125 354.886719 264.269531 358.4375 C 259.132812 359.824219 253.929688 360.855469 248.652344 361.523438 C 243.375 362.195312 238.078125 362.496094 232.761719 362.433594 C 227.441406 362.371094 222.152344 361.945312 216.894531 361.148438 C 211.632812 360.355469 206.453125 359.203125 201.355469 357.695312 L 293.292969 294.476562 C 293.632812 294.246094 293.949219 293.984375 294.238281 293.691406 C 294.527344 293.398438 294.785156 293.082031 295.011719 292.738281 C 295.238281 292.394531 295.429688 292.03125 295.585938 291.648438 C 295.738281 291.269531 295.855469 290.875 295.933594 290.472656 C 296.011719 290.066406 296.046875 289.660156 296.042969 289.246094 C 296.039062 288.835938 295.996094 288.429688 295.910156 288.027344 C 295.824219 287.621094 295.703125 287.230469 295.539062 286.855469 C 295.378906 286.476562 295.179688 286.117188 294.945312 285.777344 C 294.714844 285.4375 294.449219 285.125 294.152344 284.839844 C 293.859375 284.550781 293.539062 284.296875 293.191406 284.074219 C 292.847656 283.851562 292.480469 283.664062 292.097656 283.511719 C 291.714844 283.359375 291.324219 283.25 290.917969 283.175781 C 290.511719 283.101562 290.105469 283.070312 289.691406 283.078125 C 289.28125 283.085938 288.875 283.132812 288.472656 283.222656 C 288.070312 283.3125 287.679688 283.4375 287.304688 283.605469 C 286.925781 283.769531 286.570312 283.972656 286.234375 284.207031 L 193.417969 348.019531 C 193.445312 345.898438 193.546875 343.78125 193.722656 341.667969 C 193.894531 339.554688 194.140625 337.449219 194.460938 335.351562 C 194.777344 333.253906 195.167969 331.171875 195.628906 329.101562 C 196.089844 327.027344 196.621094 324.976562 197.222656 322.941406 C 197.824219 320.910156 198.496094 318.898438 199.234375 316.910156 C 199.976562 314.921875 200.78125 312.960938 201.65625 311.027344 C 202.527344 309.09375 203.46875 307.195312 204.472656 305.324219 C 205.476562 303.457031 206.542969 301.625 207.671875 299.828125 C 208.800781 298.035156 209.992188 296.277344 211.242188 294.566406 C 212.492188 292.851562 213.796875 291.183594 215.164062 289.558594 C 216.527344 287.933594 217.945312 286.355469 219.417969 284.832031 C 220.890625 283.304688 222.414062 281.828125 223.984375 280.40625 C 225.558594 278.980469 227.179688 277.613281 228.847656 276.304688 C 230.511719 274.992188 232.222656 273.738281 233.976562 272.542969 C 235.730469 271.347656 237.519531 270.214844 239.351562 269.144531 C 241.179688 268.070312 243.046875 267.0625 244.945312 266.121094 Z M 43.667969 271.035156 C 53.632812 265.550781 91.007812 247.90625 129.429688 266.167969 C 131.332031 267.113281 133.195312 268.121094 135.027344 269.191406 C 136.855469 270.265625 138.648438 271.398438 140.402344 272.59375 C 142.15625 273.785156 143.863281 275.039062 145.53125 276.351562 C 147.199219 277.664062 148.820312 279.03125 150.394531 280.453125 C 151.964844 281.875 153.488281 283.351562 154.960938 284.878906 C 156.433594 286.40625 157.851562 287.980469 159.214844 289.605469 C 160.582031 291.230469 161.886719 292.898438 163.136719 294.613281 C 164.386719 296.328125 165.578125 298.082031 166.707031 299.878906 C 167.835938 301.671875 168.902344 303.503906 169.90625 305.375 C 170.910156 307.242188 171.851562 309.144531 172.722656 311.074219 C 173.597656 313.007812 174.40625 314.96875 175.144531 316.957031 C 175.882812 318.945312 176.554688 320.957031 177.15625 322.992188 C 177.757812 325.027344 178.289062 327.078125 178.75 329.148438 C 179.210938 331.21875 179.601562 333.304688 179.917969 335.402344 C 180.234375 337.5 180.480469 339.605469 180.65625 341.71875 C 180.828125 343.832031 180.929688 345.949219 180.960938 348.070312 L 88.144531 284.253906 C 87.808594 284.015625 87.449219 283.816406 87.074219 283.648438 C 86.695312 283.484375 86.308594 283.355469 85.90625 283.265625 C 85.503906 283.179688 85.097656 283.128906 84.683594 283.121094 C 84.273438 283.113281 83.863281 283.144531 83.460938 283.21875 C 83.054688 283.292969 82.660156 283.402344 82.277344 283.554688 C 81.894531 283.707031 81.53125 283.894531 81.183594 284.117188 C 80.839844 284.339844 80.519531 284.59375 80.222656 284.882812 C 79.925781 285.167969 79.664062 285.480469 79.429688 285.820312 C 79.195312 286.160156 79 286.519531 78.835938 286.898438 C 78.675781 287.277344 78.550781 287.667969 78.464844 288.070312 C 78.382812 288.472656 78.335938 288.878906 78.332031 289.289062 C 78.328125 289.703125 78.367188 290.109375 78.445312 290.515625 C 78.519531 290.917969 78.636719 291.3125 78.792969 291.695312 C 78.945312 292.074219 79.136719 292.4375 79.363281 292.78125 C 79.589844 293.125 79.847656 293.441406 80.140625 293.734375 C 80.429688 294.027344 80.746094 294.289062 81.085938 294.519531 L 173.023438 357.738281 C 167.921875 359.246094 162.742188 360.398438 157.484375 361.191406 C 152.222656 361.984375 146.933594 362.410156 141.617188 362.472656 C 136.296875 362.535156 131 362.234375 125.726562 361.5625 C 120.449219 360.894531 115.242188 359.867188 110.109375 358.480469 C 97.445312 354.929688 71.09375 347.546875 55.074219 321.957031 C 52.777344 318.164062 50.800781 314.207031 49.144531 310.09375 C 47.492188 305.976562 46.179688 301.757812 45.210938 297.429688 C 44.242188 293.097656 43.625 288.722656 43.367188 284.292969 C 43.109375 279.867188 43.207031 275.445312 43.667969 271.035156 Z M 43.667969 271.035156 " fill-opacity="1" fill-rule="nonzero"/><path fill="#ff66c4" d="M 297.902344 65.644531 C 297.148438 64.339844 296.332031 63.074219 295.457031 61.847656 C 294.582031 60.621094 293.652344 59.441406 292.664062 58.304688 C 291.675781 57.164062 290.636719 56.078125 289.542969 55.042969 C 288.453125 54.003906 287.3125 53.019531 286.125 52.09375 C 284.941406 51.164062 283.710938 50.296875 282.441406 49.484375 C 281.171875 48.675781 279.867188 47.925781 278.527344 47.242188 C 277.183594 46.554688 275.8125 45.9375 274.414062 45.382812 C 273.011719 44.828125 271.585938 44.34375 270.140625 43.925781 C 268.691406 43.507812 267.230469 43.160156 265.75 42.886719 C 264.269531 42.609375 262.777344 42.402344 261.277344 42.269531 C 259.777344 42.132812 258.273438 42.070312 256.765625 42.082031 C 255.261719 42.09375 253.757812 42.175781 252.261719 42.328125 C 250.761719 42.480469 249.273438 42.707031 247.796875 43.003906 C 246.320312 43.300781 244.863281 43.667969 243.417969 44.101562 C 241.976562 44.539062 240.558594 45.042969 239.167969 45.617188 C 237.773438 46.1875 236.410156 46.824219 235.078125 47.527344 C 235.066406 46.019531 234.980469 44.515625 234.824219 43.015625 C 234.667969 41.511719 234.441406 40.023438 234.140625 38.546875 C 233.839844 37.066406 233.46875 35.605469 233.027344 34.164062 C 232.585938 32.71875 232.078125 31.300781 231.5 29.90625 C 230.921875 28.511719 230.28125 27.148438 229.570312 25.816406 C 228.863281 24.484375 228.089844 23.191406 227.257812 21.929688 C 226.425781 20.671875 225.53125 19.457031 224.582031 18.285156 C 223.632812 17.113281 222.628906 15.988281 221.570312 14.914062 C 220.511719 13.839844 219.402344 12.816406 218.246094 11.847656 C 217.089844 10.878906 215.890625 9.96875 214.644531 9.113281 C 213.398438 8.261719 212.117188 7.46875 210.796875 6.742188 C 209.476562 6.011719 208.121094 5.347656 206.738281 4.746094 C 205.351562 4.148438 203.941406 3.613281 202.507812 3.152344 C 201.070312 2.6875 199.617188 2.292969 198.140625 1.96875 C 196.667969 1.644531 195.183594 1.394531 193.683594 1.210938 C 192.1875 1.03125 190.683594 0.921875 189.175781 0.886719 C 187.667969 0.851562 186.160156 0.886719 184.652344 0.996094 C 183.148438 1.105469 181.652344 1.285156 180.164062 1.539062 C 178.675781 1.792969 177.207031 2.117188 175.75 2.511719 C 174.292969 2.90625 172.859375 3.367188 171.445312 3.902344 C 170.035156 4.433594 168.652344 5.035156 167.296875 5.699219 C 165.945312 6.367188 164.625 7.09375 163.339844 7.886719 C 162.054688 8.679688 160.8125 9.53125 159.613281 10.445312 C 158.410156 11.359375 157.253906 12.324219 156.144531 13.347656 C 155.039062 14.371094 153.980469 15.449219 152.976562 16.574219 C 151.96875 17.699219 151.019531 18.871094 150.128906 20.085938 C 149.234375 21.304688 148.402344 22.558594 147.632812 23.855469 C 146.859375 25.152344 146.152344 26.484375 145.507812 27.847656 C 144.867188 29.214844 144.289062 30.605469 143.78125 32.027344 C 143.269531 33.445312 142.832031 34.890625 142.460938 36.351562 C 142.089844 37.8125 141.789062 39.292969 141.5625 40.78125 C 141.332031 42.273438 141.175781 43.773438 141.09375 45.28125 C 139.769531 44.570312 138.414062 43.925781 137.027344 43.34375 C 135.644531 42.761719 134.234375 42.25 132.800781 41.804688 C 131.363281 41.359375 129.914062 40.984375 128.441406 40.675781 C 126.972656 40.371094 125.488281 40.132812 123.996094 39.96875 C 122.503906 39.804688 121.003906 39.714844 119.503906 39.691406 C 118 39.671875 116.503906 39.722656 115.003906 39.847656 C 113.507812 39.96875 112.019531 40.164062 110.542969 40.429688 C 109.0625 40.695312 107.601562 41.03125 106.15625 41.4375 C 104.707031 41.839844 103.285156 42.316406 101.882812 42.859375 C 100.484375 43.398438 99.113281 44.007812 97.769531 44.683594 C 96.425781 45.355469 95.117188 46.09375 93.847656 46.890625 C 92.574219 47.691406 91.34375 48.546875 90.15625 49.464844 C 88.964844 50.382812 87.820312 51.355469 86.726562 52.378906 C 85.628906 53.40625 84.582031 54.484375 83.589844 55.609375 C 82.597656 56.738281 81.660156 57.910156 80.777344 59.125 C 79.898438 60.34375 79.078125 61.597656 78.316406 62.894531 C 77.554688 64.1875 76.859375 65.515625 76.226562 66.878906 C 75.589844 68.242188 75.023438 69.628906 74.523438 71.046875 C 74.023438 72.464844 73.59375 73.902344 73.230469 75.359375 C 72.867188 76.816406 72.578125 78.289062 72.355469 79.773438 C 72.132812 81.257812 71.984375 82.753906 71.90625 84.253906 C 71.828125 85.753906 71.820312 87.253906 71.886719 88.753906 C 71.953125 90.253906 72.089844 91.75 72.296875 93.234375 C 72.507812 94.722656 72.785156 96.199219 73.136719 97.65625 C 73.488281 99.117188 73.90625 100.558594 74.394531 101.980469 C 74.882812 103.402344 75.4375 104.792969 76.058594 106.160156 C 76.679688 107.53125 77.367188 108.863281 78.117188 110.164062 C 78.867188 111.46875 79.675781 112.730469 80.546875 113.953125 C 81.417969 115.179688 82.347656 116.355469 83.328125 117.492188 C 84.3125 118.628906 85.351562 119.710938 86.4375 120.75 C 87.527344 121.785156 88.660156 122.765625 89.84375 123.691406 C 91.023438 124.621094 92.25 125.488281 93.511719 126.296875 C 92.164062 127.042969 90.855469 127.851562 89.585938 128.722656 C 88.320312 129.597656 87.097656 130.53125 85.917969 131.523438 C 84.742188 132.515625 83.617188 133.566406 82.542969 134.667969 C 81.46875 135.773438 80.449219 136.925781 79.488281 138.128906 C 78.527344 139.335938 77.628906 140.582031 76.789062 141.875 C 75.953125 143.167969 75.179688 144.496094 74.472656 145.863281 C 73.765625 147.234375 73.125 148.632812 72.554688 150.0625 C 71.984375 151.492188 71.484375 152.949219 71.058594 154.429688 C 70.632812 155.910156 70.277344 157.40625 69.996094 158.917969 C 69.71875 160.433594 69.511719 161.957031 69.382812 163.492188 C 69.25 165.027344 69.195312 166.566406 69.21875 168.105469 C 69.238281 169.644531 69.332031 171.179688 69.503906 172.710938 C 69.675781 174.242188 69.921875 175.761719 70.242188 177.265625 C 70.5625 178.773438 70.957031 180.261719 71.421875 181.730469 C 71.890625 183.195312 72.425781 184.636719 73.035156 186.054688 C 73.644531 187.46875 74.320312 188.851562 75.0625 190.199219 C 75.808594 191.546875 76.617188 192.855469 77.488281 194.125 C 78.359375 195.394531 79.292969 196.617188 80.285156 197.796875 C 81.277344 198.972656 82.328125 200.097656 83.429688 201.175781 C 84.53125 202.25 85.6875 203.265625 86.890625 204.226562 C 88.09375 205.191406 89.339844 206.089844 90.632812 206.929688 C 91.921875 207.769531 93.253906 208.542969 94.621094 209.25 C 95.988281 209.957031 97.386719 210.597656 98.820312 211.167969 C 100.25 211.738281 101.703125 212.238281 103.183594 212.667969 C 104.664062 213.09375 106.160156 213.449219 107.675781 213.730469 C 109.1875 214.011719 110.714844 214.21875 112.246094 214.347656 C 113.78125 214.480469 115.320312 214.535156 116.859375 214.515625 C 118.398438 214.496094 119.933594 214.398438 121.464844 214.230469 C 122.996094 214.058594 124.515625 213.8125 126.023438 213.492188 C 127.527344 213.175781 129.015625 212.78125 130.484375 212.316406 C 131.953125 211.851562 133.394531 211.3125 134.808594 210.707031 C 136.222656 210.097656 137.605469 209.421875 138.957031 208.679688 C 138.964844 210.203125 139.050781 211.726562 139.207031 213.242188 C 139.367188 214.757812 139.597656 216.265625 139.902344 217.757812 C 140.207031 219.253906 140.585938 220.730469 141.035156 222.1875 C 141.484375 223.644531 142 225.078125 142.589844 226.484375 C 143.175781 227.894531 143.832031 229.269531 144.554688 230.613281 C 145.277344 231.953125 146.0625 233.261719 146.910156 234.527344 C 147.761719 235.792969 148.667969 237.015625 149.636719 238.195312 C 150.605469 239.375 151.628906 240.503906 152.707031 241.582031 C 153.785156 242.660156 154.914062 243.683594 156.089844 244.652344 C 157.269531 245.621094 158.492188 246.53125 159.757812 247.382812 C 161.023438 248.230469 162.328125 249.019531 163.671875 249.742188 C 165.015625 250.464844 166.390625 251.121094 167.796875 251.710938 C 169.203125 252.296875 170.636719 252.816406 172.09375 253.265625 C 173.550781 253.71875 175.027344 254.09375 176.519531 254.402344 C 178.015625 254.707031 179.519531 254.941406 181.035156 255.097656 C 182.554688 255.257812 184.074219 255.34375 185.601562 255.355469 L 185.941406 255.355469 C 187.441406 255.351562 188.9375 255.277344 190.429688 255.132812 C 191.917969 254.984375 193.402344 254.769531 194.871094 254.480469 C 196.34375 254.195312 197.796875 253.839844 199.234375 253.414062 C 200.671875 252.988281 202.085938 252.492188 203.472656 251.933594 C 204.863281 251.375 206.226562 250.746094 207.554688 250.058594 C 208.886719 249.367188 210.179688 248.617188 211.4375 247.804688 C 212.699219 246.988281 213.914062 246.117188 215.089844 245.1875 C 216.265625 244.257812 217.394531 243.277344 218.476562 242.238281 C 219.558594 241.203125 220.589844 240.117188 221.570312 238.980469 C 222.546875 237.847656 223.46875 236.667969 224.335938 235.445312 C 225.203125 234.222656 226.007812 232.960938 226.753906 231.660156 C 227.5 230.359375 228.183594 229.027344 228.800781 227.664062 C 229.421875 226.296875 229.972656 224.90625 230.460938 223.488281 C 230.945312 222.070312 231.363281 220.632812 231.714844 219.175781 C 232.0625 217.71875 232.34375 216.25 232.550781 214.765625 C 232.761719 213.28125 232.898438 211.789062 232.96875 210.292969 C 236.46875 212.277344 240.164062 213.785156 244.054688 214.816406 C 247.945312 215.847656 251.902344 216.367188 255.929688 216.378906 C 260.003906 216.375 264.011719 215.855469 267.949219 214.820312 C 270.15625 214.246094 272.3125 213.511719 274.414062 212.625 C 276.511719 211.734375 278.539062 210.699219 280.488281 209.515625 C 282.4375 208.332031 284.292969 207.011719 286.050781 205.558594 C 287.808594 204.105469 289.449219 202.53125 290.980469 200.839844 C 292.507812 199.144531 293.90625 197.351562 295.175781 195.457031 C 296.441406 193.558594 297.566406 191.582031 298.546875 189.519531 C 299.523438 187.460938 300.351562 185.339844 301.023438 183.160156 C 301.691406 180.980469 302.203125 178.765625 302.550781 176.511719 C 302.898438 174.253906 303.082031 171.988281 303.101562 169.707031 C 303.121094 167.425781 302.972656 165.15625 302.660156 162.894531 C 302.351562 160.636719 301.875 158.410156 301.242188 156.222656 C 300.605469 154.03125 299.8125 151.898438 298.867188 149.820312 C 297.921875 147.746094 296.832031 145.75 295.59375 143.832031 C 294.355469 141.917969 292.988281 140.101562 291.488281 138.382812 C 289.984375 136.664062 288.367188 135.066406 286.632812 133.582031 C 284.898438 132.101562 283.066406 130.753906 281.136719 129.535156 C 282.449219 128.753906 283.71875 127.910156 284.945312 127.007812 C 286.175781 126.101562 287.355469 125.136719 288.492188 124.117188 C 289.625 123.097656 290.710938 122.027344 291.738281 120.902344 C 292.769531 119.777344 293.746094 118.605469 294.660156 117.382812 C 295.578125 116.164062 296.433594 114.902344 297.230469 113.601562 C 298.023438 112.296875 298.753906 110.960938 299.417969 109.585938 C 300.082031 108.210938 300.679688 106.808594 301.207031 105.378906 C 301.734375 103.945312 302.195312 102.492188 302.582031 101.015625 C 302.96875 99.542969 303.28125 98.050781 303.523438 96.542969 C 303.765625 95.035156 303.9375 93.523438 304.03125 92 C 304.128906 90.476562 304.148438 88.953125 304.097656 87.425781 C 304.042969 85.902344 303.917969 84.382812 303.714844 82.871094 C 303.515625 81.359375 303.242188 79.859375 302.898438 78.371094 C 302.550781 76.886719 302.136719 75.417969 301.648438 73.972656 C 301.160156 72.527344 300.601562 71.109375 299.976562 69.71875 C 299.351562 68.328125 298.660156 66.96875 297.902344 65.644531 Z M 166.40625 128.320312 C 166.40625 127.640625 166.4375 126.960938 166.503906 126.285156 C 166.570312 125.605469 166.667969 124.933594 166.800781 124.265625 C 166.933594 123.597656 167.097656 122.9375 167.292969 122.285156 C 167.488281 121.632812 167.71875 120.992188 167.976562 120.363281 C 168.234375 119.734375 168.527344 119.121094 168.847656 118.519531 C 169.164062 117.917969 169.515625 117.332031 169.890625 116.765625 C 170.269531 116.199219 170.671875 115.652344 171.105469 115.125 C 171.535156 114.597656 171.992188 114.09375 172.472656 113.613281 C 172.953125 113.128906 173.457031 112.671875 173.980469 112.242188 C 174.507812 111.808594 175.054688 111.402344 175.617188 111.023438 C 176.183594 110.644531 176.765625 110.292969 177.367188 109.972656 C 177.96875 109.648438 178.582031 109.359375 179.210938 109.097656 C 179.839844 108.835938 180.480469 108.605469 181.128906 108.40625 C 181.78125 108.207031 182.441406 108.042969 183.109375 107.910156 C 183.777344 107.773438 184.449219 107.675781 185.125 107.605469 C 185.804688 107.539062 186.484375 107.503906 187.164062 107.503906 C 187.84375 107.503906 188.523438 107.535156 189.203125 107.601562 C 189.878906 107.667969 190.550781 107.765625 191.21875 107.898438 C 191.886719 108.03125 192.546875 108.195312 193.199219 108.390625 C 193.851562 108.589844 194.492188 108.816406 195.121094 109.078125 C 195.75 109.335938 196.363281 109.628906 196.964844 109.949219 C 197.566406 110.269531 198.148438 110.617188 198.71875 110.996094 C 199.285156 111.371094 199.828125 111.777344 200.355469 112.207031 C 200.882812 112.640625 201.386719 113.097656 201.871094 113.578125 C 202.351562 114.058594 202.808594 114.5625 203.242188 115.085938 C 203.671875 115.613281 204.078125 116.160156 204.457031 116.726562 C 204.835938 117.292969 205.1875 117.875 205.507812 118.472656 C 205.828125 119.074219 206.121094 119.6875 206.382812 120.316406 C 206.640625 120.945312 206.871094 121.585938 207.070312 122.238281 C 207.269531 122.890625 207.433594 123.550781 207.566406 124.21875 C 207.699219 124.882812 207.800781 125.558594 207.867188 126.234375 C 207.933594 126.914062 207.96875 127.589844 207.96875 128.273438 C 207.96875 128.953125 207.9375 129.632812 207.871094 130.308594 C 207.804688 130.988281 207.703125 131.660156 207.570312 132.328125 C 207.441406 132.996094 207.273438 133.65625 207.078125 134.308594 C 206.878906 134.960938 206.652344 135.597656 206.390625 136.230469 C 206.128906 136.859375 205.839844 137.472656 205.519531 138.074219 C 205.199219 138.675781 204.847656 139.257812 204.472656 139.824219 C 204.09375 140.390625 203.6875 140.9375 203.257812 141.460938 C 202.824219 141.988281 202.367188 142.492188 201.886719 142.976562 C 201.40625 143.457031 200.902344 143.914062 200.375 144.34375 C 199.851562 144.777344 199.304688 145.183594 198.738281 145.5625 C 198.171875 145.9375 197.589844 146.289062 196.988281 146.609375 C 196.386719 146.929688 195.773438 147.222656 195.144531 147.484375 C 194.515625 147.742188 193.875 147.972656 193.222656 148.171875 C 192.570312 148.367188 191.910156 148.53125 191.246094 148.664062 C 190.578125 148.800781 189.902344 148.898438 189.226562 148.964844 C 188.546875 149.03125 187.871094 149.066406 187.1875 149.066406 C 186.507812 149.066406 185.832031 149.03125 185.15625 148.964844 C 184.476562 148.894531 183.808594 148.796875 183.140625 148.664062 C 182.472656 148.53125 181.816406 148.363281 181.164062 148.167969 C 180.515625 147.96875 179.875 147.742188 179.25 147.480469 C 178.621094 147.21875 178.007812 146.929688 177.40625 146.609375 C 176.808594 146.289062 176.226562 145.941406 175.660156 145.5625 C 175.09375 145.1875 174.550781 144.78125 174.023438 144.351562 C 173.5 143.921875 172.996094 143.464844 172.515625 142.984375 C 172.035156 142.503906 171.578125 142.003906 171.144531 141.476562 C 170.714844 140.953125 170.308594 140.40625 169.929688 139.84375 C 169.550781 139.277344 169.203125 138.699219 168.882812 138.097656 C 168.558594 137.5 168.269531 136.886719 168.007812 136.257812 C 167.746094 135.632812 167.515625 134.992188 167.316406 134.34375 C 167.117188 133.695312 166.953125 133.035156 166.816406 132.371094 C 166.683594 131.703125 166.582031 131.03125 166.511719 130.355469 C 166.445312 129.679688 166.410156 129 166.40625 128.320312 Z M 188.0625 13.703125 C 189.195312 13.707031 190.324219 13.765625 191.453125 13.875 C 192.582031 13.988281 193.699219 14.15625 194.8125 14.378906 C 195.921875 14.601562 197.019531 14.878906 198.105469 15.210938 C 199.1875 15.539062 200.253906 15.921875 201.300781 16.359375 C 202.347656 16.792969 203.371094 17.277344 204.371094 17.8125 C 205.367188 18.351562 206.339844 18.933594 207.28125 19.5625 C 208.222656 20.195312 209.132812 20.867188 210.007812 21.589844 C 210.882812 22.308594 211.722656 23.070312 212.523438 23.871094 C 213.324219 24.671875 214.082031 25.511719 214.800781 26.390625 C 215.519531 27.265625 216.195312 28.175781 216.824219 29.117188 C 217.453125 30.058594 218.035156 31.03125 218.570312 32.03125 C 219.101562 33.03125 219.585938 34.054688 220.019531 35.101562 C 220.453125 36.148438 220.835938 37.214844 221.164062 38.300781 C 221.492188 39.382812 221.769531 40.480469 221.988281 41.59375 C 222.210938 42.707031 222.378906 43.824219 222.488281 44.953125 C 222.601562 46.082031 222.65625 47.210938 222.65625 48.34375 C 222.65625 57.75 212.746094 75.128906 195.5 96.230469 C 193.015625 95.519531 190.484375 95.128906 187.902344 95.058594 C 185.324219 94.984375 182.773438 95.230469 180.253906 95.800781 C 174.851562 89.246094 169.789062 82.4375 165.070312 75.375 C 162.058594 70.871094 159.394531 66.175781 157.070312 61.285156 C 154.949219 57.238281 153.734375 52.933594 153.425781 48.375 C 153.425781 47.242188 153.480469 46.109375 153.59375 44.980469 C 153.703125 43.851562 153.871094 42.730469 154.09375 41.617188 C 154.3125 40.503906 154.589844 39.40625 154.917969 38.320312 C 155.246094 37.234375 155.628906 36.164062 156.0625 35.117188 C 156.496094 34.070312 156.980469 33.042969 157.515625 32.042969 C 158.050781 31.042969 158.632812 30.070312 159.261719 29.125 C 159.894531 28.183594 160.566406 27.273438 161.289062 26.394531 C 162.007812 25.515625 162.769531 24.675781 163.570312 23.875 C 164.371094 23.070312 165.210938 22.308594 166.085938 21.589844 C 166.964844 20.871094 167.875 20.195312 168.816406 19.5625 C 169.761719 18.929688 170.730469 18.347656 171.730469 17.8125 C 172.734375 17.277344 173.757812 16.792969 174.804688 16.355469 C 175.851562 15.921875 176.917969 15.539062 178.003906 15.207031 C 179.089844 14.878906 180.191406 14.601562 181.300781 14.378906 C 182.414062 14.15625 183.535156 13.988281 184.664062 13.875 C 185.792969 13.761719 186.925781 13.707031 188.0625 13.703125 Z M 89.265625 69.027344 C 89.847656 68.054688 90.472656 67.109375 91.148438 66.199219 C 91.824219 65.289062 92.539062 64.414062 93.300781 63.570312 C 94.058594 62.730469 94.859375 61.929688 95.699219 61.167969 C 96.535156 60.402344 97.410156 59.683594 98.320312 59.007812 C 99.230469 58.332031 100.167969 57.699219 101.140625 57.117188 C 102.113281 56.53125 103.109375 55.996094 104.132812 55.507812 C 105.15625 55.023438 106.203125 54.585938 107.269531 54.203125 C 108.335938 53.820312 109.417969 53.488281 110.519531 53.210938 C 111.617188 52.933594 112.726562 52.710938 113.847656 52.542969 C 114.96875 52.375 116.09375 52.257812 117.226562 52.203125 C 118.359375 52.144531 119.492188 52.140625 120.625 52.195312 C 121.757812 52.246094 122.882812 52.355469 124.003906 52.519531 C 125.125 52.683594 126.238281 52.902344 127.335938 53.171875 C 128.4375 53.445312 129.523438 53.773438 130.589844 54.152344 C 131.660156 54.53125 132.707031 54.960938 133.730469 55.441406 C 134.757812 55.925781 135.757812 56.453125 136.730469 57.035156 C 140.496094 59.644531 143.566406 62.910156 145.945312 66.828125 L 145.976562 66.871094 C 148.433594 72.007812 151.234375 76.949219 154.371094 81.695312 C 157.933594 89.183594 161.097656 96.835938 163.867188 104.652344 C 160.148438 108.375 157.46875 112.734375 155.824219 117.734375 C 129.519531 121.636719 109.242188 121.246094 101.300781 116.488281 C 100.324219 115.90625 99.378906 115.28125 98.46875 114.605469 C 97.554688 113.933594 96.675781 113.21875 95.832031 112.457031 C 94.988281 111.699219 94.183594 110.902344 93.421875 110.0625 C 92.65625 109.222656 91.933594 108.351562 91.253906 107.441406 C 90.578125 106.53125 89.945312 105.589844 89.359375 104.621094 C 88.773438 103.648438 88.234375 102.648438 87.746094 101.625 C 87.257812 100.601562 86.824219 99.554688 86.4375 98.488281 C 86.050781 97.421875 85.71875 96.339844 85.441406 95.238281 C 85.164062 94.136719 84.9375 93.027344 84.769531 91.90625 C 84.597656 90.785156 84.484375 89.65625 84.425781 88.523438 C 84.367188 87.390625 84.363281 86.257812 84.417969 85.125 C 84.46875 83.988281 84.578125 82.863281 84.742188 81.738281 C 84.90625 80.617188 85.125 79.503906 85.398438 78.402344 C 85.667969 77.300781 85.996094 76.214844 86.375 75.148438 C 86.753906 74.078125 87.1875 73.03125 87.667969 72.003906 C 88.152344 70.976562 88.683594 69.976562 89.265625 69 Z M 134.316406 197.09375 C 133.324219 197.664062 132.308594 198.1875 131.269531 198.660156 C 130.226562 199.132812 129.164062 199.550781 128.082031 199.917969 C 127 200.285156 125.902344 200.597656 124.789062 200.855469 C 123.675781 201.113281 122.550781 201.316406 121.417969 201.464844 C 120.285156 201.609375 119.144531 201.703125 118.003906 201.734375 C 116.859375 201.769531 115.71875 201.746094 114.578125 201.667969 C 113.4375 201.589844 112.304688 201.457031 111.175781 201.265625 C 110.046875 201.074219 108.933594 200.828125 107.832031 200.527344 C 106.726562 200.222656 105.644531 199.867188 104.574219 199.460938 C 103.507812 199.050781 102.464844 198.589844 101.441406 198.078125 C 100.417969 197.566406 99.425781 197.003906 98.457031 196.394531 C 97.492188 195.78125 96.558594 195.125 95.65625 194.421875 C 94.753906 193.71875 93.890625 192.972656 93.0625 192.183594 C 92.234375 191.394531 91.449219 190.566406 90.703125 189.703125 C 89.957031 188.835938 89.257812 187.933594 88.601562 186.996094 C 87.945312 186.0625 87.335938 185.09375 86.777344 184.097656 C 86.214844 183.101562 85.703125 182.082031 85.246094 181.035156 C 84.785156 179.988281 84.378906 178.921875 84.023438 177.832031 C 83.671875 176.746094 83.371094 175.644531 83.128906 174.527344 C 82.882812 173.410156 82.695312 172.285156 82.558594 171.148438 C 82.425781 170.015625 82.351562 168.875 82.328125 167.730469 C 82.308594 166.589844 82.34375 165.449219 82.4375 164.308594 C 82.53125 163.167969 82.679688 162.035156 82.882812 160.910156 C 83.085938 159.785156 83.347656 158.675781 83.660156 157.574219 C 83.976562 156.476562 84.34375 155.394531 84.765625 154.332031 C 85.1875 153.269531 85.660156 152.230469 86.1875 151.214844 C 86.710938 150.199219 87.285156 149.210938 87.90625 148.253906 C 88.527344 147.292969 89.195312 146.367188 89.910156 145.476562 C 90.625 144.582031 91.382812 143.726562 92.179688 142.910156 C 92.976562 142.089844 93.816406 141.316406 94.691406 140.578125 C 95.566406 139.84375 96.476562 139.15625 97.421875 138.507812 C 98.363281 137.863281 99.335938 137.269531 100.339844 136.71875 C 108.519531 132.128906 128.460938 132.257812 155.234375 136.929688 C 156.59375 141.972656 159.015625 146.4375 162.496094 150.332031 C 152.820312 175.128906 142.394531 192.546875 134.316406 197.09375 Z M 185.957031 242.871094 L 185.695312 242.871094 C 184.558594 242.863281 183.429688 242.796875 182.300781 242.675781 C 181.175781 242.554688 180.054688 242.378906 178.945312 242.148438 C 177.835938 241.917969 176.738281 241.636719 175.65625 241.296875 C 174.574219 240.957031 173.511719 240.566406 172.464844 240.125 C 171.421875 239.683594 170.402344 239.1875 169.40625 238.644531 C 168.414062 238.101562 167.445312 237.511719 166.507812 236.875 C 165.570312 236.234375 164.667969 235.554688 163.796875 234.828125 C 162.925781 234.101562 162.09375 233.332031 161.300781 232.523438 C 160.503906 231.714844 159.753906 230.867188 159.039062 229.984375 C 158.328125 229.101562 157.664062 228.1875 157.039062 227.238281 C 156.417969 226.289062 155.847656 225.3125 155.320312 224.308594 C 154.796875 223.304688 154.320312 222.273438 153.894531 221.222656 C 153.472656 220.171875 153.097656 219.101562 152.78125 218.015625 C 152.460938 216.925781 152.195312 215.824219 151.984375 214.710938 C 151.773438 213.597656 151.617188 212.476562 151.519531 211.34375 C 151.417969 210.214844 151.371094 209.085938 151.382812 207.949219 C 151.457031 198.605469 161.75 180.933594 178.929688 160.367188 C 181.632812 161.105469 184.386719 161.492188 187.1875 161.523438 C 189.519531 161.519531 191.824219 161.273438 194.101562 160.78125 C 211.015625 181.863281 220.695312 199.171875 220.621094 208.503906 C 220.609375 209.632812 220.542969 210.757812 220.421875 211.882812 C 220.296875 213.003906 220.121094 214.117188 219.894531 215.222656 C 219.664062 216.328125 219.378906 217.417969 219.042969 218.496094 C 218.707031 219.574219 218.316406 220.632812 217.878906 221.671875 C 217.4375 222.710938 216.949219 223.726562 216.410156 224.71875 C 215.871094 225.710938 215.285156 226.671875 214.652344 227.609375 C 214.019531 228.542969 213.34375 229.445312 212.621094 230.3125 C 211.902344 231.183594 211.140625 232.015625 210.339844 232.808594 C 209.535156 233.601562 208.699219 234.355469 207.824219 235.070312 C 206.949219 235.78125 206.039062 236.453125 205.097656 237.074219 C 204.160156 237.699219 203.191406 238.277344 202.195312 238.808594 C 201.195312 239.335938 200.175781 239.816406 199.132812 240.246094 C 198.089844 240.675781 197.027344 241.054688 195.949219 241.382812 C 194.867188 241.710938 193.773438 241.984375 192.667969 242.203125 C 191.558594 242.425781 190.445312 242.589844 189.320312 242.703125 C 188.199219 242.8125 187.070312 242.871094 185.941406 242.871094 Z M 285.914062 186.722656 C 285.34375 187.699219 284.722656 188.648438 284.058594 189.566406 C 283.390625 190.488281 282.683594 191.371094 281.929688 192.21875 C 281.175781 193.066406 280.382812 193.878906 279.550781 194.648438 C 278.71875 195.421875 277.851562 196.148438 276.945312 196.835938 C 276.042969 197.519531 275.109375 198.160156 274.140625 198.753906 C 273.175781 199.347656 272.179688 199.890625 271.160156 200.386719 C 270.140625 200.882812 269.097656 201.328125 268.035156 201.722656 C 266.96875 202.117188 265.890625 202.457031 264.792969 202.746094 C 263.695312 203.03125 262.585938 203.265625 261.464844 203.445312 C 260.34375 203.625 259.21875 203.746094 258.085938 203.816406 C 256.953125 203.882812 255.820312 203.894531 254.6875 203.851562 C 253.550781 203.808594 252.421875 203.710938 251.300781 203.554688 C 250.175781 203.402344 249.0625 203.191406 247.957031 202.929688 C 246.855469 202.664062 245.765625 202.347656 244.695312 201.976562 C 243.621094 201.609375 242.570312 201.1875 241.539062 200.710938 C 240.507812 200.238281 239.503906 199.714844 238.523438 199.140625 C 230.371094 194.390625 220.398438 177.054688 210.929688 151.476562 C 214.480469 147.789062 217.042969 143.511719 218.613281 138.636719 C 245.464844 134.425781 265.398438 134.644531 273.488281 139.371094 C 274.46875 139.945312 275.414062 140.5625 276.332031 141.226562 C 277.25 141.894531 278.132812 142.601562 278.980469 143.355469 C 279.832031 144.105469 280.640625 144.898438 281.410156 145.726562 C 282.179688 146.558594 282.910156 147.425781 283.59375 148.328125 C 284.28125 149.230469 284.917969 150.167969 285.511719 151.132812 C 286.105469 152.097656 286.652344 153.089844 287.148438 154.109375 C 287.644531 155.128906 288.089844 156.167969 288.480469 157.230469 C 288.875 158.292969 289.214844 159.375 289.503906 160.472656 C 289.792969 161.566406 290.027344 162.675781 290.203125 163.792969 C 290.382812 164.914062 290.507812 166.039062 290.574219 167.171875 C 290.644531 168.300781 290.65625 169.433594 290.613281 170.566406 C 290.570312 171.699219 290.472656 172.828125 290.320312 173.949219 C 290.167969 175.074219 289.957031 176.1875 289.695312 177.289062 C 289.433594 178.390625 289.117188 179.476562 288.746094 180.550781 C 288.375 181.621094 287.957031 182.671875 287.480469 183.703125 C 287.007812 184.730469 286.488281 185.734375 285.914062 186.714844 Z M 274.28125 119.132812 C 266.179688 123.792969 245.625 123.8125 219.050781 119.359375 C 217.679688 114.449219 215.300781 110.089844 211.917969 106.277344 C 221.398438 81.292969 231.726562 63.707031 239.824219 59.066406 C 240.808594 58.5 241.816406 57.988281 242.851562 57.523438 C 243.886719 57.054688 244.941406 56.644531 246.015625 56.28125 C 247.089844 55.921875 248.179688 55.613281 249.285156 55.359375 C 250.390625 55.101562 251.503906 54.902344 252.628906 54.757812 C 253.753906 54.613281 254.882812 54.523438 256.015625 54.492188 C 257.148438 54.457031 258.28125 54.476562 259.410156 54.554688 C 260.542969 54.632812 261.667969 54.765625 262.785156 54.953125 C 263.902344 55.140625 265.011719 55.382812 266.105469 55.679688 C 267.199219 55.976562 268.277344 56.324219 269.335938 56.726562 C 270.394531 57.128906 271.433594 57.582031 272.449219 58.085938 C 273.464844 58.589844 274.453125 59.144531 275.414062 59.746094 C 276.375 60.347656 277.304688 60.992188 278.203125 61.6875 C 279.101562 62.378906 279.960938 63.113281 280.785156 63.890625 C 281.613281 64.667969 282.398438 65.484375 283.144531 66.339844 C 283.886719 67.195312 284.589844 68.082031 285.246094 69.007812 C 285.90625 69.929688 286.515625 70.882812 287.082031 71.867188 C 287.644531 72.851562 288.160156 73.859375 288.625 74.894531 C 289.089844 75.925781 289.503906 76.980469 289.863281 78.054688 C 290.226562 79.128906 290.535156 80.21875 290.789062 81.324219 C 291.042969 82.429688 291.242188 83.542969 291.386719 84.667969 C 291.53125 85.792969 291.621094 86.921875 291.65625 88.054688 C 291.691406 89.1875 291.667969 90.320312 291.589844 91.453125 C 291.511719 92.582031 291.378906 93.707031 291.191406 94.828125 C 291.003906 95.945312 290.761719 97.050781 290.464844 98.144531 C 290.171875 99.238281 289.820312 100.316406 289.417969 101.375 C 289.015625 102.4375 288.5625 103.476562 288.058594 104.488281 C 287.554688 105.503906 287 106.492188 286.398438 107.457031 C 285.800781 108.417969 285.152344 109.347656 284.460938 110.242188 C 283.765625 111.140625 283.03125 112.003906 282.253906 112.828125 C 281.476562 113.652344 280.660156 114.4375 279.804688 115.183594 C 278.953125 115.929688 278.0625 116.628906 277.140625 117.289062 C 276.214844 117.945312 275.261719 118.558594 274.28125 119.121094 Z M 274.28125 119.132812 " fill-opacity="1" fill-rule="nonzero"/></svg>