<svg xmlns="http://www.w3.org/2000/svg" xmlns:xlink="http://www.w3.org/1999/xlink" width="500" zoomAndPan="magnify" viewBox="0 0 375 374.999991" height="500" preserveAspectRatio="xMidYMid meet" version="1.0"><defs><clipPath id="726ce50608"><path d="M 1 7.160156 L 375 7.160156 L 375 367.910156 L 1 367.910156 Z M 1 7.160156 " clip-rule="nonzero"/></clipPath></defs><g clip-path="url(#726ce50608)"><path fill="#ff66c4" d="M 357.679688 355.886719 L 357.679688 355.8125 L 313.890625 355.8125 C 306.199219 355.8125 299.207031 352.703125 294.191406 347.625 C 289.101562 342.609375 286.003906 335.550781 286.003906 327.847656 L 286.003906 316.058594 L 291.4375 316.058594 C 295.957031 316.058594 300.335938 314.21875 303.660156 311.257812 C 306.984375 308.289062 309.382812 304.199219 309.941406 299.679688 L 328.019531 161.019531 C 328.195312 160.9375 328.363281 160.84375 328.53125 160.738281 C 341.726562 154.511719 352.917969 144.726562 361.003906 132.664062 C 369.546875 119.808594 374.5625 104.421875 374.5625 87.894531 C 374.5625 65.644531 365.589844 45.523438 351.042969 30.902344 C 336.496094 16.273438 316.441406 7.234375 294.265625 7.234375 C 229.085938 9.074219 163.054688 13.097656 97.867188 16.132812 C 94.757812 16.273438 91.9375 17.542969 89.742188 19.445312 C 87.625 21.351562 86.074219 23.898438 85.503906 26.71875 C 83.253906 38.230469 83.460938 85.550781 85.441406 98.050781 C 85.933594 101.023438 87.558594 103.703125 89.742188 105.679688 C 91.929688 107.585938 94.757812 108.855469 97.867188 108.996094 L 126.503906 110.300781 C 126.859375 110.367188 127.222656 110.40625 127.59375 110.40625 C 127.78125 110.40625 127.96875 110.394531 128.15625 110.378906 L 218.480469 114.503906 C 221.375 122.691406 225.472656 130.253906 230.625 136.957031 C 236.058594 144.015625 242.632812 150.160156 250.046875 155.109375 L 250.261719 177.210938 L 235.847656 177.210938 C 232.53125 177.210938 229.84375 179.890625 229.84375 183.214844 L 229.84375 216.40625 C 229.84375 219.71875 232.523438 222.410156 235.847656 222.410156 L 250.699219 222.410156 L 250.792969 231.445312 L 235.847656 231.445312 C 232.53125 231.445312 229.84375 234.125 229.84375 237.449219 L 229.84375 270.644531 C 229.84375 273.957031 232.523438 276.644531 235.847656 276.644531 L 251.234375 276.644531 L 251.449219 298.960938 C 251.449219 303.695312 253.425781 307.933594 256.535156 311.035156 C 259.644531 314.144531 263.949219 316.046875 268.609375 316.046875 L 273.976562 316.046875 L 273.976562 327.839844 C 273.976562 338.855469 278.496094 348.808594 285.703125 356.082031 C 292.914062 363.355469 302.941406 367.875 313.882812 367.875 L 357.671875 367.875 C 360.988281 367.875 363.675781 365.195312 363.675781 361.871094 C 363.683594 358.566406 361.003906 355.886719 357.679688 355.886719 Z M 241.867188 210.402344 L 241.867188 189.21875 L 250.269531 189.21875 L 250.484375 210.402344 Z M 241.867188 264.640625 L 241.867188 243.453125 L 250.839844 243.453125 L 251.054688 264.640625 Z M 97.585938 96.707031 C 97.445312 96.492188 97.308594 96.289062 97.230469 96.074219 C 96.597656 92.1875 96.597656 32.441406 97.230469 29.054688 C 97.308594 28.773438 97.445312 28.558594 97.652344 28.34375 C 97.867188 28.203125 98.148438 28.0625 98.363281 28.0625 C 106.019531 27.710938 113.765625 27.316406 121.601562 26.886719 L 121.601562 98.0625 L 98.296875 96.996094 C 98.007812 96.988281 97.800781 96.921875 97.585938 96.707031 Z M 240.101562 129.6875 C 234.949219 122.972656 230.992188 115.277344 228.589844 107.015625 C 227.816406 104.476562 225.558594 102.851562 223.082031 102.710938 L 133.609375 98.613281 L 133.609375 26.207031 C 186.96875 23.132812 243.121094 19.054688 294.273438 19.230469 C 313.136719 19.230469 330.222656 26.859375 342.582031 39.285156 C 354.945312 51.714844 362.574219 68.875 362.640625 87.875 C 362.640625 102.003906 358.398438 115.140625 351.128906 126.007812 C 344.292969 136.164062 334.851562 144.398438 323.816406 149.75 C 323.5 149.835938 323.191406 149.945312 322.882812 150.085938 C 318.503906 152.132812 313.84375 153.753906 308.972656 154.886719 C 304.238281 155.875 299.296875 156.433594 294.285156 156.433594 C 287.785156 156.433594 281.429688 155.519531 275.5 153.820312 C 269.730469 152.167969 264.21875 149.75 259.1875 146.714844 C 259.140625 146.6875 259.09375 146.640625 259.046875 146.613281 C 251.679688 142.1875 245.257812 136.464844 240.101562 129.6875 Z M 268.628906 304.050781 C 267.21875 304.050781 265.871094 303.414062 264.957031 302.5 C 264.042969 301.585938 263.40625 300.242188 263.40625 298.832031 L 263.128906 270.671875 C 263.128906 270.660156 263.128906 270.652344 263.128906 270.652344 L 263.101562 268.140625 L 262.027344 161.703125 C 265.292969 163.140625 268.683594 164.371094 272.164062 165.351562 C 279.222656 167.398438 286.648438 168.460938 294.265625 168.460938 C 300.195312 168.460938 305.992188 167.75 311.566406 166.554688 C 312.835938 166.285156 314.097656 165.976562 315.347656 165.652344 L 298.085938 298.128906 C 297.871094 299.679688 297.03125 301.164062 295.75 302.292969 C 294.546875 303.351562 292.996094 304.058594 291.445312 304.058594 L 280.878906 304.058594 C 280.585938 304.023438 280.296875 303.984375 280 303.984375 C 279.699219 303.984375 279.410156 304.011719 279.121094 304.058594 L 268.628906 304.058594 Z M 294.265625 130.890625 C 306.058594 130.890625 316.796875 126.015625 324.5625 118.25 C 332.332031 110.480469 337.132812 99.742188 337.132812 87.886719 C 337.132812 76.027344 332.332031 65.289062 324.5625 57.523438 C 316.796875 49.679688 306.058594 44.878906 294.265625 44.878906 C 282.398438 44.878906 271.738281 49.679688 263.96875 57.523438 C 256.199219 65.289062 251.402344 76.027344 251.402344 87.886719 C 251.402344 99.742188 256.199219 110.480469 263.96875 118.25 C 271.738281 126.082031 282.472656 130.890625 294.265625 130.890625 Z M 294.191406 118.742188 C 285.648438 118.742188 277.945312 115.277344 272.371094 109.703125 C 268.132812 105.464844 265.125 99.957031 263.921875 93.8125 L 324.46875 93.8125 C 323.265625 99.957031 320.257812 105.464844 316.019531 109.703125 C 310.4375 115.277344 302.742188 118.742188 294.191406 118.742188 Z M 272.371094 65.914062 C 277.953125 60.332031 285.648438 56.878906 294.191406 56.878906 C 302.734375 56.878906 310.4375 60.339844 316.011719 65.914062 C 320.25 70.15625 323.257812 75.652344 324.460938 81.804688 L 263.921875 81.804688 C 265.125 75.664062 268.132812 70.15625 272.371094 65.914062 Z M 56.765625 86.746094 C 58.953125 89.21875 58.746094 93.03125 56.273438 95.222656 C 53.796875 97.410156 49.988281 97.203125 47.792969 94.730469 C 46.523438 93.320312 45.320312 92.113281 44.125 91.339844 C 43.210938 90.769531 42.144531 90.425781 41.015625 90.425781 C 39.886719 90.425781 38.832031 90.777344 37.839844 91.414062 C 36.570312 92.1875 35.367188 93.394531 34.171875 94.730469 C 32.265625 96.914062 30.210938 98.828125 27.746094 100.3125 C 24.992188 102.011719 21.957031 102.992188 18.355469 102.992188 C 14.75 102.992188 11.640625 101.863281 8.886719 100.164062 C 6.414062 98.753906 4.367188 96.773438 2.605469 94.792969 C 0.417969 92.320312 0.625 88.511719 3.097656 86.316406 C 5.574219 84.132812 9.382812 84.335938 11.578125 86.8125 C 12.78125 88.15625 13.976562 89.351562 15.246094 90.125 C 16.234375 90.6875 17.289062 91.117188 18.421875 91.117188 C 19.625 91.117188 20.605469 90.761719 21.53125 90.199219 C 22.734375 89.425781 24.003906 88.222656 25.199219 86.8125 C 26.964844 84.765625 29.007812 82.851562 31.484375 81.300781 C 34.238281 79.601562 37.347656 78.472656 40.949219 78.472656 C 44.554688 78.472656 47.589844 79.464844 50.34375 81.152344 C 52.816406 82.65625 54.863281 84.625 56.765625 86.746094 Z M 56.765625 15.421875 C 58.953125 17.894531 58.746094 21.707031 56.273438 23.898438 C 53.796875 26.085938 49.988281 25.878906 47.792969 23.40625 C 46.523438 21.996094 45.320312 20.789062 44.125 20.015625 C 43.210938 19.457031 42.144531 19.101562 41.015625 19.101562 C 39.886719 19.101562 38.832031 19.457031 37.839844 20.089844 C 36.570312 20.867188 35.367188 22.070312 34.171875 23.40625 C 32.265625 25.589844 30.210938 27.503906 27.746094 28.988281 C 24.992188 30.6875 21.957031 31.667969 18.355469 31.667969 C 14.75 31.667969 11.640625 30.539062 8.886719 28.839844 C 6.414062 27.429688 4.367188 25.515625 2.605469 23.46875 C 0.417969 20.996094 0.625 17.1875 3.097656 14.992188 C 5.574219 12.808594 9.382812 13.011719 11.578125 15.488281 C 12.78125 16.832031 13.976562 18.027344 15.246094 18.800781 C 16.234375 19.363281 17.289062 19.792969 18.421875 19.792969 C 19.625 19.792969 20.605469 19.4375 21.53125 18.875 C 22.734375 18.101562 24.003906 16.898438 25.199219 15.488281 C 26.964844 13.441406 29.007812 11.527344 31.484375 9.980469 C 34.238281 8.289062 37.347656 7.160156 40.949219 7.160156 C 44.554688 7.160156 47.589844 8.148438 50.34375 9.839844 C 52.816406 11.324219 54.863281 13.300781 56.765625 15.421875 Z M 56.765625 51.089844 C 58.953125 53.5625 58.746094 57.371094 56.273438 59.566406 C 53.796875 61.75 49.988281 61.546875 47.792969 59.070312 C 46.523438 57.660156 45.320312 56.457031 44.125 55.683594 C 43.210938 55.121094 42.144531 54.765625 41.015625 54.765625 C 39.886719 54.765625 38.832031 55.121094 37.839844 55.757812 C 36.570312 56.53125 35.367188 57.738281 34.171875 59.070312 C 32.265625 61.257812 30.210938 63.171875 27.746094 64.65625 C 24.992188 66.355469 21.957031 67.335938 18.355469 67.335938 C 14.75 67.335938 11.640625 66.203125 8.886719 64.503906 C 6.414062 63.097656 4.367188 61.117188 2.605469 59.136719 C 0.417969 56.664062 0.625 52.851562 3.097656 50.660156 C 5.574219 48.472656 9.382812 48.679688 11.578125 51.152344 C 12.78125 52.5 13.976562 53.695312 15.246094 54.46875 C 16.234375 55.027344 17.289062 55.457031 18.421875 55.457031 C 19.625 55.457031 20.605469 55.101562 21.53125 54.542969 C 22.734375 53.769531 24.003906 52.5625 25.199219 51.152344 C 26.964844 49.109375 29.007812 47.195312 31.484375 45.644531 C 34.238281 43.945312 37.347656 42.816406 40.949219 42.816406 C 44.554688 42.816406 47.589844 43.804688 50.34375 45.496094 C 52.816406 46.988281 54.863281 48.96875 56.765625 51.089844 Z M 56.765625 51.089844 " fill-opacity="1" fill-rule="nonzero"/></g></svg>