<svg xmlns="http://www.w3.org/2000/svg" xmlns:xlink="http://www.w3.org/1999/xlink" width="500" zoomAndPan="magnify" viewBox="0 0 375 374.999991" height="500" preserveAspectRatio="xMidYMid meet" version="1.0"><defs><clipPath id="615cb83ec9"><path d="M 100.773438 100.773438 L 274.023438 100.773438 L 274.023438 274.023438 L 100.773438 274.023438 Z M 100.773438 100.773438 " clip-rule="nonzero"/></clipPath></defs><g clip-path="url(#615cb83ec9)"><path fill="#ff66c4" d="M 274.222656 175.832031 L 274.222656 199.164062 C 274.222656 200.074219 274.132812 200.976562 273.953125 201.871094 C 273.777344 202.761719 273.511719 203.632812 273.164062 204.472656 C 272.816406 205.316406 272.386719 206.113281 271.882812 206.871094 C 271.375 207.628906 270.800781 208.332031 270.15625 208.976562 C 269.511719 209.617188 268.8125 210.195312 268.054688 210.699219 C 267.296875 211.207031 266.496094 211.632812 265.65625 211.984375 C 264.8125 212.332031 263.945312 212.59375 263.050781 212.773438 C 262.160156 212.949219 261.257812 213.039062 260.34375 213.039062 L 213.039062 213.039062 L 213.039062 260.34375 C 213.039062 261.257812 212.949219 262.160156 212.773438 263.050781 C 212.59375 263.945312 212.332031 264.8125 211.984375 265.65625 C 211.632812 266.496094 211.207031 267.296875 210.699219 268.054688 C 210.195312 268.8125 209.617188 269.511719 208.976562 270.15625 C 208.332031 270.800781 207.628906 271.375 206.871094 271.882812 C 206.113281 272.386719 205.316406 272.816406 204.472656 273.164062 C 203.632812 273.511719 202.761719 273.777344 201.871094 273.953125 C 200.976562 274.132812 200.074219 274.222656 199.164062 274.222656 L 175.832031 274.222656 C 174.917969 274.222656 174.015625 274.132812 173.125 273.953125 C 172.230469 273.777344 171.363281 273.511719 170.519531 273.164062 C 169.679688 272.816406 168.878906 272.386719 168.121094 271.882812 C 167.363281 271.375 166.664062 270.800781 166.019531 270.15625 C 165.375 269.511719 164.800781 268.8125 164.292969 268.054688 C 163.785156 267.296875 163.359375 266.496094 163.011719 265.65625 C 162.660156 264.8125 162.398438 263.945312 162.222656 263.050781 C 162.042969 262.160156 161.953125 261.257812 161.953125 260.34375 L 161.953125 213.039062 L 114.648438 213.039062 C 113.738281 213.039062 112.835938 212.949219 111.941406 212.773438 C 111.046875 212.59375 110.179688 212.332031 109.335938 211.984375 C 108.496094 211.632812 107.695312 211.207031 106.9375 210.699219 C 106.179688 210.195312 105.480469 209.617188 104.835938 208.976562 C 104.191406 208.332031 103.617188 207.628906 103.109375 206.871094 C 102.605469 206.113281 102.175781 205.316406 101.828125 204.472656 C 101.480469 203.632812 101.214844 202.761719 101.039062 201.871094 C 100.859375 200.976562 100.773438 200.074219 100.773438 199.164062 L 100.773438 175.832031 C 100.773438 174.917969 100.859375 174.015625 101.039062 173.125 C 101.214844 172.230469 101.480469 171.363281 101.828125 170.519531 C 102.175781 169.679688 102.605469 168.878906 103.109375 168.121094 C 103.617188 167.363281 104.191406 166.664062 104.835938 166.019531 C 105.480469 165.375 106.179688 164.800781 106.9375 164.292969 C 107.695312 163.785156 108.496094 163.359375 109.335938 163.011719 C 110.179688 162.660156 111.046875 162.398438 111.941406 162.222656 C 112.835938 162.042969 113.738281 161.953125 114.648438 161.953125 L 161.953125 161.953125 L 161.953125 114.648438 C 161.953125 113.738281 162.042969 112.835938 162.222656 111.941406 C 162.398438 111.046875 162.660156 110.179688 163.011719 109.335938 C 163.359375 108.496094 163.785156 107.695312 164.292969 106.9375 C 164.800781 106.179688 165.375 105.480469 166.019531 104.835938 C 166.664062 104.191406 167.363281 103.617188 168.121094 103.109375 C 168.878906 102.605469 169.679688 102.175781 170.519531 101.828125 C 171.363281 101.480469 172.230469 101.214844 173.125 101.039062 C 174.015625 100.859375 174.917969 100.773438 175.832031 100.773438 L 199.164062 100.773438 C 200.074219 100.773438 200.976562 100.859375 201.871094 101.039062 C 202.761719 101.214844 203.632812 101.480469 204.472656 101.828125 C 205.3125 102.175781 206.113281 102.605469 206.871094 103.109375 C 207.628906 103.617188 208.332031 104.191406 208.972656 104.835938 C 209.617188 105.480469 210.195312 106.179688 210.699219 106.9375 C 211.207031 107.695312 211.632812 108.496094 211.980469 109.335938 C 212.332031 110.179688 212.59375 111.046875 212.773438 111.941406 C 212.949219 112.835938 213.039062 113.738281 213.039062 114.648438 L 213.039062 161.953125 L 260.34375 161.953125 C 261.257812 161.953125 262.160156 162.042969 263.050781 162.222656 C 263.945312 162.398438 264.8125 162.664062 265.65625 163.011719 C 266.496094 163.359375 267.296875 163.785156 268.054688 164.292969 C 268.8125 164.800781 269.511719 165.375 270.15625 166.019531 C 270.800781 166.664062 271.375 167.363281 271.882812 168.121094 C 272.386719 168.878906 272.816406 169.679688 273.164062 170.519531 C 273.511719 171.363281 273.777344 172.230469 273.953125 173.125 C 274.132812 174.015625 274.222656 174.917969 274.222656 175.832031 Z M 274.222656 175.832031 " fill-opacity="1" fill-rule="nonzero"/></g><path fill="#ff66c4" d="M 187.5 18.75 C 280.554688 18.75 356.25 94.445312 356.25 187.5 C 356.25 280.554688 280.554688 356.25 187.5 356.25 C 94.445312 356.25 18.75 280.554688 18.75 187.5 C 18.75 94.445312 94.445312 18.75 187.5 18.75 M 187.5 0 C 83.945312 0 0 83.945312 0 187.5 C 0 291.054688 83.945312 375 187.5 375 C 291.054688 375 375 291.054688 375 187.5 C 375 83.945312 291.054688 0 187.5 0 Z M 187.5 0 " fill-opacity="1" fill-rule="nonzero"/></svg>