<svg xmlns="http://www.w3.org/2000/svg" xmlns:xlink="http://www.w3.org/1999/xlink" width="500" zoomAndPan="magnify" viewBox="0 0 375 374.999991" height="500" preserveAspectRatio="xMidYMid meet" version="1.0"><defs><clipPath id="a9798b0fc3"><path d="M 87 110.191406 L 288 110.191406 L 288 293 L 87 293 Z M 87 110.191406 " clip-rule="nonzero"/></clipPath></defs><g clip-path="url(#a9798b0fc3)"><path fill="#ff66c4" d="M 232.300781 110.191406 C 203.476562 110.191406 187.496094 131 187.496094 131 C 187.496094 131 171.511719 110.191406 142.6875 110.191406 C 112.4375 110.191406 87.921875 134.703125 87.921875 164.953125 C 87.921875 206.484375 136.832031 246.730469 150.464844 259.445312 C 166.167969 274.085938 187.496094 292.902344 187.496094 292.902344 C 187.496094 292.902344 208.824219 274.085938 224.523438 259.445312 C 238.15625 246.730469 287.066406 206.484375 287.066406 164.953125 C 287.066406 134.703125 262.550781 110.191406 232.300781 110.191406 Z M 215.484375 240.726562 C 213.722656 242.320312 212.1875 243.703125 210.945312 244.871094 C 203.464844 251.839844 194.625 259.835938 187.496094 266.226562 C 180.367188 259.835938 171.511719 251.828125 164.046875 244.871094 C 162.789062 243.703125 161.257812 242.3125 159.503906 240.726562 C 145.367188 227.953125 107.835938 194.019531 107.835938 164.953125 C 107.835938 145.738281 123.46875 130.105469 142.6875 130.105469 C 160.878906 130.105469 171.421875 142.800781 171.703125 143.128906 L 187.496094 159.976562 L 203.285156 143.128906 C 203.386719 143 214.109375 130.105469 232.300781 130.105469 C 251.519531 130.105469 267.152344 145.738281 267.152344 164.953125 C 267.152344 194.019531 229.625 227.953125 215.484375 240.726562 Z M 215.484375 240.726562 " fill-opacity="1" fill-rule="nonzero"/></g><path fill="#ff66c4" d="M 187.5 18.75 C 280.554688 18.75 356.25 94.445312 356.25 187.5 C 356.25 280.554688 280.554688 356.25 187.5 356.25 C 94.445312 356.25 18.75 280.554688 18.75 187.5 C 18.75 94.445312 94.445312 18.75 187.5 18.75 M 187.5 0 C 83.945312 0 0 83.945312 0 187.5 C 0 291.054688 83.945312 375 187.5 375 C 291.054688 375 375 291.054688 375 187.5 C 375 83.945312 291.054688 0 187.5 0 Z M 187.5 0 " fill-opacity="1" fill-rule="nonzero"/></svg>