<svg xmlns="http://www.w3.org/2000/svg" xmlns:xlink="http://www.w3.org/1999/xlink" width="500" zoomAndPan="magnify" viewBox="0 0 375 374.999991" height="500" preserveAspectRatio="xMidYMid meet" version="1.0"><defs><clipPath id="f4fdd5ea3f"><path d="M 179 280 L 196 280 L 196 373.5 L 179 373.5 Z M 179 280 " clip-rule="nonzero"/></clipPath></defs><path fill="#bc3fde" d="M 187.507812 23.476562 C 180.351562 37.148438 168.957031 62.335938 162.152344 94.796875 C 149.164062 156.703125 157.695312 216.292969 187.5 272.132812 C 217.40625 216.101562 225.890625 156.308594 212.71875 94.191406 C 205.878906 61.933594 194.609375 37.03125 187.507812 23.476562 Z M 187.5 295.761719 C 184.753906 295.761719 182.210938 294.3125 180.808594 291.953125 C 160.28125 257.386719 147.507812 220.707031 142.835938 182.941406 C 139.097656 152.722656 140.515625 121.78125 147.046875 90.960938 C 158.171875 38.511719 180.074219 4.902344 181 3.496094 C 182.441406 1.316406 184.886719 0 187.5 0 C 190.113281 0 192.554688 1.316406 193.996094 3.496094 C 194.921875 4.902344 216.828125 38.511719 227.949219 90.960938 C 234.484375 121.78125 235.902344 152.722656 232.164062 182.941406 C 227.492188 220.707031 214.714844 257.386719 194.191406 291.953125 C 192.789062 294.3125 190.246094 295.761719 187.5 295.761719 " fill-opacity="1" fill-rule="nonzero"/><path fill="#bc3fde" d="M 187.507812 295.761719 C 187.078125 295.761719 186.644531 295.726562 186.203125 295.65625 C 149.136719 289.402344 116.324219 277.046875 88.675781 258.9375 C 66.453125 244.378906 47.53125 226.113281 32.433594 204.640625 C 6.679688 168.015625 1.035156 134.964844 0.804688 133.578125 C 0.40625 131.15625 1.175781 128.6875 2.875 126.917969 C 4.574219 125.152344 7.007812 124.292969 9.445312 124.59375 C 10.46875 124.71875 34.980469 127.859375 66.398438 140.6875 C 95.488281 152.558594 136.1875 175.355469 164.855469 216.515625 C 167.3125 220.046875 166.441406 224.894531 162.914062 227.351562 C 159.386719 229.808594 154.539062 228.9375 152.082031 225.414062 C 111.894531 167.714844 45.460938 147.953125 18.957031 142.152344 C 22.566406 154.234375 30.308594 174.726562 45.589844 196.285156 C 77.574219 241.40625 125.75 269.671875 188.792969 280.300781 C 193.035156 281.019531 195.886719 285.035156 195.171875 289.273438 C 194.535156 293.070312 191.238281 295.761719 187.507812 295.761719 " fill-opacity="1" fill-rule="nonzero"/><path fill="#bc3fde" d="M 216.523438 228.75 C 214.988281 228.75 213.4375 228.296875 212.085938 227.351562 C 208.554688 224.894531 207.6875 220.046875 210.144531 216.515625 C 238.8125 175.355469 279.511719 152.558594 308.601562 140.6875 C 340.019531 127.859375 364.527344 124.71875 365.554688 124.59375 C 367.992188 124.292969 370.425781 125.15625 372.125 126.921875 C 373.824219 128.6875 374.59375 131.15625 374.195312 133.578125 C 373.988281 134.824219 368.917969 164.472656 346.40625 198.84375 C 344.050781 202.4375 339.226562 203.445312 335.632812 201.089844 C 332.03125 198.734375 331.03125 193.910156 333.382812 190.316406 C 346.121094 170.875 352.792969 153.054688 356.058594 142.136719 C 346.320312 144.253906 331.1875 148.242188 314.054688 155.273438 C 287.042969 166.355469 249.308594 187.519531 222.914062 225.414062 C 221.40625 227.585938 218.984375 228.75 216.523438 228.75 Z M 187.488281 295.761719 C 183.753906 295.761719 180.457031 293.0625 179.824219 289.253906 C 179.117188 285.019531 181.980469 281.007812 186.21875 280.300781 C 189.628906 279.730469 193.070312 279.070312 196.742188 278.273438 C 196.929688 278.230469 197.117188 278.195312 197.3125 278.167969 C 224.730469 272.492188 249.484375 263.101562 270.898438 250.25 C 288.285156 239.789062 303.542969 227.183594 316.230469 212.785156 C 319.074219 209.558594 323.992188 209.246094 327.21875 212.089844 C 330.441406 214.933594 330.753906 219.851562 327.910156 223.074219 C 314.164062 238.671875 297.679688 252.304688 278.917969 263.59375 C 255.875 277.417969 229.34375 287.476562 200.042969 293.5 C 199.902344 293.53125 199.765625 293.554688 199.625 293.578125 C 195.855469 294.386719 192.308594 295.066406 188.777344 295.65625 C 188.34375 295.726562 187.914062 295.761719 187.488281 295.761719 " fill-opacity="1" fill-rule="nonzero"/><path fill="#bc3fde" d="M 96.789062 311.371094 C 69.152344 311.371094 37.5 305.273438 4.699219 286.996094 C 2.230469 285.617188 0.703125 283.019531 0.703125 280.195312 C 0.703125 277.371094 2.230469 274.773438 4.699219 273.394531 C 34.777344 256.636719 66.933594 248.453125 100.25 249.140625 C 104.550781 249.230469 107.960938 252.777344 107.875 257.078125 C 107.789062 261.375 104.242188 264.757812 99.9375 264.703125 C 74.308594 264.1875 49.402344 269.398438 25.710938 280.195312 C 91.394531 310.148438 150.0625 289.644531 173.234375 278.824219 C 174.261719 278.34375 175.386719 278.09375 176.523438 278.09375 C 180.824219 278.09375 184.34375 281.578125 184.34375 285.875 C 184.34375 289.253906 182.21875 292.136719 179.214844 293.210938 C 163.558594 300.445312 133.777344 311.371094 96.789062 311.371094 " fill-opacity="1" fill-rule="nonzero"/><path fill="#bc3fde" d="M 199.65625 297.667969 C 205.320312 306.945312 217.925781 319.644531 245.546875 325.082031 C 235.484375 307.847656 213.636719 300.613281 199.65625 297.667969 Z M 257.550781 342.460938 C 257.296875 342.460938 257.042969 342.449219 256.789062 342.421875 C 187.230469 335.601562 180.066406 290.976562 179.792969 289.082031 C 179.460938 286.757812 180.195312 284.417969 181.785156 282.695312 C 183.375 280.972656 185.65625 280.066406 187.992188 280.210938 C 190.703125 280.382812 254.550781 284.980469 265.148438 333 C 265.683594 335.433594 265.023438 337.980469 263.371094 339.84375 C 261.886719 341.515625 259.761719 342.460938 257.550781 342.460938 " fill-opacity="1" fill-rule="nonzero"/><path fill="#bc3fde" d="M 175.292969 297.707031 C 161.320312 300.6875 139.519531 307.945312 129.46875 325.074219 C 156.984375 319.644531 169.605469 306.96875 175.292969 297.707031 Z M 117.453125 342.460938 C 115.234375 342.460938 113.109375 341.515625 111.628906 339.84375 C 109.976562 337.980469 109.316406 335.433594 109.851562 333 C 120.445312 284.980469 184.292969 280.382812 187.007812 280.210938 C 189.351562 280.0625 191.625 280.972656 193.214844 282.695312 C 194.804688 284.417969 195.539062 286.757812 195.203125 289.082031 C 194.933594 290.976562 187.769531 335.601562 118.210938 342.421875 C 117.957031 342.449219 117.703125 342.460938 117.453125 342.460938 " fill-opacity="1" fill-rule="nonzero"/><path fill="#bc3fde" d="M 278.210938 311.371094 C 240.929688 311.371094 210.984375 300.277344 195.421875 293.042969 C 192.625 291.859375 190.652344 289.097656 190.652344 285.875 C 190.652344 281.578125 194.097656 278.09375 198.394531 278.09375 L 198.472656 278.09375 C 199.613281 278.09375 200.738281 278.34375 201.765625 278.824219 C 224.9375 289.644531 283.605469 310.148438 349.289062 280.195312 C 325.597656 269.398438 300.691406 264.203125 275.0625 264.703125 C 270.726562 264.769531 267.210938 261.375 267.121094 257.078125 C 267.039062 252.777344 270.449219 249.230469 274.75 249.140625 C 308.074219 248.472656 340.21875 256.636719 370.300781 273.394531 C 372.769531 274.773438 374.296875 277.371094 374.296875 280.195312 C 374.296875 283.019531 372.769531 285.617188 370.300781 286.996094 C 337.503906 305.269531 305.84375 311.367188 278.210938 311.371094 " fill-opacity="1" fill-rule="nonzero"/><g clip-path="url(#f4fdd5ea3f)"><path fill="#bc3fde" d="M 187.5 373.59375 C 183.203125 373.59375 179.71875 370.109375 179.71875 365.8125 L 179.71875 287.980469 C 179.71875 283.679688 183.203125 280.195312 187.5 280.195312 C 191.796875 280.195312 195.285156 283.679688 195.285156 287.980469 L 195.285156 365.8125 C 195.285156 370.109375 191.796875 373.59375 187.5 373.59375 " fill-opacity="1" fill-rule="nonzero"/></g></svg>