<svg xmlns="http://www.w3.org/2000/svg" xmlns:xlink="http://www.w3.org/1999/xlink" width="500" zoomAndPan="magnify" viewBox="0 0 375 374.999991" height="500" preserveAspectRatio="xMidYMid meet" version="1.0"><defs><clipPath id="bbc11a78e3"><path d="M 138 96.824219 L 237 96.824219 L 237 278.324219 L 138 278.324219 Z M 138 96.824219 " clip-rule="nonzero"/></clipPath></defs><g clip-path="url(#bbc11a78e3)"><path fill="#ff66c4" d="M 236.910156 213.734375 C 236.910156 175.085938 165.664062 177.609375 165.664062 154.28125 C 165.664062 142.984375 176.46875 137.46875 189 137.46875 C 210.078125 137.46875 213.828125 151.011719 223.375 151.011719 C 230.136719 151.011719 233.390625 146.753906 233.390625 141.984375 C 233.390625 130.898438 216.578125 122.503906 200.460938 119.597656 L 200.460938 108.898438 C 200.460938 102.226562 195.0625 96.8125 188.382812 96.8125 C 181.699219 96.8125 176.292969 102.226562 176.292969 108.898438 L 176.292969 119.976562 C 158.71875 123.976562 143.601562 136.164062 143.601562 156.039062 C 143.601562 193.15625 214.835938 191.65625 214.835938 217.726562 C 214.835938 226.757812 205.058594 235.789062 189 235.789062 C 164.917969 235.789062 156.894531 219.488281 147.113281 219.488281 C 142.347656 219.488281 138.085938 223.5 138.085938 229.542969 C 138.085938 239.144531 154.179688 250.699219 176.308594 253.929688 L 176.292969 254.003906 L 176.292969 266.078125 C 176.292969 272.757812 181.707031 278.171875 188.386719 278.171875 C 195.0625 278.171875 200.472656 272.757812 200.472656 266.078125 L 200.472656 254.003906 C 200.472656 253.863281 200.402344 253.753906 200.390625 253.625 C 220.300781 249.910156 236.910156 236.929688 236.910156 213.734375 Z M 236.910156 213.734375 " fill-opacity="1" fill-rule="nonzero"/></g><path fill="#ff66c4" d="M 187.5 18.75 C 280.554688 18.75 356.25 94.445312 356.25 187.5 C 356.25 280.554688 280.554688 356.25 187.5 356.25 C 94.445312 356.25 18.75 280.554688 18.75 187.5 C 18.75 94.445312 94.445312 18.75 187.5 18.75 M 187.5 0 C 83.945312 0 0 83.945312 0 187.5 C 0 291.054688 83.945312 375 187.5 375 C 291.054688 375 375 291.054688 375 187.5 C 375 83.945312 291.054688 0 187.5 0 Z M 187.5 0 " fill-opacity="1" fill-rule="nonzero"/></svg>