<svg xmlns="http://www.w3.org/2000/svg" xmlns:xlink="http://www.w3.org/1999/xlink" width="500" zoomAndPan="magnify" viewBox="0 0 375 374.999991" height="500" preserveAspectRatio="xMidYMid meet" version="1.0"><path fill="#ff66c4" d="M 357.367188 149.75 C 351.578125 120.171875 301.449219 51.71875 259.773438 28.882812 C 229.515625 10.328125 194.171875 1.714844 159.871094 7.371094 C 104.453125 14.625 31.828125 96.242188 20.84375 161.644531 C 12.347656 209.597656 37.351562 238.824219 86.613281 240.761719 C 104.878906 244.953125 134.585938 245.929688 157.460938 244.5625 C 158.03125 272.988281 153.570312 296.386719 143.722656 316.453125 C 137.195312 329.753906 130.863281 344.945312 138.355469 356.964844 C 145.214844 367.984375 162.097656 373.113281 191.484375 373.113281 C 252.585938 373.953125 257.097656 318.417969 236.457031 274.761719 C 224.050781 247.816406 216.714844 217.863281 213.960938 205.324219 C 219.503906 205.617188 228.9375 209.632812 230.605469 201.46875 C 231.199219 198.023438 228.890625 194.746094 225.441406 194.152344 C 167.832031 184.210938 136.460938 208.734375 135.148438 209.785156 C 128.746094 214.96875 136.574219 224.789062 143.0625 219.683594 C 143.167969 219.601562 147.246094 216.476562 155.035156 213.078125 C 155.863281 219.601562 156.460938 225.863281 156.871094 231.929688 C 129.101562 233.050781 77.53125 233.109375 67.523438 217.910156 C 67.222656 215.550781 70.933594 209.46875 86.800781 201.605469 C 94.234375 197.753906 88.65625 186.683594 81.171875 190.25 C 61.992188 199.984375 52.859375 209.578125 55.277344 220.789062 C 36.855469 212.65625 30.105469 191.113281 32.15625 173.304688 C 88.117188 198.734375 123.179688 114.210938 66.183594 92.085938 C 112.765625 27.96875 166.085938 1.554688 232.078125 28.855469 C 208.75 69.144531 262.777344 108.472656 293.597656 72.871094 C 321.375 100.355469 343.769531 142.78125 344.96875 152.335938 C 346.976562 161.953125 344.214844 169.519531 340.628906 174.933594 C 328.503906 156.457031 274.898438 153.449219 226.738281 156.980469 C 223.355469 107.546875 152.445312 108.753906 150.78125 158.34375 C 150.78125 161.535156 151.191406 164.628906 151.941406 167.617188 C 134.34375 171.371094 117.863281 175.832031 104.050781 180.703125 C 96.289062 183.597656 100.320312 195.265625 108.269531 192.65625 C 123.394531 187.316406 141.816406 182.421875 161.546875 178.511719 C 214.265625 166.082031 323.71875 163.222656 330.460938 182.8125 C 326.289062 197.171875 289.097656 211.445312 234.261719 222.648438 C 230.824219 223.308594 228.578125 226.628906 229.234375 230.0625 C 229.882812 233.523438 233.296875 235.753906 236.648438 235.09375 C 288.542969 225.117188 326.417969 210.144531 338.5625 194.890625 C 348.152344 188.445312 362.085938 172.332031 357.367188 149.75 Z M 200.832031 204.570312 C 202.917969 214.71875 210.558594 248.800781 224.953125 280.054688 C 234.164062 300.0625 240.101562 327.539062 229.140625 344.648438 C 222.425781 355.128906 209.757812 360.441406 191.484375 360.441406 C 161.703125 360.441406 151.996094 354.90625 149.105469 350.265625 C 145.238281 344.0625 149.699219 333.03125 155.09375 322.03125 C 169.785156 292.101562 173.644531 256.042969 167.285156 208.761719 C 176.152344 206.246094 187.378906 204.390625 200.832031 204.570312 Z M 82.859375 133.628906 C 82.859375 151.03125 68.699219 165.191406 51.296875 165.191406 C 45.183594 165.191406 39.207031 163.390625 34.125 160.074219 C 34.277344 159.347656 34.414062 158.632812 34.585938 157.898438 C 37.285156 146.410156 41.53125 135.375 46.683594 124.726562 C 50.359375 117.3125 54.375 110.03125 58.859375 103.050781 C 72.78125 106.472656 82.859375 118.996094 82.859375 133.628906 Z M 264.507812 73.972656 C 244.652344 74.5625 231.917969 50.242188 243.644531 34.335938 C 258.621094 42.113281 271.601562 51.875 284.574219 63.917969 C 279.914062 70.117188 272.476562 73.972656 264.507812 73.972656 Z M 193.691406 160.378906 C 183.761719 161.710938 173.996094 163.328125 164.457031 165.113281 C 159.648438 149.359375 172.375 132.652344 188.792969 132.917969 C 202.675781 132.917969 213.960938 144.183594 214.109375 158.074219 C 206.917969 158.746094 200.09375 159.488281 193.691406 160.378906 Z M 193.691406 160.378906 " fill-opacity="1" fill-rule="nonzero"/><path fill="#ff66c4" d="M 183 68.757812 C 181.789062 30.769531 126.714844 30.773438 125.511719 68.757812 C 126.714844 106.746094 181.796875 106.730469 183 68.757812 Z M 138.179688 68.757812 C 138.734375 47.554688 169.777344 47.5625 170.332031 68.757812 C 169.777344 89.949219 138.730469 89.949219 138.179688 68.757812 Z M 138.179688 68.757812 " fill-opacity="1" fill-rule="nonzero"/><path fill="#ff66c4" d="M 307.75 126.582031 C 306.914062 100.152344 268.582031 100.15625 267.75 126.582031 C 268.585938 153.015625 306.917969 153.007812 307.75 126.582031 Z M 280.417969 126.582031 C 280.59375 116.949219 294.90625 116.953125 295.082031 126.582031 C 294.90625 136.214844 280.59375 136.214844 280.417969 126.582031 Z M 280.417969 126.582031 " fill-opacity="1" fill-rule="nonzero"/></svg>