<svg xmlns="http://www.w3.org/2000/svg" xmlns:xlink="http://www.w3.org/1999/xlink" width="500" zoomAndPan="magnify" viewBox="0 0 375 374.999991" height="500" preserveAspectRatio="xMidYMid meet" version="1.0"><defs><clipPath id="624bfb6b81"><path d="M 271 235 L 369.375 235 L 369.375 374 L 271 374 Z M 271 235 " clip-rule="nonzero"/></clipPath></defs><path fill="#ff66c4" d="M 201.289062 374.433594 L 56.300781 374.433594 C 42.074219 374.433594 29.972656 364.316406 27.40625 350.308594 L 7.53125 240.300781 C 5.625 229.59375 8.484375 218.667969 15.453125 210.308594 C 22.417969 201.949219 32.6875 197.179688 43.613281 197.179688 L 213.828125 197.179688 C 224.753906 197.179688 234.949219 201.949219 241.988281 210.308594 C 248.957031 218.667969 251.890625 229.59375 249.910156 240.300781 L 230.035156 350.308594 C 227.542969 364.316406 215.367188 374.433594 201.140625 374.433594 Z M 43.6875 211.773438 C 37.160156 211.773438 31 214.632812 26.820312 219.695312 C 22.640625 224.753906 20.878906 231.28125 22.050781 237.734375 L 41.925781 347.742188 C 43.171875 354.707031 49.261719 359.839844 56.375 359.839844 L 201.359375 359.839844 C 208.472656 359.839844 214.5625 354.78125 215.808594 347.742188 L 235.683594 237.734375 C 236.855469 231.28125 235.09375 224.753906 230.914062 219.695312 C 226.734375 214.632812 220.574219 211.773438 214.046875 211.773438 Z M 43.6875 211.773438 " fill-opacity="1" fill-rule="nonzero"/><path fill="#ff66c4" d="M 191.753906 173.273438 C 187.71875 173.273438 184.417969 169.972656 184.417969 165.9375 L 184.417969 66.054688 C 184.417969 37.746094 161.390625 14.71875 133.085938 14.71875 L 123.109375 14.71875 C 94.800781 14.71875 71.773438 37.746094 71.773438 66.054688 L 71.773438 165.9375 C 71.773438 169.972656 68.472656 173.273438 64.441406 173.273438 C 60.40625 173.273438 57.105469 169.972656 57.105469 165.9375 L 57.105469 66.054688 C 57.105469 29.679688 86.734375 0.0507812 123.109375 0.0507812 L 133.085938 0.0507812 C 169.460938 0.0507812 199.085938 29.679688 199.085938 66.054688 L 199.085938 165.9375 C 199.085938 169.972656 195.785156 173.273438 191.753906 173.273438 Z M 191.753906 173.273438 " fill-opacity="1" fill-rule="nonzero"/><path fill="#ff66c4" d="M 205.539062 208.988281 C 201.507812 208.988281 198.207031 205.6875 198.207031 201.652344 L 198.207031 182.144531 C 198.207031 178.113281 194.90625 174.8125 190.875 174.8125 L 65.394531 174.8125 C 61.359375 174.8125 58.0625 178.113281 58.0625 182.144531 L 58.0625 201.652344 C 58.0625 205.6875 54.761719 208.988281 50.726562 208.988281 C 46.695312 208.988281 43.394531 205.6875 43.394531 201.652344 L 43.394531 182.144531 C 43.394531 170.046875 53.292969 160.144531 65.394531 160.144531 L 190.875 160.144531 C 202.972656 160.144531 212.875 170.046875 212.875 182.144531 L 212.875 201.652344 C 212.875 205.6875 209.574219 208.988281 205.539062 208.988281 Z M 205.539062 208.988281 " fill-opacity="1" fill-rule="nonzero"/><path fill="#ff66c4" d="M 88.421875 335.199219 L 37.601562 335.199219 C 33.566406 335.199219 30.265625 331.898438 30.265625 327.867188 C 30.265625 323.832031 33.566406 320.53125 37.601562 320.53125 L 88.421875 320.53125 C 96.488281 320.53125 103.089844 313.933594 103.089844 305.867188 L 103.089844 265.824219 C 103.089844 257.757812 96.488281 251.15625 88.421875 251.15625 L 25.058594 251.15625 C 21.027344 251.15625 17.726562 247.855469 17.726562 243.824219 C 17.726562 239.789062 21.027344 236.488281 25.058594 236.488281 L 88.421875 236.488281 C 104.628906 236.488281 117.757812 249.617188 117.757812 265.824219 L 117.757812 305.867188 C 117.757812 322.074219 104.628906 335.199219 88.421875 335.199219 Z M 88.421875 335.199219 " fill-opacity="1" fill-rule="nonzero"/><g clip-path="url(#624bfb6b81)"><path fill="#ff66c4" d="M 329.113281 373.847656 L 311.953125 373.847656 C 289.730469 373.847656 271.617188 355.734375 271.617188 333.511719 L 271.617188 257.902344 C 271.617188 245.800781 281.519531 235.902344 293.617188 235.902344 L 347.449219 235.902344 C 359.546875 235.902344 369.449219 245.800781 369.449219 257.902344 L 369.449219 333.511719 C 369.449219 355.734375 351.335938 373.847656 329.113281 373.847656 Z M 293.617188 250.570312 C 289.585938 250.570312 286.285156 253.871094 286.285156 257.902344 L 286.285156 333.511719 C 286.285156 347.667969 297.796875 359.179688 311.953125 359.179688 L 329.113281 359.179688 C 343.265625 359.179688 354.78125 347.667969 354.78125 333.511719 L 354.78125 257.902344 C 354.78125 253.871094 351.480469 250.570312 347.449219 250.570312 Z M 293.617188 250.570312 " fill-opacity="1" fill-rule="nonzero"/></g><path fill="#ff66c4" d="M 320.53125 249.324219 C 316.5 249.324219 313.199219 246.023438 313.199219 241.988281 L 313.199219 114.089844 C 313.199219 110.054688 316.5 106.757812 320.53125 106.757812 C 324.566406 106.757812 327.867188 110.054688 327.867188 114.089844 L 327.867188 241.988281 C 327.867188 246.023438 324.566406 249.324219 320.53125 249.324219 Z M 320.53125 249.324219 " fill-opacity="1" fill-rule="nonzero"/><path fill="#ff66c4" d="M 323.613281 121.351562 L 317.453125 121.351562 C 310.117188 121.351562 303.886719 115.851562 302.933594 108.589844 L 297.503906 67.816406 C 296.917969 63.632812 298.238281 59.378906 301.023438 56.226562 C 303.8125 53.074219 307.84375 51.242188 312.027344 51.242188 L 328.964844 51.242188 C 333.21875 51.242188 337.179688 53.074219 339.96875 56.226562 C 342.753906 59.378906 344 63.632812 343.488281 67.816406 L 338.058594 108.589844 C 337.105469 115.851562 330.875 121.351562 323.539062 121.351562 Z M 323.613281 106.683594 L 323.613281 114.015625 Z M 312.097656 65.90625 L 317.527344 106.683594 L 323.6875 106.683594 C 323.6875 106.683594 329.113281 65.90625 329.113281 65.90625 Z M 312.097656 65.90625 " fill-opacity="1" fill-rule="nonzero"/></svg>