<svg xmlns="http://www.w3.org/2000/svg" xmlns:xlink="http://www.w3.org/1999/xlink" width="500" zoomAndPan="magnify" viewBox="0 0 375 374.999991" height="500" preserveAspectRatio="xMidYMid meet" version="1.0"><path fill="#ff66c4" d="M 316.296875 267.738281 C 312.929688 258.207031 307.339844 249.460938 300.027344 242.511719 L 236.167969 181.445312 C 222.621094 168.46875 204.84375 161.375 186.136719 161.375 C 185.996094 161.375 185.921875 161.375 185.78125 161.375 C 166.929688 161.445312 149.082031 168.757812 135.609375 181.945312 L 72.320312 243.585938 C 65.082031 250.609375 59.5625 259.425781 56.265625 268.957031 L 54.832031 273.1875 C 48.023438 293.253906 51.460938 315.332031 64.003906 332.390625 L 69.453125 339.773438 C 81.78125 356.472656 101.132812 365.933594 121.273438 365.933594 C 126.289062 365.933594 131.378906 365.359375 136.394531 364.140625 C 142.128906 362.78125 147.578125 360.628906 152.738281 357.761719 C 173.953125 345.9375 199.328125 345.863281 220.613281 357.476562 C 225.773438 360.269531 231.292969 362.347656 237.027344 363.710938 C 262.328125 369.515625 288.488281 359.699219 303.753906 338.695312 L 309.132812 331.242188 C 321.53125 314.113281 324.757812 291.964844 317.804688 271.96875 Z M 299.671875 324.289062 L 294.292969 331.746094 C 281.824219 348.945312 260.464844 356.972656 239.75 352.171875 C 235.089844 351.097656 230.578125 349.375 226.347656 347.082031 C 201.476562 333.535156 171.875 333.679688 147.074219 347.441406 C 142.847656 349.804688 138.402344 351.527344 133.746094 352.671875 C 113.101562 357.617188 91.601562 349.804688 78.984375 332.746094 L 73.539062 325.367188 C 63.214844 311.460938 60.421875 293.328125 66.011719 276.984375 L 67.445312 272.757812 C 70.097656 264.945312 74.613281 257.777344 80.5625 251.972656 L 143.851562 190.332031 C 155.675781 178.792969 170.941406 173.058594 186.136719 173.058594 C 201.191406 173.058594 216.242188 178.71875 228.066406 189.972656 L 291.929688 251.039062 C 297.878906 256.773438 302.539062 263.867188 305.261719 271.679688 L 306.765625 275.910156 C 312.429688 292.179688 309.777344 310.242188 299.671875 324.289062 Z M 299.671875 324.289062 " fill-opacity="1" fill-rule="nonzero"/><path fill="#ff66c4" d="M 80.132812 213.984375 C 91.742188 208.394531 99.484375 196.851562 101.921875 181.585938 C 104.214844 167.109375 101.492188 150.765625 94.179688 135.570312 C 86.871094 120.378906 75.757812 108.121094 63 100.882812 C 49.527344 93.285156 35.695312 92.210938 24.082031 97.800781 C 12.472656 103.390625 4.730469 114.929688 2.292969 130.195312 C 0 144.675781 2.722656 161.015625 10.035156 176.210938 C 17.34375 191.40625 28.453125 203.664062 41.210938 210.902344 C 49.023438 215.273438 56.910156 217.496094 64.433594 217.496094 C 69.953125 217.496094 75.257812 216.347656 80.132812 213.984375 Z M 20.570312 171.121094 C 14.261719 158.078125 11.898438 144.246094 13.832031 132.132812 C 15.625 120.734375 21.070312 112.347656 29.101562 108.480469 C 32.324219 106.902344 35.910156 106.113281 39.636719 106.113281 C 45.15625 106.113281 51.105469 107.835938 57.125 111.203125 C 67.875 117.222656 77.191406 127.6875 83.5 140.734375 C 89.808594 153.777344 92.171875 167.609375 90.238281 179.722656 C 88.445312 191.121094 83 199.503906 74.972656 203.375 C 66.945312 207.246094 56.980469 206.316406 46.945312 200.652344 C 36.265625 194.632812 26.878906 184.167969 20.570312 171.121094 Z M 20.570312 171.121094 " fill-opacity="1" fill-rule="nonzero"/><path fill="#ff66c4" d="M 369.480469 131.84375 C 364.175781 117.296875 354.359375 107.546875 341.886719 104.25 C 329.414062 100.953125 316.082031 104.679688 304.257812 114.714844 C 293.078125 124.246094 284.546875 138.4375 280.246094 154.710938 C 275.945312 170.980469 276.375 187.535156 281.464844 201.367188 C 286.769531 215.917969 296.589844 225.667969 309.058594 228.964844 C 312 229.753906 315.007812 230.109375 318.089844 230.109375 C 327.839844 230.109375 337.730469 226.167969 346.6875 218.5 C 357.871094 208.964844 366.398438 194.773438 370.699219 178.503906 C 375 162.234375 374.5 145.679688 369.480469 131.84375 Z M 359.304688 175.496094 C 355.648438 189.472656 348.410156 201.585938 339.089844 209.539062 C 330.347656 216.992188 320.742188 219.859375 312.070312 217.566406 C 303.398438 215.273438 296.515625 208.105469 292.503906 197.285156 C 288.273438 185.742188 287.988281 171.695312 291.644531 157.71875 C 295.296875 143.742188 302.539062 131.628906 311.855469 123.675781 C 318.664062 117.867188 325.976562 114.859375 332.925781 114.859375 C 334.933594 114.859375 336.941406 115.144531 338.875 115.648438 C 347.546875 117.941406 354.429688 125.109375 358.441406 135.929688 C 362.671875 147.46875 362.957031 161.519531 359.304688 175.496094 Z M 359.304688 175.496094 " fill-opacity="1" fill-rule="nonzero"/><path fill="#ff66c4" d="M 106.792969 136.71875 C 116.542969 146.394531 127.722656 151.484375 138.90625 151.484375 C 141.199219 151.484375 143.492188 151.269531 145.785156 150.839844 C 159.1875 148.257812 170.226562 138.511719 176.820312 123.316406 C 183.128906 108.910156 184.703125 91.132812 181.265625 73.285156 C 177.824219 55.441406 169.796875 39.527344 158.617188 28.492188 C 147.003906 16.808594 133.097656 11.863281 119.695312 14.371094 C 106.363281 16.949219 95.328125 26.699219 88.660156 41.894531 C 82.355469 56.300781 80.777344 74.074219 84.21875 91.921875 C 87.585938 109.699219 95.613281 125.609375 106.792969 136.71875 Z M 99.484375 46.625 C 104.5 35.085938 112.527344 27.773438 121.988281 25.980469 C 123.496094 25.695312 125.070312 25.550781 126.648438 25.550781 C 134.746094 25.550781 143.0625 29.492188 150.515625 36.875 C 160.046875 46.265625 166.929688 60.027344 169.867188 75.507812 C 172.808594 90.992188 171.515625 106.328125 166.140625 118.585938 C 161.125 130.125 153.097656 137.433594 143.636719 139.226562 C 134.175781 141.019531 123.996094 137.148438 115.109375 128.332031 C 105.578125 118.945312 98.695312 105.183594 95.757812 89.699219 C 92.746094 74.148438 94.109375 58.878906 99.484375 46.625 Z M 99.484375 46.625 " fill-opacity="1" fill-rule="nonzero"/><path fill="#ff66c4" d="M 223.550781 151.339844 C 225.773438 151.769531 227.996094 151.984375 230.289062 151.984375 C 241.398438 151.984375 252.582031 146.609375 262.472656 136.289062 C 273.652344 124.675781 281.894531 107.976562 285.621094 89.34375 C 289.421875 70.707031 288.273438 52.144531 282.46875 37.019531 C 276.304688 21.109375 265.695312 10.859375 252.4375 8.136719 C 239.175781 5.484375 225.414062 10.785156 213.519531 23.113281 C 202.335938 34.726562 194.09375 51.425781 190.367188 70.0625 C 186.566406 88.695312 187.714844 107.261719 193.519531 122.382812 C 199.683594 138.367188 210.292969 148.617188 223.550781 151.339844 Z M 201.90625 72.425781 C 205.203125 55.941406 212.371094 41.320312 222.046875 31.285156 C 231.007812 21.96875 240.96875 17.8125 250.144531 19.675781 C 259.316406 21.539062 266.914062 29.207031 271.503906 41.25 C 276.519531 54.222656 277.453125 70.492188 274.082031 86.976562 C 270.785156 103.460938 263.617188 118.082031 253.941406 128.117188 C 244.984375 137.433594 235.019531 141.59375 225.847656 139.730469 C 216.671875 137.867188 209.074219 130.195312 204.488281 118.15625 C 199.46875 105.183594 198.539062 88.984375 201.90625 72.425781 Z M 201.90625 72.425781 " fill-opacity="1" fill-rule="nonzero"/></svg>