<svg xmlns="http://www.w3.org/2000/svg" xmlns:xlink="http://www.w3.org/1999/xlink" width="500" zoomAndPan="magnify" viewBox="0 0 375 374.999991" height="500" preserveAspectRatio="xMidYMid meet" version="1.0"><defs><clipPath id="8f8bf26969"><path d="M 181 136 L 368.859375 136 L 368.859375 227 L 181 227 Z M 181 136 " clip-rule="nonzero"/></clipPath></defs><path fill="#ffc107" d="M 162.351562 13.832031 C 157.167969 13.832031 152.15625 15.417969 147.8125 18.5 C 139.578125 25.027344 135.246094 33.84375 134.972656 43.800781 C 134.671875 54.359375 139.011719 64.445312 146.863281 71.46875 L 191.441406 111.347656 L 236.007812 71.46875 C 243.863281 64.445312 248.203125 54.359375 247.898438 43.800781 C 247.625 33.84375 243.292969 25.027344 235.742188 18.992188 C 228.972656 14.183594 221.578125 12.777344 214.207031 14.617188 C 206.726562 16.453125 200.425781 21.445312 196.925781 28.300781 C 194.835938 32.414062 188.050781 32.425781 185.957031 28.3125 C 182.457031 21.445312 176.144531 16.453125 168.652344 14.601562 C 166.546875 14.085938 164.433594 13.832031 162.351562 13.832031 Z M 191.441406 125.765625 C 189.972656 125.765625 188.507812 125.25 187.339844 124.199219 L 138.664062 80.660156 C 128.09375 71.195312 122.257812 57.644531 122.65625 43.449219 C 123.039062 30.007812 129.160156 17.585938 139.457031 9.371094 C 139.539062 9.300781 140.597656 8.519531 140.695312 8.445312 C 149.605469 2.132812 160.847656 0.00390625 171.601562 2.648438 C 179.355469 4.5625 186.257812 8.785156 191.441406 14.652344 C 196.613281 8.785156 203.503906 4.5625 211.257812 2.648438 C 222.011719 0.00390625 233.265625 2.132812 242.1875 8.445312 C 242.257812 8.496094 243.269531 9.265625 243.34375 9.3125 C 253.707031 17.585938 259.828125 30.007812 260.214844 43.449219 C 260.613281 57.644531 254.777344 71.195312 244.207031 80.660156 L 195.542969 124.199219 C 194.378906 125.25 192.910156 125.765625 191.441406 125.765625 " fill-opacity="1" fill-rule="nonzero"/><path fill="#ffc107" d="M 22.363281 214.164062 L 137.675781 214.164062 L 176.660156 148.804688 L 55.050781 148.804688 Z M 141.175781 226.476562 L 12.40625 226.476562 C 10.28125 226.476562 8.292969 225.371094 7.164062 223.554688 C 6.046875 221.742188 5.949219 219.476562 6.898438 217.570312 L 45.742188 139.894531 C 46.789062 137.8125 48.917969 136.492188 51.25 136.492188 L 187.507812 136.492188 C 189.722656 136.492188 191.765625 137.683594 192.859375 139.605469 C 193.953125 141.53125 193.933594 143.898438 192.800781 145.800781 L 146.464844 223.46875 C 145.347656 225.335938 143.339844 226.476562 141.175781 226.476562 " fill-opacity="1" fill-rule="nonzero"/><g clip-path="url(#8f8bf26969)"><path fill="#ffc107" d="M 237.34375 214.164062 L 352.667969 214.164062 L 319.980469 148.804688 L 198.359375 148.804688 Z M 362.625 226.476562 L 233.84375 226.476562 C 231.679688 226.476562 229.667969 225.335938 228.550781 223.46875 L 182.21875 145.800781 C 181.085938 143.898438 181.0625 141.53125 182.15625 139.605469 C 183.253906 137.683594 185.296875 136.492188 187.507812 136.492188 L 323.78125 136.492188 C 326.113281 136.492188 328.242188 137.8125 329.289062 139.894531 L 368.128906 217.570312 C 369.078125 219.476562 368.984375 221.742188 367.863281 223.554688 C 366.734375 225.371094 364.75 226.476562 362.625 226.476562 " fill-opacity="1" fill-rule="nonzero"/></g><path fill="#ffc107" d="M 187.507812 375.015625 C 184.105469 375.015625 181.351562 372.261719 181.351562 368.855469 L 181.351562 142.648438 C 181.351562 139.246094 184.105469 136.492188 187.507812 136.492188 C 190.910156 136.492188 193.667969 139.246094 193.667969 142.648438 L 193.667969 368.855469 C 193.667969 372.261719 190.910156 375.015625 187.507812 375.015625 " fill-opacity="1" fill-rule="nonzero"/><path fill="#ffc107" d="M 323.78125 375.015625 L 51.25 375.015625 C 47.847656 375.015625 45.09375 372.261719 45.09375 368.855469 L 45.09375 220.320312 C 45.09375 216.917969 47.847656 214.164062 51.25 214.164062 C 54.652344 214.164062 57.40625 216.917969 57.40625 220.320312 L 57.40625 362.703125 L 317.625 362.703125 L 317.625 220.320312 C 317.625 216.917969 320.378906 214.164062 323.78125 214.164062 C 327.183594 214.164062 329.9375 216.917969 329.9375 220.320312 L 329.9375 368.855469 C 329.9375 372.261719 327.183594 375.015625 323.78125 375.015625 " fill-opacity="1" fill-rule="nonzero"/></svg>