<svg xmlns="http://www.w3.org/2000/svg" xmlns:xlink="http://www.w3.org/1999/xlink" width="500" zoomAndPan="magnify" viewBox="0 0 375 374.999991" height="500" preserveAspectRatio="xMidYMid meet" version="1.0"><defs><clipPath id="9a6734bc62"><path d="M 0 193 L 375 193 L 375 257.953125 L 0 257.953125 Z M 0 193 " clip-rule="nonzero"/></clipPath><clipPath id="1a00336932"><path d="M 11 22.453125 L 140 22.453125 L 140 179 L 11 179 Z M 11 22.453125 " clip-rule="nonzero"/></clipPath></defs><g clip-path="url(#9a6734bc62)"><path fill="#ffc107" d="M 358.640625 193.59375 L 16.359375 193.59375 C 13.339844 193.59375 7.671875 195.050781 3.722656 204.8125 C 1.398438 210.542969 0.121094 218.046875 0.121094 225.945312 C 0.121094 233.847656 1.398438 241.351562 3.722656 247.082031 C 7.679688 256.84375 13.339844 258.300781 16.359375 258.300781 L 358.640625 258.300781 C 361.660156 258.300781 367.328125 256.84375 371.277344 247.082031 C 373.597656 241.351562 374.878906 233.847656 374.878906 225.945312 C 374.878906 218.046875 373.601562 210.542969 371.277344 204.8125 C 367.328125 195.050781 361.660156 193.59375 358.640625 193.59375 Z M 241.753906 247.777344 L 28.703125 247.777344 C 28.800781 247.550781 28.894531 247.316406 28.992188 247.082031 C 31.316406 241.351562 32.59375 233.847656 32.59375 225.945312 C 32.59375 218.046875 31.316406 210.542969 28.992188 204.8125 C 28.894531 204.570312 28.800781 204.34375 28.703125 204.117188 L 241.753906 204.117188 C 243.460938 204.871094 247.605469 212.300781 247.605469 225.945312 C 247.605469 239.59375 243.460938 247.023438 241.753906 247.777344 Z M 10.644531 225.945312 C 10.644531 212.664062 14.578125 205.265625 16.359375 204.183594 C 18.140625 205.257812 22.074219 212.664062 22.074219 225.945312 C 22.074219 239.230469 18.140625 246.628906 16.359375 247.710938 C 14.578125 246.636719 10.644531 239.230469 10.644531 225.945312 Z M 358.519531 247.777344 L 254.234375 247.777344 C 254.332031 247.550781 254.429688 247.316406 254.527344 247.082031 C 256.851562 241.351562 258.128906 233.847656 258.128906 225.945312 C 258.128906 218.046875 256.851562 210.542969 254.527344 204.8125 C 254.429688 204.570312 254.332031 204.34375 254.234375 204.117188 L 358.511719 204.117188 C 360.226562 204.917969 364.347656 212.347656 364.347656 225.945312 C 364.355469 239.546875 360.234375 246.976562 358.519531 247.777344 Z M 358.519531 247.777344 " fill-opacity="1" fill-rule="nonzero"/></g><g clip-path="url(#1a00336932)"><path fill="#ffc107" d="M 11.097656 178.425781 L 21.621094 178.425781 C 21.621094 156.25 39.660156 138.214844 61.832031 138.214844 L 63.660156 138.214844 C 66.566406 138.214844 68.921875 135.859375 68.921875 132.953125 C 68.921875 130.046875 66.566406 127.691406 63.660156 127.691406 C 54.546875 127.691406 47.132812 120.277344 47.132812 111.164062 C 47.132812 103.96875 51.730469 97.640625 58.578125 95.429688 C 60.097656 94.9375 61.3125 93.785156 61.878906 92.296875 C 62.445312 90.808594 62.308594 89.140625 61.5 87.765625 C 58.238281 82.210938 56.511719 75.851562 56.511719 69.382812 C 56.511719 49.324219 72.832031 33 92.894531 33 C 112.960938 33 129.277344 49.316406 129.277344 69.382812 C 129.277344 85.289062 118.667969 99.605469 103.46875 104.203125 C 101.785156 104.714844 100.472656 106.023438 99.960938 107.699219 C 99.453125 109.375 99.808594 111.203125 100.917969 112.566406 C 104.164062 116.539062 105.925781 121.347656 106.015625 126.480469 C 106.128906 132.476562 103.824219 138.199219 99.507812 142.585938 C 95.089844 147.085938 88.96875 149.667969 82.722656 149.667969 L 63.53125 149.667969 C 47.667969 149.667969 34.757812 162.570312 34.757812 178.433594 L 45.277344 178.433594 C 45.277344 168.375 53.46875 160.191406 63.53125 160.191406 L 82.722656 160.191406 C 91.789062 160.191406 100.640625 156.460938 107.019531 149.960938 C 113.324219 143.53125 116.699219 135.121094 116.53125 126.285156 C 116.433594 121.160156 115.203125 116.253906 112.921875 111.804688 C 129.027344 104.148438 139.800781 87.570312 139.800781 69.382812 C 139.800781 43.523438 118.765625 22.476562 92.894531 22.476562 C 67.027344 22.476562 45.992188 43.515625 45.992188 69.382812 C 45.992188 75.785156 47.300781 82.097656 49.804688 87.925781 C 41.726562 92.726562 36.609375 101.460938 36.609375 111.171875 C 36.609375 118.796875 39.78125 125.695312 44.875 130.613281 C 25.214844 137.589844 11.097656 156.394531 11.097656 178.425781 Z M 11.097656 178.425781 " fill-opacity="1" fill-rule="nonzero"/></g></svg>