<svg xmlns="http://www.w3.org/2000/svg" xmlns:xlink="http://www.w3.org/1999/xlink" width="500" zoomAndPan="magnify" viewBox="0 0 375 374.999991" height="500" preserveAspectRatio="xMidYMid meet" version="1.0"><defs><clipPath id="1a19028bb2"><path d="M 1 54.609375 L 375 54.609375 L 375 320.109375 L 1 320.109375 Z M 1 54.609375 " clip-rule="nonzero"/></clipPath></defs><g clip-path="url(#1a19028bb2)"><path fill="#ffc107" d="M 337.707031 308.71875 L 294.542969 308.71875 C 304.199219 304.957031 313.269531 300.058594 321.597656 294.140625 Z M 374.605469 191.917969 C 374.605469 122.761719 318.34375 66.5 249.1875 66.5 C 239.589844 66.5 230.011719 67.59375 220.726562 69.746094 C 217.585938 70.472656 215.632812 73.613281 216.363281 76.75 C 217.089844 79.894531 220.21875 81.890625 223.367188 81.117188 C 231.785156 79.167969 240.472656 78.175781 249.1875 78.175781 C 311.910156 78.175781 362.933594 129.199219 362.933594 191.917969 C 362.933594 254.636719 311.910156 305.664062 249.1875 305.664062 C 186.46875 305.664062 135.445312 254.636719 135.445312 191.917969 C 135.445312 156.785156 151.308594 124.171875 178.964844 102.433594 C 181.503906 100.441406 181.941406 96.773438 179.949219 94.234375 C 177.957031 91.699219 174.285156 91.261719 171.753906 93.257812 C 141.261719 117.21875 123.773438 153.183594 123.773438 191.917969 C 123.773438 196.140625 123.996094 200.3125 124.40625 204.429688 L 114.140625 190.054688 C 112.261719 187.425781 108.609375 186.824219 105.996094 188.699219 C 103.371094 190.566406 102.765625 194.214844 104.636719 196.835938 L 130.695312 233.316406 C 130.792969 233.449219 130.949219 233.5 131.054688 233.625 C 143.234375 268.015625 169.941406 295.507812 203.835938 308.71875 L 122.3125 308.71875 C 112.757812 308.71875 104.261719 299.917969 100.105469 291.246094 L 54.644531 193.894531 C 53.683594 191.839844 51.625 190.527344 49.355469 190.527344 C 33.277344 190.527344 12.878906 177.476562 12.878906 162.804688 C 12.878906 146.765625 28.003906 139.457031 42.0625 139.457031 C 59.355469 139.457031 63.878906 141.988281 72.328125 151.605469 L 85.902344 170.605469 C 87.773438 173.230469 91.421875 173.839844 94.046875 171.964844 C 96.671875 170.09375 97.277344 166.445312 95.40625 163.824219 L 81.472656 144.371094 C 75.796875 137.886719 70.945312 133.785156 65.128906 131.273438 L 59.554688 60.207031 C 59.300781 56.996094 56.457031 54.578125 53.277344 54.84375 C 50.0625 55.097656 47.664062 57.90625 47.914062 61.121094 L 53.191406 128.359375 C 52.136719 128.238281 51.070312 128.125 49.933594 128.050781 L 12.074219 63.550781 C 10.441406 60.765625 6.867188 59.820312 4.085938 61.46875 C 1.308594 63.097656 0.375 66.679688 2.007812 69.453125 L 36.433594 128.105469 C 15.722656 130.253906 1.203125 144.164062 1.203125 162.804688 C 1.203125 183.375 24.609375 200.164062 45.558594 202.03125 L 89.550781 296.242188 C 94.894531 307.378906 106.679688 320.390625 122.3125 320.390625 L 352.855469 320.390625 C 355.269531 320.390625 357.4375 318.902344 358.300781 316.652344 C 359.171875 314.398438 358.5625 311.847656 356.773438 310.226562 L 330.921875 286.84375 C 357.617188 263.824219 374.605469 229.847656 374.605469 191.917969 " fill-opacity="1" fill-rule="nonzero"/></g><path fill="#ffc107" d="M 205.484375 193.445312 C 205.484375 158.042969 234.285156 129.242188 269.6875 129.242188 C 305.085938 129.242188 333.886719 158.042969 333.886719 193.445312 C 333.886719 228.847656 305.085938 257.648438 269.6875 257.648438 C 234.285156 257.648438 205.484375 228.847656 205.484375 193.445312 Z M 345.5625 193.445312 C 345.5625 151.609375 311.523438 117.570312 269.6875 117.570312 C 227.847656 117.570312 193.8125 151.609375 193.8125 193.445312 C 193.8125 235.28125 227.847656 269.320312 269.6875 269.320312 C 311.523438 269.320312 345.5625 235.28125 345.5625 193.445312 " fill-opacity="1" fill-rule="nonzero"/><path fill="#ffc107" d="M 262.390625 195.632812 C 262.390625 185.582031 270.570312 177.394531 280.628906 177.394531 C 290.6875 177.394531 298.867188 185.582031 298.867188 195.632812 C 298.867188 205.6875 290.6875 213.875 280.628906 213.875 C 270.570312 213.875 262.390625 205.6875 262.390625 195.632812 Z M 310.542969 195.632812 C 310.542969 179.140625 297.125 165.722656 280.628906 165.722656 C 264.132812 165.722656 250.71875 179.140625 250.71875 195.632812 C 250.71875 212.128906 264.132812 225.546875 280.628906 225.546875 C 297.125 225.546875 310.542969 212.128906 310.542969 195.632812 " fill-opacity="1" fill-rule="nonzero"/></svg>