<svg xmlns="http://www.w3.org/2000/svg" xmlns:xlink="http://www.w3.org/1999/xlink" width="1080" zoomAndPan="magnify" viewBox="0 0 810 809.999993" height="1080" preserveAspectRatio="xMidYMid meet" version="1.0"><defs><clipPath id="94d8d5f242"><path d="M 102 266.425781 L 708 266.425781 L 708 543.925781 L 102 543.925781 Z M 102 266.425781 " clip-rule="nonzero"/></clipPath></defs><g clip-path="url(#94d8d5f242)"><path fill="#b3b3b3" d="M 666.722656 307.648438 C 640.109375 281.035156 604.671875 266.46875 567.082031 266.683594 C 529.441406 266.882812 494.210938 281.804688 467.878906 308.699219 L 422.417969 355.128906 L 454.9375 386.3125 L 500.070312 340.214844 C 517.917969 321.984375 541.804688 311.867188 567.320312 311.730469 C 567.492188 311.730469 567.664062 311.730469 567.839844 311.730469 C 593.160156 311.730469 616.949219 321.582031 634.871094 339.503906 C 671.054688 375.6875 671.054688 434.558594 634.871094 470.742188 C 616.949219 488.664062 593.160156 498.519531 567.839844 498.519531 C 567.667969 498.519531 567.492188 498.519531 567.320312 498.519531 C 541.804688 498.378906 517.917969 488.265625 500.070312 470.03125 L 436.515625 405.125 L 436.546875 405.097656 L 436.519531 405.117188 L 405 372.925781 L 404.996094 372.925781 L 342.113281 308.699219 C 315.777344 281.804688 280.550781 266.882812 242.910156 266.683594 C 205.332031 266.46875 169.882812 281.03125 143.265625 307.648438 C 89.515625 361.394531 89.515625 448.847656 143.265625 502.597656 C 169.699219 529.035156 204.789062 543.5625 242.144531 543.5625 C 242.398438 543.5625 242.652344 543.5625 242.910156 543.5625 C 280.550781 543.367188 315.777344 528.441406 342.113281 501.546875 L 387.574219 455.113281 L 355.058594 423.933594 L 309.921875 470.03125 C 292.070312 488.265625 268.1875 498.378906 242.671875 498.519531 C 242.496094 498.519531 242.328125 498.519531 242.152344 498.519531 C 216.828125 498.519531 193.039062 488.664062 175.117188 470.742188 C 138.9375 434.558594 138.9375 375.6875 175.117188 339.503906 C 193.039062 321.582031 216.828125 311.730469 242.152344 311.730469 C 242.324219 311.730469 242.496094 311.730469 242.671875 311.730469 C 268.1875 311.867188 292.070312 321.984375 309.921875 340.214844 L 373.476562 405.125 L 373.472656 405.125 L 404.996094 437.320312 L 467.878906 501.546875 C 494.210938 528.441406 529.441406 543.367188 567.082031 543.5625 C 567.335938 543.5625 567.589844 543.5625 567.84375 543.5625 C 605.203125 543.5625 640.289062 529.03125 666.722656 502.597656 C 720.472656 448.847656 720.472656 361.394531 666.722656 307.648438 " fill-opacity="1" fill-rule="nonzero"/></g></svg>