<svg xmlns="http://www.w3.org/2000/svg" xmlns:xlink="http://www.w3.org/1999/xlink" width="500" zoomAndPan="magnify" viewBox="0 0 375 374.999991" height="500" preserveAspectRatio="xMidYMid meet" version="1.0"><defs><clipPath id="789b9664e1"><path d="M 0 37.5 L 375 37.5 L 375 339.75 L 0 339.75 Z M 0 37.5 " clip-rule="nonzero"/></clipPath></defs><g clip-path="url(#789b9664e1)"><path fill="#ffc107" d="M 128.023438 217.84375 C 114.199219 208.082031 80.535156 196.285156 61.945312 212.0625 C 55.777344 217.296875 52.183594 227.292969 53.199219 236.433594 C 54.136719 245.492188 59.445312 253.070312 68.039062 257.597656 C 73.898438 260.722656 82.566406 262.285156 93.890625 262.285156 C 100.765625 262.285156 108.652344 261.738281 117.480469 260.566406 L 118.183594 260.488281 C 129.117188 259.082031 137.941406 252.054688 140.207031 243.070312 C 142.316406 234.011719 137.941406 224.796875 128.023438 217.84375 Z M 128.414062 240.105469 C 127.398438 244.242188 122.554688 247.757812 116.621094 248.460938 L 115.839844 248.539062 C 88.660156 252.132812 77.800781 249.085938 73.742188 246.898438 C 68.664062 244.164062 65.773438 240.183594 65.226562 235.105469 C 64.601562 229.402344 67.101562 223.46875 69.835938 221.203125 C 82.253906 210.738281 110.214844 219.953125 121.148438 227.683594 C 126.773438 231.746094 129.351562 236.121094 128.414062 240.105469 Z M 313.132812 211.984375 C 294.542969 196.207031 260.878906 208.003906 247.054688 217.765625 C 237.136719 224.796875 232.761719 233.933594 234.949219 242.914062 C 237.214844 251.976562 246.039062 258.925781 256.972656 260.332031 L 257.675781 260.410156 C 266.503906 261.582031 274.390625 262.128906 281.265625 262.128906 C 292.589844 262.128906 301.179688 260.566406 307.117188 257.441406 C 315.710938 252.835938 320.941406 245.335938 321.957031 236.277344 C 322.894531 227.214844 319.300781 217.21875 313.132812 211.984375 Z M 309.929688 235.105469 C 309.382812 240.261719 306.492188 244.164062 301.414062 246.898438 C 297.355469 249.085938 286.496094 252.132812 259.316406 248.539062 L 258.535156 248.460938 C 252.601562 247.679688 247.757812 244.242188 246.742188 240.105469 C 245.726562 236.121094 248.382812 231.746094 254.085938 227.683594 C 261.503906 222.453125 276.734375 216.515625 289.699219 216.515625 C 295.792969 216.515625 301.414062 217.84375 305.398438 221.203125 C 307.976562 223.46875 310.476562 229.402344 309.929688 235.105469 Z M 353.824219 129.195312 L 325.707031 129.195312 L 305.945312 64.523438 C 301.414062 49.371094 285.484375 37.5 269.707031 37.5 L 105.371094 37.5 C 89.671875 37.5 73.742188 49.371094 69.132812 64.445312 L 49.371094 129.117188 L 21.253906 129.117188 C 9.617188 129.195312 0.0859375 138.722656 0.0859375 150.519531 C 0.0859375 162.3125 9.617188 171.839844 21.253906 171.839844 L 35.546875 171.839844 L 29.84375 189.101562 C 25.863281 201.128906 22.738281 220.578125 22.738281 233.308594 L 22.738281 319.925781 C 22.738281 330.863281 31.5625 339.84375 42.5 339.84375 L 75.535156 339.84375 C 86.394531 339.84375 95.296875 330.941406 95.296875 319.925781 L 95.296875 293.996094 L 279.703125 293.996094 L 279.703125 319.925781 C 279.703125 330.863281 288.527344 339.84375 299.464844 339.84375 L 332.5 339.84375 C 343.359375 339.84375 352.261719 330.941406 352.261719 319.925781 L 352.261719 233.308594 C 352.261719 220.578125 349.136719 201.128906 345.15625 189.101562 L 339.453125 171.839844 L 353.746094 171.839844 C 365.382812 171.839844 374.914062 162.3125 374.914062 150.519531 C 374.914062 138.722656 365.460938 129.195312 353.824219 129.195312 Z M 80.691406 67.960938 C 83.738281 57.964844 95.0625 49.605469 105.371094 49.605469 L 269.785156 49.605469 C 280.09375 49.605469 291.417969 58.042969 294.464844 68.039062 L 317.894531 144.816406 L 325.316406 167.386719 L 49.761719 167.386719 L 57.261719 144.660156 Z M 21.253906 159.734375 C 16.253906 159.734375 12.195312 155.59375 12.195312 150.519531 C 12.195312 145.441406 16.253906 141.300781 21.253906 141.300781 L 45.621094 141.300781 L 39.53125 159.734375 Z M 75.613281 327.738281 L 42.5 327.738281 C 38.28125 327.738281 34.84375 324.222656 34.84375 319.925781 L 34.84375 293.683594 C 35.3125 293.839844 35.78125 293.996094 36.328125 293.996094 L 83.191406 293.996094 L 83.191406 319.925781 C 83.269531 324.222656 79.832031 327.738281 75.613281 327.738281 Z M 332.578125 327.738281 L 299.542969 327.738281 C 295.324219 327.738281 291.886719 324.222656 291.886719 319.925781 L 291.886719 293.996094 L 340.234375 293.996094 L 340.234375 319.925781 C 340.234375 324.222656 336.796875 327.738281 332.578125 327.738281 Z M 340.234375 281.890625 L 36.40625 281.890625 C 35.859375 281.890625 35.390625 282.046875 34.921875 282.203125 L 34.921875 233.308594 C 34.921875 221.828125 37.8125 203.707031 41.40625 192.851562 L 45.855469 179.417969 L 329.378906 179.417969 L 333.828125 192.851562 C 337.421875 203.707031 340.3125 221.828125 340.3125 233.308594 L 340.3125 281.890625 Z M 353.824219 159.734375 L 335.546875 159.734375 L 329.457031 141.300781 L 353.824219 141.300781 C 358.824219 141.300781 362.882812 145.441406 362.882812 150.519531 C 362.882812 155.59375 358.824219 159.734375 353.824219 159.734375 Z M 353.824219 159.734375 " fill-opacity="1" fill-rule="nonzero"/></g></svg>