<svg xmlns="http://www.w3.org/2000/svg" xmlns:xlink="http://www.w3.org/1999/xlink" width="500" zoomAndPan="magnify" viewBox="0 0 375 374.999991" height="500" preserveAspectRatio="xMidYMid meet" version="1.0"><defs><clipPath id="8e64629f44"><path d="M 13 13 L 362 13 L 362 362 L 13 362 Z M 13 13 " clip-rule="nonzero"/></clipPath><clipPath id="032cb435e1"><path d="M 125.601562 -35.167969 L 410.390625 249.621094 L 249.699219 410.308594 L -35.085938 125.523438 Z M 125.601562 -35.167969 " clip-rule="nonzero"/></clipPath><clipPath id="be1ef65d01"><path d="M 125.601562 -35.167969 L 410.390625 249.621094 L 249.699219 410.308594 L -35.085938 125.523438 Z M 125.601562 -35.167969 " clip-rule="nonzero"/></clipPath></defs><g clip-path="url(#8e64629f44)"><g clip-path="url(#032cb435e1)"><g clip-path="url(#be1ef65d01)"><path fill="#ffc107" d="M 338.699219 294.066406 L 333.957031 289.324219 L 348.71875 274.558594 C 356.882812 266.394531 356.882812 253.105469 348.71875 244.941406 L 341.769531 237.992188 L 354.878906 224.878906 C 363.339844 216.421875 363.339844 202.648438 354.878906 194.191406 L 337.582031 176.894531 C 329.125 168.4375 315.355469 168.4375 306.894531 176.894531 L 264.210938 219.578125 L 155.410156 110.777344 L 198.09375 68.09375 C 206.554688 59.636719 206.554688 45.867188 198.09375 37.40625 L 180.800781 20.109375 C 172.339844 11.652344 158.570312 11.652344 150.113281 20.109375 L 137 33.222656 L 130.046875 26.269531 C 121.886719 18.109375 108.59375 18.109375 100.429688 26.269531 L 85.667969 41.035156 L 80.925781 36.292969 C 73.542969 28.910156 61.527344 28.910156 54.144531 36.292969 L 36.289062 54.144531 C 28.90625 61.527344 28.90625 73.546875 36.289062 80.925781 L 41.03125 85.671875 L 26.269531 100.433594 C 18.105469 108.597656 18.105469 121.886719 26.269531 130.050781 L 33.222656 137 L 20.109375 150.113281 C 11.648438 158.570312 11.648438 172.34375 20.109375 180.800781 L 37.40625 198.097656 C 45.863281 206.554688 59.632812 206.554688 68.09375 198.097656 L 110.777344 155.414062 L 219.578125 264.214844 L 176.894531 306.898438 C 168.433594 315.355469 168.433594 329.125 176.894531 337.585938 L 194.191406 354.882812 C 202.648438 363.339844 216.417969 363.339844 224.878906 354.882812 L 237.988281 341.769531 L 244.941406 348.722656 C 253.105469 356.882812 266.394531 356.882812 274.558594 348.722656 L 289.320312 333.957031 L 294.0625 338.699219 C 301.445312 346.082031 313.464844 346.082031 320.84375 338.699219 L 338.699219 320.847656 C 346.082031 313.464844 346.082031 301.445312 338.699219 294.066406 Z M 45.214844 72 C 42.757812 69.539062 42.757812 65.535156 45.214844 63.074219 L 63.070312 45.21875 C 65.53125 42.757812 69.539062 42.757812 72 45.21875 L 76.742188 49.960938 L 49.960938 76.742188 Z M 35.195312 121.121094 C 31.953125 117.878906 31.953125 112.601562 35.195312 109.359375 L 109.359375 35.199219 C 112.601562 31.957031 117.878906 31.957031 121.121094 35.199219 L 128.074219 42.148438 L 42.148438 128.074219 Z M 59.164062 189.171875 C 55.628906 192.707031 49.871094 192.707031 46.332031 189.171875 L 29.035156 171.875 C 25.5 168.335938 25.5 162.578125 29.035156 159.039062 L 46.613281 141.464844 L 159.039062 29.039062 C 162.578125 25.5 168.335938 25.5 171.871094 29.039062 L 189.167969 46.335938 C 192.707031 49.871094 192.707031 55.628906 189.167969 59.167969 Z M 119.703125 146.488281 L 146.484375 119.707031 L 255.285156 228.503906 L 228.503906 255.289062 Z M 215.949219 345.953125 C 212.414062 349.492188 206.65625 349.492188 203.117188 345.953125 L 185.820312 328.65625 C 182.28125 325.121094 182.28125 319.363281 185.820312 315.824219 L 315.824219 185.824219 C 319.359375 182.285156 325.117188 182.285156 328.65625 185.824219 L 345.953125 203.117188 C 349.488281 206.65625 349.488281 212.414062 345.953125 215.953125 L 328.378906 233.527344 L 233.523438 328.378906 Z M 265.628906 339.792969 C 262.386719 343.035156 257.109375 343.035156 253.867188 339.792969 L 246.917969 332.84375 L 332.839844 246.917969 L 339.792969 253.871094 C 343.035156 257.113281 343.035156 262.390625 339.792969 265.632812 Z M 311.917969 329.773438 C 309.457031 332.234375 305.449219 332.234375 302.992188 329.773438 L 298.246094 325.03125 L 325.03125 298.25 L 329.773438 302.992188 C 332.234375 305.453125 332.234375 309.457031 329.773438 311.917969 Z M 311.917969 329.773438 " fill-opacity="1" fill-rule="nonzero"/></g></g></g></svg>