<svg xmlns="http://www.w3.org/2000/svg" xmlns:xlink="http://www.w3.org/1999/xlink" width="500" zoomAndPan="magnify" viewBox="0 0 375 374.999991" height="500" preserveAspectRatio="xMidYMid meet" version="1.0"><defs><clipPath id="858207632b"><path d="M 36 58.316406 L 338 58.316406 L 338 243 L 36 243 Z M 36 58.316406 " clip-rule="nonzero"/></clipPath><clipPath id="ee40ac7fe9"><path d="M 1 249 L 375 249 L 375 316.316406 L 1 316.316406 Z M 1 249 " clip-rule="nonzero"/></clipPath></defs><g clip-path="url(#858207632b)"><path fill="#ffc107" d="M 41.195312 238.222656 C 45.40625 241.917969 50.996094 242.542969 54.304688 242.542969 C 55.320312 242.542969 56.128906 242.480469 56.609375 242.433594 L 313.617188 242.433594 C 328.597656 242.433594 334.074219 232.296875 334.882812 226.933594 L 334.9375 226.574219 L 334.9375 226.207031 C 334.9375 224.851562 337.152344 90.351562 337.332031 76.863281 C 337.417969 69.730469 334.617188 65.519531 332.195312 63.25 C 327.164062 58.453125 320.433594 58.433594 318.960938 58.5 C 312.253906 58.5 74.335938 58.570312 59.242188 58.5 L 59.113281 58.5 C 52.621094 58.5 47.332031 60.488281 43.386719 64.414062 C 37.132812 70.640625 36.957031 79.222656 36.957031 80.148438 L 36.144531 226.117188 C 36.144531 232.460938 38.890625 236.203125 41.195312 238.222656 Z M 47.976562 80.222656 C 48.085938 78.128906 48.628906 76.160156 49.605469 74.308594 C 51.429688 71 54.464844 69.453125 59.171875 69.453125 L 59.261719 69.453125 C 74.492188 69.515625 316.683594 69.453125 319.121094 69.453125 L 319.46875 69.453125 C 319.46875 69.453125 322.792969 69.398438 324.683594 71.203125 C 325.863281 72.320312 326.445312 74.1875 326.414062 76.742188 C 326.242188 89.78125 324.183594 216.199219 324.03125 225.515625 C 323.632812 227.019531 321.773438 231.503906 313.644531 231.503906 L 55.632812 231.503906 C 54.378906 231.652344 50.355469 231.6875 48.410156 229.957031 C 47.847656 229.457031 47.101562 228.511719 47.101562 226.132812 Z M 47.976562 80.222656 " fill-opacity="1" fill-rule="nonzero"/></g><g clip-path="url(#ee40ac7fe9)"><path fill="#ffc107" d="M 374.761719 303.714844 L 374.652344 302.203125 L 339.335938 251.828125 C 339.125 251.550781 338.886719 251.300781 338.621094 251.074219 C 338.359375 250.84375 338.078125 250.640625 337.777344 250.46875 C 337.476562 250.292969 337.164062 250.148438 336.835938 250.03125 C 336.507812 249.917969 336.171875 249.835938 335.828125 249.785156 C 335.484375 249.730469 335.136719 249.714844 334.789062 249.730469 C 334.441406 249.742188 334.101562 249.789062 333.761719 249.871094 C 333.421875 249.949219 333.09375 250.0625 332.777344 250.203125 C 332.460938 250.347656 332.160156 250.519531 331.875 250.71875 C 331.589844 250.917969 331.328125 251.140625 331.085938 251.390625 C 330.84375 251.640625 330.628906 251.914062 330.4375 252.203125 C 330.246094 252.496094 330.085938 252.800781 329.953125 253.121094 C 329.820312 253.445312 329.722656 253.777344 329.652344 254.117188 C 329.582031 254.457031 329.546875 254.800781 329.542969 255.148438 C 329.539062 255.496094 329.570312 255.84375 329.632812 256.183594 C 329.695312 256.527344 329.789062 256.859375 329.914062 257.183594 C 330.039062 257.507812 330.195312 257.816406 330.378906 258.113281 L 363.222656 304.964844 C 361.90625 305.425781 360.546875 305.652344 359.152344 305.640625 L 359.003906 305.640625 C 355.613281 305.640625 23.617188 304.128906 14.042969 304.128906 C 13.441406 304.148438 12.847656 304.078125 12.265625 303.917969 C 12.253906 303.738281 12.253906 303.554688 12.265625 303.371094 L 41.90625 260.1875 C 42.113281 259.890625 42.285156 259.578125 42.425781 259.246094 C 42.570312 258.917969 42.675781 258.574219 42.753906 258.222656 C 42.828125 257.871094 42.867188 257.515625 42.871094 257.15625 C 42.875 256.796875 42.847656 256.441406 42.78125 256.085938 C 42.714844 255.734375 42.617188 255.390625 42.480469 255.054688 C 42.347656 254.722656 42.183594 254.402344 41.988281 254.101562 C 41.792969 253.800781 41.570312 253.519531 41.316406 253.261719 C 41.066406 253.003906 40.792969 252.773438 40.496094 252.570312 C 40.199219 252.367188 39.886719 252.195312 39.554688 252.054688 C 39.226562 251.910156 38.882812 251.804688 38.53125 251.730469 C 38.179688 251.652344 37.824219 251.613281 37.464844 251.609375 C 37.105469 251.605469 36.75 251.636719 36.394531 251.703125 C 36.042969 251.769531 35.699219 251.867188 35.363281 252 C 35.03125 252.136719 34.710938 252.300781 34.410156 252.496094 C 34.109375 252.691406 33.832031 252.917969 33.574219 253.167969 C 33.316406 253.417969 33.085938 253.691406 32.882812 253.988281 L 2.21875 298.675781 L 1.972656 299.410156 C 1.761719 300.046875 0.0117188 305.75 3.328125 310.390625 C 4.867188 312.519531 7.976562 315.0625 14.015625 315.0625 C 23.511719 315.0625 352.582031 316.546875 358.859375 316.574219 L 359.300781 316.574219 C 361.5 316.574219 367.867188 316.199219 371.785156 312.125 C 372.871094 311.007812 373.671875 309.714844 374.191406 308.246094 C 374.710938 306.777344 374.902344 305.265625 374.761719 303.714844 Z M 374.761719 303.714844 " fill-opacity="1" fill-rule="nonzero"/></g><path fill="#ffc107" d="M 207.253906 278.332031 L 172.667969 278.332031 C 168.941406 278.542969 166.316406 279.839844 164.871094 282.171875 C 162.835938 285.460938 164.316406 289.171875 164.492188 289.578125 L 164.851562 290.410156 L 175.191406 297.871094 L 203.589844 297.578125 L 214.238281 289.949219 L 214.441406 288.59375 C 214.570312 287.773438 215.066406 283.523438 212.597656 280.652344 C 211.925781 279.882812 211.125 279.296875 210.1875 278.890625 C 209.25 278.484375 208.273438 278.296875 207.253906 278.332031 Z M 201.433594 291.046875 L 177.273438 291.292969 L 170.34375 286.308594 C 170.304688 286.074219 170.332031 285.851562 170.417969 285.628906 C 170.546875 285.425781 171.238281 285.011719 172.914062 284.910156 L 207.226562 284.910156 C 207.34375 284.910156 207.457031 284.921875 207.574219 284.945312 C 207.824219 285.390625 207.945312 285.867188 207.9375 286.375 Z M 201.433594 291.046875 " fill-opacity="1" fill-rule="nonzero"/></svg>