<svg xmlns="http://www.w3.org/2000/svg" xmlns:xlink="http://www.w3.org/1999/xlink" width="500" zoomAndPan="magnify" viewBox="0 0 375 374.999991" height="500" preserveAspectRatio="xMidYMid meet" version="1.0"><defs><clipPath id="9b8bd4662b"><path d="M 0 66.09375 L 276 66.09375 L 276 254 L 0 254 Z M 0 66.09375 " clip-rule="nonzero"/></clipPath><clipPath id="870150ec83"><path d="M 259 66.09375 L 375 66.09375 L 375 254 L 259 254 Z M 259 66.09375 " clip-rule="nonzero"/></clipPath><clipPath id="9d4b05fde3"><path d="M 66 242 L 146 242 L 146 337.59375 L 66 337.59375 Z M 66 242 " clip-rule="nonzero"/></clipPath><clipPath id="aa644dff36"><path d="M 129 241 L 210 241 L 210 337.59375 L 129 337.59375 Z M 129 241 " clip-rule="nonzero"/></clipPath></defs><g clip-path="url(#9b8bd4662b)"><path fill="#ffc107" d="M 267.488281 253.132812 L 8.023438 253.132812 C 3.246094 253.132812 0.0625 249.949219 0.0625 245.175781 L 0.0625 74.847656 C 0.0625 70.074219 3.246094 66.890625 8.023438 66.890625 L 267.488281 66.890625 C 272.265625 66.890625 275.449219 70.074219 275.449219 74.847656 L 275.449219 245.96875 C 275.449219 249.949219 272.265625 253.132812 267.488281 253.132812 Z M 15.980469 237.214844 L 259.53125 237.214844 L 259.53125 82.808594 L 15.980469 82.808594 Z M 15.980469 237.214844 " fill-opacity="1" fill-rule="nonzero"/></g><g clip-path="url(#870150ec83)"><path fill="#ffc107" d="M 366.183594 253.132812 C 365.386719 253.132812 363.792969 253.132812 363 252.335938 L 264.304688 207.765625 C 261.121094 206.175781 259.53125 203.785156 259.53125 200.601562 L 259.53125 118.625 C 259.53125 115.441406 261.121094 112.257812 264.304688 111.460938 L 363 66.890625 C 365.386719 66.09375 368.570312 66.09375 370.957031 67.6875 C 373.34375 69.277344 374.9375 71.664062 374.9375 74.054688 L 374.9375 245.175781 C 374.9375 247.5625 373.34375 250.746094 370.957031 251.542969 C 369.367188 253.132812 367.773438 253.132812 366.183594 253.132812 Z M 275.449219 195.828125 L 358.222656 233.234375 L 358.222656 86.789062 L 275.449219 124.195312 Z M 275.449219 195.828125 " fill-opacity="1" fill-rule="nonzero"/></g><g clip-path="url(#9d4b05fde3)"><path fill="#ffc107" d="M 74.082031 337.5 C 72.492188 337.5 70.898438 336.703125 69.308594 335.90625 C 66.125 333.519531 65.328125 327.949219 67.714844 324.765625 L 131.386719 245.175781 C 133.777344 242.785156 136.960938 241.195312 140.144531 242.785156 C 143.328125 244.378906 145.714844 246.765625 145.714844 249.949219 L 145.714844 329.539062 C 145.714844 334.316406 142.53125 337.5 137.753906 337.5 C 132.980469 337.5 129.796875 334.316406 129.796875 329.539062 L 129.796875 272.234375 L 79.652344 334.316406 C 78.859375 336.703125 76.46875 337.5 74.082031 337.5 Z M 74.082031 337.5 " fill-opacity="1" fill-rule="nonzero"/></g><g clip-path="url(#aa644dff36)"><path fill="#ffc107" d="M 201.429688 337.5 C 199.039062 337.5 196.652344 336.703125 195.0625 334.316406 L 131.386719 254.726562 C 129 251.542969 129 245.96875 132.980469 243.582031 C 136.164062 241.195312 141.734375 241.195312 144.121094 245.175781 L 207.796875 324.765625 C 210.183594 327.949219 210.183594 333.519531 206.203125 335.90625 C 205.40625 337.5 203.816406 337.5 201.429688 337.5 Z M 201.429688 337.5 " fill-opacity="1" fill-rule="nonzero"/></g></svg>