<svg xmlns="http://www.w3.org/2000/svg" xmlns:xlink="http://www.w3.org/1999/xlink" width="500" zoomAndPan="magnify" viewBox="0 0 375 374.999991" height="500" preserveAspectRatio="xMidYMid meet" version="1.0"><path fill="#ffc107" d="M 374.175781 344.667969 C 368.597656 320.484375 349.726562 305.722656 327.839844 307.222656 L 312.453125 240.582031 C 349.191406 228.941406 371.515625 190.746094 362.707031 152.535156 C 362.65625 152.304688 362.589844 152.085938 362.511719 151.863281 L 324 43.625 C 322.96875 40.742188 319.953125 39.09375 316.953125 39.769531 L 209.410156 64.589844 L 211.898438 55.574219 C 212.714844 52.617188 211.183594 49.519531 208.34375 48.371094 L 105.277344 6.707031 C 102.417969 5.550781 99.175781 6.71875 97.714844 9.414062 L 42.726562 110.324219 C 42.613281 110.527344 42.511719 110.734375 42.429688 110.949219 C 27.753906 147.289062 43.824219 188.503906 78.285156 205.773438 L 52.785156 268.867188 C 24.546875 260.554688 6.359375 284.246094 0.503906 298.710938 C -0.09375 300.195312 -0.0820312 301.859375 0.546875 303.332031 C 1.171875 304.804688 2.355469 305.972656 3.84375 306.566406 L 72.484375 334.296875 C 73.207031 334.59375 73.976562 334.742188 74.746094 334.742188 C 75.550781 334.742188 76.351562 334.582031 77.105469 334.257812 C 78.578125 333.632812 79.742188 332.445312 80.339844 330.960938 C 89.625 307.945312 82.628906 285.011719 63.851562 273.703125 L 89.476562 210.316406 C 96.769531 212.609375 104.269531 213.804688 111.777344 213.804688 C 121.691406 213.804688 131.601562 211.804688 141.003906 207.8125 C 159.402344 200.003906 173.648438 185.503906 181.128906 166.980469 C 181.214844 166.765625 181.289062 166.546875 181.351562 166.328125 L 205.015625 80.53125 L 216.8125 185.488281 C 216.839844 185.71875 216.875 185.945312 216.929688 186.171875 C 221.425781 205.644531 233.238281 222.203125 250.179688 232.792969 C 262.214844 240.3125 275.820312 244.179688 289.667969 244.179688 C 293.332031 244.179688 297.007812 243.808594 300.679688 243.261719 L 316 309.601562 C 288.085938 318.980469 286.78125 348.820312 290.289062 364.039062 C 290.652344 365.601562 291.617188 366.949219 292.976562 367.800781 C 293.941406 368.40625 295.050781 368.71875 296.171875 368.71875 C 296.628906 368.71875 297.085938 368.664062 297.53125 368.566406 L 369.652344 351.90625 C 372.902344 351.152344 374.925781 347.917969 374.175781 344.667969 Z M 71.035156 320.691406 L 14.425781 297.824219 C 19.585938 288.964844 32.117188 273.230469 52.808594 281.589844 C 68.226562 287.835938 75.335938 303.710938 71.035156 320.691406 Z M 169.808594 162.777344 C 163.5 178.15625 151.605469 190.195312 136.285156 196.695312 C 120.863281 203.246094 103.8125 203.398438 88.285156 197.128906 C 56.332031 184.199219 40.78125 147.769531 53.496094 115.789062 L 70.6875 84.242188 C 93.6875 97.90625 125.980469 111.96875 161.574219 111.96875 C 169.050781 111.96875 176.667969 111.335938 184.375 109.964844 Z M 187.988281 96.863281 C 144.890625 106.835938 103.691406 89.882812 76.460938 73.644531 L 105.738281 19.917969 L 198.828125 57.550781 Z M 314.429688 52.742188 L 336.328125 114.289062 C 294.796875 133.128906 234.945312 124.441406 221.847656 122.199219 L 216.578125 75.328125 Z M 256.582031 222.550781 C 242.46875 213.734375 232.601562 199.972656 228.769531 183.785156 L 223.25 134.660156 C 233.136719 136.207031 250.171875 138.316406 269.734375 138.316406 C 292.367188 138.316406 318.308594 135.4375 340.378906 125.671875 L 351.019531 155.578125 C 358.574219 189.175781 337.515625 222.730469 303.9375 230.46875 C 287.601562 234.253906 270.785156 231.429688 256.582031 222.550781 Z M 301.214844 355.328125 C 300.394531 345.085938 301.6875 325.007812 323.308594 320.015625 C 325.777344 319.441406 328.21875 319.171875 330.605469 319.171875 C 343.875 319.171875 355.40625 327.703125 360.664062 341.589844 Z M 301.214844 355.328125 " fill-opacity="1" fill-rule="nonzero"/><path fill="#ffc107" d="M 100.121094 141.320312 L 99.628906 141.320312 C 96.296875 141.320312 93.839844 144.023438 93.839844 147.359375 C 93.839844 150.691406 96.789062 153.394531 100.121094 153.394531 C 103.457031 153.394531 106.160156 150.691406 106.160156 147.359375 C 106.160156 144.023438 103.457031 141.320312 100.121094 141.320312 Z M 100.121094 141.320312 " fill-opacity="1" fill-rule="nonzero"/><path fill="#ffc107" d="M 116.804688 167.242188 L 116.3125 167.242188 C 112.980469 167.242188 110.523438 169.945312 110.523438 173.277344 C 110.523438 176.613281 113.472656 179.316406 116.804688 179.316406 C 120.140625 179.316406 122.84375 176.613281 122.84375 173.277344 C 122.84375 169.945312 120.140625 167.242188 116.804688 167.242188 Z M 116.804688 167.242188 " fill-opacity="1" fill-rule="nonzero"/><path fill="#ffc107" d="M 137.273438 142.050781 L 136.757812 142.050781 C 133.421875 142.050781 130.976562 144.753906 130.976562 148.085938 C 130.976562 151.417969 133.9375 154.121094 137.273438 154.121094 C 140.605469 154.121094 143.308594 151.417969 143.308594 148.085938 C 143.308594 144.753906 140.605469 142.050781 137.273438 142.050781 Z M 137.273438 142.050781 " fill-opacity="1" fill-rule="nonzero"/><path fill="#ffc107" d="M 292.511719 171 C 289.175781 171 286.472656 173.703125 286.472656 177.035156 C 286.472656 180.371094 289.175781 183.074219 292.511719 183.074219 L 293.027344 183.074219 C 296.359375 183.074219 298.800781 180.371094 298.800781 177.035156 C 298.800781 173.703125 295.84375 171 292.511719 171 Z M 292.511719 171 " fill-opacity="1" fill-rule="nonzero"/><path fill="#ffc107" d="M 275.847656 196.921875 C 272.515625 196.921875 269.8125 199.621094 269.8125 202.957031 C 269.8125 206.292969 272.515625 208.992188 275.847656 208.992188 L 276.34375 208.992188 C 279.675781 208.992188 282.132812 206.292969 282.132812 202.957031 C 282.132812 199.621094 279.179688 196.921875 275.847656 196.921875 Z M 275.847656 196.921875 " fill-opacity="1" fill-rule="nonzero"/><path fill="#ffc107" d="M 255.378906 171.703125 C 252.046875 171.703125 249.34375 174.40625 249.34375 177.742188 C 249.34375 181.074219 252.046875 183.777344 255.378906 183.777344 L 255.875 183.777344 C 259.207031 183.777344 261.664062 181.074219 261.664062 177.742188 C 261.664062 174.40625 258.714844 171.703125 255.378906 171.703125 Z M 255.378906 171.703125 " fill-opacity="1" fill-rule="nonzero"/></svg>