<svg xmlns="http://www.w3.org/2000/svg" xmlns:xlink="http://www.w3.org/1999/xlink" width="500" zoomAndPan="magnify" viewBox="0 0 375 374.999991" height="500" preserveAspectRatio="xMidYMid meet" version="1.0"><defs><clipPath id="b9d5ecf4c0"><path d="M 75.683594 0 L 299.183594 0 L 299.183594 375 L 75.683594 375 Z M 75.683594 0 " clip-rule="nonzero"/></clipPath></defs><g clip-path="url(#b9d5ecf4c0)"><path fill="#ffc107" d="M 257.566406 0 L 117.445312 0 C 94.457031 0 75.757812 18.703125 75.757812 41.6875 L 75.757812 333.28125 C 75.757812 356.269531 94.457031 374.972656 117.445312 374.972656 L 257.566406 374.972656 C 280.554688 374.972656 299.253906 356.269531 299.253906 333.28125 L 299.253906 41.6875 C 299.253906 18.703125 280.554688 0 257.566406 0 Z M 87.898438 47.757812 L 287.113281 47.757812 L 287.113281 299.714844 L 87.898438 299.714844 Z M 117.445312 12.140625 L 257.566406 12.140625 C 271.78125 12.140625 283.675781 22.226562 286.484375 35.617188 L 88.527344 35.617188 C 91.335938 22.226562 103.234375 12.140625 117.445312 12.140625 Z M 257.566406 362.832031 L 117.445312 362.832031 C 101.152344 362.832031 87.898438 349.574219 87.898438 333.28125 L 87.898438 311.859375 L 287.113281 311.859375 L 287.113281 333.285156 C 287.113281 349.574219 273.859375 362.832031 257.566406 362.832031 Z M 257.566406 362.832031 " fill-opacity="1" fill-rule="nonzero"/></g><path fill="#ffc107" d="M 187.507812 319.664062 C 177.84375 319.664062 169.984375 327.523438 169.984375 337.183594 C 169.984375 346.84375 177.84375 354.703125 187.507812 354.703125 C 197.167969 354.703125 205.027344 346.84375 205.027344 337.183594 C 205.027344 327.523438 197.167969 319.664062 187.507812 319.664062 Z M 187.507812 342.5625 C 184.539062 342.5625 182.128906 340.148438 182.128906 337.183594 C 182.128906 334.21875 184.539062 331.804688 187.507812 331.804688 C 190.472656 331.804688 192.882812 334.21875 192.882812 337.183594 C 192.882812 340.148438 190.472656 342.5625 187.507812 342.5625 Z M 187.507812 342.5625 " fill-opacity="1" fill-rule="nonzero"/></svg>