<svg xmlns="http://www.w3.org/2000/svg" xmlns:xlink="http://www.w3.org/1999/xlink" width="500" zoomAndPan="magnify" viewBox="0 0 375 374.999991" height="500" preserveAspectRatio="xMidYMid meet" version="1.0"><path fill="#ffc107" d="M 318.683594 0 L 89.289062 0 C 87.980469 0.00390625 86.679688 0.0664062 85.378906 0.199219 C 84.082031 0.328125 82.789062 0.519531 81.507812 0.777344 C 80.230469 1.035156 78.964844 1.351562 77.714844 1.730469 C 76.464844 2.113281 75.238281 2.554688 74.03125 3.054688 C 72.824219 3.554688 71.648438 4.113281 70.496094 4.730469 C 69.34375 5.347656 68.226562 6.015625 67.140625 6.742188 C 66.054688 7.46875 65.007812 8.246094 63.996094 9.074219 C 62.988281 9.902344 62.023438 10.78125 61.097656 11.703125 C 60.175781 12.625 59.300781 13.59375 58.46875 14.601562 C 57.640625 15.613281 56.863281 16.660156 56.136719 17.746094 C 55.414062 18.832031 54.742188 19.949219 54.125 21.101562 C 53.507812 22.25 52.949219 23.429688 52.449219 24.636719 C 51.949219 25.84375 51.507812 27.070312 51.128906 28.320312 C 50.746094 29.570312 50.429688 30.832031 50.171875 32.113281 C 49.917969 33.394531 49.722656 34.683594 49.59375 35.984375 C 49.464844 37.285156 49.398438 38.585938 49.394531 39.890625 L 49.394531 324.375 C 49.394531 325.457031 49.449219 326.539062 49.554688 327.617188 C 49.660156 328.691406 49.820312 329.761719 50.03125 330.824219 C 50.242188 331.886719 50.503906 332.9375 50.816406 333.972656 C 51.132812 335.007812 51.496094 336.027344 51.910156 337.027344 C 52.324219 338.027344 52.785156 339.007812 53.292969 339.960938 C 53.804688 340.917969 54.359375 341.84375 54.960938 342.746094 C 55.5625 343.648438 56.207031 344.515625 56.890625 345.355469 C 57.578125 346.191406 58.304688 346.992188 59.070312 347.761719 C 59.832031 348.527344 60.632812 349.253906 61.46875 349.941406 C 62.304688 350.628906 63.175781 351.273438 64.074219 351.878906 C 64.972656 352.480469 65.902344 353.035156 66.855469 353.546875 C 67.808594 354.058594 68.785156 354.523438 69.785156 354.941406 C 70.785156 355.355469 71.804688 355.722656 72.839844 356.039062 C 73.875 356.355469 74.921875 356.617188 75.984375 356.832031 C 77.046875 357.042969 78.117188 357.203125 79.195312 357.3125 C 80.269531 357.421875 81.351562 357.476562 82.433594 357.476562 L 103.640625 357.476562 L 103.640625 368.535156 C 103.65625 368.796875 103.6875 369.058594 103.734375 369.316406 C 103.78125 369.574219 103.84375 369.828125 103.921875 370.082031 C 104 370.332031 104.089844 370.578125 104.199219 370.816406 C 104.304688 371.058594 104.429688 371.289062 104.5625 371.515625 C 104.699219 371.738281 104.851562 371.953125 105.011719 372.160156 C 105.175781 372.367188 105.347656 372.566406 105.535156 372.75 C 105.722656 372.933594 105.917969 373.109375 106.125 373.269531 C 106.332031 373.433594 106.550781 373.578125 106.777344 373.714844 C 107 373.851562 107.234375 373.972656 107.472656 374.078125 C 107.714844 374.183594 107.960938 374.277344 108.210938 374.351562 C 108.464844 374.429688 108.71875 374.488281 108.976562 374.535156 C 109.238281 374.582031 109.496094 374.609375 109.757812 374.625 C 110.023438 374.636719 110.285156 374.636719 110.546875 374.617188 C 110.808594 374.597656 111.070312 374.566406 111.328125 374.515625 C 111.585938 374.464844 111.839844 374.398438 112.089844 374.316406 C 112.339844 374.238281 112.582031 374.140625 112.820312 374.03125 L 125.753906 366.851562 L 138.683594 374.03125 C 139.675781 374.644531 140.753906 374.96875 141.917969 375 C 142.339844 375 142.761719 374.957031 143.179688 374.875 C 143.59375 374.792969 144 374.671875 144.390625 374.507812 C 144.785156 374.34375 145.15625 374.144531 145.507812 373.910156 C 145.863281 373.675781 146.1875 373.40625 146.488281 373.105469 C 146.789062 372.804688 147.058594 372.480469 147.292969 372.125 C 147.527344 371.773438 147.726562 371.402344 147.890625 371.007812 C 148.054688 370.617188 148.175781 370.210938 148.257812 369.796875 C 148.339844 369.378906 148.382812 368.957031 148.382812 368.535156 L 148.382812 357.414062 L 318.683594 357.414062 C 319.109375 357.414062 319.527344 357.371094 319.945312 357.289062 C 320.363281 357.207031 320.765625 357.085938 321.160156 356.921875 C 321.550781 356.757812 321.921875 356.558594 322.277344 356.324219 C 322.628906 356.089844 322.957031 355.820312 323.257812 355.519531 C 323.554688 355.21875 323.824219 354.894531 324.058594 354.539062 C 324.296875 354.1875 324.496094 353.816406 324.65625 353.421875 C 324.820312 353.03125 324.941406 352.625 325.027344 352.210938 C 325.109375 351.792969 325.148438 351.371094 325.148438 350.949219 L 325.148438 6.464844 C 325.148438 6.039062 325.109375 5.621094 325.027344 5.203125 C 324.941406 4.789062 324.820312 4.382812 324.65625 3.992188 C 324.496094 3.597656 324.296875 3.226562 324.058594 2.875 C 323.824219 2.519531 323.554688 2.195312 323.257812 1.894531 C 322.957031 1.59375 322.628906 1.324219 322.277344 1.089844 C 321.921875 0.855469 321.550781 0.65625 321.160156 0.492188 C 320.765625 0.328125 320.363281 0.207031 319.945312 0.125 C 319.527344 0.0429688 319.109375 0 318.683594 0 Z M 61.875 39.890625 C 61.878906 38.359375 62.007812 36.835938 62.269531 35.324219 C 62.527344 33.808594 62.910156 32.332031 63.417969 30.882812 C 63.925781 29.433594 64.550781 28.039062 65.292969 26.695312 C 66.035156 25.355469 66.886719 24.082031 67.839844 22.882812 C 68.796875 21.679688 69.84375 20.570312 70.988281 19.546875 C 72.128906 18.519531 73.347656 17.597656 74.648438 16.78125 C 75.945312 15.960938 77.300781 15.253906 78.714844 14.664062 C 80.132812 14.070312 81.585938 13.601562 83.082031 13.253906 L 83.082031 291.273438 L 82.433594 291.273438 C 78.6875 291.296875 75.050781 291.941406 71.527344 293.203125 C 68 294.46875 64.78125 296.28125 61.875 298.640625 Z M 135.902344 358.191406 L 128.984375 354.441406 C 128.0625 353.921875 127.070312 353.664062 126.011719 353.664062 C 124.953125 353.664062 123.960938 353.921875 123.039062 354.441406 L 116.054688 358.191406 L 116.054688 330.582031 L 135.839844 330.582031 Z M 312.476562 345.257812 L 148.382812 345.257812 L 148.382812 324.308594 C 148.382812 323.886719 148.339844 323.464844 148.257812 323.050781 C 148.175781 322.632812 148.054688 322.226562 147.890625 321.835938 C 147.726562 321.445312 147.527344 321.070312 147.292969 320.71875 C 147.058594 320.367188 146.789062 320.039062 146.488281 319.738281 C 146.1875 319.4375 145.863281 319.171875 145.507812 318.933594 C 145.15625 318.699219 144.785156 318.5 144.390625 318.335938 C 144 318.175781 143.59375 318.050781 143.179688 317.96875 C 142.761719 317.886719 142.339844 317.84375 141.917969 317.84375 L 109.589844 317.84375 C 109.164062 317.84375 108.746094 317.886719 108.328125 317.96875 C 107.910156 318.050781 107.507812 318.175781 107.113281 318.335938 C 106.722656 318.5 106.351562 318.699219 105.996094 318.933594 C 105.644531 319.171875 105.316406 319.4375 105.019531 319.738281 C 104.71875 320.039062 104.449219 320.367188 104.214844 320.71875 C 103.976562 321.070312 103.777344 321.445312 103.617188 321.835938 C 103.453125 322.226562 103.332031 322.632812 103.25 323.050781 C 103.164062 323.464844 103.125 323.886719 103.125 324.308594 L 103.125 344.933594 L 82.433594 344.933594 C 81.734375 344.972656 81.035156 344.976562 80.339844 344.945312 C 79.640625 344.914062 78.945312 344.847656 78.25 344.746094 C 77.558594 344.640625 76.875 344.503906 76.195312 344.332031 C 75.519531 344.160156 74.851562 343.953125 74.195312 343.710938 C 73.535156 343.472656 72.894531 343.199219 72.265625 342.894531 C 71.636719 342.585938 71.023438 342.25 70.429688 341.882812 C 69.832031 341.515625 69.257812 341.117188 68.703125 340.691406 C 68.148438 340.261719 67.617188 339.808594 67.109375 339.328125 C 66.601562 338.847656 66.117188 338.34375 65.660156 337.8125 C 65.203125 337.285156 64.777344 336.730469 64.375 336.160156 C 63.972656 335.585938 63.605469 334.992188 63.261719 334.382812 C 62.921875 333.769531 62.613281 333.144531 62.335938 332.5 C 62.058594 331.859375 61.816406 331.203125 61.605469 330.535156 C 61.398438 329.871094 61.222656 329.191406 61.078125 328.507812 C 60.9375 327.824219 60.832031 327.132812 60.761719 326.4375 C 60.691406 325.738281 60.65625 325.042969 60.65625 324.34375 C 60.65625 323.644531 60.691406 322.945312 60.761719 322.25 C 60.832031 321.554688 60.9375 320.863281 61.078125 320.175781 C 61.222656 319.492188 61.398438 318.816406 61.605469 318.148438 C 61.816406 317.480469 62.058594 316.828125 62.335938 316.183594 C 62.613281 315.542969 62.921875 314.914062 63.261719 314.304688 C 63.605469 313.691406 63.972656 313.101562 64.375 312.527344 C 64.777344 311.953125 65.203125 311.402344 65.660156 310.871094 C 66.117188 310.34375 66.601562 309.835938 67.109375 309.355469 C 67.617188 308.875 68.148438 308.421875 68.703125 307.996094 C 69.257812 307.570312 69.832031 307.171875 70.429688 306.804688 C 71.023438 306.433594 71.636719 306.097656 72.265625 305.792969 C 72.894531 305.488281 73.535156 305.214844 74.195312 304.972656 C 74.851562 304.734375 75.519531 304.527344 76.195312 304.355469 C 76.875 304.179688 77.558594 304.042969 78.25 303.941406 C 78.945312 303.839844 79.640625 303.769531 80.339844 303.738281 C 81.035156 303.707031 81.734375 303.710938 82.433594 303.75 L 312.476562 303.75 Z M 312.476562 291.59375 L 95.558594 291.59375 L 95.558594 12.476562 L 312.476562 12.476562 Z M 312.476562 291.59375 " fill-opacity="1" fill-rule="nonzero"/><path fill="#ffc107" d="M 124.070312 137.714844 L 268.578125 137.714844 C 269 137.714844 269.421875 137.675781 269.835938 137.589844 C 270.253906 137.507812 270.660156 137.386719 271.050781 137.222656 C 271.441406 137.0625 271.816406 136.863281 272.167969 136.625 C 272.523438 136.390625 272.847656 136.121094 273.148438 135.820312 C 273.449219 135.523438 273.714844 135.195312 273.953125 134.84375 C 274.1875 134.488281 274.386719 134.117188 274.550781 133.722656 C 274.710938 133.332031 274.835938 132.925781 274.917969 132.511719 C 275 132.09375 275.042969 131.675781 275.042969 131.25 L 275.042969 75 C 275.042969 74.574219 275 74.15625 274.917969 73.738281 C 274.835938 73.320312 274.710938 72.917969 274.550781 72.527344 C 274.386719 72.132812 274.1875 71.761719 273.953125 71.40625 C 273.714844 71.054688 273.449219 70.726562 273.148438 70.429688 C 272.847656 70.128906 272.523438 69.859375 272.167969 69.625 C 271.816406 69.386719 271.441406 69.1875 271.050781 69.027344 C 270.660156 68.863281 270.253906 68.742188 269.835938 68.660156 C 269.421875 68.574219 269 68.535156 268.578125 68.535156 L 124.070312 68.535156 C 123.648438 68.535156 123.226562 68.574219 122.8125 68.660156 C 122.394531 68.742188 121.988281 68.863281 121.597656 69.027344 C 121.207031 69.1875 120.832031 69.386719 120.480469 69.625 C 120.128906 69.859375 119.800781 70.128906 119.5 70.429688 C 119.199219 70.726562 118.933594 71.054688 118.695312 71.40625 C 118.460938 71.761719 118.261719 72.132812 118.097656 72.527344 C 117.9375 72.917969 117.8125 73.324219 117.730469 73.738281 C 117.648438 74.15625 117.605469 74.574219 117.605469 75 L 117.605469 131.445312 C 117.621094 131.859375 117.671875 132.273438 117.761719 132.675781 C 117.855469 133.082031 117.984375 133.476562 118.152344 133.859375 C 118.320312 134.238281 118.523438 134.601562 118.761719 134.941406 C 119 135.285156 119.269531 135.601562 119.566406 135.890625 C 119.867188 136.179688 120.191406 136.441406 120.539062 136.667969 C 120.886719 136.894531 121.257812 137.085938 121.640625 137.242188 C 122.027344 137.398438 122.425781 137.515625 122.835938 137.597656 C 123.242188 137.675781 123.65625 137.714844 124.070312 137.714844 Z M 130.539062 81.207031 L 262.371094 81.207031 L 262.371094 125.171875 L 130.277344 125.171875 Z M 130.539062 81.207031 " fill-opacity="1" fill-rule="nonzero"/></svg>