<svg xmlns="http://www.w3.org/2000/svg" xmlns:xlink="http://www.w3.org/1999/xlink" width="500" zoomAndPan="magnify" viewBox="0 0 375 374.999991" height="500" preserveAspectRatio="xMidYMid meet" version="1.0"><defs><clipPath id="dc08ed9bd8"><path d="M 180 7.5 L 195 7.5 L 195 59 L 180 59 Z M 180 7.5 " clip-rule="nonzero"/></clipPath><clipPath id="7b97829993"><path d="M 0 323 L 375 323 L 375 367.5 L 0 367.5 Z M 0 323 " clip-rule="nonzero"/></clipPath></defs><path fill="#ffc107" d="M 187.5 256.875 C 231.335938 256.875 267 221.210938 267 177.375 C 267 133.539062 231.335938 97.875 187.5 97.875 C 143.664062 97.875 108 133.539062 108 177.375 C 108 221.210938 143.664062 256.875 187.5 256.875 Z M 187.5 112.875 C 223.066406 112.875 252 141.808594 252 177.375 C 252 212.941406 223.074219 241.875 187.5 241.875 C 151.925781 241.875 123 212.941406 123 177.375 C 123 141.808594 151.933594 112.875 187.5 112.875 Z M 187.5 112.875 " fill-opacity="1" fill-rule="nonzero"/><g clip-path="url(#dc08ed9bd8)"><path fill="#ffc107" d="M 187.5 58.875 C 191.640625 58.875 195 55.515625 195 51.375 L 195 15.375 C 195 11.234375 191.640625 7.875 187.5 7.875 C 183.359375 7.875 180 11.234375 180 15.375 L 180 51.375 C 180 55.515625 183.359375 58.875 187.5 58.875 Z M 187.5 58.875 " fill-opacity="1" fill-rule="nonzero"/></g><path fill="#ffc107" d="M 306 177.375 C 306 181.515625 309.351562 184.875 313.5 184.875 L 349.5 184.875 C 353.648438 184.875 357 181.515625 357 177.375 C 357 173.234375 353.648438 169.875 349.5 169.875 L 313.5 169.875 C 309.351562 169.875 306 173.234375 306 177.375 Z M 306 177.375 " fill-opacity="1" fill-rule="nonzero"/><path fill="#ffc107" d="M 25.5 184.875 L 61.5 184.875 C 65.640625 184.875 69 181.515625 69 177.375 C 69 173.234375 65.640625 169.875 61.5 169.875 L 25.5 169.875 C 21.359375 169.875 18 173.234375 18 177.375 C 18 181.515625 21.359375 184.875 25.5 184.875 Z M 25.5 184.875 " fill-opacity="1" fill-rule="nonzero"/><path fill="#ffc107" d="M 276.59375 95.78125 C 278.511719 95.78125 280.433594 95.046875 281.894531 93.585938 L 307.359375 68.128906 C 310.289062 65.203125 310.289062 60.457031 307.359375 57.523438 C 304.425781 54.59375 299.683594 54.59375 296.753906 57.523438 L 271.289062 82.980469 C 268.359375 85.90625 268.359375 90.652344 271.289062 93.585938 C 272.753906 95.046875 274.671875 95.78125 276.59375 95.78125 Z M 276.59375 95.78125 " fill-opacity="1" fill-rule="nonzero"/><path fill="#ffc107" d="M 93.105469 93.585938 C 94.566406 95.046875 96.488281 95.78125 98.40625 95.78125 C 100.328125 95.78125 102.246094 95.046875 103.710938 93.585938 C 106.640625 90.652344 106.640625 85.914062 103.710938 82.980469 L 78.253906 57.523438 C 75.324219 54.59375 70.582031 54.59375 67.648438 57.523438 C 64.71875 60.457031 64.71875 65.199219 67.648438 68.128906 Z M 93.105469 93.585938 " fill-opacity="1" fill-rule="nonzero"/><path fill="#ffc107" d="M 7.5 284.476562 C 22.859375 284.476562 30.246094 290.386719 38.796875 297.234375 C 48.195312 304.746094 58.84375 313.273438 79.46875 313.273438 C 100.09375 313.273438 110.753906 304.746094 120.148438 297.234375 C 128.707031 290.386719 136.09375 284.476562 151.460938 284.476562 C 166.824219 284.476562 174.210938 290.386719 182.761719 297.234375 C 192.15625 304.746094 202.808594 313.273438 223.433594 313.273438 C 244.074219 313.273438 254.730469 304.746094 264.136719 297.234375 C 272.691406 290.386719 280.085938 284.476562 295.460938 284.476562 C 310.835938 284.476562 318.234375 290.386719 326.789062 297.234375 C 336.195312 304.746094 346.851562 313.273438 367.492188 313.273438 C 371.640625 313.273438 374.992188 309.921875 374.992188 305.773438 C 374.992188 301.628906 371.640625 298.273438 367.492188 298.273438 C 352.117188 298.273438 344.722656 292.363281 336.164062 285.515625 C 326.761719 278.003906 316.101562 269.476562 295.460938 269.476562 C 274.824219 269.476562 264.164062 278.003906 254.761719 285.515625 C 246.203125 292.363281 238.808594 298.273438 223.433594 298.273438 C 208.074219 298.273438 200.683594 292.363281 192.136719 285.515625 C 182.738281 278.003906 172.085938 269.476562 151.460938 269.476562 C 130.835938 269.476562 120.179688 278.003906 110.78125 285.515625 C 102.226562 292.363281 94.835938 298.273438 79.46875 298.273438 C 64.109375 298.273438 56.722656 292.363281 48.171875 285.515625 C 38.773438 278.003906 28.125 269.476562 7.5 269.476562 C 3.359375 269.476562 0 272.828125 0 276.976562 C 0 281.121094 3.359375 284.476562 7.5 284.476562 Z M 7.5 284.476562 " fill-opacity="1" fill-rule="nonzero"/><g clip-path="url(#7b97829993)"><path fill="#ffc107" d="M 367.5 352.273438 C 352.125 352.273438 344.730469 346.363281 336.171875 339.515625 C 326.765625 332.003906 316.109375 323.476562 295.46875 323.476562 C 274.828125 323.476562 264.171875 332.003906 254.765625 339.515625 C 246.210938 346.363281 238.816406 352.273438 223.441406 352.273438 C 208.078125 352.273438 200.691406 346.363281 192.140625 339.515625 C 182.746094 332.003906 172.09375 323.476562 151.46875 323.476562 C 130.84375 323.476562 120.1875 332.003906 110.789062 339.515625 C 102.234375 346.363281 94.84375 352.273438 79.476562 352.273438 C 64.117188 352.273438 56.730469 346.363281 48.179688 339.515625 C 38.773438 332.003906 28.125 323.476562 7.5 323.476562 C 3.359375 323.476562 0 326.828125 0 330.976562 C 0 335.121094 3.359375 338.476562 7.5 338.476562 C 22.859375 338.476562 30.246094 344.386719 38.796875 351.234375 C 48.195312 358.746094 58.84375 367.273438 79.46875 367.273438 C 100.09375 367.273438 110.753906 358.746094 120.148438 351.234375 C 128.707031 344.386719 136.09375 338.476562 151.460938 338.476562 C 166.824219 338.476562 174.210938 344.386719 182.761719 351.234375 C 192.15625 358.746094 202.808594 367.273438 223.433594 367.273438 C 244.074219 367.273438 254.730469 358.746094 264.136719 351.234375 C 272.691406 344.386719 280.085938 338.476562 295.460938 338.476562 C 310.835938 338.476562 318.234375 344.386719 326.789062 351.234375 C 336.195312 358.746094 346.851562 367.273438 367.492188 367.273438 C 371.640625 367.273438 374.992188 363.921875 374.992188 359.773438 C 374.992188 355.628906 371.648438 352.273438 367.5 352.273438 Z M 367.5 352.273438 " fill-opacity="1" fill-rule="nonzero"/></g></svg>