<svg xmlns="http://www.w3.org/2000/svg" xmlns:xlink="http://www.w3.org/1999/xlink" width="500" zoomAndPan="magnify" viewBox="0 0 375 374.999991" height="500" preserveAspectRatio="xMidYMid meet" version="1.0"><defs><clipPath id="6463c5d274"><path d="M 43.59375 0 L 331.59375 0 L 331.59375 375 L 43.59375 375 Z M 43.59375 0 " clip-rule="nonzero"/></clipPath></defs><g clip-path="url(#6463c5d274)"><path fill="#ffc107" d="M 318.75 343.75 C 318.75 354.050781 310.328125 362.5 300 362.5 L 75 362.5 C 64.671875 362.5 56.25 354.050781 56.25 343.75 L 56.25 87.5 L 112.5 87.5 C 122.828125 87.5 131.25 79.078125 131.25 68.75 L 131.25 12.5 L 300 12.5 C 310.328125 12.5 318.75 20.921875 318.75 31.25 Z M 118.75 21.3125 L 118.75 68.75 C 118.75 72.191406 115.941406 75 112.5 75 L 65.0625 75 Z M 300 0 L 125 0 C 123.316406 0 121.753906 0.683594 120.554688 1.804688 L 45.554688 76.804688 C 44.433594 78.003906 43.75 79.566406 43.75 81.25 L 43.75 343.75 C 43.75 361.011719 57.738281 375 75 375 L 300 375 C 317.261719 375 331.25 361.011719 331.25 343.75 L 331.25 31.25 C 331.25 13.988281 317.261719 0 300 0 " fill-opacity="1" fill-rule="nonzero"/></g><path fill="#ffc107" d="M 283.8125 142.75 L 270.507812 156.003906 L 243.992188 129.492188 L 257.25 116.1875 C 259.691406 113.746094 263.695312 113.746094 266.136719 116.1875 L 283.8125 133.863281 C 286.179688 136.304688 286.179688 140.308594 283.8125 142.75 Z M 252.878906 173.679688 L 226.316406 147.117188 L 235.179688 138.304688 L 261.695312 164.820312 Z M 151.195312 275.316406 L 142.382812 266.503906 L 235.179688 173.679688 L 243.992188 182.496094 Z M 127.171875 286.695312 L 113.304688 272.828125 L 118.238281 259.984375 L 140.015625 281.761719 Z M 104.613281 295.386719 L 108.421875 285.570312 L 114.429688 291.578125 Z M 217.503906 156.003906 L 226.316406 164.820312 L 133.496094 257.617188 L 124.683594 248.804688 Z M 292.625 125.074219 L 274.925781 107.371094 C 267.625 100.074219 255.738281 100.074219 248.4375 107.371094 L 111.449219 244.359375 C 110.816406 244.996094 110.328125 245.75 109.984375 246.558594 L 87.9375 304.003906 C 86.988281 306.324219 87.574219 308.933594 89.304688 310.691406 C 90.503906 311.890625 92.113281 312.5 93.75 312.5 C 94.507812 312.5 95.238281 312.378906 95.996094 312.058594 L 153.441406 290.015625 C 154.246094 289.671875 155.003906 289.183594 155.640625 288.550781 L 292.625 151.5625 C 299.925781 144.261719 299.925781 132.371094 292.625 125.074219 " fill-opacity="1" fill-rule="nonzero"/><path fill="#ffc107" d="M 287.5 62.5 L 187.5 62.5 L 187.5 75 L 287.5 75 L 287.5 62.5 " fill-opacity="1" fill-rule="nonzero"/><path fill="#ffc107" d="M 200 37.5 L 187.5 37.5 L 187.5 50 L 200 50 L 200 37.5 " fill-opacity="1" fill-rule="nonzero"/><path fill="#ffc107" d="M 287.5 37.5 L 212.5 37.5 L 212.5 50 L 287.5 50 L 287.5 37.5 " fill-opacity="1" fill-rule="nonzero"/></svg>