<svg xmlns="http://www.w3.org/2000/svg" xmlns:xlink="http://www.w3.org/1999/xlink" width="500" zoomAndPan="magnify" viewBox="0 0 375 374.999991" height="500" preserveAspectRatio="xMidYMid meet" version="1.0"><defs><clipPath id="fb55bf76b6"><path d="M 0 6.816406 L 375 6.816406 L 375 375 L 0 375 Z M 0 6.816406 " clip-rule="nonzero"/></clipPath></defs><g clip-path="url(#fb55bf76b6)"><path fill="#42a5f5" d="M 182.386719 83.726562 C 162.21875 78.347656 156.644531 61.066406 163.769531 42.78125 C 166.9375 34.652344 179.332031 10.382812 187.292969 6.863281 C 193.539062 7.722656 207.265625 33.480469 210.089844 39.570312 C 218.847656 58.464844 214.347656 78.554688 192.492188 83.726562 L 192.492188 95.640625 C 197.75 95.867188 203.566406 94.308594 204.199219 101.015625 C 204.773438 107.058594 204.304688 113.566406 204.304688 119.652344 L 204.289062 156.828125 L 252.433594 156.816406 C 280.035156 156.816406 300.023438 155.8125 300.015625 190.183594 L 299.996094 203.464844 C 328.582031 203.304688 338.164062 209.929688 338.148438 239.289062 L 338.136719 333.265625 L 354.449219 333.257812 C 361.265625 333.246094 374.613281 331.699219 374.847656 341.859375 C 375.011719 348.996094 369.523438 357.21875 364.691406 362.054688 C 351.726562 375.03125 338.082031 374.242188 321.179688 374.234375 L 188.660156 374.222656 L 53.195312 374.234375 C 36.425781 374.238281 22.941406 374.566406 9.988281 361.804688 C 5.605469 357.488281 -0.078125 350.035156 0.00390625 343.570312 C 0.15625 331.410156 12.277344 333.210938 20.566406 333.25 C 26.058594 333.273438 31.558594 333.140625 37.042969 333.265625 L 37.027344 239.472656 C 37.007812 208.488281 46.03125 203.386719 75.613281 203.464844 L 75.605469 199.289062 C 75.511719 157.367188 86.867188 156.824219 125.371094 156.820312 L 170.585938 156.828125 L 170.566406 119.644531 C 170.566406 113.621094 170.140625 107.234375 170.660156 101.257812 C 171.304688 93.867188 176.414062 95.539062 182.386719 95.640625 Z M 187.292969 21.511719 C 180.820312 30.300781 168.988281 48.496094 170.785156 59.554688 C 172.175781 68.125 180.136719 74.269531 188.660156 74.03125 C 197.96875 72.695312 206.105469 64.894531 204.503906 54.878906 C 203.167969 46.5 193.421875 27.585938 187.292969 21.511719 Z M 180.449219 105.710938 L 180.449219 117.558594 C 183.332031 116 186.148438 114.4375 188.660156 112.308594 C 190.644531 111.382812 192.554688 110.445312 194.410156 109.289062 L 194.410156 105.710938 C 189.765625 105.699219 185.09375 105.589844 180.449219 105.710938 Z M 194.410156 121.511719 C 189.550781 123.84375 185.015625 126.785156 180.449219 129.636719 C 180.449219 131.425781 179.980469 141.746094 180.449219 142.515625 C 185.421875 140.570312 189.882812 137.359375 194.410156 134.5625 C 194.414062 133.15625 194.816406 122.054688 194.410156 121.511719 Z M 194.410156 146.859375 C 191.761719 148.121094 180.84375 153.941406 179.976562 156.363281 C 180.300781 156.804688 180.109375 156.691406 180.449219 156.828125 C 185.089844 156.941406 189.769531 156.921875 194.410156 156.828125 C 194.402344 155.578125 194.703125 147.171875 194.410156 146.859375 Z M 265.933594 167.144531 L 117.941406 167.136719 C 96.113281 167.132812 85.808594 166.125 85.84375 191.816406 L 85.855469 203.464844 L 289.769531 203.464844 L 289.785156 191.460938 C 289.789062 173.414062 285.191406 166.285156 265.933594 167.144531 Z M 61.527344 213.640625 C 46.507812 216.507812 47.261719 227.027344 47.261719 239.65625 L 47.277344 260.707031 C 61.1875 267.753906 83.183594 271.210938 93.207031 256.238281 C 93.242188 251.152344 95.882812 241.519531 101.660156 248.171875 C 103.53125 250.324219 102.578125 253.683594 103.402344 256.246094 C 107.53125 269.089844 143.972656 271.609375 152.625 256.238281 C 152.683594 251.152344 155.242188 241.554688 161.082031 248.28125 C 162.859375 250.328125 162.277344 253.71875 162.675781 256.238281 C 170.792969 269.757812 194.800781 269.1875 206.648438 261.992188 C 215.753906 256.464844 210.335938 250.414062 214.527344 247.566406 C 221.601562 242.765625 222.097656 252.183594 222.207031 256.238281 C 230.542969 269.539062 254.816406 269.402344 267.144531 261.617188 L 267.492188 261.394531 C 275.308594 255.453125 270.929688 250.484375 274.300781 247.851562 C 276.421875 246.191406 279.792969 246.507812 281.378906 248.738281 C 284.957031 253.769531 276.425781 261.820312 299.128906 266.535156 C 310.371094 268.871094 317.984375 265.515625 327.867188 260.707031 L 327.886719 241.222656 C 327.886719 221.238281 326.976562 213.601562 304.667969 213.617188 Z M 98.046875 267.09375 C 80.480469 278.636719 66.097656 280.128906 47.277344 272.0625 L 47.277344 333.265625 L 327.867188 333.265625 L 327.875 292.21875 C 327.878906 285.542969 328.175781 278.722656 327.867188 272.0625 C 311.40625 279.167969 290.875 280.132812 277.113281 267.09375 C 261.65625 282.046875 234.066406 279.695312 217.703125 267.09375 C 197.410156 281.234375 177.25 280.460938 157.300781 267.09375 C 137.808594 282.707031 117.5625 279.109375 98.046875 267.09375 Z M 219.714844 343.472656 L 10.371094 343.472656 C 17.644531 363.644531 35.109375 364.15625 52.535156 364.152344 L 155.800781 364.140625 L 320.503906 364.148438 C 340.253906 364.152344 355.4375 365.492188 364.648438 343.472656 Z M 219.714844 343.472656 " fill-opacity="1" fill-rule="nonzero"/></g></svg>