<svg xmlns="http://www.w3.org/2000/svg" xmlns:xlink="http://www.w3.org/1999/xlink" width="500" zoomAndPan="magnify" viewBox="0 0 375 374.999991" height="500" preserveAspectRatio="xMidYMid meet" version="1.0"><defs><clipPath id="8407e80ab1"><path d="M 0 25.546875 L 375 25.546875 L 375 349.546875 L 0 349.546875 Z M 0 25.546875 " clip-rule="nonzero"/></clipPath></defs><path fill="#42a5f5" d="M 187.695312 280.984375 C 139.644531 280.984375 100.550781 241.890625 100.550781 193.839844 C 100.550781 145.789062 139.644531 106.699219 187.695312 106.699219 C 235.746094 106.699219 274.835938 145.789062 274.835938 193.839844 C 274.835938 241.890625 235.746094 280.984375 187.695312 280.984375 Z M 187.695312 94.25 C 132.78125 94.25 88.101562 138.925781 88.101562 193.839844 C 88.101562 248.753906 132.78125 293.433594 187.695312 293.433594 C 242.609375 293.433594 287.285156 248.753906 287.285156 193.839844 C 287.285156 138.925781 242.609375 94.25 187.695312 94.25 " fill-opacity="1" fill-rule="nonzero"/><g clip-path="url(#8407e80ab1)"><path fill="#42a5f5" d="M 361.980469 200.066406 L 312.183594 200.066406 L 312.183594 81.800781 C 312.183594 57.773438 331.730469 38.230469 355.753906 38.230469 L 361.980469 38.230469 Z M 361.980469 324.554688 C 361.980469 331.417969 356.394531 337.003906 349.53125 337.003906 C 342.667969 337.003906 337.082031 331.417969 337.082031 324.554688 L 337.082031 212.515625 L 361.980469 212.515625 Z M 280.503906 294.535156 C 255.15625 317.910156 222.195312 330.78125 187.695312 330.78125 C 139.109375 330.78125 93.949219 304.796875 69.429688 262.878906 L 69.429688 206.289062 C 69.429688 202.851562 66.640625 200.066406 63.203125 200.066406 L 63.203125 137.53125 C 69.691406 136.625 75.621094 133.582031 80.203125 128.71875 C 85.738281 122.847656 88.523438 115.179688 88.050781 107.101562 L 87.621094 100.375 C 113.476562 72.71875 149.796875 56.902344 187.695312 56.902344 C 232.332031 56.902344 274.066406 78.640625 299.734375 115.125 L 299.734375 206.289062 C 299.734375 209.726562 302.523438 212.515625 305.960938 212.515625 L 323.363281 212.515625 C 319.082031 243.929688 304.023438 272.84375 280.503906 294.535156 Z M 59.109375 125.371094 L 29.953125 125.371094 C 25.347656 125.371094 21.074219 123.527344 17.917969 120.179688 C 14.769531 116.835938 13.179688 112.480469 13.4375 107.933594 C 20.414062 110.800781 30.683594 112.921875 44.53125 112.921875 C 55.90625 112.921875 67.328125 111.332031 75.625 107.960938 C 75.867188 112.519531 74.28125 116.855469 71.148438 120.179688 C 67.988281 123.527344 63.714844 125.371094 59.109375 125.371094 Z M 38.308594 200.066406 L 38.308594 137.820312 L 50.757812 137.820312 L 50.757812 200.066406 Z M 56.980469 324.554688 C 56.980469 331.417969 51.398438 337.003906 44.53125 337.003906 C 37.664062 337.003906 32.082031 331.417969 32.082031 324.554688 L 32.082031 212.515625 L 56.980469 212.515625 Z M 368.203125 25.78125 L 355.753906 25.78125 C 324.867188 25.78125 299.734375 50.914062 299.734375 81.800781 L 299.734375 95.03125 C 271.546875 63.078125 230.863281 44.453125 187.695312 44.453125 C 150.144531 44.453125 114.019531 58.691406 86.570312 83.902344 L 83.242188 31.609375 C 83.023438 28.179688 80.074219 25.5625 76.636719 25.792969 C 73.203125 26.011719 70.601562 28.96875 70.820312 32.398438 L 74.773438 94.480469 C 71.90625 96.5 63.753906 99.527344 50.757812 100.292969 L 50.757812 32.003906 C 50.757812 28.566406 47.96875 25.78125 44.53125 25.78125 C 41.09375 25.78125 38.308594 28.566406 38.308594 32.003906 L 38.308594 100.292969 C 26.050781 99.558594 17.496094 96.765625 14.289062 94.460938 L 18.246094 32.398438 C 18.460938 28.96875 15.859375 26.011719 12.425781 25.792969 C 8.972656 25.558594 6.039062 28.179688 5.820312 31.609375 L 1.011719 107.128906 C 0.539062 115.179688 3.324219 122.847656 8.859375 128.71875 C 13.441406 133.582031 19.371094 136.625 25.859375 137.53125 L 25.859375 200.066406 C 22.421875 200.066406 19.632812 202.851562 19.632812 206.289062 L 19.632812 324.554688 C 19.632812 338.285156 30.804688 349.453125 44.53125 349.453125 C 58.261719 349.453125 69.429688 338.285156 69.429688 324.554688 L 69.429688 285.089844 C 97.496094 321.375 141.152344 343.230469 187.695312 343.230469 C 225.332031 343.230469 261.292969 329.1875 288.941406 303.6875 C 304.347656 289.480469 316.425781 272.425781 324.632812 253.644531 L 324.632812 324.554688 C 324.632812 338.285156 335.800781 349.453125 349.53125 349.453125 C 363.257812 349.453125 374.429688 338.285156 374.429688 324.554688 L 374.429688 32.003906 C 374.429688 28.566406 371.640625 25.78125 368.203125 25.78125 " fill-opacity="1" fill-rule="nonzero"/></g></svg>