<svg xmlns="http://www.w3.org/2000/svg" xmlns:xlink="http://www.w3.org/1999/xlink" width="1080" zoomAndPan="magnify" viewBox="0 0 810 809.999993" height="1080" preserveAspectRatio="xMidYMid meet" version="1.0"><path fill="#389fff" d="M 771.90625 323.464844 C 759.40625 259.574219 651.125 111.714844 561.109375 62.386719 C 495.75 22.308594 419.410156 3.703125 345.316406 15.921875 C 225.621094 31.589844 68.746094 207.886719 45.019531 349.148438 C 26.671875 452.730469 80.679688 515.855469 187.078125 520.046875 C 226.539062 529.09375 290.699219 531.210938 340.117188 528.25 C 341.34375 589.652344 331.714844 640.191406 310.441406 683.535156 C 296.34375 712.261719 282.660156 745.082031 298.84375 771.046875 C 313.660156 794.84375 350.128906 805.921875 413.601562 805.921875 C 545.578125 807.738281 555.324219 687.777344 510.746094 593.480469 C 483.945312 535.285156 468.101562 470.585938 462.148438 443.496094 C 474.125 444.128906 494.496094 452.804688 498.105469 435.175781 C 499.386719 427.734375 494.40625 420.652344 486.949219 419.367188 C 362.515625 397.894531 294.753906 450.863281 291.921875 453.136719 C 278.085938 464.332031 294.996094 485.546875 309.011719 474.515625 C 309.238281 474.339844 318.046875 467.585938 334.875 460.25 C 336.664062 474.335938 337.953125 487.867188 338.84375 500.964844 C 278.855469 503.386719 167.464844 503.515625 145.851562 470.683594 C 145.199219 465.589844 153.214844 452.453125 187.492188 435.46875 C 203.542969 427.144531 191.5 403.234375 175.332031 410.9375 C 133.902344 431.964844 114.171875 452.691406 119.398438 476.90625 C 79.605469 459.335938 65.027344 412.804688 69.457031 374.34375 C 190.328125 429.261719 266.066406 246.699219 142.960938 198.90625 C 243.570312 60.414062 358.742188 3.363281 501.289062 62.332031 C 450.898438 149.355469 567.59375 234.296875 634.167969 157.398438 C 694.167969 216.769531 742.535156 308.40625 745.125 329.050781 C 749.46875 349.820312 743.496094 366.160156 735.75 377.855469 C 709.5625 337.953125 593.777344 331.449219 489.75 339.078125 C 482.445312 232.300781 329.28125 234.90625 325.6875 342.027344 C 325.6875 348.917969 326.570312 355.597656 328.1875 362.050781 C 290.179688 370.164062 254.585938 379.796875 224.746094 390.316406 C 207.980469 396.570312 216.6875 421.773438 233.859375 416.132812 C 266.53125 404.601562 306.324219 394.03125 348.9375 385.585938 C 462.808594 358.742188 699.226562 352.558594 713.792969 394.878906 C 704.78125 425.890625 624.445312 456.71875 506.003906 480.917969 C 498.574219 482.347656 493.722656 489.519531 495.140625 496.9375 C 496.542969 504.40625 503.921875 509.230469 511.160156 507.800781 C 623.25 486.253906 705.054688 453.910156 731.292969 420.960938 C 752.003906 407.042969 782.101562 372.234375 771.90625 323.464844 Z M 433.792969 441.871094 C 438.296875 463.796875 454.800781 537.410156 485.890625 604.921875 C 505.789062 648.136719 518.617188 707.480469 494.9375 744.441406 C 480.441406 767.078125 453.074219 778.554688 413.601562 778.554688 C 349.273438 778.554688 328.308594 766.59375 322.066406 756.574219 C 313.714844 743.171875 323.347656 719.34375 335 695.585938 C 366.738281 630.941406 375.070312 553.054688 361.332031 450.925781 C 380.484375 445.492188 404.734375 441.488281 433.792969 441.871094 Z M 178.980469 288.640625 C 178.980469 326.230469 148.390625 356.816406 110.804688 356.816406 C 97.597656 356.816406 84.691406 352.921875 73.707031 345.757812 C 74.039062 344.191406 74.335938 342.644531 74.703125 341.058594 C 80.535156 316.246094 89.707031 292.414062 100.835938 269.410156 C 108.773438 253.394531 117.449219 237.671875 127.136719 222.59375 C 157.203125 229.980469 178.980469 257.03125 178.980469 288.640625 Z M 571.332031 159.785156 C 528.445312 161.054688 500.9375 108.523438 526.265625 74.171875 C 558.617188 90.964844 586.65625 112.054688 614.675781 138.066406 C 604.613281 151.457031 588.542969 159.785156 571.332031 159.785156 Z M 418.371094 346.421875 C 396.925781 349.292969 375.828125 352.792969 355.226562 356.644531 C 344.84375 322.613281 372.324219 286.53125 407.789062 287.105469 C 437.773438 287.105469 462.152344 311.433594 462.476562 341.441406 C 446.945312 342.894531 432.203125 344.496094 418.371094 346.421875 Z M 418.371094 346.421875 " fill-opacity="1" fill-rule="nonzero"/><path fill="#389fff" d="M 395.28125 148.519531 C 392.664062 66.464844 273.699219 66.46875 271.101562 148.523438 C 273.707031 230.574219 392.683594 230.539062 395.28125 148.519531 Z M 298.46875 148.519531 C 299.664062 102.71875 366.71875 102.742188 367.914062 148.519531 C 366.714844 194.292969 299.652344 194.296875 298.46875 148.519531 Z M 298.46875 148.519531 " fill-opacity="1" fill-rule="nonzero"/><path fill="#389fff" d="M 664.738281 273.421875 C 662.929688 216.328125 580.136719 216.339844 578.335938 273.421875 C 580.144531 330.515625 662.9375 330.5 664.738281 273.421875 Z M 605.703125 273.421875 C 606.082031 252.613281 636.996094 252.617188 637.371094 273.421875 C 636.992188 294.226562 606.078125 294.226562 605.703125 273.421875 Z M 605.703125 273.421875 " fill-opacity="1" fill-rule="nonzero"/></svg>