<svg xmlns="http://www.w3.org/2000/svg" xmlns:xlink="http://www.w3.org/1999/xlink" width="500" zoomAndPan="magnify" viewBox="0 0 375 374.999991" height="500" preserveAspectRatio="xMidYMid meet" version="1.0"><defs><clipPath id="8ebbb12c9a"><path d="M 52.96875 169 L 258 169 L 258 267 L 52.96875 267 Z M 52.96875 169 " clip-rule="nonzero"/></clipPath><clipPath id="ba9ebf5594"><path d="M 52.96875 50 L 258 50 L 258 368 L 52.96875 368 Z M 52.96875 50 " clip-rule="nonzero"/></clipPath></defs><path fill="#42a5f5" d="M 213.207031 64.894531 L 97.046875 64.894531 C 89.410156 64.894531 83.191406 58.683594 83.191406 51.039062 L 83.191406 14.34375 C 83.191406 6.699219 89.410156 0.492188 97.046875 0.492188 L 213.207031 0.492188 C 220.84375 0.492188 227.0625 6.699219 227.0625 14.34375 L 227.0625 51.039062 C 227.0625 58.683594 220.847656 64.894531 213.207031 64.894531 Z M 97.253906 50.828125 L 212.996094 50.828125 L 212.996094 14.554688 L 97.253906 14.554688 Z M 97.253906 50.828125 " fill-opacity="1" fill-rule="nonzero"/><path fill="#42a5f5" d="M 205.886719 96.660156 L 104.363281 96.660156 C 100.484375 96.660156 97.335938 93.511719 97.335938 89.625 L 97.335938 57.859375 C 97.335938 53.976562 100.480469 50.828125 104.363281 50.828125 L 205.886719 50.828125 C 209.769531 50.828125 212.925781 53.976562 212.925781 57.859375 L 212.925781 89.625 C 212.925781 93.515625 209.773438 96.660156 205.886719 96.660156 Z M 111.398438 82.597656 L 198.855469 82.597656 L 198.855469 64.894531 L 111.398438 64.894531 Z M 111.398438 82.597656 " fill-opacity="1" fill-rule="nonzero"/><g clip-path="url(#8ebbb12c9a)"><path fill="#42a5f5" d="M 250.328125 266.28125 L 59.925781 266.28125 C 56.042969 266.28125 52.890625 263.128906 52.890625 259.246094 L 52.890625 176.867188 C 52.890625 172.980469 56.039062 169.832031 59.925781 169.832031 L 250.324219 169.832031 C 254.203125 169.832031 257.355469 172.980469 257.355469 176.867188 L 257.355469 259.242188 C 257.355469 263.128906 254.210938 266.28125 250.328125 266.28125 Z M 66.960938 252.210938 L 243.292969 252.210938 L 243.292969 183.898438 L 66.960938 183.898438 Z M 66.960938 252.210938 " fill-opacity="1" fill-rule="nonzero"/></g><path fill="#42a5f5" d="M 171.835938 225.078125 L 138.421875 225.078125 C 134.539062 225.078125 131.394531 221.925781 131.394531 218.042969 C 131.394531 214.160156 134.535156 211.011719 138.421875 211.011719 L 171.835938 211.011719 C 175.710938 211.011719 178.867188 214.15625 178.867188 218.042969 C 178.867188 221.929688 175.710938 225.078125 171.835938 225.078125 Z M 171.835938 225.078125 " fill-opacity="1" fill-rule="nonzero"/><path fill="#42a5f5" d="M 155.125 241.804688 C 151.242188 241.804688 148.085938 238.65625 148.085938 234.773438 L 148.085938 201.335938 C 148.085938 197.453125 151.238281 194.300781 155.125 194.300781 C 159.003906 194.300781 162.164062 197.449219 162.164062 201.335938 L 162.164062 234.773438 C 162.164062 238.65625 159.003906 241.804688 155.125 241.804688 Z M 155.125 241.804688 " fill-opacity="1" fill-rule="nonzero"/><g clip-path="url(#ba9ebf5594)"><path fill="#42a5f5" d="M 197.839844 367.609375 C 197.832031 367.609375 197.828125 367.609375 197.820312 367.609375 L 85.742188 367.609375 C 67.628906 367.609375 52.894531 352.867188 52.894531 334.753906 L 52.894531 156.949219 C 52.894531 139.339844 67.886719 122.921875 82.695312 115.808594 L 97.335938 108.765625 L 97.335938 57.859375 C 97.335938 53.976562 100.480469 50.828125 104.363281 50.828125 L 205.886719 50.828125 C 209.769531 50.828125 212.925781 53.976562 212.925781 57.859375 L 212.925781 108.761719 L 227.558594 115.804688 C 242.367188 122.921875 257.355469 139.335938 257.355469 156.945312 L 257.355469 281.828125 C 257.355469 284.867188 255.394531 287.570312 252.503906 288.511719 L 209.984375 302.382812 C 194.402344 307.484375 185.855469 324.324219 190.9375 339.917969 C 192.867188 345.859375 196.554688 350.941406 201.628906 354.648438 C 203.574219 355.898438 204.863281 358.085938 204.863281 360.570312 C 204.867188 364.453125 201.726562 367.609375 197.839844 367.609375 Z M 111.398438 64.894531 L 111.398438 112.234375 C 111.398438 112.347656 111.421875 112.460938 111.429688 112.578125 C 111.664062 115.480469 110.085938 118.234375 107.46875 119.496094 L 88.789062 128.480469 C 78.285156 133.527344 66.960938 145.847656 66.960938 156.949219 L 66.960938 334.753906 C 66.960938 345.113281 75.382812 353.539062 85.742188 353.539062 L 181.820312 353.539062 C 180.058594 350.652344 178.625 347.550781 177.566406 344.269531 C 170.085938 321.328125 182.664062 296.53125 205.613281 289.007812 L 243.292969 276.722656 L 243.292969 156.949219 C 243.292969 145.847656 231.957031 133.527344 221.464844 128.480469 L 202.789062 119.496094 C 200.15625 118.234375 198.585938 115.472656 198.828125 112.578125 C 198.835938 112.453125 198.851562 112.347656 198.851562 112.226562 L 198.851562 64.894531 Z M 111.398438 64.894531 " fill-opacity="1" fill-rule="nonzero"/></g><path fill="#42a5f5" d="M 219.320312 374.507812 C 200.246094 374.507812 183.46875 362.359375 177.566406 344.285156 C 170.082031 321.328125 182.664062 296.535156 205.605469 289.011719 L 275.402344 266.25 C 279.78125 264.816406 284.339844 264.085938 288.945312 264.085938 C 307.992188 264.085938 324.757812 276.234375 330.675781 294.304688 C 330.683594 294.335938 330.695312 294.371094 330.703125 294.398438 C 337.246094 315.4375 327.34375 338.300781 307.679688 347.589844 C 307.398438 347.722656 307.097656 347.835938 306.808594 347.933594 C 286.40625 354.433594 267.292969 360.53125 247.3125 366.910156 L 225.105469 373.996094 C 224.640625 374.140625 224.15625 374.242188 223.671875 374.296875 C 222.226562 374.4375 220.765625 374.507812 219.320312 374.507812 Z M 288.949219 278.15625 C 285.832031 278.15625 282.75 278.648438 279.773438 279.628906 L 209.984375 302.386719 C 194.402344 307.488281 185.855469 324.328125 190.9375 339.921875 C 194.941406 352.203125 206.347656 360.449219 219.3125 360.449219 C 220.0625 360.449219 220.816406 360.425781 221.5625 360.359375 L 243.03125 353.511719 C 262.851562 347.183594 281.839844 341.128906 302.058594 334.679688 C 315.148438 328.257812 321.683594 312.851562 317.28125 298.632812 C 313.257812 286.382812 301.875 278.15625 288.949219 278.15625 Z M 288.949219 278.15625 " fill-opacity="1" fill-rule="nonzero"/><path fill="#42a5f5" d="M 265.359375 360.8125 C 262.40625 360.8125 259.652344 358.921875 258.675781 355.953125 L 236.019531 286.496094 C 234.816406 282.808594 236.832031 278.835938 240.527344 277.632812 L 275.40625 266.253906 C 286.492188 262.632812 298.363281 263.550781 308.832031 268.867188 C 319.289062 274.175781 327.046875 283.214844 330.679688 294.308594 C 337.613281 315.59375 327.480469 338.601562 307.101562 347.835938 C 303.570312 349.441406 299.394531 347.875 297.792969 344.335938 C 296.1875 340.800781 297.753906 336.628906 301.300781 335.027344 C 315.136719 328.753906 322.015625 313.121094 317.304688 298.671875 C 314.839844 291.160156 309.570312 285.027344 302.453125 281.414062 C 295.347656 277.804688 287.292969 277.171875 279.773438 279.632812 L 251.574219 288.828125 L 272.050781 351.601562 C 273.25 355.296875 271.238281 359.261719 267.542969 360.46875 C 266.816406 360.695312 266.082031 360.8125 265.359375 360.8125 Z M 265.359375 360.8125 " fill-opacity="1" fill-rule="nonzero"/></svg>