<svg xmlns="http://www.w3.org/2000/svg" xmlns:xlink="http://www.w3.org/1999/xlink" width="500" zoomAndPan="magnify" viewBox="0 0 375 374.999991" height="500" preserveAspectRatio="xMidYMid meet" version="1.0"><defs><clipPath id="a4858fb425"><path d="M 280 141 L 374.855469 141 L 374.855469 236 L 280 236 Z M 280 141 " clip-rule="nonzero"/></clipPath></defs><path fill="#389fff" d="M 246.503906 244.078125 C 242.089844 239.667969 240.980469 233.035156 243.738281 227.578125 C 254.132812 207.035156 258.664062 183.847656 256.839844 160.542969 C 252.828125 94.875 192.828125 40.753906 127.058594 43.8125 C 18.566406 46.023438 -36.234375 178.65625 38.160156 257.460938 C 75.15625 297.910156 139.078125 308.984375 187.53125 283.789062 C 193 281.035156 199.625 282.144531 204.035156 286.554688 L 248.070312 330.589844 C 251.035156 333.671875 256.382812 333.683594 259.351562 330.589844 C 259.351562 330.589844 290.539062 299.394531 290.539062 299.394531 C 293.65625 296.277344 293.65625 291.222656 290.539062 288.113281 Z M 118.125 280.644531 C 29.660156 271.847656 -11.746094 162.292969 47.871094 96.695312 C 69.136719 72.929688 98.847656 59.6875 130.609375 59.71875 C 185.550781 58.644531 235.421875 103.480469 240.589844 158.179688 C 240.597656 158.175781 118.125 280.644531 118.125 280.644531 Z M 253.707031 313.664062 L 215.3125 275.273438 C 206.003906 265.949219 191.910156 263.6875 180.328125 269.554688 C 167.90625 275.84375 154.363281 279.667969 140.445312 280.894531 L 240.847656 180.492188 C 239.617188 194.417969 235.789062 207.957031 229.5 220.382812 C 223.625 232.011719 225.921875 246.066406 235.222656 255.363281 L 273.617188 293.753906 Z M 253.707031 313.664062 " fill-opacity="1" fill-rule="nonzero"/><g clip-path="url(#a4858fb425)"><path fill="#389fff" d="M 327.84375 141.261719 C 301.957031 141.261719 280.898438 162.382812 280.898438 188.347656 C 283.359375 250.765625 372.335938 250.753906 374.789062 188.347656 C 374.789062 162.382812 353.730469 141.261719 327.84375 141.261719 Z M 327.84375 219.335938 C 286.519531 218.03125 286.523438 158.648438 327.84375 157.355469 C 369.167969 158.652344 369.15625 218.039062 327.84375 219.335938 Z M 327.84375 219.335938 " fill-opacity="1" fill-rule="nonzero"/></g></svg>