<svg xmlns="http://www.w3.org/2000/svg" xmlns:xlink="http://www.w3.org/1999/xlink" width="500" zoomAndPan="magnify" viewBox="0 0 375 374.999991" height="500" preserveAspectRatio="xMidYMid meet" version="1.0"><defs><clipPath id="272bbcd846"><path d="M 60 97 L 314 97 L 314 356.25 L 60 356.25 Z M 60 97 " clip-rule="nonzero"/></clipPath><clipPath id="585039f9f4"><path d="M 156 19 L 373.5 19 L 373.5 290 L 156 290 Z M 156 19 " clip-rule="nonzero"/></clipPath></defs><g clip-path="url(#272bbcd846)"><path fill="#42a5f5" d="M 144.925781 356.179688 C 144.832031 356.179688 144.761719 356.179688 144.667969 356.179688 C 141.988281 356.0625 139.710938 354.183594 139.078125 351.574219 C 126.394531 298.535156 99.871094 249.582031 62.382812 209.976562 C 60.101562 207.554688 60.195312 203.75 62.617188 201.472656 C 65.035156 199.195312 68.839844 199.3125 71.121094 201.707031 C 105.578125 238.117188 131.136719 282.136719 145.679688 329.964844 C 178.542969 241.523438 232.757812 162.03125 303.300781 99.125 C 305.742188 96.917969 309.570312 97.128906 311.777344 99.617188 C 313.988281 102.085938 313.777344 105.890625 311.285156 108.097656 C 237.503906 173.917969 181.949219 258.273438 150.632812 352.070312 C 149.8125 354.535156 147.511719 356.179688 144.925781 356.179688 " fill-opacity="1" fill-rule="nonzero"/></g><path fill="#42a5f5" d="M 128.882812 307.179688 C 128.296875 307.179688 127.683594 307.085938 127.097656 306.898438 C 123.925781 305.933594 122.140625 302.550781 123.128906 299.378906 C 125.101562 292.96875 126.652344 287.777344 127.308594 285.566406 C 157.730469 176.949219 55.59375 134.664062 17.492188 122.921875 C 13.214844 139.808594 5.066406 205.371094 30.199219 249.203125 C 44.929688 274.902344 68.628906 288.644531 100.695312 290.03125 C 104.007812 290.171875 106.589844 292.992188 106.425781 296.304688 C 106.285156 299.613281 103.394531 302.199219 100.152344 302.058594 C 7.742188 298.042969 -0.222656 204.410156 0.648438 164.332031 C 0.929688 151.484375 2.738281 109.625 14.132812 109.625 C 14.859375 109.625 15.589844 109.765625 16.269531 110.023438 L 17.136719 110.257812 C 93.953125 132.480469 166.253906 191.066406 138.867188 288.878906 C 138.183594 291.207031 136.609375 296.46875 134.613281 302.925781 C 133.816406 305.511719 131.441406 307.179688 128.882812 307.179688 " fill-opacity="1" fill-rule="nonzero"/><g clip-path="url(#585039f9f4)"><path fill="#42a5f5" d="M 172.082031 289.230469 C 170.109375 289.230469 168.183594 288.292969 167.03125 286.507812 C 165.222656 283.734375 165.996094 280 168.792969 278.191406 C 179.996094 270.910156 196.511719 266.1875 215.632812 260.761719 C 277.152344 243.285156 361.414062 219.324219 361.414062 85.570312 C 361.414062 54.398438 356.199219 39.269531 353.167969 33.117188 C 347.554688 35.605469 340.414062 38.425781 331.910156 41.785156 C 274.96875 64.289062 168.980469 106.148438 168.980469 187.800781 C 168.980469 212.699219 170.929688 224.351562 173.089844 235.039062 C 173.75 238.304688 171.660156 241.453125 168.394531 242.132812 C 165.128906 242.792969 161.980469 240.675781 161.300781 237.4375 C 159.019531 226.113281 156.953125 213.828125 156.953125 187.800781 C 156.953125 97.972656 267.898438 54.164062 327.46875 30.601562 C 338.019531 26.445312 347.109375 22.851562 352.699219 20.054688 C 355.023438 18.90625 357.820312 19.351562 359.652344 21.183594 C 361.0625 22.59375 373.441406 36.382812 373.441406 85.570312 C 373.441406 228.414062 280.441406 254.84375 218.921875 272.320312 C 200.738281 277.488281 185.046875 281.972656 175.347656 288.269531 C 174.335938 288.925781 173.210938 289.230469 172.082031 289.230469 " fill-opacity="1" fill-rule="nonzero"/></g></svg>