<svg xmlns="http://www.w3.org/2000/svg" xmlns:xlink="http://www.w3.org/1999/xlink" width="500" zoomAndPan="magnify" viewBox="0 0 375 374.999991" height="500" preserveAspectRatio="xMidYMid meet" version="1.0"><defs><clipPath id="a08b5092c8"><path d="M 30.078125 0 L 343 0 L 343 375 L 30.078125 375 Z M 30.078125 0 " clip-rule="nonzero"/></clipPath></defs><g clip-path="url(#a08b5092c8)"><path fill="#42a5f5" d="M 323.570312 85.777344 C 319.917969 85.296875 316.320312 85.796875 312.996094 87.046875 L 276.246094 50.296875 C 274.542969 48.59375 272.527344 47.328125 270.367188 46.441406 C 273.566406 38.46875 273.929688 28.894531 271.246094 19.070312 C 267.417969 5.074219 260.554688 1.488281 255.472656 0.945312 C 248.496094 0.210938 241.597656 4.992188 237.035156 13.757812 C 224.878906 37.136719 212.003906 48.203125 201.660156 57.09375 C 193.476562 64.128906 186.410156 70.203125 183.628906 79.734375 C 181.007812 88.71875 181.914062 95.917969 186.324219 101.128906 C 188.417969 103.597656 191.011719 105.207031 193.664062 106.277344 L 192.742188 107.195312 C 189.191406 110.75 187.234375 115.472656 187.234375 120.496094 C 187.234375 125.523438 189.191406 130.246094 192.742188 133.796875 L 228.085938 169.140625 L 219.425781 177.800781 C 216.804688 180.425781 213.5 182.203125 209.863281 182.9375 L 203.871094 184.152344 C 197.816406 185.378906 192.304688 188.339844 187.933594 192.710938 L 128.035156 252.613281 C 123.144531 257.5 116.273438 260.25 109.46875 260.113281 C 99.109375 259.949219 89.105469 264.015625 81.824219 271.292969 L 41.804688 311.3125 C 34.191406 318.925781 30 329.046875 30 339.816406 C 30 350.585938 34.191406 360.707031 41.804688 368.324219 C 41.929688 368.449219 42.058594 368.570312 42.195312 368.683594 C 42.316406 368.820312 42.425781 368.941406 42.496094 369.007812 C 46.746094 373.261719 52.335938 375.390625 57.925781 375.390625 C 63.511719 375.390625 69.101562 373.261719 73.351562 369.007812 L 218.890625 223.472656 C 221.453125 220.910156 224.675781 219.152344 228.210938 218.386719 L 234.953125 216.929688 C 240.855469 215.652344 246.230469 212.722656 250.496094 208.457031 L 335.738281 123.210938 C 342.945312 116.003906 344.578125 105.082031 339.710938 96.652344 C 336.242188 90.632812 330.359375 86.671875 323.570312 85.777344 Z M 243.089844 74.582031 L 283.050781 114.175781 L 273.675781 123.554688 L 233.714844 83.957031 Z M 224.84375 92.828125 L 264.804688 132.425781 L 255.429688 141.800781 L 215.46875 102.203125 Z M 302.722656 94.507812 L 291.917969 105.308594 L 251.957031 65.714844 L 258.511719 59.164062 C 259.730469 57.941406 261.339844 57.328125 262.945312 57.328125 C 264.546875 57.328125 266.15625 57.941406 267.378906 59.164062 Z M 195.667969 83.25 C 197.410156 77.289062 202.625 72.808594 209.835938 66.605469 C 220.410156 57.515625 234.890625 45.070312 248.164062 19.542969 C 250.519531 15.011719 253.191406 13.273438 254.140625 13.417969 C 254.824219 13.492188 257.210938 15.292969 259.144531 22.375 C 261.679688 31.652344 260.609375 40.292969 256.261719 46.167969 C 253.816406 47.050781 251.535156 48.402344 249.644531 50.296875 L 238.859375 61.082031 C 238.769531 61.160156 238.652344 61.191406 238.566406 61.277344 C 238.488281 61.359375 238.460938 61.46875 238.386719 61.554688 L 220.535156 79.402344 C 220.476562 79.457031 220.398438 79.476562 220.339844 79.535156 C 220.285156 79.589844 220.269531 79.664062 220.214844 79.722656 L 204.246094 95.695312 C 201.703125 95.652344 197.695312 95.148438 195.894531 93.023438 C 194.003906 90.789062 194.726562 86.472656 195.667969 83.25 Z M 201.609375 124.929688 C 199.167969 122.488281 199.167969 118.507812 201.609375 116.0625 L 206.601562 111.074219 L 246.5625 150.667969 L 236.953125 160.273438 Z M 326.871094 114.339844 L 241.625 199.589844 C 239.066406 202.148438 235.84375 203.90625 232.304688 204.671875 L 225.558594 206.128906 C 219.660156 207.410156 214.289062 210.339844 210.023438 214.605469 L 64.484375 360.140625 C 60.871094 363.765625 54.980469 363.765625 51.574219 360.363281 C 51.472656 360.230469 51.109375 359.78125 51 359.660156 C 50.699219 359.320312 50.363281 359.019531 50.003906 358.761719 C 45.183594 353.601562 42.539062 346.910156 42.539062 339.816406 C 42.539062 332.398438 45.429688 325.425781 50.671875 320.179688 L 90.695312 280.160156 C 95.582031 275.273438 102.304688 272.425781 109.25 272.65625 C 119.449219 272.734375 129.621094 268.761719 136.902344 261.480469 L 196.800781 201.578125 C 199.425781 198.957031 202.734375 197.179688 206.363281 196.441406 L 212.355469 195.226562 C 218.414062 194.003906 223.925781 191.042969 228.296875 186.667969 L 314.136719 100.832031 C 316.1875 98.78125 319.007812 97.828125 321.933594 98.210938 C 323.632812 98.4375 326.785156 99.34375 328.847656 102.917969 C 330.851562 106.386719 330.019531 111.191406 326.871094 114.339844 Z M 326.871094 114.339844 " fill-opacity="1" fill-rule="nonzero"/></g></svg>