<svg xmlns="http://www.w3.org/2000/svg" xmlns:xlink="http://www.w3.org/1999/xlink" width="500" zoomAndPan="magnify" viewBox="0 0 375 374.999991" height="500" preserveAspectRatio="xMidYMid meet" version="1.0"><path fill="#389fff" d="M 184.285156 12.835938 C 90.976562 12.835938 14.378906 90.503906 13.535156 185.976562 C 13.125 232.65625 30.511719 276.6875 62.496094 309.964844 C 94.441406 343.207031 137.132812 361.730469 182.703125 362.136719 C 183.210938 362.140625 183.707031 362.140625 184.207031 362.140625 C 277.519531 362.140625 354.113281 284.464844 354.957031 188.992188 C 355.808594 92.695312 279.921875 13.675781 185.789062 12.839844 C 185.28125 12.835938 184.789062 12.835938 184.285156 12.835938 Z M 184.207031 374.988281 C 183.667969 374.988281 183.132812 374.988281 182.59375 374.980469 C 133.535156 374.546875 87.597656 354.617188 53.230469 318.867188 C 18.910156 283.152344 0.246094 235.917969 0.6875 185.867188 C 1.128906 136.101562 20.4375 89.394531 55.042969 54.351562 C 89.667969 19.292969 135.566406 -0.0117188 184.285156 -0.0117188 C 184.824219 -0.0117188 185.355469 -0.0117188 185.90625 -0.0078125 C 287.117188 0.886719 368.714844 85.726562 367.804688 189.109375 C 367.367188 238.875 348.0625 285.582031 313.453125 320.625 C 278.828125 355.679688 232.925781 374.988281 184.207031 374.988281 " fill-opacity="1" fill-rule="nonzero"/><path fill="#389fff" d="M 254.746094 153.488281 C 243.628906 104.707031 221.929688 70.15625 190.238281 50.792969 C 146.210938 23.890625 97.703125 35.824219 97.214844 35.949219 L 94.042969 23.5 C 96.238281 22.941406 148.332031 10.132812 196.941406 39.828125 C 231.695312 61.066406 255.359375 98.347656 267.269531 150.632812 L 254.746094 153.488281 " fill-opacity="1" fill-rule="nonzero"/><path fill="#389fff" d="M 325.480469 186.203125 C 319.15625 127.308594 296.789062 80.457031 259 46.964844 C 230.773438 21.9375 203.996094 14.144531 203.722656 14.066406 L 207.203125 1.699219 C 208.390625 2.03125 236.625 10.152344 267.003906 36.894531 C 294.898438 61.4375 329.894531 107.035156 338.25 184.832031 L 325.480469 186.203125 " fill-opacity="1" fill-rule="nonzero"/><path fill="#389fff" d="M 73.410156 322.726562 L 60.867188 319.929688 C 79.949219 234.339844 121.785156 169.175781 153.527344 129.585938 C 187.957031 86.644531 217.523438 64.207031 218.769531 63.273438 L 226.488281 73.542969 L 222.628906 68.410156 L 226.492188 73.542969 C 226.195312 73.761719 196.734375 96.160156 163.28125 137.957031 C 132.496094 176.433594 91.910156 239.714844 73.410156 322.726562 " fill-opacity="1" fill-rule="nonzero"/><path fill="#389fff" d="M 17.953125 264.277344 C 10.058594 196.554688 34.328125 134.765625 88.136719 85.585938 C 128.476562 48.726562 170.539062 32.136719 172.308594 31.445312 L 176.96875 43.417969 L 174.636719 37.429688 L 176.96875 43.417969 C 176.554688 43.578125 135.074219 59.992188 96.507812 95.347656 C 45.363281 142.226562 23.226562 198.566406 30.707031 262.792969 L 17.953125 264.277344 " fill-opacity="1" fill-rule="nonzero"/><path fill="#389fff" d="M 360.550781 193.917969 C 351.242188 193.917969 281.855469 192.492188 254.082031 150.835938 L 264.773438 143.707031 C 290.035156 181.605469 360.589844 181.085938 361.292969 181.066406 L 361.484375 193.910156 C 361.335938 193.910156 361.019531 193.917969 360.550781 193.917969 " fill-opacity="1" fill-rule="nonzero"/><path fill="#389fff" d="M 152.25 338.75 L 139.480469 337.363281 C 146.78125 270.105469 178.480469 221.84375 203.789062 193.199219 C 231.226562 162.144531 256.703125 147.128906 257.777344 146.507812 L 264.246094 157.609375 C 264 157.75 239.1875 172.429688 213.097656 202.066406 C 189.15625 229.265625 159.167969 275.050781 152.25 338.75 " fill-opacity="1" fill-rule="nonzero"/><path fill="#389fff" d="M 325.527344 257.699219 C 259.789062 257.699219 193.410156 225.3125 190.261719 223.75 L 195.949219 212.234375 C 196.789062 212.648438 280.640625 253.527344 349.605469 243.136719 L 351.519531 255.835938 C 342.972656 257.128906 334.25 257.699219 325.527344 257.699219 " fill-opacity="1" fill-rule="nonzero"/><path fill="#389fff" d="M 279.820312 330.238281 C 253.863281 330.238281 227.144531 321.863281 201.347656 305.46875 C 175.847656 289.265625 160.316406 271.136719 159.667969 270.375 L 169.460938 262.054688 C 170.046875 262.742188 228.988281 330.753906 301.972656 315.046875 L 304.675781 327.609375 C 296.507812 329.367188 288.203125 330.238281 279.820312 330.238281 " fill-opacity="1" fill-rule="nonzero"/><path fill="#389fff" d="M 243.367188 364.382812 C 182.375 364.382812 154.460938 346.789062 146.039062 340.089844 C 112.195312 346.417969 66.695312 328.082031 64.710938 327.273438 L 69.566406 315.378906 C 70.027344 315.570312 116.277344 334.179688 146.320312 326.890625 L 149.921875 326.019531 L 152.484375 328.703125 C 152.667969 328.890625 175.871094 351.535156 243.367188 351.535156 L 243.367188 364.382812 " fill-opacity="1" fill-rule="nonzero"/></svg>