<svg xmlns="http://www.w3.org/2000/svg" xmlns:xlink="http://www.w3.org/1999/xlink" width="500" zoomAndPan="magnify" viewBox="0 0 375 374.999991" height="500" preserveAspectRatio="xMidYMid meet" version="1.0"><defs><clipPath id="c3f66c32d4"><path d="M 52.5 201 L 283 201 L 283 249 L 52.5 249 Z M 52.5 201 " clip-rule="nonzero"/></clipPath><clipPath id="af807923c9"><path d="M 202 0 L 322.5 0 L 322.5 149 L 202 149 Z M 202 0 " clip-rule="nonzero"/></clipPath></defs><path fill="#ff5252" d="M 78.402344 214.390625 C 75.988281 214.390625 73.574219 213.074219 72.476562 210.660156 C 67.644531 200.5625 67.207031 189.144531 71.160156 179.046875 C 74.453125 171.144531 81.476562 160.828125 97.71875 153.144531 C 91.355469 139.316406 90.914062 127.023438 95.742188 116.707031 C 101.890625 103.976562 114.839844 98.046875 122.523438 95.632812 C 118.355469 36.367188 181.355469 20.121094 182.011719 19.902344 C 183.988281 19.464844 186.183594 19.902344 187.71875 21.21875 C 189.257812 22.316406 190.355469 24.292969 190.355469 26.269531 L 190.355469 60.511719 C 211.425781 70.609375 242.160156 94.757812 234.695312 127.464844 C 241.9375 132.953125 256.644531 146.121094 258.183594 162.367188 C 258.839844 170.488281 256.425781 177.953125 251.160156 184.757812 C 259.71875 192.660156 264.769531 199.683594 266.085938 206.488281 C 266.964844 210 264.546875 213.511719 261.035156 214.171875 C 257.523438 215.046875 254.011719 212.855469 253.132812 209.121094 C 252.695312 206.488281 249.839844 200.5625 237.769531 190.683594 C 237.769531 190.464844 237.546875 190.464844 237.546875 190.242188 C 237.109375 190.023438 236.671875 189.585938 236.453125 189.144531 C 227.230469 178.390625 177.621094 168.292969 109.355469 163.464844 L 107.597656 163.242188 C 95.304688 168.074219 86.964844 175.097656 83.453125 183.878906 C 80.816406 190.683594 81.035156 198.144531 84.328125 204.953125 C 85.867188 208.242188 84.546875 212.195312 81.257812 213.730469 C 80.378906 214.171875 79.5 214.390625 78.402344 214.390625 Z M 110.890625 150.292969 C 151.28125 153.144531 217.792969 160.390625 241.28125 176.195312 C 244.132812 172.023438 245.453125 168.074219 245.011719 163.683594 C 243.914062 152.488281 232.0625 141.730469 225.476562 136.902344 C 178.0625 144.367188 138.546875 116.269531 128.011719 107.707031 C 122.964844 109.242188 111.988281 113.195312 107.597656 122.414062 C 104.304688 129.660156 105.183594 138.878906 110.890625 150.292969 Z M 135.914062 97.171875 C 144.257812 103.757812 180.257812 129.878906 221.964844 124.171875 C 229.207031 91.464844 181.574219 71.269531 181.132812 71.046875 C 178.71875 69.953125 177.183594 67.535156 177.183594 64.902344 L 177.183594 35.488281 C 162.035156 41.632812 131.742188 58.535156 135.914062 97.171875 Z M 135.914062 97.171875 " fill-opacity="1" fill-rule="evenodd"/><path fill="#ff5252" d="M 241.28125 374.855469 L 90.914062 374.855469 C 87.621094 374.855469 84.769531 372.4375 84.328125 369.367188 L 64.355469 243.144531 C 63.695312 239.414062 66.109375 236.121094 69.839844 235.683594 C 73.355469 235.023438 76.644531 237.4375 77.304688 240.953125 L 96.402344 361.683594 L 235.792969 361.683594 L 256.425781 240.953125 C 256.867188 237.4375 260.378906 235.023438 263.890625 235.683594 C 267.621094 236.121094 270.035156 239.632812 269.378906 243.144531 L 247.867188 369.367188 C 247.207031 372.4375 244.574219 374.855469 241.28125 374.855469 Z M 241.28125 374.855469 " fill-opacity="1" fill-rule="evenodd"/><g clip-path="url(#c3f66c32d4)"><path fill="#ff5252" d="M 275.523438 248.632812 L 59.304688 248.632812 C 55.574219 248.632812 52.5 245.78125 52.5 242.046875 L 52.5 207.804688 C 52.5 204.292969 55.574219 201.21875 59.304688 201.21875 L 275.523438 201.21875 C 279.257812 201.21875 282.109375 204.292969 282.109375 207.804688 L 282.109375 242.046875 C 282.109375 245.78125 279.257812 248.632812 275.523438 248.632812 Z M 65.890625 235.464844 L 268.9375 235.464844 L 268.9375 214.390625 L 65.890625 214.390625 Z M 65.890625 235.464844 " fill-opacity="1" fill-rule="evenodd"/></g><g clip-path="url(#af807923c9)"><path fill="#ff5252" d="M 240.839844 148.535156 C 239.304688 148.535156 237.988281 148.097656 236.671875 147 C 233.816406 144.804688 233.378906 140.632812 235.792969 137.78125 L 303.839844 54.144531 C 308.011719 48.878906 309.988281 42.511719 309.328125 35.707031 C 308.453125 29.121094 305.378906 22.976562 300.109375 18.804688 C 295.0625 14.632812 288.476562 12.660156 281.671875 13.316406 C 275.085938 13.976562 269.160156 17.269531 264.769531 22.535156 L 214.28125 84.660156 C 211.867188 87.511719 207.695312 87.953125 204.839844 85.757812 C 202.207031 83.339844 201.769531 79.171875 203.964844 76.535156 L 254.671875 14.195312 C 261.035156 6.292969 270.257812 1.242188 280.355469 0.367188 C 290.671875 -0.730469 300.546875 2.121094 308.453125 8.707031 C 316.355469 15.074219 321.183594 24.292969 322.28125 34.390625 C 323.378906 44.488281 320.523438 54.585938 313.9375 62.488281 L 245.890625 146.121094 C 244.574219 147.660156 242.816406 148.535156 240.839844 148.535156 Z M 240.839844 148.535156 " fill-opacity="1" fill-rule="evenodd"/></g><path fill="#ff5252" d="M 77.742188 292.535156 C 74.011719 292.535156 71.160156 289.683594 71.160156 285.953125 C 71.160156 282.4375 74.011719 279.367188 77.742188 279.367188 L 255.328125 279.367188 C 259.0625 279.367188 261.914062 282.4375 261.914062 285.953125 C 261.914062 289.683594 259.0625 292.535156 255.328125 292.535156 Z M 77.742188 292.535156 " fill-opacity="1" fill-rule="evenodd"/><path fill="#ff5252" d="M 85.207031 339.292969 C 81.476562 339.292969 78.621094 336.4375 78.621094 332.707031 C 78.621094 329.195312 81.476562 326.121094 85.207031 326.121094 L 247.425781 326.121094 C 250.9375 326.121094 254.011719 329.195312 254.011719 332.707031 C 254.011719 336.4375 250.9375 339.292969 247.425781 339.292969 Z M 85.207031 339.292969 " fill-opacity="1" fill-rule="evenodd"/></svg>