<svg xmlns="http://www.w3.org/2000/svg" xmlns:xlink="http://www.w3.org/1999/xlink" width="500" zoomAndPan="magnify" viewBox="0 0 375 374.999991" height="500" preserveAspectRatio="xMidYMid meet" version="1.0"><defs><clipPath id="892a12d882"><path d="M 151 275 L 375 275 L 375 357.84375 L 151 357.84375 Z M 151 275 " clip-rule="nonzero"/></clipPath></defs><path fill="#ff5252" d="M 204.601562 196.484375 C 197.644531 204.601562 198.226562 216.199219 205.183594 223.15625 C 208.660156 226.632812 213.878906 228.953125 219.097656 228.953125 C 224.3125 228.953125 228.953125 227.210938 233.011719 223.15625 L 308.957031 147.207031 C 316.492188 139.671875 316.492188 127.496094 308.957031 119.960938 C 302 113.003906 289.824219 112.421875 282.289062 119.378906 L 213.296875 51.550781 C 220.835938 43.433594 220.253906 31.835938 212.71875 24.878906 C 205.183594 17.34375 192.429688 17.34375 185.472656 24.878906 L 110.105469 100.246094 C 102.566406 107.785156 102.566406 119.960938 110.105469 127.496094 C 117.058594 135.03125 129.234375 135.03125 136.773438 128.074219 L 157.0625 148.367188 L 10.964844 286.347656 C 0.53125 296.203125 0.53125 312.4375 10.386719 322.292969 C 20.242188 332.148438 37.054688 332.148438 46.332031 321.710938 L 184.3125 175.613281 Z M 300.261719 128.074219 C 303.160156 130.972656 303.160156 136.191406 300.261719 139.089844 L 224.3125 215.039062 C 221.414062 217.9375 216.199219 217.9375 213.296875 215.039062 C 210.398438 212.140625 210.398438 206.921875 213.296875 204.023438 L 289.246094 128.074219 C 292.144531 124.597656 297.363281 125.175781 300.261719 128.074219 Z M 118.21875 119.378906 C 115.320312 116.480469 115.320312 111.261719 118.21875 108.363281 L 193.585938 32.996094 C 196.484375 30.097656 201.125 29.519531 204.601562 32.996094 C 207.5 35.894531 207.5 41.113281 204.601562 44.011719 L 129.234375 119.378906 C 126.335938 122.277344 121.117188 122.859375 118.21875 119.378906 Z M 187.789062 77.058594 L 205.761719 59.085938 L 273.59375 126.917969 L 212.71875 188.371094 L 144.886719 119.960938 Z M 37.636719 314.175781 C 32.417969 319.972656 23.722656 319.972656 18.503906 314.175781 C 13.285156 308.957031 13.285156 300.261719 19.082031 295.042969 L 165.179688 157.0625 L 176.195312 168.078125 Z M 37.636719 314.175781 " fill-opacity="1" fill-rule="nonzero"/><g clip-path="url(#892a12d882)"><path fill="#ff5252" d="M 368.089844 346.0625 L 361.714844 346.0625 L 361.714844 319.394531 C 361.714844 310.117188 354.179688 302.582031 344.902344 302.582031 L 336.785156 302.582031 L 336.785156 292.144531 C 336.785156 282.867188 329.25 275.332031 319.972656 275.332031 L 205.183594 275.332031 C 195.90625 275.332031 188.371094 282.867188 188.371094 292.144531 L 188.371094 302.582031 L 180.253906 302.582031 C 170.976562 302.582031 163.441406 310.117188 163.441406 319.394531 L 163.441406 346.0625 L 157.0625 346.0625 C 153.585938 346.0625 151.265625 348.378906 151.265625 351.859375 C 151.265625 355.335938 153.585938 357.65625 157.0625 357.65625 C 235.328125 357.65625 291.566406 357.65625 368.671875 357.65625 C 372.148438 357.65625 374.46875 355.335938 374.46875 351.859375 C 374.46875 348.378906 371.570312 346.0625 368.089844 346.0625 Z M 199.964844 291.566406 C 199.964844 288.667969 202.285156 286.347656 205.183594 286.347656 L 319.394531 286.347656 C 322.292969 286.347656 324.609375 288.667969 324.609375 291.566406 L 324.609375 302 L 199.964844 302 Z M 174.457031 346.0625 L 174.457031 319.394531 C 174.457031 316.492188 176.773438 314.175781 179.671875 314.175781 L 344.320312 314.175781 C 347.222656 314.175781 349.539062 316.492188 349.539062 319.394531 L 349.539062 346.0625 Z M 174.457031 346.0625 " fill-opacity="1" fill-rule="nonzero"/></g></svg>