<svg xmlns="http://www.w3.org/2000/svg" xmlns:xlink="http://www.w3.org/1999/xlink" width="500" zoomAndPan="magnify" viewBox="0 0 375 374.999991" height="500" preserveAspectRatio="xMidYMid meet" version="1.0"><defs><clipPath id="dc704ad662"><path d="M 44.054688 0 L 330.9375 0 L 330.9375 374.988281 L 44.054688 374.988281 Z M 44.054688 0 " clip-rule="nonzero"/></clipPath></defs><g clip-path="url(#dc704ad662)"><path fill="#ff5252" d="M 280.25 364.386719 L 251.695312 364.386719 L 275.652344 121.65625 L 275.679688 121.125 C 275.679688 108.816406 285.699219 98.800781 298.007812 98.800781 C 303.203125 98.800781 307.984375 100.597656 311.789062 103.585938 C 312.214844 105.054688 313.351562 105.976562 314.730469 106.375 C 318.121094 110.214844 320.230469 115.21875 320.335938 120.71875 Z M 212.421875 364.386719 L 220.425781 121.296875 L 220.425781 121.125 C 220.425781 108.816406 230.441406 98.800781 242.75 98.800781 C 254.984375 98.800781 264.945312 108.683594 265.078125 120.882812 L 241.042969 364.382812 Z M 173.171875 364.386719 L 165.171875 121.046875 C 165.21875 108.769531 175.210938 98.800781 187.496094 98.800781 C 199.777344 98.800781 209.785156 108.769531 209.824219 121.042969 L 201.820312 364.382812 Z M 162.566406 364.386719 L 133.949219 364.386719 L 109.914062 120.886719 C 110.046875 108.683594 120.007812 98.800781 132.242188 98.800781 C 144.550781 98.800781 154.570312 108.816406 154.570312 121.125 Z M 123.296875 364.386719 L 94.746094 364.386719 L 54.660156 120.714844 C 54.878906 108.59375 64.804688 98.800781 76.984375 98.800781 C 89.292969 98.800781 99.308594 108.816406 99.308594 121.125 L 99.308594 121.390625 Z M 94.8125 71.726562 C 98.320312 71.910156 100.769531 68.203125 99.929688 65.011719 C 94.496094 44.308594 111.425781 26.011719 131.800781 29.265625 C 154.605469 33.683594 162.648438 62.835938 144.191406 78.878906 C 139.027344 83.367188 146.558594 90.847656 151.695312 86.386719 C 159.121094 79.929688 163.773438 71.089844 165.042969 61.726562 C 182.023438 43.476562 212.5 49.101562 220.199219 73.738281 C 222.226562 80.242188 232.484375 77.46875 230.441406 70.917969 C 226.347656 57.84375 217.046875 48.539062 205.953125 43.820312 C 212.195312 28.835938 228.097656 19.53125 244.460938 22.761719 C 260.707031 25.972656 271.917969 40.210938 272.289062 56.554688 C 272.355469 59.476562 274.671875 61.800781 277.601562 61.863281 C 295.238281 62.257812 308.660156 74.835938 311.363281 91.042969 C 307.285156 89.21875 302.765625 88.195312 298.007812 88.195312 C 286.441406 88.195312 276.25 94.195312 270.378906 103.246094 C 264.511719 94.195312 254.320312 88.195312 242.75 88.195312 C 231.183594 88.195312 221.007812 94.195312 215.125 103.246094 C 209.253906 94.195312 199.0625 88.195312 187.496094 88.195312 C 175.925781 88.195312 165.746094 94.195312 159.863281 103.246094 C 153.992188 94.195312 143.808594 88.195312 132.242188 88.195312 C 120.671875 88.195312 110.484375 94.195312 104.609375 103.246094 C 98.734375 94.195312 88.546875 88.195312 76.984375 88.195312 C 71.585938 88.195312 66.488281 89.511719 61.988281 91.824219 C 67.9375 79.511719 80.195312 70.984375 94.8125 71.726562 Z M 175.394531 11.847656 C 188 15.675781 195.855469 27.957031 195.0625 40.773438 C 184.621094 39.257812 173.65625 41.507812 164.445312 48.070312 C 164.015625 46.199219 163.453125 44.339844 162.722656 42.511719 C 159.136719 33.511719 152.515625 26.664062 144.359375 22.53125 C 151.433594 12.96875 163.328125 8.183594 175.394531 11.847656 Z M 322.453125 99.097656 C 323.960938 75.011719 305.953125 54.625 282.515625 51.617188 C 280.023438 32.109375 265.539062 15.566406 245.542969 12.210938 C 229.3125 9.488281 213.847656 15.78125 203.789062 27.503906 C 200.386719 16.074219 192.0625 6.519531 179.871094 2.164062 C 162.480469 -4.042969 143.355469 3.566406 133.957031 18.867188 C 133.164062 18.734375 132.371094 18.621094 131.589844 18.53125 C 130.003906 18.304688 128.40625 18.144531 126.78125 18.089844 C 126.132812 18.078125 125.566406 18.179688 125.035156 18.335938 C 103.320312 19.535156 86.335938 38.835938 88.539062 61.300781 C 77.664062 62.414062 67.15625 67.734375 59.839844 75.789062 C 53.585938 82.675781 46.664062 94.113281 49.082031 103.664062 C 45.898438 108.730469 44.050781 114.714844 44.050781 121.121094 L 44.050781 121.558594 L 85.738281 374.980469 L 289.246094 374.980469 L 330.867188 121.980469 L 330.933594 121.554688 L 330.933594 121.121094 C 330.933594 112.65625 327.726562 104.933594 322.453125 99.09375 " fill-opacity="1" fill-rule="nonzero"/></g></svg>