<svg xmlns="http://www.w3.org/2000/svg" xmlns:xlink="http://www.w3.org/1999/xlink" width="1080" zoomAndPan="magnify" viewBox="0 0 810 809.999993" height="1080" preserveAspectRatio="xMidYMid meet" version="1.0"><defs><clipPath id="3c04369fa6"><path d="M 48.601562 64 L 761.101562 64 L 761.101562 810 L 48.601562 810 Z M 48.601562 64 " clip-rule="nonzero"/></clipPath><clipPath id="11d889afe1"><path d="M 48.601562 230 L 761.101562 230 L 761.101562 296 L 48.601562 296 Z M 48.601562 230 " clip-rule="nonzero"/></clipPath></defs><g clip-path="url(#3c04369fa6)"><path fill="#b3b3b3" d="M 664.195312 809.996094 L 145.800781 809.996094 C 144.207031 809.996094 142.617188 809.957031 141.03125 809.878906 C 139.441406 809.800781 137.855469 809.683594 136.273438 809.527344 C 134.6875 809.371094 133.109375 809.175781 131.535156 808.945312 C 129.964844 808.710938 128.398438 808.4375 126.835938 808.128906 C 125.277344 807.816406 123.726562 807.46875 122.179688 807.082031 C 120.636719 806.695312 119.105469 806.273438 117.582031 805.8125 C 116.0625 805.347656 114.550781 804.851562 113.054688 804.3125 C 111.554688 803.777344 110.070312 803.207031 108.601562 802.597656 C 107.132812 801.988281 105.679688 801.34375 104.242188 800.664062 C 102.804688 799.984375 101.382812 799.269531 99.980469 798.519531 C 98.578125 797.769531 97.191406 796.984375 95.828125 796.167969 C 94.464844 795.347656 93.121094 794.5 91.796875 793.613281 C 90.476562 792.730469 89.175781 791.816406 87.898438 790.867188 C 86.621094 789.921875 85.367188 788.941406 84.136719 787.933594 C 82.90625 786.921875 81.703125 785.886719 80.523438 784.816406 C 79.34375 783.75 78.195312 782.652344 77.070312 781.527344 C 75.945312 780.402344 74.847656 779.25 73.777344 778.070312 C 72.710938 776.894531 71.671875 775.6875 70.664062 774.460938 C 69.652344 773.230469 68.675781 771.976562 67.726562 770.699219 C 66.78125 769.421875 65.863281 768.121094 64.980469 766.796875 C 64.097656 765.476562 63.246094 764.132812 62.429688 762.765625 C 61.609375 761.402344 60.828125 760.019531 60.078125 758.617188 C 59.328125 757.214844 58.613281 755.792969 57.933594 754.355469 C 57.253906 752.917969 56.609375 751.464844 56 749.992188 C 55.390625 748.523438 54.816406 747.039062 54.28125 745.542969 C 53.746094 744.042969 53.246094 742.535156 52.785156 741.011719 C 52.324219 739.488281 51.898438 737.957031 51.511719 736.414062 C 51.125 734.871094 50.777344 733.320312 50.46875 731.757812 C 50.15625 730.199219 49.886719 728.632812 49.652344 727.058594 C 49.417969 725.484375 49.222656 723.90625 49.066406 722.324219 C 48.914062 720.742188 48.796875 719.15625 48.71875 717.566406 C 48.640625 715.976562 48.601562 714.386719 48.601562 712.796875 L 48.601562 162.003906 C 48.601562 160.410156 48.640625 158.820312 48.71875 157.234375 C 48.796875 155.644531 48.914062 154.058594 49.066406 152.476562 C 49.222656 150.890625 49.417969 149.3125 49.652344 147.742188 C 49.886719 146.167969 50.15625 144.601562 50.46875 143.039062 C 50.777344 141.480469 51.125 139.929688 51.511719 138.386719 C 51.898438 136.84375 52.324219 135.308594 52.785156 133.785156 C 53.246094 132.265625 53.746094 130.753906 54.28125 129.257812 C 54.816406 127.757812 55.390625 126.277344 56 124.804688 C 56.609375 123.335938 57.253906 121.882812 57.933594 120.445312 C 58.613281 119.007812 59.328125 117.585938 60.078125 116.183594 C 60.828125 114.78125 61.609375 113.398438 62.429688 112.03125 C 63.246094 110.667969 64.097656 109.324219 64.980469 108 C 65.863281 106.679688 66.78125 105.378906 67.726562 104.101562 C 68.675781 102.824219 69.652344 101.570312 70.664062 100.339844 C 71.671875 99.109375 72.710938 97.90625 73.777344 96.726562 C 74.847656 95.550781 75.945312 94.398438 77.070312 93.273438 C 78.195312 92.148438 79.34375 91.050781 80.523438 89.984375 C 81.703125 88.914062 82.90625 87.875 84.136719 86.867188 C 85.367188 85.855469 86.621094 84.878906 87.898438 83.929688 C 89.175781 82.984375 90.476562 82.066406 91.796875 81.183594 C 93.121094 80.300781 94.464844 79.449219 95.828125 78.632812 C 97.191406 77.8125 98.578125 77.03125 99.980469 76.28125 C 101.382812 75.53125 102.804688 74.816406 104.242188 74.136719 C 105.679688 73.457031 107.132812 72.8125 108.601562 72.203125 C 110.070312 71.59375 111.554688 71.019531 113.054688 70.484375 C 114.550781 69.949219 116.0625 69.449219 117.582031 68.988281 C 119.105469 68.527344 120.636719 68.101562 122.179688 67.714844 C 123.726562 67.328125 125.277344 66.980469 126.835938 66.671875 C 128.398438 66.359375 129.964844 66.089844 131.535156 65.855469 C 133.109375 65.621094 134.6875 65.425781 136.273438 65.269531 C 137.855469 65.117188 139.441406 65 141.03125 64.921875 C 142.617188 64.84375 144.207031 64.804688 145.800781 64.804688 L 664.195312 64.804688 C 665.785156 64.804688 667.375 64.84375 668.964844 64.921875 C 670.550781 65 672.136719 65.117188 673.722656 65.269531 C 675.304688 65.425781 676.882812 65.621094 678.457031 65.855469 C 680.03125 66.089844 681.597656 66.359375 683.15625 66.671875 C 684.714844 66.980469 686.269531 67.328125 687.8125 67.714844 C 689.355469 68.101562 690.886719 68.527344 692.410156 68.988281 C 693.929688 69.449219 695.441406 69.949219 696.9375 70.484375 C 698.4375 71.019531 699.921875 71.59375 701.390625 72.203125 C 702.859375 72.8125 704.3125 73.457031 705.75 74.136719 C 707.191406 74.816406 708.609375 75.53125 710.011719 76.28125 C 711.414062 77.03125 712.800781 77.8125 714.164062 78.632812 C 715.527344 79.449219 716.871094 80.300781 718.195312 81.183594 C 719.515625 82.066406 720.816406 82.984375 722.09375 83.929688 C 723.371094 84.878906 724.625 85.855469 725.855469 86.867188 C 727.085938 87.875 728.289062 88.914062 729.46875 89.984375 C 730.648438 91.050781 731.800781 92.148438 732.925781 93.273438 C 734.046875 94.398438 735.144531 95.550781 736.214844 96.726562 C 737.28125 97.90625 738.320312 99.109375 739.328125 100.339844 C 740.339844 101.570312 741.316406 102.824219 742.265625 104.101562 C 743.210938 105.378906 744.128906 106.679688 745.011719 108 C 745.894531 109.324219 746.746094 110.667969 747.5625 112.03125 C 748.382812 113.398438 749.164062 114.78125 749.914062 116.183594 C 750.664062 117.585938 751.378906 119.007812 752.0625 120.445312 C 752.742188 121.882812 753.386719 123.335938 753.992188 124.804688 C 754.601562 126.277344 755.175781 127.757812 755.710938 129.257812 C 756.246094 130.753906 756.746094 132.265625 757.207031 133.785156 C 757.667969 135.308594 758.09375 136.84375 758.480469 138.386719 C 758.867188 139.929688 759.214844 141.480469 759.523438 143.039062 C 759.835938 144.601562 760.109375 146.167969 760.339844 147.742188 C 760.574219 149.3125 760.769531 150.890625 760.925781 152.476562 C 761.082031 154.058594 761.199219 155.644531 761.277344 157.234375 C 761.355469 158.820312 761.394531 160.410156 761.394531 162.003906 L 761.394531 712.796875 C 761.394531 714.386719 761.355469 715.976562 761.277344 717.566406 C 761.199219 719.15625 761.082031 720.742188 760.925781 722.324219 C 760.769531 723.90625 760.574219 725.484375 760.339844 727.058594 C 760.109375 728.632812 759.835938 730.199219 759.523438 731.757812 C 759.214844 733.320312 758.867188 734.871094 758.480469 736.414062 C 758.09375 737.957031 757.667969 739.488281 757.207031 741.011719 C 756.746094 742.535156 756.246094 744.042969 755.710938 745.542969 C 755.175781 747.039062 754.601562 748.523438 753.992188 749.992188 C 753.386719 751.464844 752.742188 752.917969 752.0625 754.355469 C 751.378906 755.792969 750.664062 757.214844 749.914062 758.617188 C 749.164062 760.019531 748.382812 761.402344 747.5625 762.765625 C 746.746094 764.132812 745.894531 765.476562 745.011719 766.796875 C 744.128906 768.121094 743.210938 769.421875 742.265625 770.699219 C 741.316406 771.976562 740.339844 773.230469 739.328125 774.460938 C 738.320312 775.6875 737.28125 776.894531 736.214844 778.070312 C 735.144531 779.25 734.046875 780.402344 732.925781 781.527344 C 731.800781 782.652344 730.648438 783.75 729.46875 784.816406 C 728.289062 785.886719 727.085938 786.921875 725.855469 787.933594 C 724.625 788.941406 723.371094 789.921875 722.09375 790.867188 C 720.816406 791.816406 719.515625 792.730469 718.195312 793.613281 C 716.871094 794.5 715.527344 795.347656 714.164062 796.167969 C 712.800781 796.984375 711.417969 797.769531 710.011719 798.519531 C 708.609375 799.269531 707.191406 799.984375 705.75 800.664062 C 704.3125 801.34375 702.859375 801.988281 701.390625 802.597656 C 699.921875 803.207031 698.4375 803.777344 696.9375 804.3125 C 695.441406 804.851562 693.929688 805.347656 692.410156 805.8125 C 690.886719 806.273438 689.355469 806.695312 687.8125 807.082031 C 686.269531 807.46875 684.714844 807.816406 683.15625 808.128906 C 681.597656 808.4375 680.03125 808.710938 678.457031 808.945312 C 676.882812 809.175781 675.304688 809.371094 673.722656 809.527344 C 672.136719 809.683594 670.550781 809.800781 668.964844 809.878906 C 667.375 809.957031 665.785156 809.996094 664.195312 809.996094 Z M 145.800781 129.601562 C 144.738281 129.601562 143.679688 129.65625 142.625 129.757812 C 141.566406 129.863281 140.519531 130.019531 139.476562 130.226562 C 138.4375 130.433594 137.410156 130.691406 136.394531 130.996094 C 135.378906 131.304688 134.378906 131.664062 133.398438 132.070312 C 132.417969 132.476562 131.460938 132.929688 130.527344 133.429688 C 129.589844 133.929688 128.679688 134.472656 127.796875 135.0625 C 126.917969 135.652344 126.066406 136.285156 125.246094 136.957031 C 124.425781 137.628906 123.640625 138.34375 122.890625 139.09375 C 122.140625 139.84375 121.425781 140.628906 120.753906 141.449219 C 120.082031 142.269531 119.449219 143.121094 118.859375 144.003906 C 118.269531 144.882812 117.726562 145.792969 117.226562 146.730469 C 116.726562 147.664062 116.273438 148.625 115.867188 149.605469 C 115.460938 150.582031 115.101562 151.582031 114.792969 152.597656 C 114.488281 153.613281 114.230469 154.640625 114.023438 155.679688 C 113.816406 156.722656 113.660156 157.769531 113.554688 158.828125 C 113.453125 159.882812 113.398438 160.941406 113.398438 162.003906 L 113.398438 712.796875 C 113.398438 713.859375 113.453125 714.917969 113.554688 715.972656 C 113.660156 717.027344 113.816406 718.078125 114.023438 719.117188 C 114.230469 720.160156 114.488281 721.1875 114.792969 722.203125 C 115.101562 723.21875 115.460938 724.214844 115.867188 725.195312 C 116.273438 726.175781 116.726562 727.132812 117.226562 728.070312 C 117.726562 729.003906 118.269531 729.914062 118.859375 730.796875 C 119.449219 731.679688 120.082031 732.53125 120.753906 733.351562 C 121.425781 734.171875 122.136719 734.957031 122.890625 735.707031 C 123.640625 736.457031 124.425781 737.167969 125.246094 737.84375 C 126.066406 738.515625 126.917969 739.148438 127.796875 739.734375 C 128.679688 740.324219 129.589844 740.871094 130.527344 741.371094 C 131.460938 741.871094 132.417969 742.324219 133.398438 742.730469 C 134.378906 743.136719 135.378906 743.492188 136.394531 743.800781 C 137.410156 744.109375 138.4375 744.367188 139.476562 744.574219 C 140.519531 744.78125 141.566406 744.9375 142.625 745.039062 C 143.679688 745.144531 144.738281 745.195312 145.800781 745.195312 L 664.195312 745.195312 C 665.253906 745.195312 666.3125 745.144531 667.371094 745.039062 C 668.425781 744.9375 669.472656 744.78125 670.515625 744.574219 C 671.554688 744.367188 672.582031 744.109375 673.597656 743.800781 C 674.613281 743.492188 675.613281 743.136719 676.59375 742.730469 C 677.574219 742.324219 678.53125 741.871094 679.46875 741.371094 C 680.402344 740.871094 681.3125 740.324219 682.195312 739.734375 C 683.078125 739.148438 683.929688 738.515625 684.75 737.84375 C 685.566406 737.167969 686.355469 736.457031 687.105469 735.707031 C 687.855469 734.957031 688.566406 734.171875 689.238281 733.351562 C 689.914062 732.53125 690.542969 731.679688 691.132812 730.796875 C 691.722656 729.914062 692.269531 729.003906 692.769531 728.070312 C 693.269531 727.132812 693.722656 726.175781 694.128906 725.195312 C 694.535156 724.214844 694.890625 723.21875 695.199219 722.203125 C 695.507812 721.1875 695.765625 720.160156 695.972656 719.117188 C 696.179688 718.078125 696.332031 717.027344 696.4375 715.972656 C 696.542969 714.917969 696.59375 713.859375 696.59375 712.796875 L 696.59375 162.003906 C 696.59375 160.941406 696.542969 159.882812 696.4375 158.828125 C 696.332031 157.769531 696.179688 156.722656 695.972656 155.679688 C 695.765625 154.640625 695.507812 153.613281 695.199219 152.597656 C 694.890625 151.582031 694.535156 150.582031 694.128906 149.605469 C 693.722656 148.625 693.269531 147.664062 692.769531 146.730469 C 692.269531 145.792969 691.722656 144.882812 691.132812 144.003906 C 690.542969 143.121094 689.914062 142.269531 689.238281 141.449219 C 688.566406 140.628906 687.855469 139.84375 687.105469 139.09375 C 686.355469 138.34375 685.566406 137.628906 684.75 136.957031 C 683.929688 136.285156 683.078125 135.652344 682.195312 135.0625 C 681.3125 134.472656 680.402344 133.929688 679.46875 133.429688 C 678.53125 132.929688 677.574219 132.476562 676.59375 132.070312 C 675.613281 131.664062 674.613281 131.304688 673.597656 130.996094 C 672.582031 130.691406 671.554688 130.433594 670.515625 130.226562 C 669.472656 130.019531 668.425781 129.863281 667.371094 129.757812 C 666.3125 129.65625 665.253906 129.601562 664.195312 129.601562 Z M 145.800781 129.601562 " fill-opacity="1" fill-rule="nonzero"/></g><g clip-path="url(#11d889afe1)"><path fill="#b3b3b3" d="M 728.992188 295.652344 L 81 295.652344 C 79.9375 295.652344 78.878906 295.597656 77.824219 295.496094 C 76.769531 295.390625 75.71875 295.234375 74.679688 295.027344 C 73.636719 294.820312 72.609375 294.5625 71.59375 294.257812 C 70.578125 293.949219 69.582031 293.589844 68.601562 293.183594 C 67.621094 292.777344 66.664062 292.324219 65.726562 291.824219 C 64.789062 291.324219 63.882812 290.78125 63 290.191406 C 62.117188 289.601562 61.265625 288.96875 60.445312 288.296875 C 59.625 287.625 58.839844 286.910156 58.089844 286.160156 C 57.339844 285.410156 56.628906 284.625 55.953125 283.804688 C 55.28125 282.984375 54.648438 282.132812 54.058594 281.25 C 53.472656 280.371094 52.925781 279.460938 52.425781 278.523438 C 51.925781 277.589844 51.472656 276.628906 51.066406 275.648438 C 50.660156 274.667969 50.304688 273.671875 49.996094 272.65625 C 49.6875 271.640625 49.429688 270.613281 49.222656 269.570312 C 49.015625 268.53125 48.859375 267.484375 48.757812 266.425781 C 48.652344 265.371094 48.601562 264.3125 48.601562 263.25 C 48.601562 262.191406 48.652344 261.132812 48.757812 260.074219 C 48.859375 259.019531 49.015625 257.972656 49.222656 256.929688 C 49.429688 255.890625 49.6875 254.863281 49.996094 253.847656 C 50.304688 252.832031 50.660156 251.832031 51.066406 250.851562 C 51.472656 249.871094 51.925781 248.914062 52.425781 247.976562 C 52.925781 247.042969 53.472656 246.132812 54.058594 245.25 C 54.648438 244.367188 55.28125 243.515625 55.953125 242.699219 C 56.628906 241.878906 57.339844 241.089844 58.089844 240.339844 C 58.839844 239.589844 59.625 238.878906 60.445312 238.207031 C 61.265625 237.53125 62.117188 236.902344 63 236.3125 C 63.882812 235.722656 64.789062 235.175781 65.726562 234.675781 C 66.664062 234.175781 67.621094 233.722656 68.601562 233.316406 C 69.582031 232.910156 70.578125 232.554688 71.59375 232.246094 C 72.609375 231.9375 73.636719 231.679688 74.679688 231.472656 C 75.71875 231.265625 76.769531 231.113281 77.824219 231.007812 C 78.878906 230.902344 79.9375 230.851562 81 230.851562 L 728.992188 230.851562 C 730.054688 230.851562 731.113281 230.902344 732.167969 231.007812 C 733.226562 231.113281 734.273438 231.265625 735.3125 231.472656 C 736.355469 231.679688 737.382812 231.9375 738.398438 232.246094 C 739.414062 232.554688 740.410156 232.910156 741.390625 233.316406 C 742.371094 233.722656 743.332031 234.175781 744.265625 234.675781 C 745.203125 235.175781 746.109375 235.722656 746.992188 236.3125 C 747.875 236.902344 748.726562 237.53125 749.546875 238.207031 C 750.367188 238.878906 751.152344 239.589844 751.902344 240.339844 C 752.652344 241.089844 753.367188 241.878906 754.039062 242.699219 C 754.710938 243.515625 755.34375 244.367188 755.933594 245.25 C 756.523438 246.132812 757.066406 247.042969 757.566406 247.976562 C 758.066406 248.914062 758.519531 249.871094 758.925781 250.851562 C 759.332031 251.832031 759.691406 252.832031 759.996094 253.847656 C 760.304688 254.863281 760.5625 255.890625 760.769531 256.929688 C 760.976562 257.972656 761.132812 259.019531 761.238281 260.074219 C 761.339844 261.132812 761.394531 262.191406 761.394531 263.25 C 761.394531 264.3125 761.339844 265.371094 761.238281 266.425781 C 761.132812 267.484375 760.976562 268.53125 760.769531 269.574219 C 760.5625 270.613281 760.304688 271.640625 759.996094 272.65625 C 759.691406 273.671875 759.332031 274.667969 758.925781 275.648438 C 758.519531 276.628906 758.066406 277.589844 757.566406 278.523438 C 757.066406 279.460938 756.523438 280.371094 755.933594 281.25 C 755.34375 282.132812 754.710938 282.984375 754.039062 283.804688 C 753.367188 284.625 752.652344 285.410156 751.902344 286.160156 C 751.152344 286.910156 750.367188 287.625 749.546875 288.296875 C 748.726562 288.96875 747.875 289.601562 746.992188 290.191406 C 746.109375 290.78125 745.203125 291.324219 744.265625 291.824219 C 743.332031 292.324219 742.371094 292.777344 741.390625 293.183594 C 740.410156 293.589844 739.414062 293.949219 738.398438 294.257812 C 737.382812 294.5625 736.355469 294.820312 735.3125 295.027344 C 734.273438 295.234375 733.226562 295.390625 732.167969 295.496094 C 731.113281 295.597656 730.054688 295.652344 728.992188 295.652344 Z M 728.992188 295.652344 " fill-opacity="1" fill-rule="nonzero"/></g><path fill="#b3b3b3" d="M 210.597656 194.402344 C 209.539062 194.402344 208.480469 194.351562 207.421875 194.246094 C 206.367188 194.140625 205.316406 193.988281 204.277344 193.78125 C 203.238281 193.574219 202.207031 193.316406 201.191406 193.007812 C 200.179688 192.699219 199.179688 192.34375 198.199219 191.9375 C 197.21875 191.53125 196.261719 191.078125 195.324219 190.578125 C 194.390625 190.078125 193.480469 189.53125 192.597656 188.941406 C 191.714844 188.351562 190.863281 187.722656 190.042969 187.046875 C 189.222656 186.375 188.4375 185.664062 187.6875 184.914062 C 186.9375 184.160156 186.226562 183.375 185.554688 182.554688 C 184.878906 181.734375 184.25 180.886719 183.660156 180.003906 C 183.070312 179.121094 182.523438 178.210938 182.023438 177.277344 C 181.523438 176.339844 181.070312 175.382812 180.664062 174.402344 C 180.257812 173.421875 179.902344 172.421875 179.59375 171.40625 C 179.285156 170.390625 179.027344 169.363281 178.820312 168.324219 C 178.613281 167.28125 178.457031 166.234375 178.355469 165.179688 C 178.25 164.121094 178.199219 163.0625 178.199219 162.003906 L 178.199219 32.402344 C 178.199219 31.34375 178.25 30.285156 178.355469 29.226562 C 178.457031 28.171875 178.613281 27.125 178.820312 26.082031 C 179.027344 25.042969 179.285156 24.015625 179.59375 23 C 179.902344 21.984375 180.257812 20.984375 180.664062 20.003906 C 181.070312 19.023438 181.523438 18.066406 182.023438 17.128906 C 182.523438 16.195312 183.070312 15.285156 183.660156 14.402344 C 184.25 13.519531 184.878906 12.667969 185.554688 11.847656 C 186.226562 11.027344 186.9375 10.242188 187.6875 9.492188 C 188.4375 8.742188 189.222656 8.03125 190.042969 7.359375 C 190.863281 6.683594 191.714844 6.054688 192.597656 5.464844 C 193.480469 4.875 194.390625 4.328125 195.324219 3.828125 C 196.261719 3.328125 197.21875 2.875 198.199219 2.46875 C 199.179688 2.0625 200.179688 1.707031 201.191406 1.398438 C 202.207031 1.089844 203.238281 0.832031 204.277344 0.625 C 205.316406 0.417969 206.367188 0.265625 207.421875 0.160156 C 208.480469 0.0546875 209.539062 0.00390625 210.597656 0.00390625 C 211.660156 0.00390625 212.71875 0.0546875 213.773438 0.160156 C 214.832031 0.265625 215.878906 0.417969 216.917969 0.625 C 217.960938 0.832031 218.988281 1.089844 220.003906 1.398438 C 221.019531 1.707031 222.015625 2.0625 222.996094 2.46875 C 223.976562 2.875 224.9375 3.328125 225.871094 3.828125 C 226.808594 4.328125 227.714844 4.875 228.597656 5.464844 C 229.480469 6.054688 230.332031 6.683594 231.152344 7.359375 C 231.972656 8.03125 232.757812 8.742188 233.507812 9.492188 C 234.257812 10.242188 234.96875 11.027344 235.644531 11.847656 C 236.316406 12.667969 236.949219 13.519531 237.539062 14.402344 C 238.128906 15.285156 238.671875 16.195312 239.171875 17.128906 C 239.671875 18.066406 240.125 19.023438 240.53125 20.003906 C 240.9375 20.984375 241.296875 21.984375 241.601562 23 C 241.910156 24.015625 242.167969 25.042969 242.375 26.082031 C 242.582031 27.125 242.738281 28.171875 242.84375 29.226562 C 242.945312 30.285156 243 31.34375 243 32.402344 L 243 162.003906 C 243 163.0625 242.945312 164.121094 242.84375 165.179688 C 242.738281 166.234375 242.582031 167.28125 242.375 168.324219 C 242.167969 169.363281 241.910156 170.390625 241.601562 171.40625 C 241.296875 172.421875 240.9375 173.421875 240.53125 174.402344 C 240.125 175.382812 239.671875 176.339844 239.171875 177.277344 C 238.671875 178.210938 238.128906 179.121094 237.539062 180.003906 C 236.949219 180.886719 236.316406 181.734375 235.644531 182.554688 C 234.96875 183.375 234.257812 184.160156 233.507812 184.914062 C 232.757812 185.664062 231.972656 186.375 231.152344 187.046875 C 230.332031 187.722656 229.480469 188.351562 228.597656 188.941406 C 227.714844 189.53125 226.808594 190.078125 225.871094 190.578125 C 224.9375 191.078125 223.976562 191.53125 222.996094 191.9375 C 222.015625 192.34375 221.019531 192.699219 220.003906 193.007812 C 218.988281 193.316406 217.960938 193.574219 216.917969 193.78125 C 215.878906 193.988281 214.832031 194.140625 213.773438 194.246094 C 212.71875 194.351562 211.660156 194.402344 210.597656 194.402344 Z M 210.597656 194.402344 " fill-opacity="1" fill-rule="nonzero"/><path fill="#b3b3b3" d="M 599.394531 194.402344 C 598.332031 194.402344 597.273438 194.351562 596.21875 194.246094 C 595.164062 194.140625 594.113281 193.988281 593.074219 193.78125 C 592.03125 193.574219 591.003906 193.316406 589.988281 193.007812 C 588.972656 192.699219 587.976562 192.34375 586.996094 191.9375 C 586.015625 191.53125 585.058594 191.078125 584.121094 190.578125 C 583.183594 190.078125 582.277344 189.53125 581.394531 188.941406 C 580.511719 188.351562 579.660156 187.722656 578.839844 187.046875 C 578.019531 186.375 577.234375 185.664062 576.484375 184.914062 C 575.734375 184.160156 575.023438 183.375 574.347656 182.554688 C 573.675781 181.734375 573.042969 180.886719 572.457031 180.003906 C 571.867188 179.121094 571.320312 178.210938 570.820312 177.277344 C 570.320312 176.339844 569.867188 175.382812 569.460938 174.402344 C 569.054688 173.421875 568.699219 172.421875 568.390625 171.40625 C 568.082031 170.390625 567.824219 169.363281 567.617188 168.324219 C 567.410156 167.28125 567.253906 166.234375 567.152344 165.179688 C 567.046875 164.121094 566.996094 163.0625 566.996094 162.003906 L 566.996094 32.402344 C 566.996094 31.34375 567.046875 30.285156 567.152344 29.226562 C 567.253906 28.171875 567.410156 27.125 567.617188 26.082031 C 567.824219 25.042969 568.082031 24.015625 568.390625 23 C 568.699219 21.984375 569.054688 20.984375 569.460938 20.003906 C 569.867188 19.023438 570.320312 18.066406 570.820312 17.128906 C 571.320312 16.195312 571.867188 15.285156 572.457031 14.402344 C 573.042969 13.519531 573.675781 12.667969 574.347656 11.847656 C 575.023438 11.027344 575.734375 10.242188 576.484375 9.492188 C 577.234375 8.742188 578.019531 8.03125 578.839844 7.359375 C 579.660156 6.683594 580.511719 6.054688 581.394531 5.464844 C 582.277344 4.875 583.183594 4.328125 584.121094 3.828125 C 585.058594 3.328125 586.015625 2.875 586.996094 2.46875 C 587.976562 2.0625 588.972656 1.707031 589.988281 1.398438 C 591.003906 1.089844 592.03125 0.832031 593.074219 0.625 C 594.113281 0.417969 595.164062 0.265625 596.21875 0.160156 C 597.273438 0.0546875 598.332031 0.00390625 599.394531 0.00390625 C 600.457031 0.00390625 601.515625 0.0546875 602.570312 0.160156 C 603.625 0.265625 604.675781 0.417969 605.714844 0.625 C 606.757812 0.832031 607.785156 1.089844 608.800781 1.398438 C 609.816406 1.707031 610.8125 2.0625 611.792969 2.46875 C 612.773438 2.875 613.730469 3.328125 614.667969 3.828125 C 615.601562 4.328125 616.511719 4.875 617.394531 5.464844 C 618.277344 6.054688 619.128906 6.683594 619.949219 7.359375 C 620.769531 8.03125 621.554688 8.742188 622.304688 9.492188 C 623.054688 10.242188 623.765625 11.027344 624.441406 11.847656 C 625.113281 12.667969 625.746094 13.519531 626.332031 14.402344 C 626.921875 15.285156 627.46875 16.195312 627.96875 17.128906 C 628.46875 18.066406 628.921875 19.023438 629.328125 20.003906 C 629.734375 20.984375 630.089844 21.984375 630.398438 23 C 630.707031 24.015625 630.964844 25.042969 631.171875 26.082031 C 631.378906 27.125 631.535156 28.171875 631.636719 29.226562 C 631.742188 30.285156 631.792969 31.34375 631.792969 32.402344 L 631.792969 162.003906 C 631.792969 163.0625 631.742188 164.121094 631.636719 165.179688 C 631.535156 166.234375 631.378906 167.28125 631.171875 168.324219 C 630.964844 169.363281 630.707031 170.390625 630.398438 171.40625 C 630.089844 172.421875 629.734375 173.421875 629.328125 174.402344 C 628.921875 175.382812 628.46875 176.339844 627.96875 177.277344 C 627.46875 178.210938 626.921875 179.121094 626.332031 180.003906 C 625.746094 180.886719 625.113281 181.734375 624.441406 182.554688 C 623.765625 183.375 623.054688 184.160156 622.304688 184.914062 C 621.554688 185.664062 620.769531 186.375 619.949219 187.046875 C 619.128906 187.722656 618.277344 188.351562 617.394531 188.941406 C 616.511719 189.53125 615.601562 190.078125 614.667969 190.578125 C 613.730469 191.078125 612.773438 191.53125 611.792969 191.9375 C 610.8125 192.34375 609.816406 192.699219 608.800781 193.007812 C 607.785156 193.316406 606.757812 193.574219 605.714844 193.78125 C 604.675781 193.988281 603.625 194.140625 602.570312 194.246094 C 601.515625 194.351562 600.457031 194.402344 599.394531 194.402344 Z M 599.394531 194.402344 " fill-opacity="1" fill-rule="nonzero"/><path fill="#b3b3b3" d="M 372.597656 647.996094 C 370.46875 647.996094 368.363281 647.789062 366.277344 647.375 C 364.191406 646.957031 362.164062 646.34375 360.199219 645.527344 C 358.234375 644.714844 356.367188 643.714844 354.597656 642.535156 C 352.832031 641.351562 351.195312 640.007812 349.691406 638.503906 L 252.492188 541.304688 C 251.761719 540.550781 251.070312 539.761719 250.417969 538.941406 C 249.765625 538.117188 249.15625 537.265625 248.585938 536.386719 C 248.015625 535.503906 247.492188 534.597656 247.007812 533.664062 C 246.527344 532.734375 246.09375 531.78125 245.703125 530.804688 C 245.316406 529.828125 244.972656 528.839844 244.679688 527.832031 C 244.386719 526.824219 244.144531 525.804688 243.953125 524.773438 C 243.757812 523.742188 243.617188 522.703125 243.523438 521.65625 C 243.429688 520.613281 243.386719 519.566406 243.398438 518.515625 C 243.40625 517.464844 243.464844 516.417969 243.578125 515.375 C 243.6875 514.332031 243.847656 513.296875 244.0625 512.269531 C 244.273438 511.242188 244.53125 510.226562 244.84375 509.222656 C 245.152344 508.222656 245.511719 507.234375 245.917969 506.269531 C 246.324219 505.300781 246.773438 504.355469 247.273438 503.429688 C 247.769531 502.507812 248.3125 501.609375 248.894531 500.738281 C 249.480469 499.867188 250.105469 499.027344 250.773438 498.214844 C 251.441406 497.40625 252.144531 496.628906 252.886719 495.886719 C 253.628906 495.144531 254.402344 494.441406 255.214844 493.773438 C 256.023438 493.109375 256.867188 492.480469 257.738281 491.898438 C 258.609375 491.3125 259.507812 490.769531 260.429688 490.273438 C 261.355469 489.773438 262.300781 489.324219 263.265625 488.917969 C 264.234375 488.511719 265.21875 488.152344 266.222656 487.84375 C 267.226562 487.535156 268.242188 487.273438 269.269531 487.0625 C 270.296875 486.851562 271.332031 486.6875 272.375 486.578125 C 273.417969 486.46875 274.464844 486.40625 275.515625 486.398438 C 276.5625 486.390625 277.609375 486.429688 278.65625 486.523438 C 279.703125 486.617188 280.738281 486.757812 281.769531 486.953125 C 282.800781 487.148438 283.824219 487.390625 284.828125 487.683594 C 285.835938 487.976562 286.828125 488.316406 287.804688 488.703125 C 288.777344 489.09375 289.730469 489.527344 290.664062 490.011719 C 291.597656 490.492188 292.503906 491.015625 293.382812 491.585938 C 294.265625 492.15625 295.117188 492.769531 295.9375 493.421875 C 296.761719 494.074219 297.550781 494.761719 298.304688 495.492188 L 370.589844 567.777344 L 526.105469 384.070312 C 526.792969 383.257812 527.515625 382.484375 528.277344 381.746094 C 529.039062 381.003906 529.835938 380.304688 530.664062 379.644531 C 531.496094 378.980469 532.355469 378.363281 533.25 377.785156 C 534.140625 377.207031 535.058594 376.675781 536 376.191406 C 536.945312 375.703125 537.910156 375.265625 538.894531 374.871094 C 539.882812 374.480469 540.886719 374.136719 541.90625 373.84375 C 542.925781 373.550781 543.960938 373.308594 545.003906 373.117188 C 546.046875 372.925781 547.097656 372.785156 548.15625 372.695312 C 549.214844 372.609375 550.273438 372.570312 551.335938 372.585938 C 552.398438 372.601562 553.457031 372.671875 554.511719 372.789062 C 555.566406 372.910156 556.613281 373.082031 557.648438 373.304688 C 558.6875 373.527344 559.710938 373.796875 560.722656 374.121094 C 561.734375 374.445312 562.730469 374.816406 563.703125 375.238281 C 564.679688 375.65625 565.628906 376.125 566.558594 376.640625 C 567.488281 377.152344 568.390625 377.710938 569.261719 378.3125 C 570.136719 378.917969 570.980469 379.5625 571.789062 380.246094 C 572.601562 380.933594 573.375 381.65625 574.117188 382.417969 C 574.855469 383.179688 575.554688 383.976562 576.21875 384.804688 C 576.878906 385.636719 577.496094 386.496094 578.074219 387.386719 C 578.652344 388.28125 579.183594 389.195312 579.667969 390.140625 C 580.15625 391.085938 580.59375 392.050781 580.988281 393.035156 C 581.378906 394.023438 581.722656 395.027344 582.015625 396.046875 C 582.308594 397.066406 582.550781 398.097656 582.742188 399.144531 C 582.933594 400.1875 583.074219 401.238281 583.164062 402.296875 C 583.25 403.355469 583.289062 404.414062 583.273438 405.476562 C 583.257812 406.539062 583.1875 407.597656 583.070312 408.652344 C 582.949219 409.707031 582.777344 410.753906 582.558594 411.789062 C 582.335938 412.828125 582.0625 413.851562 581.738281 414.863281 C 581.414062 415.875 581.042969 416.867188 580.625 417.84375 C 580.203125 418.816406 579.734375 419.769531 579.222656 420.699219 C 578.707031 421.628906 578.148438 422.527344 577.546875 423.402344 C 576.941406 424.277344 576.296875 425.121094 575.613281 425.929688 L 397.414062 636.527344 C 395.96875 638.238281 394.363281 639.777344 392.597656 641.152344 C 390.832031 642.53125 388.941406 643.710938 386.933594 644.695312 C 384.921875 645.679688 382.832031 646.445312 380.664062 646.996094 C 378.492188 647.546875 376.292969 647.871094 374.054688 647.964844 Z M 372.597656 647.996094 " fill-opacity="1" fill-rule="nonzero"/></svg>