<svg xmlns="http://www.w3.org/2000/svg" xmlns:xlink="http://www.w3.org/1999/xlink" width="500" zoomAndPan="magnify" viewBox="0 0 375 374.999991" height="500" preserveAspectRatio="xMidYMid meet" version="1.0"><path fill="#42a5f5" d="M 345.683594 133.886719 C 324.382812 89.421875 281.667969 83.171875 246.671875 86.921875 C 282.351562 55.707031 279.28125 7.566406 279.230469 6.902344 C 279.023438 3.378906 275.601562 0.496094 272.074219 1.007812 C 214.738281 7.652344 193.433594 44.460938 185.535156 72.507812 C 179.15625 56.734375 168.042969 39.574219 148.859375 32.289062 C 145.535156 31.023438 141.824219 32.695312 140.5625 36.011719 C 139.300781 39.335938 140.96875 43.050781 144.289062 44.308594 C 168.09375 53.359375 176.84375 83.820312 179.699219 98.148438 C 140.585938 88.628906 65.496094 63.511719 28.996094 133.886719 C 11.335938 170.757812 11.714844 223.9375 29.980469 272.675781 C 47.53125 319.503906 78.226562 354.347656 116.410156 370.804688 C 126.089844 374.976562 137.589844 375.085938 147.953125 371.105469 L 171.941406 361.878906 C 195.792969 350.960938 219.140625 373.625 242.347656 374.015625 C 247.867188 374.011719 253.308594 372.941406 258.273438 370.804688 C 338.863281 339.363281 382.28125 207.980469 345.683594 133.886719 Z M 266.457031 14.8125 C 265.753906 33.765625 257.871094 85.273438 193.921875 97.519531 C 195.179688 77.945312 204.394531 25.632812 266.457031 14.8125 Z M 332.65625 268.160156 C 316.34375 311.679688 288.121094 343.933594 253.183594 358.988281 C 246.558594 361.847656 238.59375 361.882812 231.347656 359.09375 L 207.355469 349.875 C 194.449219 344.910156 180.234375 344.910156 167.324219 349.875 C 167.324219 349.875 143.335938 359.09375 143.335938 359.09375 C 136.089844 361.878906 128.125 361.84375 121.5 358.988281 C 47.59375 330.289062 7.089844 207.066406 40.601562 139.445312 C 66.402344 85.570312 129.484375 96.621094 164.777344 107.984375 C 179.539062 112.738281 195.144531 112.738281 209.90625 107.984375 C 245.207031 96.617188 308.277344 85.570312 334.082031 139.445312 C 350.28125 173.265625 349.738281 222.589844 332.65625 268.160156 Z M 332.65625 268.160156 " fill-opacity="1" fill-rule="nonzero"/><path fill="#42a5f5" d="M 85.8125 117.882812 C 72.515625 124.636719 62.242188 135.429688 55.285156 149.957031 C 51.265625 158.351562 48.3125 167.839844 46.511719 178.15625 C 45.902344 181.660156 48.246094 184.988281 51.746094 185.601562 C 55.167969 186.210938 58.59375 183.890625 59.1875 180.367188 C 62.691406 159.308594 72.804688 138.570312 91.640625 129.351562 C 99.09375 125.421875 93.441406 114.171875 85.8125 117.882812 Z M 85.8125 117.882812 " fill-opacity="1" fill-rule="nonzero"/></svg>