<svg xmlns="http://www.w3.org/2000/svg" xmlns:xlink="http://www.w3.org/1999/xlink" width="500" zoomAndPan="magnify" viewBox="0 0 375 374.999991" height="500" preserveAspectRatio="xMidYMid meet" version="1.0"><defs><clipPath id="f0650ba0c5"><path d="M 5 18 L 375 18 L 375 356.96875 L 5 356.96875 Z M 5 18 " clip-rule="nonzero"/></clipPath></defs><path fill="#ff5252" d="M 180.636719 120.480469 C 196.238281 120.480469 208.925781 107.792969 208.925781 92.195312 C 208.925781 87.863281 207.972656 83.710938 206.097656 79.851562 C 205.011719 77.617188 202.320312 76.6875 200.078125 77.769531 C 197.839844 78.855469 196.90625 81.550781 197.996094 83.785156 C 199.273438 86.414062 199.917969 89.242188 199.917969 92.195312 C 199.917969 102.828125 191.269531 111.476562 180.636719 111.476562 C 170.003906 111.476562 161.351562 102.828125 161.351562 92.195312 C 161.351562 81.5625 170.003906 72.910156 180.636719 72.910156 C 183.835938 72.910156 187.003906 73.710938 189.792969 75.222656 C 191.976562 76.402344 194.71875 75.589844 195.898438 73.402344 C 197.082031 71.214844 196.269531 68.480469 194.082031 67.296875 C 189.976562 65.078125 185.328125 63.90625 180.636719 63.90625 C 165.039062 63.90625 152.347656 76.597656 152.347656 92.195312 C 152.347656 107.796875 165.039062 120.480469 180.636719 120.480469 Z M 180.636719 120.480469 " fill-opacity="1" fill-rule="nonzero"/><path fill="#ff5252" d="M 68.042969 229.921875 C 70.367188 229.042969 71.539062 226.445312 70.65625 224.117188 C 69.835938 221.945312 69.417969 219.648438 69.417969 217.289062 C 69.417969 206.65625 78.066406 198.007812 88.699219 198.007812 C 99.332031 198.007812 107.984375 206.65625 107.984375 217.289062 C 107.984375 227.921875 99.332031 236.574219 88.699219 236.574219 C 84.707031 236.574219 80.886719 235.371094 77.648438 233.089844 C 75.617188 231.667969 72.808594 232.152344 71.371094 234.1875 C 69.945312 236.222656 70.433594 239.03125 72.46875 240.464844 C 77.234375 243.8125 82.84375 245.578125 88.699219 245.578125 C 104.296875 245.578125 116.988281 232.886719 116.988281 217.289062 C 116.988281 201.6875 104.296875 189 88.699219 189 C 73.097656 189 60.410156 201.691406 60.410156 217.289062 C 60.410156 220.742188 61.023438 224.113281 62.234375 227.308594 C 63.113281 229.632812 65.71875 230.804688 68.042969 229.921875 Z M 68.042969 229.921875 " fill-opacity="1" fill-rule="nonzero"/><g clip-path="url(#f0650ba0c5)"><path fill="#ff5252" d="M 14.503906 136.984375 C 0.0234375 177.441406 3.132812 222.195312 23.253906 263 C 44.199219 305.480469 81.066406 337.828125 124.398438 351.753906 C 133.753906 354.757812 147.6875 357.027344 161.957031 357.027344 C 176.777344 357.027344 191.957031 354.582031 202.75 347.988281 C 211.84375 342.441406 217.28125 334.609375 218.910156 324.726562 C 220.496094 315.125 216.339844 306.589844 212.675781 299.058594 C 209.980469 293.519531 207.433594 288.285156 207.171875 283.144531 C 206.859375 276.890625 210.292969 269.925781 216.128906 264.972656 C 230.472656 252.800781 251.605469 251.808594 272.042969 250.84375 C 276.652344 250.628906 281.167969 250.414062 285.484375 250.074219 C 316.535156 247.648438 337.164062 224.773438 338.039062 191.796875 C 338.628906 169.636719 331.625 144.835938 317.390625 118.066406 C 336.972656 97.78125 353.824219 76.363281 367.4375 54.316406 C 370.09375 50.03125 371.453125 47.40625 371.484375 47.34375 C 374.542969 41.535156 374.929688 35.046875 372.535156 29.542969 C 370.523438 24.925781 366.777344 21.472656 361.984375 19.820312 C 356.636719 17.980469 350.488281 18.601562 345.097656 21.527344 C 344.992188 21.585938 342.355469 23.023438 338.125 25.710938 C 332.492188 29.308594 326.820312 33.21875 321.285156 37.324219 C 307.355469 47.632812 294 58.878906 281.429688 70.734375 C 239.972656 38.300781 195.921875 24.722656 150.351562 30.472656 C 89.128906 38.210938 34.539062 81.015625 14.503906 136.984375 Z M 222.1875 157.21875 L 236.15625 172.269531 C 236.023438 173.101562 235.898438 173.972656 235.773438 174.90625 C 234.878906 181.667969 233.769531 190.085938 222.105469 198.894531 C 208.191406 209.398438 186.921875 210.707031 165.660156 202.921875 C 170.597656 200.367188 175.042969 197.277344 178.957031 193.679688 C 185.578125 187.613281 188.914062 181.742188 191.859375 176.5625 C 194.832031 171.328125 197.179688 167.195312 202.367188 163.78125 C 206.808594 160.84375 213.0625 157.523438 222.1875 157.21875 Z M 328.601562 47.195312 C 333.914062 43.253906 339.339844 39.507812 344.71875 36.070312 C 348.507812 33.664062 350.863281 32.378906 350.957031 32.324219 C 353.324219 31.035156 355.882812 30.71875 357.984375 31.4375 C 359.042969 31.800781 360.472656 32.621094 361.265625 34.445312 C 362.152344 36.480469 361.910156 39.164062 360.59375 41.65625 C 360.582031 41.683594 359.367188 44.011719 356.988281 47.855469 C 343.054688 70.421875 325.628906 92.339844 305.203125 113.011719 C 305.152344 113.0625 305.136719 113.132812 305.089844 113.183594 C 305.074219 113.203125 305.058594 113.222656 305.039062 113.246094 C 300.039062 117.964844 280.609375 136.230469 273.519531 141.914062 C 271.480469 143.550781 268.394531 145.871094 264.894531 148.445312 L 257.839844 141.203125 C 256.265625 139.578125 253.667969 139.554688 252.046875 141.128906 C 250.429688 142.707031 250.398438 145.300781 251.976562 146.921875 L 258.207031 153.3125 C 251.863281 157.894531 245.433594 162.449219 241.75 165.050781 L 229.671875 152.039062 C 232.148438 148.476562 236.636719 142.046875 241.128906 135.785156 L 242.515625 137.207031 C 243.320312 138.03125 244.382812 138.441406 245.445312 138.441406 C 246.476562 138.441406 247.507812 138.054688 248.304688 137.277344 C 249.925781 135.699219 249.957031 133.109375 248.378906 131.488281 L 246.015625 129.066406 C 248.023438 126.347656 249.859375 123.921875 251.28125 122.171875 C 258.386719 113.402344 284.039062 85.1875 285.28125 83.824219 C 285.328125 83.789062 285.378906 83.761719 285.425781 83.730469 C 285.515625 83.648438 285.636719 83.621094 285.726562 83.535156 C 299.113281 70.566406 313.53125 58.34375 328.601562 47.195312 Z M 151.894531 42.660156 C 194.085938 37.316406 235.132812 50.085938 273.949219 80.476562 C 266.367188 88.839844 248.898438 108.207031 243.011719 115.472656 C 237.023438 122.863281 224.710938 140.511719 220.453125 146.660156 C 209.289062 147.34375 201.488281 151.597656 196.5 154.894531 C 189.191406 159.714844 185.839844 165.601562 182.605469 171.300781 C 179.921875 176.019531 177.152344 180.898438 171.757812 185.835938 C 166.054688 191.082031 158.90625 195.042969 150.5 197.613281 C 148.433594 198.246094 146.953125 200.066406 146.753906 202.21875 C 146.558594 204.363281 147.675781 206.425781 149.59375 207.425781 C 163.746094 214.8125 178.5625 218.507812 192.289062 218.507812 C 206.039062 218.503906 218.703125 214.800781 228.515625 207.386719 C 243.734375 195.898438 245.359375 183.632812 246.328125 176.304688 C 246.40625 175.703125 246.503906 175.222656 246.582031 174.675781 C 252.742188 170.335938 272.703125 156.21875 280.183594 150.21875 C 286.101562 145.472656 299.554688 132.992188 307.464844 125.578125 C 320.070312 149.761719 326.277344 171.921875 325.761719 191.46875 C 325.050781 218.136719 309.25 235.898438 284.523438 237.832031 C 280.332031 238.160156 275.945312 238.367188 271.460938 238.578125 C 250.015625 239.585938 225.714844 240.730469 208.179688 255.605469 C 199.359375 263.09375 194.398438 273.617188 194.90625 283.761719 C 195.289062 291.410156 198.511719 298.03125 201.632812 304.4375 C 204.910156 311.167969 207.742188 316.980469 206.789062 322.726562 C 205.753906 329.015625 202.339844 333.851562 196.347656 337.511719 C 179.21875 347.972656 145.742188 345.710938 128.15625 340.0625 C 87.972656 327.152344 53.75 297.082031 34.269531 257.570312 C 15.632812 219.777344 12.722656 178.421875 26.070312 141.125 C 44.582031 89.402344 95.144531 49.832031 151.894531 42.660156 Z M 151.894531 42.660156 " fill-opacity="1" fill-rule="nonzero"/></g><path fill="#ff5252" d="M 100.058594 114.039062 C 110.691406 114.039062 119.34375 122.691406 119.34375 133.324219 C 119.34375 143.957031 110.691406 152.605469 100.058594 152.605469 C 89.425781 152.605469 80.777344 143.957031 80.777344 133.324219 C 80.777344 122.691406 89.425781 114.039062 100.058594 114.039062 Z M 100.058594 161.613281 C 115.65625 161.613281 128.347656 148.925781 128.347656 133.324219 C 128.347656 117.726562 115.65625 105.035156 100.058594 105.035156 C 84.460938 105.035156 71.773438 117.726562 71.773438 133.324219 C 71.773438 148.925781 84.460938 161.613281 100.058594 161.613281 Z M 100.058594 161.613281 " fill-opacity="1" fill-rule="nonzero"/><path fill="#ff5252" d="M 114.917969 285.066406 C 114.917969 300.664062 127.609375 313.355469 143.207031 313.355469 C 158.804688 313.355469 171.496094 300.664062 171.496094 285.066406 C 171.496094 269.464844 158.804688 256.777344 143.207031 256.777344 C 127.609375 256.777344 114.917969 269.464844 114.917969 285.066406 Z M 143.207031 265.785156 C 153.839844 265.785156 162.492188 274.433594 162.492188 285.066406 C 162.492188 295.699219 153.839844 304.351562 143.207031 304.351562 C 132.574219 304.351562 123.921875 295.699219 123.921875 285.066406 C 123.921875 274.433594 132.574219 265.785156 143.207031 265.785156 Z M 143.207031 265.785156 " fill-opacity="1" fill-rule="nonzero"/></svg>