<?xml version="1.0" encoding="utf-8"?>

<!-- Uploaded to: SVG Repo, www.svgrepo.com, Generator: SVG Repo Mixer Tools -->
<svg version="1.1" id="Icons" xmlns="http://www.w3.org/2000/svg" xmlns:xlink="http://www.w3.org/1999/xlink" 
	 viewBox="0 0 32 32" xml:space="preserve">
<style type="text/css">
	.st0{fill:none;stroke:#000000;stroke-width:2;stroke-linecap:round;stroke-linejoin:round;stroke-miterlimit:10;}
	.st1{fill:none;stroke:#000000;stroke-width:2;stroke-linejoin:round;stroke-miterlimit:10;}
</style>
<line class="st0" x1="4" y1="29" x2="28" y2="29"/>
<path class="st0" d="M26,29H6v-9c0-2.2,1.8-4,4-4h12c2.2,0,4,1.8,4,4V29z"/>
<rect x="14" y="10" class="st0" width="4" height="6"/>
<path class="st0" d="M18,6c0,1.1-0.9,2-2,2s-2-0.9-2-2s2-3,2-3S18,4.9,18,6z"/>
<path class="st0" d="M6,21h5.3c0.3,0.6,1,1,1.7,1s1.4-0.4,1.7-1H26"/>
<path class="st0" d="M26,25h-5.3c-0.3,0.6-1,1-1.7,1s-1.4-0.4-1.7-1H6"/>
</svg>