<svg xmlns="http://www.w3.org/2000/svg" xmlns:xlink="http://www.w3.org/1999/xlink" width="500" zoomAndPan="magnify" viewBox="0 0 375 374.999991" height="500" preserveAspectRatio="xMidYMid meet" version="1.0"><path fill="#42a5f5" d="M 92.542969 308.125 C 91.417969 311.207031 92.957031 314.707031 96 315.832031 C 99.082031 316.957031 102.5 315.332031 103.667969 312.25 C 109.707031 296.207031 127.707031 288 143.832031 294 C 146.957031 295.125 150.332031 293.5 151.5 290.417969 C 152.667969 287.332031 151.167969 283.917969 148.042969 282.75 C 125.75 274.5 100.875 285.875 92.542969 308.125 Z M 92.542969 308.125 " fill-opacity="1" fill-rule="nonzero"/><path fill="#42a5f5" d="M 169.292969 5.582031 C 161.125 0.25 150.792969 -0.0820312 138.792969 4.457031 C 137.832031 4.75 117.875 11.875 104.917969 24.125 C 104.082031 24.082031 103.332031 23.957031 102.5 23.957031 C 78.707031 23.957031 59.417969 43.292969 59.417969 67.125 C 59.417969 72.792969 60.542969 78.292969 62.707031 83.457031 C 41.667969 89.25 26.167969 108.25 26.167969 131.082031 C 26.167969 135.417969 26.957031 139.667969 28 143.832031 C 12.957031 152.667969 3.417969 168.875 3.417969 186.542969 C 3.417969 199.292969 8.332031 210.792969 16.332031 219.582031 C 13.417969 226 11.75 233 11.75 240.167969 C 11.75 260.125 23.875 277.917969 41.792969 285.667969 C 40 290.375 39.042969 295.5 39.042969 300.625 C 39.042969 324.457031 58.375 343.75 82.207031 343.75 C 83.292969 343.75 84.457031 343.5 85.625 343.417969 C 92.125 361.25 111.417969 373.792969 133.875 373.792969 C 161.792969 373.792969 184.542969 354.417969 184.542969 330.667969 L 184.542969 288.5 C 184.542969 288.5 184.542969 288.5 184.542969 288.417969 L 184.542969 128.875 C 184.542969 128.875 184.542969 128.875 184.542969 128.832031 L 184.542969 128.792969 L 184.5 35.542969 C 184.5 34.707031 183.207031 14.667969 169.292969 5.582031 Z M 172.625 99.25 C 164.792969 90.957031 153.707031 85.707031 141.375 85.707031 C 138.082031 85.707031 135.417969 88.375 135.417969 91.667969 C 135.417969 94.917969 138.082031 97.625 141.375 97.625 C 158.625 97.625 172.625 111.625 172.625 128.875 L 172.625 258.917969 C 164.792969 250.625 153.707031 245.332031 141.375 245.332031 C 138.082031 245.292969 135.417969 247.957031 135.417969 251.207031 C 135.417969 254.542969 138.082031 257.167969 141.375 257.167969 C 158.625 257.167969 172.625 271.25 172.625 288.417969 L 172.625 330.667969 C 172.625 347.832031 155.292969 361.917969 133.875 361.917969 C 114.917969 361.917969 98.792969 350.917969 95.667969 335.875 C 94.957031 332.667969 91.75 330.667969 88.542969 331.207031 C 88.542969 331.207031 88.5 331.207031 88.457031 331.207031 C 86.417969 331.707031 84.332031 331.875 82.207031 331.875 C 64.957031 331.875 50.917969 317.875 50.917969 300.625 C 50.917969 295.167969 52.375 289.875 55.042969 285.167969 C 55.207031 284.917969 55.25 284.582031 55.332031 284.25 C 55.375 284.082031 55.542969 284 55.667969 283.832031 C 55.667969 283.667969 55.667969 283.417969 55.667969 283.167969 C 55.707031 282.917969 55.707031 282.667969 55.707031 282.332031 C 55.707031 281.832031 55.707031 281.375 55.667969 280.957031 C 55.542969 280.667969 55.457031 280.417969 55.332031 280.207031 C 55.167969 279.707031 55 279.375 54.707031 279 C 54.582031 278.707031 54.332031 278.5 54.125 278.25 C 53.792969 277.917969 53.457031 277.667969 53.167969 277.332031 C 53 277.25 52.957031 277.167969 52.792969 277.082031 C 52.582031 276.917969 52.292969 276.917969 52 276.792969 C 51.832031 276.707031 51.667969 276.625 51.457031 276.542969 C 35.082031 272.042969 23.707031 257.082031 23.707031 240.167969 C 23.707031 236 24.625 231.875 25.957031 228.042969 C 33.75 233.082031 43 236.167969 53 236.167969 C 56.25 236.167969 58.957031 233.5 58.957031 230.207031 C 58.957031 226.875 56.25 224.167969 53 224.167969 C 32.167969 224.167969 15.332031 207.292969 15.332031 186.5 C 15.332031 171.875 23.875 158.542969 37.125 152.332031 L 37.167969 152.332031 C 37.25 152.292969 37.332031 152.207031 37.417969 152.167969 C 42.332031 149.957031 47.582031 148.832031 53 148.832031 C 56.25 148.832031 58.957031 146.167969 58.957031 142.875 C 58.957031 139.582031 56.25 137 53 137 C 48.167969 137 43.582031 137.875 39.042969 139.207031 C 38.457031 136.542969 38.042969 133.832031 38.042969 131.082031 C 38.042969 110.292969 55 93.417969 75.75 93.417969 C 90.125 93.417969 103 101.375 109.457031 114.25 C 110.957031 117.207031 114.5 118.332031 117.457031 116.875 C 120.375 115.417969 121.582031 111.875 120.082031 108.917969 C 111.625 92 94.667969 81.5 75.75 81.5 C 75.542969 81.5 75.375 81.542969 75.125 81.542969 C 72.75 77.082031 71.292969 72.207031 71.292969 67.082031 C 71.292969 49.832031 85.292969 35.832031 102.542969 35.832031 C 113.875 35.832031 124.332031 42 129.875 51.917969 C 132.375 56.542969 133.75 61.792969 133.75 67.082031 C 133.75 70.332031 136.457031 73.042969 139.707031 73.042969 C 143 73.042969 145.707031 70.332031 145.707031 67.082031 C 145.707031 59.75 143.832031 52.5 140.292969 46.167969 C 135.5 37.667969 128.207031 31.25 119.582031 27.5 C 130.167969 20.167969 142.542969 15.75 142.792969 15.625 C 151.25 12.457031 158 12.417969 162.792969 15.542969 C 171.542969 21.25 172.625 35.875 172.625 35.875 Z M 172.625 99.25 " fill-opacity="1" fill-rule="nonzero"/><path fill="#42a5f5" d="M 108.332031 157.332031 C 107.75 154.167969 104.625 152.042969 101.375 152.667969 C 98.125 153.292969 96.082031 156.417969 96.707031 159.625 C 98.957031 171.582031 105.292969 182.042969 114.292969 190 C 114.082031 190.75 113.957031 191.5 114 192.292969 C 115 209.5 101.875 224.375 84.707031 225.417969 C 81.375 225.582031 78.917969 228.417969 79.082031 231.667969 C 79.292969 234.832031 81.917969 237.292969 85.042969 237.292969 C 85.125 237.292969 85.25 237.292969 85.457031 237.292969 C 107.042969 236 123.832031 218.832031 125.625 197.792969 C 133.207031 201.625 141.457031 203.625 149.875 203.625 C 153.332031 203.625 156.792969 203.332031 160.167969 202.667969 C 163.332031 202.082031 165.457031 198.957031 164.875 195.707031 C 164.292969 192.542969 161.042969 190.375 157.917969 191 C 146.75 193.167969 135.5 190.832031 126.207031 184.457031 C 116.792969 178.082031 110.457031 168.457031 108.332031 157.332031 Z M 108.332031 157.332031 " fill-opacity="1" fill-rule="nonzero"/><path fill="#42a5f5" d="M 231.125 282.792969 C 228.082031 283.917969 226.542969 287.332031 227.667969 290.457031 C 228.75 293.542969 232.25 295.167969 235.332031 294.042969 C 251.457031 288 269.5 296.25 275.542969 312.292969 C 276.667969 315.332031 280.082031 316.957031 283.167969 315.832031 C 286.292969 314.707031 287.792969 311.207031 286.625 308.082031 C 278.375 285.875 253.417969 274.5 231.125 282.792969 Z M 231.125 282.792969 " fill-opacity="1" fill-rule="nonzero"/><path fill="#42a5f5" d="M 375.792969 186.542969 C 375.792969 168.875 366.25 152.667969 351.167969 143.832031 C 352.207031 139.667969 353 135.417969 353 131.082031 C 353 108.292969 337.5 89.25 316.542969 83.457031 C 318.625 78.292969 319.792969 72.792969 319.792969 67.125 C 319.792969 43.332031 300.457031 23.957031 276.667969 23.957031 C 275.875 23.957031 275.125 24.082031 274.25 24.125 C 261.292969 11.875 241.292969 4.75 240.417969 4.457031 C 228.375 -0.0820312 218.042969 0.25 209.875 5.582031 C 196 14.667969 194.707031 34.707031 194.707031 35.542969 L 194.667969 128.792969 L 194.667969 128.832031 C 194.667969 128.832031 194.667969 128.875 194.667969 128.875 L 194.667969 288.417969 C 194.667969 288.5 194.667969 288.5 194.667969 288.5 L 194.667969 330.667969 C 194.667969 354.417969 217.417969 373.792969 245.332031 373.792969 C 267.792969 373.792969 287.082031 361.25 293.542969 343.417969 C 294.707031 343.5 295.875 343.75 296.957031 343.75 C 320.75 343.75 340.125 324.457031 340.125 300.625 C 340.125 295.5 339.167969 290.375 337.375 285.667969 C 355.375 277.917969 367.417969 260.082031 367.417969 240.167969 C 367.417969 233 365.832031 226 362.875 219.582031 C 370.875 210.792969 375.792969 199.292969 375.792969 186.542969 Z M 327.707031 276.542969 C 327.5 276.625 327.375 276.707031 327.167969 276.792969 C 326.917969 276.917969 326.582031 276.917969 326.375 277.082031 C 326.207031 277.167969 326.167969 277.25 326 277.332031 C 325.667969 277.667969 325.375 277.917969 325.082031 278.25 C 324.832031 278.5 324.582031 278.707031 324.457031 278.957031 C 324.167969 279.375 324.042969 279.707031 323.832031 280.207031 C 323.75 280.417969 323.625 280.667969 323.542969 281 C 323.457031 281.417969 323.457031 281.875 323.457031 282.375 C 323.457031 282.707031 323.457031 282.957031 323.542969 283.207031 C 323.542969 283.457031 323.457031 283.707031 323.542969 283.875 C 323.625 284.042969 323.792969 284.125 323.832031 284.292969 C 324 284.582031 324 284.917969 324.167969 285.167969 C 326.792969 289.875 328.292969 295.167969 328.292969 300.625 C 328.292969 317.875 314.167969 331.875 296.957031 331.875 C 294.832031 331.875 292.75 331.707031 290.707031 331.207031 L 290.625 331.207031 C 287.457031 330.625 284.25 332.667969 283.542969 335.832031 C 280.417969 350.917969 264.292969 361.917969 245.332031 361.917969 C 223.875 361.917969 206.542969 347.832031 206.542969 330.667969 L 206.542969 288.417969 C 206.542969 271.25 220.582031 257.167969 237.792969 257.167969 C 241.082031 257.167969 243.792969 254.542969 243.792969 251.207031 C 243.792969 247.957031 241.125 245.25 237.792969 245.25 C 225.457031 245.25 214.375 250.542969 206.542969 258.832031 L 206.542969 128.832031 C 206.542969 111.582031 220.582031 97.582031 237.792969 97.582031 C 241.082031 97.582031 243.792969 94.917969 243.792969 91.625 C 243.792969 88.332031 241.125 85.625 237.792969 85.625 C 225.457031 85.625 214.375 90.875 206.542969 99.167969 L 206.542969 35.875 C 206.542969 35.875 207.582031 21.25 216.457031 15.542969 C 221.167969 12.417969 227.957031 12.457031 236.417969 15.625 C 236.667969 15.75 249.042969 20.167969 259.625 27.5 C 251 31.25 243.625 37.667969 238.917969 46.167969 C 235.417969 52.542969 233.542969 59.792969 233.542969 67.082031 C 233.542969 70.332031 236.167969 73.042969 239.5 73.042969 C 242.792969 73.042969 245.457031 70.332031 245.457031 67.082031 C 245.457031 61.792969 246.792969 56.542969 249.375 51.917969 C 254.832031 42.042969 265.292969 35.875 276.667969 35.875 C 293.875 35.875 307.917969 49.875 307.917969 67.125 C 307.917969 72.25 306.417969 77.125 304.082031 81.582031 C 303.832031 81.582031 303.625 81.542969 303.417969 81.542969 C 284.5 81.542969 267.542969 92 259.082031 108.957031 C 257.625 111.875 258.792969 115.417969 261.75 116.875 C 264.667969 118.332031 268.207031 117.167969 269.707031 114.25 C 276.125 101.375 289.042969 93.417969 303.417969 93.417969 C 324.167969 93.417969 341.125 110.292969 341.125 131.082031 C 341.125 133.832031 340.667969 136.542969 340.125 139.207031 C 335.667969 137.875 331.082031 137 326.167969 137 C 322.917969 137 320.167969 139.625 320.167969 142.917969 C 320.167969 146.207031 322.917969 148.875 326.167969 148.875 C 331.625 148.875 336.832031 150 341.707031 152.207031 C 341.832031 152.25 341.917969 152.332031 342 152.375 L 342.082031 152.375 C 355.332031 158.542969 363.832031 171.917969 363.832031 186.542969 C 363.832031 207.332031 346.957031 224.207031 326.167969 224.207031 C 322.917969 224.207031 320.167969 226.875 320.167969 230.25 C 320.167969 233.5 322.875 236.207031 326.167969 236.207031 C 336.167969 236.207031 345.417969 233.125 353.167969 228.082031 C 354.582031 231.832031 355.457031 236 355.457031 240.167969 C 355.457031 257.082031 344.082031 272.042969 327.707031 276.542969 Z M 327.707031 276.542969 " fill-opacity="1" fill-rule="nonzero"/><path fill="#42a5f5" d="M 294.542969 225.417969 C 277.332031 224.375 264.207031 209.5 265.167969 192.292969 C 265.25 191.5 265.125 190.75 264.875 190 C 273.917969 182.082031 280.207031 171.625 282.5 159.625 C 283.167969 156.417969 281.082031 153.292969 277.832031 152.667969 C 274.542969 152.042969 271.417969 154.167969 270.832031 157.332031 C 268.667969 168.457031 262.332031 178.082031 253 184.457031 C 243.625 190.832031 232.375 193.167969 221.292969 191 C 218.167969 190.375 214.875 192.542969 214.292969 195.707031 C 213.707031 198.957031 215.832031 202.082031 219.082031 202.707031 C 222.5 203.332031 225.917969 203.667969 229.332031 203.667969 C 237.75 203.667969 246.042969 201.667969 253.582031 197.832031 C 255.375 218.832031 272.125 236.042969 293.792969 237.332031 C 293.957031 237.332031 294.042969 237.332031 294.125 237.332031 C 297.292969 237.332031 299.917969 234.875 300.125 231.707031 C 300.25 228.417969 297.832031 225.582031 294.542969 225.417969 Z M 294.542969 225.417969 " fill-opacity="1" fill-rule="nonzero"/></svg>