<svg xmlns="http://www.w3.org/2000/svg" xmlns:xlink="http://www.w3.org/1999/xlink" width="500" zoomAndPan="magnify" viewBox="0 0 375 374.999991" height="500" preserveAspectRatio="xMidYMid meet" version="1.0"><defs><clipPath id="62500816c5"><path d="M 2 3 L 373 3 L 373 372.476562 L 2 372.476562 Z M 2 3 " clip-rule="nonzero"/></clipPath></defs><path fill="#ff5252" d="M 90.09375 32.316406 C 90.886719 30.230469 89.839844 27.886719 87.75 27.085938 C 85.65625 26.285156 83.320312 27.332031 82.519531 29.414062 C 81.863281 31.132812 66.695312 71.96875 97.722656 111.5625 C 98.523438 112.582031 99.710938 113.113281 100.917969 113.113281 C 101.789062 113.113281 102.667969 112.835938 103.414062 112.25 C 105.179688 110.871094 105.488281 108.328125 104.101562 106.5625 C 75.992188 70.6875 89.5 33.867188 90.09375 32.316406 Z M 90.09375 32.316406 " fill-opacity="1" fill-rule="nonzero"/><path fill="#ff5252" d="M 107.105469 171.714844 C 29.941406 157.777344 28.445312 96.601562 28.421875 94.003906 C 28.394531 91.785156 26.589844 89.988281 24.371094 89.988281 L 24.339844 89.988281 C 22.097656 90.011719 20.300781 91.832031 20.316406 94.058594 C 20.316406 94.765625 21.71875 164.527344 105.671875 179.691406 C 105.90625 179.738281 106.152344 179.757812 106.390625 179.757812 C 108.316406 179.757812 110.019531 178.386719 110.375 176.429688 C 110.773438 174.226562 109.308594 172.117188 107.105469 171.714844 Z M 107.105469 171.714844 " fill-opacity="1" fill-rule="nonzero"/><path fill="#ff5252" d="M 175.019531 172.195312 C 175.265625 166.832031 173.414062 161.683594 169.792969 157.714844 C 162.320312 149.519531 149.570312 148.925781 141.378906 156.390625 C 137.410156 160.011719 135.082031 164.957031 134.828125 170.328125 C 134.582031 175.691406 136.4375 180.839844 140.054688 184.8125 C 143.675781 188.78125 148.621094 191.101562 153.984375 191.355469 C 154.308594 191.371094 154.628906 191.378906 154.953125 191.378906 C 159.96875 191.378906 164.738281 189.53125 168.46875 186.125 C 172.445312 182.511719 174.765625 177.5625 175.019531 172.195312 Z M 163.007812 180.136719 C 160.640625 182.300781 157.574219 183.410156 154.367188 183.257812 C 151.164062 183.105469 148.210938 181.722656 146.046875 179.34375 C 143.882812 176.976562 142.78125 173.910156 142.925781 170.699219 C 143.074219 167.5 144.460938 164.542969 146.839844 162.378906 C 149.136719 160.289062 152.027344 159.257812 154.921875 159.257812 C 158.183594 159.257812 161.433594 160.574219 163.800781 163.171875 C 165.964844 165.542969 167.066406 168.617188 166.921875 171.816406 C 166.773438 175.027344 165.386719 177.972656 163.007812 180.136719 Z M 163.007812 180.136719 " fill-opacity="1" fill-rule="nonzero"/><g clip-path="url(#62500816c5)"><path fill="#ff5252" d="M 364.5 260.839844 L 351.128906 251.785156 C 346.5625 248.695312 342.777344 244.496094 340.179688 239.636719 L 339.933594 239.1875 C 326.789062 214.632812 307.644531 193.390625 284.574219 177.757812 L 275.492188 171.609375 C 252.976562 156.351562 227.996094 146.152344 201.230469 141.289062 L 177.867188 137.042969 C 175.996094 135.78125 174.03125 134.6875 171.988281 133.761719 L 93.601562 5.503906 C 92.4375 3.59375 89.941406 2.992188 88.035156 4.15625 C 59.929688 21.316406 52.777344 62.683594 69.183594 101.445312 L 18.683594 65.101562 C 16.867188 63.800781 14.339844 64.214844 13.035156 66.019531 C 2.265625 80.980469 0 100.589844 6.640625 121.234375 C 13.136719 141.441406 27.460938 160.304688 46.976562 174.351562 C 66.191406 188.179688 88.582031 195.730469 109.242188 195.730469 C 113.300781 195.730469 117.277344 195.417969 121.160156 194.824219 C 122 196.03125 122.910156 197.1875 123.886719 198.3125 L 131.683594 221.597656 C 140.308594 247.386719 153.976562 270.65625 172.296875 290.773438 L 179.6875 298.886719 C 181.421875 300.796875 183.222656 302.652344 185.042969 304.472656 C 185.105469 304.535156 185.164062 304.617188 185.234375 304.679688 C 185.25 304.6875 185.257812 304.695312 185.273438 304.703125 C 203.070312 322.472656 224.730469 336.308594 248.40625 344.90625 L 248.871094 345.070312 C 254.054688 346.957031 258.753906 350.101562 262.460938 354.175781 L 273.339844 366.113281 C 276.617188 369.710938 281.09375 371.820312 285.960938 372.042969 C 286.246094 372.058594 286.539062 372.066406 286.824219 372.066406 C 291.371094 372.066406 295.707031 370.386719 299.285156 367.121094 C 302.882812 363.839844 304.992188 359.363281 305.214844 354.5 C 305.441406 349.636719 303.761719 344.976562 300.484375 341.378906 L 293.421875 333.628906 C 276.492188 315.042969 257.066406 298.933594 235.679688 285.75 L 234.839844 285.226562 C 226.640625 280.164062 219.191406 273.992188 212.710938 266.878906 L 212.394531 266.523438 C 205.011719 258.417969 199.011719 249.25 194.558594 239.359375 C 212.789062 235.375 226.308594 219.808594 227.757812 200.972656 C 238.191406 203.96875 248.136719 208.597656 257.214844 214.746094 L 257.613281 215.023438 C 265.589844 220.425781 272.761719 226.914062 278.941406 234.296875 L 279.574219 235.058594 C 295.699219 254.34375 314.421875 271.277344 335.226562 285.371094 L 343.902344 291.25 C 347.007812 293.347656 350.535156 294.363281 354.035156 294.363281 C 359.921875 294.363281 365.730469 291.511719 369.367188 286.148438 C 374.992188 277.835938 372.8125 266.480469 364.5 260.839844 Z M 116.960938 187.210938 C 96.011719 189.445312 72.027344 182.394531 51.714844 167.769531 C 33.59375 154.734375 20.332031 137.328125 14.355469 118.757812 C 9.023438 102.171875 10.125 86.507812 17.390625 74.15625 L 120.628906 148.453125 C 112.984375 159.964844 111.675781 174.605469 116.960938 187.210938 Z M 83.4375 111.695312 C 61.476562 74.703125 64.128906 31.824219 88.898438 13.347656 L 160.464844 130.457031 C 159.269531 130.292969 158.066406 130.171875 156.835938 130.117188 C 145.863281 129.617188 135.320312 133.40625 127.1875 140.8125 C 126.707031 141.257812 126.230469 141.710938 125.769531 142.167969 Z M 130.46875 193.535156 C 118.1875 180.058594 119.164062 159.09375 132.648438 146.804688 C 138.789062 141.210938 146.632812 138.183594 154.886719 138.183594 C 155.410156 138.183594 155.933594 138.191406 156.464844 138.214844 C 160.339844 138.398438 164.078125 139.238281 167.566406 140.671875 C 167.628906 140.703125 167.683594 140.734375 167.746094 140.757812 C 172.121094 142.589844 176.089844 145.371094 179.378906 148.984375 L 179.378906 148.992188 C 189.78125 160.40625 190.667969 177.179688 182.507812 189.515625 C 182.253906 189.792969 182.03125 190.113281 181.867188 190.453125 C 180.527344 192.328125 178.976562 194.097656 177.199219 195.714844 C 163.722656 207.992188 142.75 207.019531 130.46875 193.535156 Z M 206.398438 271.980469 L 206.714844 272.328125 C 206.917969 272.550781 207.125 272.757812 207.332031 272.980469 L 187.730469 295.605469 C 187.046875 294.878906 186.351562 294.15625 185.675781 293.421875 L 178.285156 285.308594 C 160.734375 266.039062 147.640625 243.734375 139.367188 219.023438 L 135.539062 207.582031 C 141.570312 210.789062 148.25 212.421875 154.945312 212.421875 C 162.652344 212.421875 170.371094 210.269531 177.136719 205.933594 L 179.15625 216.988281 C 182.921875 237.53125 192.339844 256.546875 206.398438 271.980469 Z M 191.484375 231.707031 C 189.609375 226.460938 188.140625 221.058594 187.136719 215.535156 L 184.308594 200.117188 C 185.457031 198.945312 186.515625 197.71875 187.5 196.449219 L 203.148438 197.035156 C 208.765625 197.25 214.320312 197.929688 219.777344 199.03125 C 219.253906 215.210938 207.425781 228.878906 191.484375 231.707031 Z M 262.175781 208.320312 L 261.769531 208.042969 C 244.484375 196.332031 224.320312 189.730469 203.457031 188.9375 L 192.316406 188.519531 C 198.394531 175.304688 197.160156 159.417969 188.332031 147.191406 L 199.78125 149.269531 C 225.429688 153.925781 249.371094 163.695312 270.945312 178.320312 L 280.035156 184.476562 C 280.859375 185.03125 281.664062 185.617188 282.480469 186.1875 L 262.886719 208.816406 C 262.652344 208.660156 262.414062 208.484375 262.175781 208.320312 Z M 262.175781 208.320312 " fill-opacity="1" fill-rule="nonzero"/></g></svg>