<svg xmlns="http://www.w3.org/2000/svg" xmlns:xlink="http://www.w3.org/1999/xlink" width="500" zoomAndPan="magnify" viewBox="0 0 375 374.999991" height="500" preserveAspectRatio="xMidYMid meet" version="1.0"><path fill="#ff5252" d="M 337.046875 105.945312 L 305.105469 105.945312 C 310.917969 95.609375 306.984375 67.113281 301.695312 51.265625 C 284.363281 0.28125 216.054688 55.71875 204.21875 66.214844 C 199.109375 62.113281 186.496094 64.058594 180.4375 63.625 C 177.1875 63.640625 174.179688 64.5 171.417969 66.210938 C 159.6875 55.789062 91.285156 0.296875 73.960938 51.203125 C 68.671875 67.0625 64.699219 95.59375 70.535156 105.941406 L 38.582031 105.941406 C 37.964844 105.945312 37.347656 105.976562 36.734375 106.035156 C 36.121094 106.097656 35.511719 106.1875 34.90625 106.308594 C 34.300781 106.429688 33.703125 106.578125 33.113281 106.757812 C 32.523438 106.9375 31.941406 107.148438 31.371094 107.382812 C 30.800781 107.621094 30.246094 107.882812 29.699219 108.175781 C 29.15625 108.464844 28.628906 108.78125 28.117188 109.125 C 27.601562 109.46875 27.105469 109.835938 26.628906 110.226562 C 26.152344 110.621094 25.695312 111.035156 25.261719 111.46875 C 24.824219 111.90625 24.410156 112.363281 24.019531 112.839844 C 23.625 113.316406 23.257812 113.8125 22.917969 114.324219 C 22.574219 114.835938 22.257812 115.367188 21.964844 115.910156 C 21.675781 116.453125 21.410156 117.011719 21.175781 117.582031 C 20.9375 118.152344 20.730469 118.730469 20.550781 119.320312 C 20.371094 119.914062 20.21875 120.511719 20.097656 121.117188 C 19.980469 121.71875 19.886719 122.332031 19.828125 122.945312 C 19.765625 123.558594 19.734375 124.175781 19.734375 124.789062 L 19.734375 191.222656 C 19.734375 191.632812 19.773438 192.042969 19.855469 192.445312 C 19.933594 192.851562 20.054688 193.246094 20.210938 193.625 C 20.371094 194.007812 20.5625 194.367188 20.792969 194.710938 C 21.023438 195.054688 21.28125 195.371094 21.574219 195.664062 C 21.867188 195.957031 22.183594 196.214844 22.527344 196.445312 C 22.867188 196.675781 23.230469 196.867188 23.613281 197.027344 C 23.992188 197.183594 24.386719 197.300781 24.789062 197.382812 C 25.195312 197.464844 25.605469 197.503906 26.015625 197.503906 L 38.332031 197.503906 L 38.332031 362.503906 C 38.332031 363.121094 38.363281 363.738281 38.421875 364.351562 C 38.484375 364.964844 38.574219 365.574219 38.695312 366.179688 C 38.816406 366.785156 38.96875 367.382812 39.144531 367.972656 C 39.324219 368.5625 39.535156 369.144531 39.769531 369.714844 C 40.007812 370.285156 40.269531 370.839844 40.5625 371.382812 C 40.851562 371.929688 41.171875 372.457031 41.511719 372.96875 C 41.855469 373.484375 42.222656 373.976562 42.613281 374.457031 C 43.007812 374.933594 43.421875 375.390625 43.855469 375.824219 C 44.292969 376.261719 44.75 376.675781 45.226562 377.066406 C 45.703125 377.457031 46.199219 377.824219 46.710938 378.167969 C 47.226562 378.511719 47.753906 378.828125 48.296875 379.121094 C 48.839844 379.410156 49.398438 379.675781 49.96875 379.910156 C 50.539062 380.148438 51.117188 380.355469 51.710938 380.535156 C 52.300781 380.714844 52.898438 380.863281 53.503906 380.984375 C 54.109375 381.105469 54.71875 381.199219 55.332031 381.257812 C 55.945312 381.320312 56.5625 381.351562 57.179688 381.351562 C 90.644531 381.355469 318.449219 381.351562 318.449219 381.351562 C 319.066406 381.351562 319.683594 381.320312 320.296875 381.257812 C 320.910156 381.199219 321.519531 381.105469 322.125 380.984375 C 322.730469 380.863281 323.328125 380.714844 323.917969 380.535156 C 324.507812 380.355469 325.089844 380.148438 325.660156 379.910156 C 326.230469 379.675781 326.785156 379.410156 327.332031 379.121094 C 327.875 378.828125 328.402344 378.511719 328.917969 378.167969 C 329.429688 377.824219 329.925781 377.457031 330.402344 377.066406 C 330.878906 376.675781 331.335938 376.261719 331.773438 375.824219 C 332.207031 375.390625 332.621094 374.933594 333.011719 374.453125 C 333.40625 373.976562 333.773438 373.484375 334.117188 372.96875 C 334.457031 372.457031 334.773438 371.929688 335.066406 371.382812 C 335.359375 370.839844 335.621094 370.285156 335.859375 369.714844 C 336.09375 369.144531 336.300781 368.5625 336.480469 367.972656 C 336.660156 367.382812 336.8125 366.785156 336.933594 366.179688 C 337.054688 365.574219 337.144531 364.964844 337.207031 364.351562 C 337.265625 363.738281 337.296875 363.121094 337.296875 362.503906 L 337.296875 197.503906 L 349.613281 197.503906 C 350.023438 197.503906 350.433594 197.464844 350.835938 197.382812 C 351.242188 197.300781 351.636719 197.183594 352.015625 197.027344 C 352.398438 196.867188 352.757812 196.675781 353.101562 196.445312 C 353.445312 196.214844 353.761719 195.957031 354.054688 195.664062 C 354.347656 195.371094 354.605469 195.054688 354.835938 194.710938 C 355.066406 194.367188 355.257812 194.007812 355.417969 193.625 C 355.574219 193.246094 355.691406 192.851562 355.773438 192.445312 C 355.855469 192.042969 355.894531 191.632812 355.894531 191.222656 L 355.894531 124.792969 C 355.894531 124.175781 355.863281 123.558594 355.800781 122.945312 C 355.742188 122.332031 355.648438 121.71875 355.527344 121.117188 C 355.40625 120.511719 355.257812 119.914062 355.078125 119.320312 C 354.898438 118.730469 354.691406 118.152344 354.453125 117.582031 C 354.21875 117.011719 353.953125 116.453125 353.664062 115.910156 C 353.371094 115.367188 353.054688 114.835938 352.710938 114.324219 C 352.367188 113.8125 352 113.316406 351.609375 112.839844 C 351.21875 112.363281 350.804688 111.90625 350.367188 111.46875 C 349.929688 111.035156 349.476562 110.621094 348.996094 110.226562 C 348.519531 109.835938 348.027344 109.46875 347.511719 109.125 C 347 108.78125 346.472656 108.464844 345.925781 108.175781 C 345.382812 107.882812 344.824219 107.621094 344.257812 107.382812 C 343.6875 107.148438 343.105469 106.9375 342.515625 106.757812 C 341.925781 106.578125 341.328125 106.429688 340.722656 106.308594 C 340.117188 106.1875 339.507812 106.097656 338.894531 106.035156 C 338.277344 105.976562 337.664062 105.945312 337.046875 105.945312 Z M 220.765625 105.945312 C 236.957031 91.054688 276.042969 82.40625 294.976562 79.722656 C 296.265625 90.453125 296.089844 103.757812 288.015625 105.945312 Z M 214.484375 184.9375 C 214.019531 184.890625 161.601562 184.972656 161.144531 184.9375 L 161.144531 118.507812 C 161.144531 118.507812 209.394531 118.519531 214.484375 118.507812 Z M 268.238281 42.804688 C 285.0625 38.597656 290.664062 53.832031 292.785156 67.367188 C 276.550781 69.730469 235.71875 77.304688 212.671875 95.953125 C 213.035156 89.351562 212.773438 82.773438 211.890625 76.21875 C 220.082031 68.839844 228.921875 62.339844 238.40625 56.714844 C 247.890625 51.089844 257.835938 46.453125 268.238281 42.804688 Z M 180.4375 76.191406 L 195.191406 76.191406 C 195.515625 76.191406 195.835938 76.222656 196.152344 76.285156 C 196.46875 76.347656 196.773438 76.441406 197.070312 76.566406 C 197.371094 76.691406 197.652344 76.84375 197.921875 77.023438 C 198.191406 77.199219 198.4375 77.40625 198.664062 77.632812 C 198.894531 77.859375 199.097656 78.109375 199.277344 78.378906 C 199.457031 78.644531 199.605469 78.929688 199.730469 79.226562 C 199.855469 79.527344 199.949219 79.832031 200.011719 80.148438 C 200.074219 80.464844 200.105469 80.785156 200.105469 81.109375 L 200.105469 105.945312 L 175.523438 105.945312 L 175.523438 81.109375 C 175.523438 80.785156 175.554688 80.464844 175.617188 80.148438 C 175.679688 79.832031 175.773438 79.527344 175.898438 79.226562 C 176.019531 78.929688 176.171875 78.644531 176.351562 78.378906 C 176.53125 78.109375 176.734375 77.859375 176.960938 77.632812 C 177.191406 77.40625 177.4375 77.199219 177.707031 77.019531 C 177.976562 76.84375 178.257812 76.691406 178.554688 76.566406 C 178.855469 76.441406 179.160156 76.347656 179.476562 76.285156 C 179.792969 76.222656 180.113281 76.191406 180.4375 76.191406 Z M 86.027344 54.695312 C 86.1875 54.152344 86.367188 53.617188 86.578125 53.089844 C 86.785156 52.5625 87.019531 52.046875 87.277344 51.546875 C 87.539062 51.042969 87.820312 50.550781 88.128906 50.078125 C 88.4375 49.601562 88.765625 49.140625 89.117188 48.699219 C 89.46875 48.253906 89.84375 47.832031 90.238281 47.421875 C 90.628906 47.015625 91.042969 46.628906 91.476562 46.265625 C 91.90625 45.898438 92.355469 45.554688 92.820312 45.230469 C 93.285156 44.910156 93.765625 44.609375 94.261719 44.335938 C 94.757812 44.058594 95.261719 43.808594 95.78125 43.585938 C 96.300781 43.359375 96.832031 43.160156 97.371094 42.984375 C 97.910156 42.8125 98.453125 42.664062 99.007812 42.542969 C 99.5625 42.425781 100.117188 42.332031 100.679688 42.265625 C 101.242188 42.199219 101.808594 42.164062 102.375 42.152344 C 102.941406 42.144531 103.503906 42.160156 104.070312 42.207031 C 104.632812 42.25 105.195312 42.324219 105.75 42.421875 C 106.308594 42.523438 106.859375 42.652344 107.40625 42.804688 C 117.804688 46.453125 127.746094 51.089844 137.230469 56.714844 C 146.710938 62.335938 155.550781 68.835938 163.742188 76.210938 C 162.90625 82.765625 162.644531 89.34375 162.957031 95.941406 C 139.90625 77.304688 99.085938 69.730469 82.851562 67.367188 C 83.753906 63.203125 84.773438 58.957031 86.027344 54.695312 Z M 80.664062 79.722656 C 100.320312 82.503906 136.691406 90.585938 155.335938 105.945312 L 87.621094 105.945312 C 79.546875 103.757812 79.375 90.449219 80.664062 79.722656 Z M 32.300781 124.792969 C 32.300781 124.378906 32.339844 123.96875 32.421875 123.566406 C 32.503906 123.160156 32.621094 122.769531 32.78125 122.386719 C 32.9375 122.007812 33.132812 121.644531 33.359375 121.300781 C 33.589844 120.960938 33.851562 120.644531 34.140625 120.351562 C 34.433594 120.058594 34.75 119.800781 35.09375 119.570312 C 35.4375 119.339844 35.796875 119.148438 36.179688 118.988281 C 36.558594 118.832031 36.953125 118.710938 37.355469 118.628906 C 37.761719 118.550781 38.167969 118.507812 38.582031 118.507812 L 148.578125 118.507812 L 148.578125 184.9375 C 141.042969 184.925781 36.8125 184.949219 32.296875 184.9375 Z M 50.894531 362.503906 L 50.894531 197.503906 L 156.964844 197.503906 L 156.964844 368.785156 L 57.179688 368.785156 C 56.765625 368.785156 56.355469 368.746094 55.953125 368.664062 C 55.546875 368.582031 55.15625 368.464844 54.773438 368.304688 C 54.394531 368.148438 54.03125 367.953125 53.6875 367.726562 C 53.347656 367.496094 53.03125 367.234375 52.738281 366.945312 C 52.445312 366.652344 52.1875 366.335938 51.957031 365.992188 C 51.726562 365.648438 51.535156 365.289062 51.375 364.90625 C 51.21875 364.527344 51.097656 364.132812 51.015625 363.730469 C 50.9375 363.324219 50.894531 362.917969 50.894531 362.503906 Z M 169.53125 368.785156 L 169.53125 197.503906 L 206.097656 197.503906 L 206.097656 368.785156 Z M 324.734375 362.503906 C 324.730469 362.917969 324.691406 363.324219 324.609375 363.730469 C 324.53125 364.132812 324.410156 364.527344 324.253906 364.90625 C 324.09375 365.289062 323.902344 365.648438 323.671875 365.992188 C 323.441406 366.335938 323.183594 366.652344 322.890625 366.945312 C 322.597656 367.234375 322.28125 367.496094 321.9375 367.726562 C 321.597656 367.953125 321.234375 368.148438 320.851562 368.304688 C 320.472656 368.464844 320.078125 368.582031 319.675781 368.664062 C 319.269531 368.746094 318.863281 368.785156 318.449219 368.785156 L 218.664062 368.785156 L 218.664062 197.503906 L 324.734375 197.503906 Z M 343.328125 184.9375 C 339.324219 184.960938 234.074219 184.921875 227.050781 184.9375 L 227.050781 118.507812 L 337.046875 118.507812 C 337.460938 118.507812 337.867188 118.550781 338.273438 118.628906 C 338.675781 118.710938 339.070312 118.832031 339.449219 118.988281 C 339.832031 119.148438 340.191406 119.339844 340.535156 119.570312 C 340.878906 119.800781 341.195312 120.058594 341.488281 120.351562 C 341.777344 120.644531 342.039062 120.960938 342.269531 121.300781 C 342.496094 121.644531 342.691406 122.007812 342.847656 122.386719 C 343.007812 122.769531 343.125 123.160156 343.207031 123.566406 C 343.289062 123.96875 343.328125 124.378906 343.328125 124.792969 Z M 343.328125 184.9375 " fill-opacity="1" fill-rule="nonzero"/></svg>