<?xml version="1.0" encoding="iso-8859-1"?>
<!-- Uploaded to: SVG Repo, www.svgrepo.com, Generator: SVG Repo Mixer Tools -->
<svg fill="#000000" height="800px" width="800px" version="1.1" id="Layer_1" xmlns="http://www.w3.org/2000/svg" xmlns:xlink="http://www.w3.org/1999/xlink" 
	 viewBox="0 0 512.001 512.001" xml:space="preserve">
<g>
	<g>
		<path d="M418.136,143.295c3.095-6.364,4.835-13.504,4.835-21.043c0-26.62-21.657-48.278-48.278-48.278
			c-1.041,0-2.08,0.033-3.11,0.099c-4.023-13.887-14.485-25.062-27.928-30.068C341.486,19.379,320.745,0,295.564,0
			C279.216,0,264.738,8.17,256,20.64C247.262,8.17,232.784,0,216.436,0c-25.181,0-45.921,19.379-48.091,44.006
			c-13.442,5.006-23.905,16.181-27.928,30.068c-1.032-0.067-2.069-0.099-3.11-0.099c-26.62,0-48.278,21.657-48.278,48.278
			c0,7.539,1.74,14.679,4.835,21.043c-2.977,2.882-4.835,6.912-4.835,11.384v44.685c0,8.754,7.097,15.852,15.852,15.852h0.355
			l41.647,283.24c1.144,7.78,7.819,13.546,15.683,13.546h186.87c7.864,0,14.539-5.766,15.684-13.546l41.647-283.24h0.355
			c8.754,0,15.852-7.097,15.852-15.852v-44.685C422.971,150.208,421.113,146.176,418.136,143.295z M196.987,480.297h-20.731
			l-38.977-265.082h59.708V480.297z M283.309,480.297H228.69V215.215h54.619V480.297z M335.742,480.297h-20.73V215.215h59.707
			L335.742,480.297z M391.267,183.511H120.731V170.53h270.536V183.511z M374.694,138.828H137.306
			c-9.139,0-16.575-7.435-16.575-16.575s7.435-16.576,16.575-16.576c3.404,0,6.674,1.027,9.457,2.97
			c5.562,3.883,12.976,3.797,18.445-0.215c5.47-4.009,7.782-11.055,5.753-17.527c-0.42-1.339-0.633-2.739-0.633-4.163
			c0-7.654,6.228-13.882,13.844-13.882l0.504,0.017c5.067,0.181,9.881-2.074,13.004-6.05c3.123-3.974,4.163-9.198,2.8-14.066
			c-0.411-1.47-0.619-2.978-0.619-4.485c0-9.138,7.435-16.575,16.575-16.575c8.057,0,14.782,5.782,16.264,13.412
			c-14.877,8.234-24.977,24.09-24.977,42.265c0,8.754,7.097,15.852,15.852,15.852c8.754,0,15.852-7.097,15.852-15.852
			c0-9.139,7.436-16.575,16.575-16.575c9.139,0,16.575,7.434,16.575,16.575c0,8.754,7.097,15.852,15.852,15.852
			s15.852-7.097,15.852-15.852c0-18.176-10.099-34.03-24.977-42.265c1.482-7.63,8.206-13.412,16.264-13.412
			c9.139,0,16.576,7.436,16.576,16.575c0,1.505-0.208,3.014-0.621,4.485c-1.361,4.866-0.322,10.091,2.8,14.066
			c3.122,3.975,7.961,6.217,13.003,6.05l0.467-0.017c7.654,0,13.882,6.228,13.882,13.882c0,1.425-0.212,2.824-0.633,4.162
			c-2.03,6.471,0.282,13.517,5.751,17.528c5.468,4.013,12.884,4.097,18.446,0.217c2.784-1.943,6.054-2.971,9.458-2.971
			c9.139,0,16.575,7.435,16.575,16.575C391.268,131.393,383.834,138.828,374.694,138.828z"/>
	</g>
</g>
</svg>