<?xml version="1.0" encoding="iso-8859-1"?>
<!-- Uploaded to: SVG Repo, www.svgrepo.com, Generator: SVG Repo Mixer Tools -->
<svg fill="#000000" height="800px" width="800px" version="1.1" id="Capa_1" xmlns="http://www.w3.org/2000/svg" xmlns:xlink="http://www.w3.org/1999/xlink" 
	 viewBox="0 0 490.1 490.1" xml:space="preserve">
<g>
	<g>
		<circle cx="240.8" cy="255.556" r="20.9"/>
		<circle cx="240.8" cy="366.156" r="20.9"/>
		<path d="M397.6,68.456c-1.2-1.5-33.7-48.4-34.8-50.5c-5.2-10.4-16.7-14.6-27.1-10.4c-4.2,1-76.1,68-90.8,80.8
			c-14.3-11.8-88.5-79.8-92.7-81.8c-10.4-4.2-22.9,0-27.1,10.4c-1,2.1-34.6,50.6-36,53c-50.2,6.4-89.1,49.4-89.1,101.3v293
			c0,11.5,9.4,20.9,20.9,20.9h448.3c11.5,0,20.9-9.4,20.9-20.9v-294C490,117.156,449.3,73.456,397.6,68.456z M337.8,57.556
			c6.3,10.4,13.6,20.9,20.9,28.1c-2.1,3.1-32.3,48-43.8,67.8c-11.5-14.6-24-28.1-36.5-40.7C291.9,101.356,334.7,59.656,337.8,57.556
			z M150.1,58.656c3.1,2.1,45.9,42.7,59.4,54.2c-13.6,12.5-25,26.1-36.5,40.7c-11.5-19.8-41.7-63.6-43.8-66.7
			C135.5,79.456,143.9,69.056,150.1,58.656z M449.3,445.356H40.7v-273.1c0-31.3,23.8-58,55.1-61.2c2.5,4,42.9,62.2,56.4,91.4
			c3.1,6.3,9.4,11.5,16.7,11.5c0,0,11.6,1.3,18.8-11.5c16.7-24.6,34.9-47,55.2-65.9c21.4,19.3,41,42.5,57.4,68
			c3.1,6.3,9.4,9.4,16.7,9.4c9,0,15.6-6.3,18.8-12.5c13.6-29.2,53.9-87.8,56.4-91.6c31.5,2.2,57.2,28.4,57.2,61.3v274.2H449.3z"/>
	</g>
</g>
</svg>