<svg xmlns="http://www.w3.org/2000/svg" xmlns:xlink="http://www.w3.org/1999/xlink" width="500" zoomAndPan="magnify" viewBox="0 0 375 374.999991" height="500" preserveAspectRatio="xMidYMid meet" version="1.0"><path fill="#ff5252" d="M 344.058594 227.441406 C 352.96875 179.570312 363.304688 131.964844 372.316406 84.125 C 375.007812 69.699219 366.863281 51.25 351.105469 48.957031 C 344.15625 47.027344 336.011719 54.4375 338.871094 61.523438 C 339.765625 67.472656 346.550781 68.140625 351.105469 69.667969 C 352.503906 73.523438 355.0625 77.511719 353.433594 81.800781 C 352.429688 86.933594 351.382812 92.066406 350.371094 97.199219 L 118.347656 97.199219 C 113.757812 97.199219 110.035156 100.917969 110.035156 105.511719 C 110.035156 110.101562 113.757812 113.820312 118.347656 113.820312 L 347.066406 113.820312 C 340.859375 144.960938 334.582031 176.09375 328.46875 207.261719 C 327.105469 213.746094 326.140625 220.425781 323.414062 226.546875 C 318.527344 228.441406 313.074219 227.476562 307.988281 227.742188 C 247.652344 227.574219 187.3125 227.710938 127.011719 227.675781 C 111.683594 162.316406 96.558594 96.925781 81.199219 31.566406 C 79.238281 19.234375 68.699219 7.867188 55.605469 8.328125 C 39.945312 8.398438 24.25 7.664062 8.628906 8.761719 C 0.0195312 11.71875 0.0195312 24.453125 8.464844 27.679688 C 24.949219 29.242188 41.609375 27.25 58.097656 28.640625 C 62.050781 30.566406 61.320312 36.058594 62.847656 39.644531 C 80.871094 117.339844 99.050781 194.996094 117.402344 272.652344 C 119.761719 285.316406 131.828125 295.425781 144.929688 294.160156 C 209.355469 294.0625 273.78125 294.394531 338.171875 293.996094 C 350.46875 294.394531 350.539062 274.082031 338.238281 274.382812 C 280.460938 273.980469 222.652344 274.28125 164.875 274.214844 C 156.195312 274.011719 147.386719 275.011719 138.8125 273.285156 C 134.992188 265.207031 133.960938 256.164062 131.667969 247.621094 C 193.769531 247.621094 255.863281 247.652344 317.964844 247.621094 C 330.03125 248.652344 342.261719 239.507812 344.058594 227.441406 Z M 344.058594 227.441406 " fill-opacity="1" fill-rule="nonzero"/><path fill="#ff5252" d="M 152.042969 301.507812 C 140.671875 303.734375 131.230469 313.210938 129.035156 324.578125 C 125.3125 340.238281 136.484375 357.324219 152.375 360.015625 C 168.832031 363.808594 186.484375 351.105469 187.878906 334.25 C 191.003906 314.738281 171.191406 296.621094 152.042969 301.507812 Z M 166.46875 336.183594 C 163.28125 341.433594 155.164062 342.464844 151.140625 337.578125 C 145.621094 332.691406 148.648438 322.921875 155.527344 321.191406 C 163.710938 318.0625 172.253906 329.300781 166.46875 336.183594 Z M 166.46875 336.183594 " fill-opacity="1" fill-rule="nonzero"/><path fill="#ff5252" d="M 298.617188 301.441406 C 276.839844 304.765625 266.898438 334.253906 281.859375 350.246094 C 295.359375 367.332031 325.910156 362.046875 332.558594 341.167969 C 341.332031 320.390625 320.519531 295.921875 298.617188 301.441406 Z M 309.949219 338.972656 C 299.746094 346.917969 287.84375 328.796875 299.082031 322.484375 C 309.289062 314.507812 321.253906 332.65625 309.949219 338.972656 Z M 309.949219 338.972656 " fill-opacity="1" fill-rule="nonzero"/></svg>