<svg xmlns="http://www.w3.org/2000/svg" xmlns:xlink="http://www.w3.org/1999/xlink" width="500" zoomAndPan="magnify" viewBox="0 0 375 374.999991" height="500" preserveAspectRatio="xMidYMid meet" version="1.0"><defs><clipPath id="c3925dc382"><path d="M 10 63 L 370 63 L 370 321 L 10 321 Z M 10 63 " clip-rule="nonzero"/></clipPath><clipPath id="375e78aa40"><path d="M -8.75 199.308594 L 287.246094 -28.484375 L 422.640625 147.445312 L 126.648438 375.238281 Z M -8.75 199.308594 " clip-rule="nonzero"/></clipPath><clipPath id="56b2d05c52"><path d="M -8.75 199.308594 L 287.246094 -28.484375 L 422.640625 147.445312 L 126.648438 375.238281 Z M -8.75 199.308594 " clip-rule="nonzero"/></clipPath></defs><g clip-path="url(#c3925dc382)"><g clip-path="url(#375e78aa40)"><g clip-path="url(#56b2d05c52)"><path fill="#ff5252" d="M 204.355469 176.050781 C 206.234375 178.488281 205.777344 181.992188 203.335938 183.871094 L 189.601562 194.441406 C 187.160156 196.320312 183.660156 195.863281 181.78125 193.421875 C 179.902344 190.980469 180.355469 187.476562 182.796875 185.597656 L 196.53125 175.027344 C 198.972656 173.148438 202.476562 173.609375 204.355469 176.050781 Z M 237.554688 150.5 C 239.433594 152.941406 238.976562 156.441406 236.535156 158.320312 L 222.800781 168.890625 C 220.359375 170.769531 216.859375 170.3125 214.980469 167.871094 C 213.101562 165.429688 213.554688 161.925781 215.996094 160.046875 L 229.730469 149.476562 C 232.171875 147.597656 235.675781 148.058594 237.554688 150.5 Z M 270.753906 124.949219 C 272.632812 127.390625 272.171875 130.894531 269.734375 132.769531 L 256 143.339844 C 253.558594 145.21875 250.058594 144.761719 248.179688 142.320312 C 246.304688 139.878906 246.753906 136.375 249.195312 134.496094 L 262.929688 123.925781 C 265.367188 122.050781 268.875 122.507812 270.753906 124.949219 Z M 357.972656 92.699219 C 358.113281 84.257812 351.144531 78.308594 343.359375 76.109375 L 289.570312 117.503906 C 287.128906 119.382812 283.628906 118.929688 281.75 116.488281 C 279.871094 114.046875 280.324219 110.542969 282.765625 108.664062 L 325.558594 75.730469 C 308.625 78.625 290.507812 88.785156 282.214844 94.570312 L 157.792969 190.320312 C 150.207031 196.160156 141.089844 198.21875 131.457031 196.257812 L 46.085938 178.875 C 40.898438 177.816406 36.425781 178.8125 32.410156 181.902344 L 25.582031 187.160156 L 84.140625 229.199219 C 86.03125 230.5625 86.878906 232.957031 86.261719 235.203125 L 79.390625 260.234375 L 89.613281 273.515625 L 92.265625 254.90625 C 92.472656 253.464844 93.230469 252.160156 94.390625 251.269531 L 130.722656 223.308594 C 135.078125 219.957031 141.160156 224.308594 139.402344 229.511719 L 129.242188 259.582031 L 172.320312 243.746094 L 202.855469 220.246094 L 203.535156 207.695312 C 203.628906 206.066406 204.421875 204.558594 205.707031 203.570312 L 270.589844 153.636719 C 271.550781 152.894531 272.699219 152.515625 273.859375 152.488281 L 276.910156 150.140625 C 279.351562 148.261719 282.855469 148.71875 284.730469 151.15625 L 287.671875 154.972656 L 350.597656 106.542969 C 355.132812 103.054688 357.890625 97.878906 357.972656 92.699219 Z M 300.019531 189.3125 C 289.765625 197.113281 279.507812 201.976562 269.402344 203.847656 L 278.617188 162.902344 L 279.292969 162.382812 Z M 244.800781 262.3125 C 243.4375 268.371094 240.570312 272.910156 235.777344 276.597656 L 209.90625 296.507812 L 214.539062 210.851562 L 265.164062 171.894531 Z M 106.730469 291.359375 C 105.824219 294.035156 104.441406 295.984375 102.257812 297.667969 L 96.855469 301.824219 L 102.988281 258.726562 L 122.953125 243.363281 Z M 110.078125 130.871094 L 123.324219 120.679688 C 126.925781 117.910156 130.789062 116.757812 135.464844 117.078125 L 226.765625 123.160156 L 184.847656 155.421875 Z M 359.046875 71.90625 C 335.316406 52.398438 294.855469 72.289062 275.710938 85.503906 C 275.644531 85.550781 275.570312 85.601562 275.507812 85.648438 L 240.140625 112.867188 L 136.210938 105.941406 C 128.867188 105.453125 122.242188 107.4375 116.519531 111.84375 L 94.925781 128.460938 C 91.386719 131.183594 92.339844 136.792969 96.585938 138.179688 L 174.160156 163.648438 L 150.988281 181.480469 C 145.96875 185.34375 140.144531 186.640625 133.679688 185.320312 L 48.308594 167.945312 C 40.003906 166.253906 32.152344 168.027344 25.609375 173.0625 L 12.832031 182.894531 C 9.867188 185.179688 9.964844 189.675781 12.980469 191.84375 L 74.480469 235.996094 L 67.898438 259.960938 C 67.441406 261.644531 67.792969 263.453125 68.859375 264.835938 L 83.648438 284.054688 C 84.671875 285.386719 86.210938 286.132812 87.808594 286.210938 L 83.878906 313.8125 C 83.179688 318.738281 88.84375 322.066406 92.804688 319.015625 L 109.0625 306.503906 C 112.988281 303.480469 115.6875 299.691406 117.304688 294.925781 L 124.664062 273.144531 L 176.972656 253.921875 C 177.503906 253.722656 178 253.449219 178.449219 253.105469 L 202.0625 234.933594 L 198.113281 308.035156 C 197.863281 312.777344 203.308594 315.660156 207.078125 312.757812 L 242.582031 285.433594 C 249.460938 280.140625 253.746094 273.382812 255.683594 264.757812 L 266.777344 215.496094 C 282.359375 213.78125 297.304688 206.296875 311.363281 194.523438 C 313.652344 192.601562 314.023438 189.214844 312.203125 186.847656 L 294.472656 163.8125 L 357.402344 115.382812 C 371.769531 104.324219 373.621094 83.871094 359.046875 71.90625 Z M 359.046875 71.90625 " fill-opacity="1" fill-rule="evenodd"/></g></g></g></svg>