<svg xmlns="http://www.w3.org/2000/svg" xmlns:xlink="http://www.w3.org/1999/xlink" width="500" zoomAndPan="magnify" viewBox="0 0 375 374.999991" height="500" preserveAspectRatio="xMidYMid meet" version="1.0"><path fill="#42a5f5" d="M 345.589844 73.53125 L 272.058594 73.53125 L 272.058594 29.410156 C 272.058594 13.195312 258.863281 0 242.648438 0 L 132.351562 0 C 116.136719 0 102.941406 13.195312 102.941406 29.410156 L 102.941406 73.53125 L 29.410156 73.53125 C 13.195312 73.53125 0 86.722656 0 102.941406 C 0 115.71875 0 334.796875 0 345.589844 C 0 361.804688 13.195312 375 29.410156 375 L 345.589844 375 C 361.804688 375 375 361.804688 375 345.589844 C 375 334.847656 375 115.710938 375 102.941406 C 375 86.722656 361.804688 73.53125 345.589844 73.53125 Z M 117.648438 29.410156 C 117.648438 21.304688 124.242188 14.707031 132.351562 14.707031 L 242.648438 14.707031 C 250.757812 14.707031 257.351562 21.304688 257.351562 29.410156 L 257.351562 73.53125 L 242.648438 73.53125 L 242.648438 58.824219 C 242.648438 42.605469 229.453125 29.410156 213.234375 29.410156 L 161.765625 29.410156 C 145.546875 29.410156 132.351562 42.605469 132.351562 58.824219 L 132.351562 73.53125 L 117.648438 73.53125 Z M 227.941406 73.53125 L 147.058594 73.53125 L 147.058594 58.824219 C 147.058594 50.714844 153.65625 44.117188 161.765625 44.117188 L 213.234375 44.117188 C 221.34375 44.117188 227.941406 50.714844 227.941406 58.824219 Z M 29.410156 88.234375 C 62.890625 88.234375 313.804688 88.234375 345.589844 88.234375 C 353.695312 88.234375 360.292969 94.832031 360.292969 102.941406 L 360.292969 198.53125 C 360.292969 206.636719 353.695312 213.234375 345.589844 213.234375 L 220.589844 213.234375 L 220.589844 191.175781 C 220.589844 187.117188 217.296875 183.824219 213.234375 183.824219 L 161.765625 183.824219 C 157.703125 183.824219 154.410156 187.117188 154.410156 191.175781 L 154.410156 213.234375 L 29.410156 213.234375 C 21.304688 213.234375 14.707031 206.636719 14.707031 198.53125 L 14.707031 102.941406 C 14.707031 94.832031 21.304688 88.234375 29.410156 88.234375 Z M 169.117188 198.53125 L 205.882812 198.53125 L 205.882812 224.265625 C 205.882812 234.402344 197.636719 242.648438 187.5 242.648438 C 177.363281 242.648438 169.117188 234.402344 169.117188 224.265625 Z M 345.589844 360.292969 L 29.410156 360.292969 C 21.304688 360.292969 14.707031 353.695312 14.707031 345.589844 L 14.707031 223.984375 C 19.035156 226.496094 24.054688 227.941406 29.410156 227.941406 L 154.621094 227.941406 C 156.457031 244.460938 170.496094 257.351562 187.5 257.351562 C 204.503906 257.351562 218.542969 244.460938 220.378906 227.941406 L 345.589844 227.941406 C 350.941406 227.941406 355.964844 226.496094 360.292969 223.984375 L 360.292969 345.589844 C 360.292969 353.695312 353.695312 360.292969 345.589844 360.292969 Z M 345.589844 360.292969 " fill-opacity="1" fill-rule="nonzero"/></svg>